G04 Layer_Color=65535*
%FSAX24Y24*%
%MOIN*%
G70*
G01*
G75*
%ADD11C,0.0100*%
%ADD17C,0.0079*%
%ADD18C,0.0080*%
D11*
X013593Y047910D02*
X013260D01*
Y047410D01*
X013593D01*
X013260Y047660D02*
X013427D01*
X014093Y047827D02*
X014010Y047910D01*
X013843D01*
X013760Y047827D01*
Y047743D01*
X013843Y047660D01*
X014010D01*
X014093Y047577D01*
Y047493D01*
X014010Y047410D01*
X013843D01*
X013760Y047493D01*
X014593Y047827D02*
X014510Y047910D01*
X014343D01*
X014260Y047827D01*
Y047493D01*
X014343Y047410D01*
X014510D01*
X014593Y047493D01*
X014760Y047410D02*
X014926D01*
X014843D01*
Y047910D01*
X014760Y047827D01*
X013593Y042810D02*
X013260D01*
Y042310D01*
X013593D01*
X013260Y042560D02*
X013427D01*
X014093Y042727D02*
X014010Y042810D01*
X013843D01*
X013760Y042727D01*
Y042643D01*
X013843Y042560D01*
X014010D01*
X014093Y042477D01*
Y042393D01*
X014010Y042310D01*
X013843D01*
X013760Y042393D01*
X014593Y042727D02*
X014510Y042810D01*
X014343D01*
X014260Y042727D01*
Y042393D01*
X014343Y042310D01*
X014510D01*
X014593Y042393D01*
X015093Y042310D02*
X014760D01*
X015093Y042643D01*
Y042727D01*
X015009Y042810D01*
X014843D01*
X014760Y042727D01*
X013260Y037240D02*
Y037740D01*
X013510D01*
X013593Y037657D01*
Y037490D01*
X013510Y037407D01*
X013260D01*
X013427D02*
X013593Y037240D01*
X014093Y037657D02*
X014010Y037740D01*
X013843D01*
X013760Y037657D01*
Y037323D01*
X013843Y037240D01*
X014010D01*
X014093Y037323D01*
X014260Y037740D02*
Y037407D01*
X014426Y037240D01*
X014593Y037407D01*
Y037740D01*
X015465Y047895D02*
Y047395D01*
X015565Y047295D01*
X015765D01*
X015865Y047395D01*
Y047895D01*
X016065Y047295D02*
X016265D01*
X016165D01*
Y047895D01*
X016065Y047795D01*
X020717Y047567D02*
X020650Y047500D01*
Y047367D01*
X020717Y047300D01*
X020983D01*
X021050Y047367D01*
Y047500D01*
X020983Y047567D01*
X021050Y047700D02*
Y047833D01*
Y047767D01*
X020650D01*
X020717Y047700D01*
X019517Y047467D02*
X019450Y047400D01*
Y047267D01*
X019517Y047200D01*
X019783D01*
X019850Y047267D01*
Y047400D01*
X019783Y047467D01*
X019850Y047866D02*
Y047600D01*
X019583Y047866D01*
X019517D01*
X019450Y047800D01*
Y047667D01*
X019517Y047600D01*
D17*
X013200Y036900D02*
X014200D01*
Y032900D02*
Y036900D01*
X013200Y032900D02*
Y036900D01*
Y032900D02*
X014200D01*
X020162Y047480D02*
Y047520D01*
X020438Y047480D02*
Y047520D01*
X018962Y047480D02*
Y047520D01*
X019238Y047480D02*
Y047520D01*
D18*
X013200Y038051D02*
X014978D01*
X013200D02*
Y041968D01*
X014978Y040394D02*
Y041968D01*
Y038051D02*
Y039606D01*
X014782D02*
Y040394D01*
X014978D01*
X014782Y039606D02*
X014978D01*
X013200Y041968D02*
X014978D01*
X018400Y046450D02*
X019400D01*
Y046950D01*
X022400D01*
Y032950D02*
Y046950D01*
X015400Y032950D02*
X022400D01*
X015400D02*
Y046950D01*
X018400D01*
Y046450D02*
Y046950D01*
X013200Y043151D02*
X014978D01*
X013200D02*
Y047069D01*
X014978Y045494D02*
Y047069D01*
Y043151D02*
Y044706D01*
X014782D02*
Y045494D01*
X014978D01*
X014782Y044706D02*
X014978D01*
X013200Y047069D02*
X014978D01*
M02*
