G04 Layer_Physical_Order=2*
G04 Layer_Color=16711680*
%FSAX24Y24*%
%MOIN*%
G70*
G01*
G75*
%ADD11C,0.0100*%
%ADD12R,0.0591X0.0591*%
%ADD13C,0.0591*%
%ADD14C,0.0630*%
%ADD15C,0.0570*%
%ADD16C,0.0500*%
G36*
X022458Y046941D02*
Y032959D01*
X022341Y032842D01*
X013259D01*
X013142Y032959D01*
Y047841D01*
X013259Y047958D01*
X021441D01*
X022458Y046941D01*
D02*
G37*
%LPC*%
G36*
X013750Y036792D02*
Y036450D01*
X014092D01*
X014085Y036503D01*
X014045Y036599D01*
X013982Y036682D01*
X013899Y036745D01*
X013803Y036785D01*
X013750Y036792D01*
D02*
G37*
G36*
X015900Y037838D02*
X015799Y037825D01*
X015706Y037786D01*
X015625Y037725D01*
X015564Y037644D01*
X015525Y037550D01*
X015512Y037450D01*
X015525Y037350D01*
X015564Y037256D01*
X015625Y037175D01*
X015706Y037114D01*
X015799Y037075D01*
X015900Y037062D01*
X016001Y037075D01*
X016094Y037114D01*
X016175Y037175D01*
X016236Y037256D01*
X016275Y037350D01*
X016288Y037450D01*
X016275Y037550D01*
X016236Y037644D01*
X016175Y037725D01*
X016094Y037786D01*
X016001Y037825D01*
X015900Y037838D01*
D02*
G37*
G36*
X021900D02*
X021799Y037825D01*
X021706Y037786D01*
X021625Y037725D01*
X021564Y037644D01*
X021525Y037550D01*
X021512Y037450D01*
X021525Y037350D01*
X021564Y037256D01*
X021625Y037175D01*
X021706Y037114D01*
X021799Y037075D01*
X021900Y037062D01*
X022001Y037075D01*
X022094Y037114D01*
X022175Y037175D01*
X022236Y037256D01*
X022275Y037350D01*
X022288Y037450D01*
X022275Y037550D01*
X022236Y037644D01*
X022175Y037725D01*
X022094Y037786D01*
X022001Y037825D01*
X021900Y037838D01*
D02*
G37*
G36*
X013650Y036792D02*
X013597Y036785D01*
X013501Y036745D01*
X013418Y036682D01*
X013355Y036599D01*
X013315Y036503D01*
X013308Y036450D01*
X013650D01*
Y036792D01*
D02*
G37*
G36*
X014092Y036350D02*
X013750D01*
Y036008D01*
X013803Y036015D01*
X013899Y036055D01*
X013982Y036118D01*
X014045Y036201D01*
X014085Y036297D01*
X014092Y036350D01*
D02*
G37*
G36*
X015900Y036838D02*
X015799Y036825D01*
X015706Y036786D01*
X015625Y036725D01*
X015564Y036644D01*
X015525Y036551D01*
X015512Y036450D01*
X015525Y036349D01*
X015564Y036256D01*
X015625Y036175D01*
X015706Y036114D01*
X015799Y036075D01*
X015900Y036062D01*
X016001Y036075D01*
X016094Y036114D01*
X016175Y036175D01*
X016236Y036256D01*
X016275Y036349D01*
X016288Y036450D01*
X016275Y036551D01*
X016236Y036644D01*
X016175Y036725D01*
X016094Y036786D01*
X016001Y036825D01*
X015900Y036838D01*
D02*
G37*
G36*
X021900D02*
X021799Y036825D01*
X021706Y036786D01*
X021625Y036725D01*
X021564Y036644D01*
X021525Y036551D01*
X021512Y036450D01*
X021525Y036349D01*
X021564Y036256D01*
X021625Y036175D01*
X021706Y036114D01*
X021799Y036075D01*
X021900Y036062D01*
X022001Y036075D01*
X022094Y036114D01*
X022175Y036175D01*
X022236Y036256D01*
X022275Y036349D01*
X022288Y036450D01*
X022275Y036551D01*
X022236Y036644D01*
X022175Y036725D01*
X022094Y036786D01*
X022001Y036825D01*
X021900Y036838D01*
D02*
G37*
G36*
X021050Y039246D02*
Y038950D01*
X021346D01*
X021341Y038991D01*
X021306Y039077D01*
X021250Y039150D01*
X021177Y039206D01*
X021091Y039241D01*
X021050Y039246D01*
D02*
G37*
G36*
X021900Y039838D02*
X021799Y039825D01*
X021706Y039786D01*
X021625Y039725D01*
X021564Y039644D01*
X021525Y039550D01*
X021512Y039450D01*
X021525Y039350D01*
X021564Y039256D01*
X021625Y039175D01*
X021706Y039114D01*
X021799Y039075D01*
X021900Y039062D01*
X022001Y039075D01*
X022094Y039114D01*
X022175Y039175D01*
X022236Y039256D01*
X022275Y039350D01*
X022288Y039450D01*
X022275Y039550D01*
X022236Y039644D01*
X022175Y039725D01*
X022094Y039786D01*
X022001Y039825D01*
X021900Y039838D01*
D02*
G37*
G36*
X018250Y039950D02*
X017954D01*
X017959Y039909D01*
X017994Y039823D01*
X018050Y039750D01*
X018123Y039694D01*
X018209Y039659D01*
X018250Y039654D01*
Y039950D01*
D02*
G37*
G36*
X020950Y039246D02*
X020909Y039241D01*
X020823Y039206D01*
X020750Y039150D01*
X020694Y039077D01*
X020659Y038991D01*
X020654Y038950D01*
X020950D01*
Y039246D01*
D02*
G37*
G36*
X015900Y038838D02*
X015799Y038825D01*
X015706Y038786D01*
X015625Y038725D01*
X015564Y038644D01*
X015525Y038551D01*
X015512Y038450D01*
X015525Y038349D01*
X015564Y038256D01*
X015625Y038175D01*
X015706Y038114D01*
X015799Y038075D01*
X015900Y038062D01*
X016001Y038075D01*
X016094Y038114D01*
X016175Y038175D01*
X016236Y038256D01*
X016275Y038349D01*
X016288Y038450D01*
X016275Y038551D01*
X016236Y038644D01*
X016175Y038725D01*
X016094Y038786D01*
X016001Y038825D01*
X015900Y038838D01*
D02*
G37*
G36*
X021346Y038850D02*
X020654D01*
X020659Y038809D01*
X020694Y038723D01*
X020748Y038653D01*
X020746Y038636D01*
X020734Y038603D01*
X019650D01*
X019591Y038591D01*
X019542Y038558D01*
X016322Y035338D01*
X016277Y035364D01*
X016288Y035450D01*
X016275Y035550D01*
X016236Y035644D01*
X016175Y035725D01*
X016094Y035786D01*
X016001Y035825D01*
X015900Y035838D01*
X015799Y035825D01*
X015706Y035786D01*
X015625Y035725D01*
X015564Y035644D01*
X015525Y035550D01*
X015512Y035450D01*
X015525Y035350D01*
X015564Y035256D01*
X015625Y035175D01*
X015706Y035114D01*
X015732Y035103D01*
X015722Y035053D01*
X015480D01*
X015421Y035041D01*
X015372Y035008D01*
X014917Y034553D01*
X014064D01*
X014045Y034599D01*
X013982Y034682D01*
X013899Y034745D01*
X013803Y034785D01*
X013700Y034799D01*
X013597Y034785D01*
X013501Y034745D01*
X013418Y034682D01*
X013355Y034599D01*
X013315Y034503D01*
X013301Y034400D01*
X013315Y034297D01*
X013355Y034201D01*
X013418Y034118D01*
X013501Y034055D01*
X013597Y034015D01*
X013700Y034001D01*
X013803Y034015D01*
X013899Y034055D01*
X013982Y034118D01*
X014045Y034201D01*
X014064Y034247D01*
X014980D01*
X015039Y034259D01*
X015088Y034292D01*
X015534Y034738D01*
X015575Y034733D01*
X015596Y034686D01*
X015564Y034644D01*
X015525Y034550D01*
X015512Y034450D01*
X015525Y034350D01*
X015564Y034256D01*
X015625Y034175D01*
X015706Y034114D01*
X015799Y034075D01*
X015900Y034062D01*
X016001Y034075D01*
X016094Y034114D01*
X016175Y034175D01*
X016236Y034256D01*
X016275Y034350D01*
X016288Y034450D01*
X016275Y034550D01*
X016236Y034644D01*
X016181Y034716D01*
X016181Y034753D01*
X016187Y034778D01*
X016208Y034792D01*
X019713Y038297D01*
X021547D01*
X021564Y038256D01*
X021625Y038175D01*
X021706Y038114D01*
X021799Y038075D01*
X021900Y038062D01*
X022001Y038075D01*
X022094Y038114D01*
X022175Y038175D01*
X022236Y038256D01*
X022275Y038349D01*
X022288Y038450D01*
X022275Y038551D01*
X022236Y038644D01*
X022175Y038725D01*
X022094Y038786D01*
X022001Y038825D01*
X021900Y038838D01*
X021799Y038825D01*
X021706Y038786D01*
X021625Y038725D01*
X021564Y038644D01*
X021547Y038603D01*
X021266D01*
X021254Y038636D01*
X021252Y038653D01*
X021306Y038723D01*
X021341Y038809D01*
X021346Y038850D01*
D02*
G37*
G36*
X014300Y041602D02*
X014192Y041588D01*
X014091Y041546D01*
X014004Y041480D01*
X013937Y041393D01*
X013896Y041292D01*
X013881Y041184D01*
X013896Y041075D01*
X013937Y040974D01*
X014004Y040888D01*
X014091Y040821D01*
X014109Y040814D01*
Y040764D01*
X014091Y040756D01*
X014004Y040690D01*
X013937Y040603D01*
X013896Y040502D01*
X013881Y040394D01*
X013896Y040285D01*
X013937Y040184D01*
X014004Y040098D01*
X014091Y040031D01*
X014106Y040025D01*
Y039975D01*
X014091Y039969D01*
X014004Y039902D01*
X013937Y039816D01*
X013896Y039715D01*
X013881Y039606D01*
X013896Y039498D01*
X013937Y039397D01*
X014004Y039310D01*
X014091Y039244D01*
X014106Y039238D01*
Y039188D01*
X014091Y039181D01*
X014004Y039115D01*
X013937Y039028D01*
X013896Y038927D01*
X013881Y038819D01*
X013896Y038711D01*
X013937Y038610D01*
X014004Y038523D01*
X014091Y038456D01*
X014192Y038415D01*
X014300Y038400D01*
X014408Y038415D01*
X014509Y038456D01*
X014596Y038523D01*
X014662Y038610D01*
X014704Y038711D01*
X014719Y038819D01*
X014704Y038927D01*
X014662Y039028D01*
X014596Y039115D01*
X014509Y039181D01*
X014494Y039188D01*
Y039238D01*
X014509Y039244D01*
X014596Y039310D01*
X014662Y039397D01*
X014704Y039498D01*
X014719Y039606D01*
X014704Y039715D01*
X014662Y039816D01*
X014596Y039902D01*
X014509Y039969D01*
X014494Y039975D01*
Y040025D01*
X014509Y040031D01*
X014596Y040098D01*
X014662Y040184D01*
X014704Y040285D01*
X014719Y040394D01*
X014704Y040502D01*
X014662Y040603D01*
X014596Y040690D01*
X014509Y040756D01*
X014491Y040764D01*
Y040814D01*
X014509Y040821D01*
X014596Y040888D01*
X014662Y040974D01*
X014704Y041075D01*
X014719Y041184D01*
X014704Y041292D01*
X014662Y041393D01*
X014596Y041480D01*
X014509Y041546D01*
X014408Y041588D01*
X014300Y041602D01*
D02*
G37*
G36*
X013650Y036350D02*
X013308D01*
X013315Y036297D01*
X013355Y036201D01*
X013418Y036118D01*
X013501Y036055D01*
X013597Y036015D01*
X013650Y036008D01*
Y036350D01*
D02*
G37*
G36*
X018900Y033838D02*
X018799Y033825D01*
X018706Y033786D01*
X018625Y033725D01*
X018564Y033644D01*
X018525Y033551D01*
X018512Y033450D01*
X018525Y033349D01*
X018564Y033256D01*
X018625Y033175D01*
X018706Y033114D01*
X018799Y033075D01*
X018900Y033062D01*
X019001Y033075D01*
X019094Y033114D01*
X019175Y033175D01*
X019236Y033256D01*
X019275Y033349D01*
X019288Y033450D01*
X019275Y033551D01*
X019236Y033644D01*
X019175Y033725D01*
X019094Y033786D01*
X019001Y033825D01*
X018900Y033838D01*
D02*
G37*
G36*
X019900D02*
X019799Y033825D01*
X019706Y033786D01*
X019625Y033725D01*
X019564Y033644D01*
X019525Y033551D01*
X019512Y033450D01*
X019525Y033349D01*
X019564Y033256D01*
X019625Y033175D01*
X019706Y033114D01*
X019799Y033075D01*
X019900Y033062D01*
X020001Y033075D01*
X020094Y033114D01*
X020175Y033175D01*
X020236Y033256D01*
X020275Y033349D01*
X020288Y033450D01*
X020275Y033551D01*
X020236Y033644D01*
X020175Y033725D01*
X020094Y033786D01*
X020001Y033825D01*
X019900Y033838D01*
D02*
G37*
G36*
X020900D02*
X020800Y033825D01*
X020706Y033786D01*
X020625Y033725D01*
X020564Y033644D01*
X020525Y033551D01*
X020512Y033450D01*
X020525Y033349D01*
X020564Y033256D01*
X020625Y033175D01*
X020706Y033114D01*
X020800Y033075D01*
X020900Y033062D01*
X021000Y033075D01*
X021094Y033114D01*
X021175Y033175D01*
X021236Y033256D01*
X021275Y033349D01*
X021288Y033450D01*
X021275Y033551D01*
X021236Y033644D01*
X021175Y033725D01*
X021094Y033786D01*
X021000Y033825D01*
X020900Y033838D01*
D02*
G37*
G36*
X017900D02*
X017799Y033825D01*
X017706Y033786D01*
X017625Y033725D01*
X017564Y033644D01*
X017525Y033551D01*
X017512Y033450D01*
X017525Y033349D01*
X017564Y033256D01*
X017625Y033175D01*
X017706Y033114D01*
X017799Y033075D01*
X017900Y033062D01*
X018001Y033075D01*
X018094Y033114D01*
X018175Y033175D01*
X018236Y033256D01*
X018275Y033349D01*
X018288Y033450D01*
X018275Y033551D01*
X018236Y033644D01*
X018175Y033725D01*
X018094Y033786D01*
X018001Y033825D01*
X017900Y033838D01*
D02*
G37*
G36*
X014095Y033795D02*
X013305D01*
Y033005D01*
X014095D01*
Y033795D01*
D02*
G37*
G36*
X015900Y033838D02*
X015799Y033825D01*
X015706Y033786D01*
X015625Y033725D01*
X015564Y033644D01*
X015525Y033551D01*
X015512Y033450D01*
X015525Y033349D01*
X015564Y033256D01*
X015625Y033175D01*
X015706Y033114D01*
X015799Y033075D01*
X015900Y033062D01*
X016001Y033075D01*
X016094Y033114D01*
X016175Y033175D01*
X016236Y033256D01*
X016275Y033349D01*
X016288Y033450D01*
X016275Y033551D01*
X016236Y033644D01*
X016175Y033725D01*
X016094Y033786D01*
X016001Y033825D01*
X015900Y033838D01*
D02*
G37*
G36*
X016900D02*
X016799Y033825D01*
X016706Y033786D01*
X016625Y033725D01*
X016564Y033644D01*
X016525Y033551D01*
X016512Y033450D01*
X016525Y033349D01*
X016564Y033256D01*
X016625Y033175D01*
X016706Y033114D01*
X016799Y033075D01*
X016900Y033062D01*
X017001Y033075D01*
X017094Y033114D01*
X017175Y033175D01*
X017236Y033256D01*
X017275Y033349D01*
X017288Y033450D01*
X017275Y033551D01*
X017236Y033644D01*
X017175Y033725D01*
X017094Y033786D01*
X017001Y033825D01*
X016900Y033838D01*
D02*
G37*
G36*
X019796Y035850D02*
X019500D01*
Y035554D01*
X019541Y035559D01*
X019627Y035594D01*
X019700Y035650D01*
X019756Y035723D01*
X019791Y035809D01*
X019796Y035850D01*
D02*
G37*
G36*
X019400Y036246D02*
X019359Y036241D01*
X019273Y036206D01*
X019200Y036150D01*
X019144Y036077D01*
X019109Y035991D01*
X019104Y035950D01*
X019400D01*
Y036246D01*
D02*
G37*
G36*
X019500D02*
Y035950D01*
X019796D01*
X019791Y035991D01*
X019756Y036077D01*
X019700Y036150D01*
X019627Y036206D01*
X019541Y036241D01*
X019500Y036246D01*
D02*
G37*
G36*
X019400Y035850D02*
X019104D01*
X019109Y035809D01*
X019144Y035723D01*
X019200Y035650D01*
X019273Y035594D01*
X019359Y035559D01*
X019400Y035554D01*
Y035850D01*
D02*
G37*
G36*
X021900Y033838D02*
X021799Y033825D01*
X021706Y033786D01*
X021625Y033725D01*
X021564Y033644D01*
X021525Y033551D01*
X021512Y033450D01*
X021525Y033349D01*
X021564Y033256D01*
X021625Y033175D01*
X021706Y033114D01*
X021799Y033075D01*
X021900Y033062D01*
X022001Y033075D01*
X022094Y033114D01*
X022175Y033175D01*
X022236Y033256D01*
X022275Y033349D01*
X022288Y033450D01*
X022275Y033551D01*
X022236Y033644D01*
X022175Y033725D01*
X022094Y033786D01*
X022001Y033825D01*
X021900Y033838D01*
D02*
G37*
G36*
Y034838D02*
X021799Y034825D01*
X021706Y034786D01*
X021625Y034725D01*
X021564Y034644D01*
X021525Y034550D01*
X021512Y034450D01*
X021525Y034350D01*
X021564Y034256D01*
X021625Y034175D01*
X021706Y034114D01*
X021799Y034075D01*
X021900Y034062D01*
X022001Y034075D01*
X022094Y034114D01*
X022175Y034175D01*
X022236Y034256D01*
X022275Y034350D01*
X022288Y034450D01*
X022275Y034550D01*
X022236Y034644D01*
X022175Y034725D01*
X022094Y034786D01*
X022001Y034825D01*
X021900Y034838D01*
D02*
G37*
G36*
Y035838D02*
X021799Y035825D01*
X021706Y035786D01*
X021625Y035725D01*
X021564Y035644D01*
X021525Y035550D01*
X021512Y035450D01*
X021525Y035350D01*
X021564Y035256D01*
X021625Y035175D01*
X021706Y035114D01*
X021799Y035075D01*
X021900Y035062D01*
X022001Y035075D01*
X022094Y035114D01*
X022175Y035175D01*
X022236Y035256D01*
X022275Y035350D01*
X022288Y035450D01*
X022275Y035550D01*
X022236Y035644D01*
X022175Y035725D01*
X022094Y035786D01*
X022001Y035825D01*
X021900Y035838D01*
D02*
G37*
G36*
X018696Y045000D02*
X018400D01*
Y044704D01*
X018441Y044709D01*
X018527Y044744D01*
X018600Y044800D01*
X018656Y044873D01*
X018691Y044959D01*
X018696Y045000D01*
D02*
G37*
G36*
X015900Y045838D02*
X015799Y045825D01*
X015706Y045786D01*
X015625Y045725D01*
X015564Y045644D01*
X015525Y045551D01*
X015512Y045450D01*
X015525Y045349D01*
X015564Y045256D01*
X015625Y045175D01*
X015706Y045114D01*
X015799Y045075D01*
X015900Y045062D01*
X016001Y045075D01*
X016094Y045114D01*
X016175Y045175D01*
X016236Y045256D01*
X016275Y045349D01*
X016288Y045450D01*
X016275Y045551D01*
X016236Y045644D01*
X016175Y045725D01*
X016094Y045786D01*
X016001Y045825D01*
X015900Y045838D01*
D02*
G37*
G36*
X020900D02*
X020800Y045825D01*
X020706Y045786D01*
X020625Y045725D01*
X020564Y045644D01*
X020525Y045551D01*
X020512Y045450D01*
X020525Y045349D01*
X020564Y045256D01*
X020625Y045175D01*
X020706Y045114D01*
X020800Y045075D01*
X020900Y045062D01*
X021000Y045075D01*
X021094Y045114D01*
X021175Y045175D01*
X021236Y045256D01*
X021275Y045349D01*
X021288Y045450D01*
X021275Y045551D01*
X021236Y045644D01*
X021175Y045725D01*
X021094Y045786D01*
X021000Y045825D01*
X020900Y045838D01*
D02*
G37*
G36*
X018300Y045000D02*
X018004D01*
X018009Y044959D01*
X018044Y044873D01*
X018100Y044800D01*
X018173Y044744D01*
X018259Y044709D01*
X018300Y044704D01*
Y045000D01*
D02*
G37*
G36*
X014300Y046702D02*
X014192Y046688D01*
X014091Y046646D01*
X014004Y046580D01*
X013937Y046493D01*
X013896Y046392D01*
X013881Y046284D01*
X013896Y046175D01*
X013937Y046074D01*
X014004Y045988D01*
X014091Y045921D01*
X014109Y045914D01*
Y045864D01*
X014091Y045856D01*
X014004Y045790D01*
X013937Y045703D01*
X013896Y045602D01*
X013881Y045494D01*
X013896Y045385D01*
X013937Y045284D01*
X014004Y045198D01*
X014091Y045131D01*
X014106Y045125D01*
Y045075D01*
X014091Y045069D01*
X014004Y045002D01*
X013937Y044916D01*
X013896Y044815D01*
X013881Y044706D01*
X013896Y044598D01*
X013937Y044497D01*
X014004Y044410D01*
X014091Y044344D01*
X014106Y044338D01*
Y044288D01*
X014091Y044281D01*
X014004Y044215D01*
X013937Y044128D01*
X013896Y044027D01*
X013888Y043969D01*
X014300D01*
Y043919D01*
D01*
Y043969D01*
X014712D01*
X014704Y044027D01*
X014662Y044128D01*
X014596Y044215D01*
X014509Y044281D01*
X014494Y044288D01*
Y044338D01*
X014509Y044344D01*
X014596Y044410D01*
X014662Y044497D01*
X014704Y044598D01*
X014719Y044706D01*
X014704Y044815D01*
X014662Y044916D01*
X014596Y045002D01*
X014509Y045069D01*
X014494Y045075D01*
Y045125D01*
X014509Y045131D01*
X014596Y045198D01*
X014662Y045284D01*
X014704Y045385D01*
X014719Y045494D01*
X014704Y045602D01*
X014662Y045703D01*
X014596Y045790D01*
X014509Y045856D01*
X014491Y045864D01*
Y045914D01*
X014509Y045921D01*
X014596Y045988D01*
X014662Y046074D01*
X014704Y046175D01*
X014719Y046284D01*
X014704Y046392D01*
X014662Y046493D01*
X014596Y046580D01*
X014509Y046646D01*
X014408Y046688D01*
X014300Y046702D01*
D02*
G37*
G36*
X015900Y044838D02*
X015799Y044825D01*
X015706Y044786D01*
X015625Y044725D01*
X015564Y044644D01*
X015525Y044551D01*
X015512Y044450D01*
X015525Y044349D01*
X015564Y044256D01*
X015625Y044175D01*
X015706Y044114D01*
X015799Y044075D01*
X015900Y044062D01*
X016001Y044075D01*
X016094Y044114D01*
X016175Y044175D01*
X016236Y044256D01*
X016275Y044349D01*
X016288Y044450D01*
X016275Y044551D01*
X016236Y044644D01*
X016175Y044725D01*
X016094Y044786D01*
X016001Y044825D01*
X015900Y044838D01*
D02*
G37*
G36*
X021900D02*
X021799Y044825D01*
X021706Y044786D01*
X021625Y044725D01*
X021564Y044644D01*
X021547Y044603D01*
X020800D01*
X020741Y044591D01*
X020692Y044558D01*
X016237Y040103D01*
X016162D01*
X016145Y040153D01*
X016175Y040175D01*
X016236Y040256D01*
X016275Y040349D01*
X016288Y040450D01*
X016275Y040550D01*
X016236Y040644D01*
X016175Y040725D01*
X016094Y040786D01*
X016001Y040825D01*
X015900Y040838D01*
X015799Y040825D01*
X015706Y040786D01*
X015625Y040725D01*
X015564Y040644D01*
X015525Y040550D01*
X015512Y040450D01*
X015525Y040349D01*
X015564Y040256D01*
X015625Y040175D01*
X015655Y040153D01*
X015652Y040128D01*
X015640Y040101D01*
X015591Y040091D01*
X015542Y040058D01*
X014889Y039405D01*
X014856Y039356D01*
X014844Y039297D01*
Y036760D01*
X013850Y035766D01*
X013803Y035785D01*
X013700Y035799D01*
X013597Y035785D01*
X013501Y035745D01*
X013418Y035682D01*
X013355Y035599D01*
X013315Y035503D01*
X013301Y035400D01*
X013315Y035297D01*
X013355Y035201D01*
X013418Y035118D01*
X013501Y035055D01*
X013597Y035015D01*
X013700Y035001D01*
X013803Y035015D01*
X013899Y035055D01*
X013982Y035118D01*
X014045Y035201D01*
X014085Y035297D01*
X014099Y035400D01*
X014085Y035503D01*
X014066Y035550D01*
X015105Y036589D01*
X015138Y036639D01*
X015150Y036697D01*
Y039234D01*
X015478Y039562D01*
X015523Y039536D01*
X015512Y039450D01*
X015525Y039350D01*
X015564Y039256D01*
X015625Y039175D01*
X015706Y039114D01*
X015799Y039075D01*
X015900Y039062D01*
X016001Y039075D01*
X016094Y039114D01*
X016175Y039175D01*
X016236Y039256D01*
X016275Y039350D01*
X016288Y039450D01*
X016275Y039550D01*
X016236Y039644D01*
X016175Y039725D01*
X016145Y039747D01*
X016162Y039797D01*
X016300D01*
X016359Y039809D01*
X016408Y039842D01*
X020863Y044297D01*
X021547D01*
X021564Y044256D01*
X021625Y044175D01*
X021706Y044114D01*
X021799Y044075D01*
X021900Y044062D01*
X022001Y044075D01*
X022094Y044114D01*
X022175Y044175D01*
X022236Y044256D01*
X022275Y044349D01*
X022288Y044450D01*
X022275Y044551D01*
X022236Y044644D01*
X022175Y044725D01*
X022094Y044786D01*
X022001Y044825D01*
X021900Y044838D01*
D02*
G37*
G36*
Y045838D02*
X021799Y045825D01*
X021706Y045786D01*
X021625Y045725D01*
X021564Y045644D01*
X021525Y045551D01*
X021512Y045450D01*
X021525Y045349D01*
X021564Y045256D01*
X021625Y045175D01*
X021706Y045114D01*
X021799Y045075D01*
X021900Y045062D01*
X022001Y045075D01*
X022094Y045114D01*
X022175Y045175D01*
X022236Y045256D01*
X022275Y045349D01*
X022288Y045450D01*
X022275Y045551D01*
X022236Y045644D01*
X022175Y045725D01*
X022094Y045786D01*
X022001Y045825D01*
X021900Y045838D01*
D02*
G37*
G36*
X016282Y046400D02*
X015950D01*
Y046068D01*
X016001Y046075D01*
X016094Y046114D01*
X016175Y046175D01*
X016236Y046256D01*
X016275Y046349D01*
X016282Y046400D01*
D02*
G37*
G36*
X015850Y046832D02*
X015799Y046825D01*
X015706Y046786D01*
X015625Y046725D01*
X015564Y046644D01*
X015525Y046551D01*
X015518Y046500D01*
X015850D01*
Y046832D01*
D02*
G37*
G36*
X015950D02*
Y046500D01*
X016282D01*
X016275Y046551D01*
X016236Y046644D01*
X016175Y046725D01*
X016094Y046786D01*
X016001Y046825D01*
X015950Y046832D01*
D02*
G37*
G36*
X015850Y046400D02*
X015518D01*
X015525Y046349D01*
X015564Y046256D01*
X015625Y046175D01*
X015706Y046114D01*
X015799Y046075D01*
X015850Y046068D01*
Y046400D01*
D02*
G37*
G36*
X018300Y045396D02*
X018259Y045391D01*
X018173Y045356D01*
X018100Y045300D01*
X018044Y045227D01*
X018009Y045141D01*
X018004Y045100D01*
X018300D01*
Y045396D01*
D02*
G37*
G36*
X018400D02*
Y045100D01*
X018696D01*
X018691Y045141D01*
X018656Y045227D01*
X018600Y045300D01*
X018527Y045356D01*
X018441Y045391D01*
X018400Y045396D01*
D02*
G37*
G36*
X021900Y046838D02*
X021799Y046825D01*
X021706Y046786D01*
X021625Y046725D01*
X021564Y046644D01*
X021525Y046551D01*
X021512Y046450D01*
X021525Y046349D01*
X021564Y046256D01*
X021625Y046175D01*
X021706Y046114D01*
X021799Y046075D01*
X021900Y046062D01*
X022001Y046075D01*
X022094Y046114D01*
X022175Y046175D01*
X022236Y046256D01*
X022275Y046349D01*
X022288Y046450D01*
X022275Y046551D01*
X022236Y046644D01*
X022175Y046725D01*
X022094Y046786D01*
X022001Y046825D01*
X021900Y046838D01*
D02*
G37*
G36*
X015900Y041838D02*
X015799Y041825D01*
X015706Y041786D01*
X015625Y041725D01*
X015564Y041644D01*
X015525Y041551D01*
X015512Y041450D01*
X015525Y041349D01*
X015564Y041256D01*
X015625Y041175D01*
X015706Y041114D01*
X015799Y041075D01*
X015900Y041062D01*
X016001Y041075D01*
X016094Y041114D01*
X016175Y041175D01*
X016236Y041256D01*
X016275Y041349D01*
X016288Y041450D01*
X016275Y041551D01*
X016236Y041644D01*
X016175Y041725D01*
X016094Y041786D01*
X016001Y041825D01*
X015900Y041838D01*
D02*
G37*
G36*
X020900D02*
X020800Y041825D01*
X020706Y041786D01*
X020625Y041725D01*
X020564Y041644D01*
X020525Y041551D01*
X020512Y041450D01*
X020525Y041349D01*
X020564Y041256D01*
X020625Y041175D01*
X020706Y041114D01*
X020800Y041075D01*
X020900Y041062D01*
X021000Y041075D01*
X021094Y041114D01*
X021175Y041175D01*
X021236Y041256D01*
X021275Y041349D01*
X021288Y041450D01*
X021275Y041551D01*
X021236Y041644D01*
X021175Y041725D01*
X021094Y041786D01*
X021000Y041825D01*
X020900Y041838D01*
D02*
G37*
G36*
X021900D02*
X021799Y041825D01*
X021706Y041786D01*
X021625Y041725D01*
X021564Y041644D01*
X021525Y041551D01*
X021512Y041450D01*
X021525Y041349D01*
X021564Y041256D01*
X021625Y041175D01*
X021706Y041114D01*
X021799Y041075D01*
X021900Y041062D01*
X022001Y041075D01*
X022094Y041114D01*
X022175Y041175D01*
X022236Y041256D01*
X022275Y041349D01*
X022288Y041450D01*
X022275Y041551D01*
X022236Y041644D01*
X022175Y041725D01*
X022094Y041786D01*
X022001Y041825D01*
X021900Y041838D01*
D02*
G37*
G36*
Y040838D02*
X021799Y040825D01*
X021706Y040786D01*
X021625Y040725D01*
X021564Y040644D01*
X021525Y040550D01*
X021512Y040450D01*
X021525Y040349D01*
X021564Y040256D01*
X021625Y040175D01*
X021706Y040114D01*
X021799Y040075D01*
X021900Y040062D01*
X022001Y040075D01*
X022094Y040114D01*
X022175Y040175D01*
X022236Y040256D01*
X022275Y040349D01*
X022288Y040450D01*
X022275Y040550D01*
X022236Y040644D01*
X022175Y040725D01*
X022094Y040786D01*
X022001Y040825D01*
X021900Y040838D01*
D02*
G37*
G36*
X018646Y039950D02*
X018350D01*
Y039654D01*
X018391Y039659D01*
X018477Y039694D01*
X018550Y039750D01*
X018606Y039823D01*
X018641Y039909D01*
X018646Y039950D01*
D02*
G37*
G36*
X018250Y040346D02*
X018209Y040341D01*
X018123Y040306D01*
X018050Y040250D01*
X017994Y040177D01*
X017959Y040091D01*
X017954Y040050D01*
X018250D01*
Y040346D01*
D02*
G37*
G36*
X018350D02*
Y040050D01*
X018646D01*
X018641Y040091D01*
X018606Y040177D01*
X018550Y040250D01*
X018477Y040306D01*
X018391Y040341D01*
X018350Y040346D01*
D02*
G37*
G36*
X015900Y042838D02*
X015799Y042825D01*
X015706Y042786D01*
X015625Y042725D01*
X015564Y042644D01*
X015525Y042551D01*
X015512Y042450D01*
X015525Y042349D01*
X015564Y042256D01*
X015625Y042175D01*
X015706Y042114D01*
X015799Y042075D01*
X015900Y042062D01*
X016001Y042075D01*
X016094Y042114D01*
X016175Y042175D01*
X016236Y042256D01*
X016275Y042349D01*
X016288Y042450D01*
X016275Y042551D01*
X016236Y042644D01*
X016175Y042725D01*
X016094Y042786D01*
X016001Y042825D01*
X015900Y042838D01*
D02*
G37*
G36*
X021900Y043838D02*
X021799Y043825D01*
X021706Y043786D01*
X021625Y043725D01*
X021564Y043644D01*
X021525Y043551D01*
X021512Y043450D01*
X021525Y043349D01*
X021564Y043256D01*
X021625Y043175D01*
X021706Y043114D01*
X021799Y043075D01*
X021900Y043062D01*
X022001Y043075D01*
X022094Y043114D01*
X022175Y043175D01*
X022236Y043256D01*
X022275Y043349D01*
X022288Y043450D01*
X022275Y043551D01*
X022236Y043644D01*
X022175Y043725D01*
X022094Y043786D01*
X022001Y043825D01*
X021900Y043838D01*
D02*
G37*
G36*
X014712Y043869D02*
X014350D01*
Y043507D01*
X014408Y043515D01*
X014509Y043556D01*
X014596Y043623D01*
X014662Y043710D01*
X014704Y043811D01*
X014712Y043869D01*
D02*
G37*
G36*
X014250D02*
X013888D01*
X013896Y043811D01*
X013937Y043710D01*
X014004Y043623D01*
X014091Y043556D01*
X014192Y043515D01*
X014250Y043507D01*
Y043869D01*
D02*
G37*
G36*
X020900Y043838D02*
X020800Y043825D01*
X020706Y043786D01*
X020625Y043725D01*
X020564Y043644D01*
X020525Y043551D01*
X020512Y043450D01*
X020525Y043349D01*
X020564Y043256D01*
X020625Y043175D01*
X020706Y043114D01*
X020800Y043075D01*
X020900Y043062D01*
X021000Y043075D01*
X021094Y043114D01*
X021175Y043175D01*
X021236Y043256D01*
X021275Y043349D01*
X021288Y043450D01*
X021275Y043551D01*
X021236Y043644D01*
X021175Y043725D01*
X021094Y043786D01*
X021000Y043825D01*
X020900Y043838D01*
D02*
G37*
G36*
Y042838D02*
X020800Y042825D01*
X020706Y042786D01*
X020625Y042725D01*
X020564Y042644D01*
X020525Y042551D01*
X020512Y042450D01*
X020525Y042349D01*
X020564Y042256D01*
X020625Y042175D01*
X020706Y042114D01*
X020800Y042075D01*
X020900Y042062D01*
X021000Y042075D01*
X021094Y042114D01*
X021175Y042175D01*
X021236Y042256D01*
X021275Y042349D01*
X021288Y042450D01*
X021275Y042551D01*
X021236Y042644D01*
X021175Y042725D01*
X021094Y042786D01*
X021000Y042825D01*
X020900Y042838D01*
D02*
G37*
G36*
X021900D02*
X021799Y042825D01*
X021706Y042786D01*
X021625Y042725D01*
X021564Y042644D01*
X021525Y042551D01*
X021512Y042450D01*
X021525Y042349D01*
X021564Y042256D01*
X021625Y042175D01*
X021706Y042114D01*
X021799Y042075D01*
X021900Y042062D01*
X022001Y042075D01*
X022094Y042114D01*
X022175Y042175D01*
X022236Y042256D01*
X022275Y042349D01*
X022288Y042450D01*
X022275Y042551D01*
X022236Y042644D01*
X022175Y042725D01*
X022094Y042786D01*
X022001Y042825D01*
X021900Y042838D01*
D02*
G37*
G36*
X015900Y043838D02*
X015799Y043825D01*
X015706Y043786D01*
X015625Y043725D01*
X015564Y043644D01*
X015525Y043551D01*
X015512Y043450D01*
X015525Y043349D01*
X015564Y043256D01*
X015625Y043175D01*
X015706Y043114D01*
X015799Y043075D01*
X015900Y043062D01*
X016001Y043075D01*
X016094Y043114D01*
X016175Y043175D01*
X016236Y043256D01*
X016275Y043349D01*
X016288Y043450D01*
X016275Y043551D01*
X016236Y043644D01*
X016175Y043725D01*
X016094Y043786D01*
X016001Y043825D01*
X015900Y043838D01*
D02*
G37*
%LPD*%
D11*
X016100Y034900D02*
X019650Y038450D01*
X015480Y034900D02*
X016100D01*
X014980Y034400D02*
X015480Y034900D01*
X014997Y036697D02*
Y039297D01*
X013700Y035400D02*
X014997Y036697D01*
X013700Y035200D02*
Y035400D01*
X013900Y034400D02*
X014980D01*
X013700Y034200D02*
X013900Y034400D01*
X014997Y039297D02*
X015650Y039950D01*
X019650Y038450D02*
X021900D01*
X020800Y044450D02*
X021900D01*
X015650Y039950D02*
X016300D01*
X020800Y044450D01*
D12*
X013700Y033400D02*
D03*
D13*
Y034400D02*
D03*
Y035400D02*
D03*
Y036400D02*
D03*
D14*
X014300Y038819D02*
D03*
Y039606D02*
D03*
Y040394D02*
D03*
Y041184D02*
D03*
Y043919D02*
D03*
Y044706D02*
D03*
Y045494D02*
D03*
Y046284D02*
D03*
D15*
X015900Y046450D02*
D03*
Y045450D02*
D03*
Y044450D02*
D03*
Y043450D02*
D03*
Y042450D02*
D03*
Y041450D02*
D03*
Y040450D02*
D03*
Y039450D02*
D03*
Y038450D02*
D03*
Y037450D02*
D03*
Y036450D02*
D03*
Y035450D02*
D03*
Y034450D02*
D03*
Y033450D02*
D03*
X016900D02*
D03*
X017900D02*
D03*
X018900D02*
D03*
X019900D02*
D03*
X020900D02*
D03*
X021900D02*
D03*
Y034450D02*
D03*
Y035450D02*
D03*
Y036450D02*
D03*
Y037450D02*
D03*
Y038450D02*
D03*
Y039450D02*
D03*
Y040450D02*
D03*
Y041450D02*
D03*
Y042450D02*
D03*
Y043450D02*
D03*
Y044450D02*
D03*
Y045450D02*
D03*
Y046450D02*
D03*
X020900Y045450D02*
D03*
Y043450D02*
D03*
Y042450D02*
D03*
Y041450D02*
D03*
D16*
X021000Y038900D02*
D03*
X018350Y045050D02*
D03*
X019450Y035900D02*
D03*
X018300Y040000D02*
D03*
M02*
