G04 Layer_Color=8388736*
%FSAX24Y24*%
%MOIN*%
G70*
G01*
G75*
%ADD22R,0.0474X0.0316*%
%ADD23R,0.0592X0.1005*%
%ADD24O,0.0789X0.0257*%
%ADD25R,0.0513X0.0513*%
%ADD26C,0.0710*%
%ADD27C,0.1340*%
%ADD28C,0.0360*%
D22*
X055472Y022674D02*
D03*
Y021926D02*
D03*
X054528D02*
D03*
Y022300D02*
D03*
Y022674D02*
D03*
D23*
X055596Y017300D02*
D03*
X054396D02*
D03*
D24*
X056339Y019104D02*
D03*
Y019360D02*
D03*
Y019616D02*
D03*
Y019872D02*
D03*
Y020128D02*
D03*
Y020384D02*
D03*
Y020640D02*
D03*
Y020896D02*
D03*
X053661Y019104D02*
D03*
Y019360D02*
D03*
Y019616D02*
D03*
Y019872D02*
D03*
Y020128D02*
D03*
Y020384D02*
D03*
Y020640D02*
D03*
Y020896D02*
D03*
D25*
X057400Y021654D02*
D03*
Y020946D02*
D03*
D26*
X051600Y020790D02*
D03*
Y020000D02*
D03*
Y019210D02*
D03*
Y018423D02*
D03*
Y017635D02*
D03*
Y021572D02*
D03*
Y022360D02*
D03*
D27*
X055000Y024800D02*
D03*
X059800Y020000D02*
D03*
X055000Y015200D02*
D03*
D28*
X057400Y018600D02*
D03*
Y019200D02*
D03*
Y019800D02*
D03*
M02*
