G04 Layer_Physical_Order=1*
G04 Layer_Color=255*
%FSAX24Y24*%
%MOIN*%
G70*
G01*
G75*
%ADD10R,0.0394X0.0236*%
%ADD11R,0.0512X0.0925*%
%ADD12O,0.0709X0.0177*%
%ADD13R,0.0433X0.0433*%
%ADD14C,0.0100*%
%ADD15C,0.0630*%
%ADD16C,0.1260*%
%ADD17C,0.0500*%
G36*
X054950Y025879D02*
X055000Y025869D01*
Y025869D01*
X055002Y025871D01*
X055461Y025853D01*
X055918Y025799D01*
X056371Y025709D01*
X056814Y025583D01*
X057247Y025424D01*
X057665Y025231D01*
X058067Y025006D01*
X058451Y024750D01*
X058813Y024464D01*
X059151Y024151D01*
X059464Y023813D01*
X059750Y023451D01*
X060006Y023067D01*
X060231Y022665D01*
X060424Y022247D01*
X060583Y021814D01*
X060709Y021371D01*
X060799Y020918D01*
X060853Y020461D01*
X060871Y020000D01*
X060853Y019539D01*
X060799Y019082D01*
X060709Y018629D01*
X060583Y018186D01*
X060424Y017753D01*
X060231Y017335D01*
X060006Y016933D01*
X059750Y016549D01*
X059464Y016187D01*
X059151Y015849D01*
X058813Y015536D01*
X058451Y015250D01*
X058067Y014994D01*
X057665Y014769D01*
X057247Y014576D01*
X056814Y014417D01*
X056371Y014291D01*
X055918Y014201D01*
X055461Y014147D01*
X055002Y014129D01*
X055000Y014131D01*
Y014131D01*
X054950Y014121D01*
X054949Y014120D01*
X051052D01*
X051050Y014121D01*
X051000Y014131D01*
Y014131D01*
X050998Y014130D01*
X050756Y014146D01*
X050516Y014193D01*
X050284Y014272D01*
X050065Y014380D01*
X049861Y014516D01*
X049678Y014678D01*
X049516Y014861D01*
X049380Y015065D01*
X049272Y015284D01*
X049193Y015516D01*
X049146Y015756D01*
X049130Y015998D01*
X049131Y016000D01*
X049131D01*
X049121Y016050D01*
X049120Y016051D01*
Y023949D01*
X049121Y023950D01*
X049131Y024000D01*
X049131D01*
X049130Y024002D01*
X049146Y024244D01*
X049193Y024484D01*
X049272Y024716D01*
X049380Y024935D01*
X049516Y025139D01*
X049678Y025322D01*
X049861Y025484D01*
X050065Y025620D01*
X050284Y025728D01*
X050516Y025807D01*
X050756Y025854D01*
X050998Y025870D01*
X051000Y025869D01*
Y025869D01*
X051050Y025879D01*
X051052Y025880D01*
X054949D01*
X054950Y025879D01*
D02*
G37*
%LPC*%
G36*
X055952Y017863D02*
X055646D01*
Y017350D01*
X055952D01*
Y017863D01*
D02*
G37*
G36*
X055546D02*
X055241D01*
Y017350D01*
X055546D01*
Y017863D01*
D02*
G37*
G36*
X051550Y017585D02*
X051188D01*
X051196Y017527D01*
X051238Y017426D01*
X051304Y017339D01*
X051391Y017273D01*
X051492Y017231D01*
X051550Y017223D01*
Y017585D01*
D02*
G37*
G36*
X060529Y019950D02*
X059850D01*
Y019271D01*
X059943Y019281D01*
X060081Y019322D01*
X060207Y019390D01*
X060319Y019481D01*
X060410Y019593D01*
X060478Y019719D01*
X060519Y019857D01*
X060529Y019950D01*
D02*
G37*
G36*
X059750D02*
X059071D01*
X059081Y019857D01*
X059122Y019719D01*
X059190Y019593D01*
X059281Y019481D01*
X059393Y019390D01*
X059519Y019322D01*
X059657Y019281D01*
X059750Y019271D01*
Y019950D01*
D02*
G37*
G36*
X054110Y019310D02*
X053661D01*
X053213D01*
X053218Y019287D01*
X053260Y019224D01*
X053270Y019217D01*
X053238Y019170D01*
X053225Y019104D01*
X053238Y019039D01*
X053275Y018984D01*
X053330Y018947D01*
X053396Y018934D01*
X053927D01*
X053992Y018947D01*
X054048Y018984D01*
X054085Y019039D01*
X054098Y019104D01*
X054085Y019170D01*
X054053Y019217D01*
X054063Y019224D01*
X054105Y019287D01*
X054110Y019310D01*
D02*
G37*
G36*
X052012Y017585D02*
X051650D01*
Y017223D01*
X051708Y017231D01*
X051809Y017273D01*
X051896Y017339D01*
X051962Y017426D01*
X052004Y017527D01*
X052012Y017585D01*
D02*
G37*
G36*
X054950Y015929D02*
X054857Y015919D01*
X054719Y015878D01*
X054593Y015810D01*
X054481Y015719D01*
X054390Y015607D01*
X054322Y015481D01*
X054281Y015343D01*
X054271Y015250D01*
X054950D01*
Y015929D01*
D02*
G37*
G36*
X055729Y015150D02*
X055050D01*
Y014471D01*
X055143Y014481D01*
X055281Y014522D01*
X055407Y014590D01*
X055519Y014681D01*
X055610Y014793D01*
X055678Y014919D01*
X055719Y015057D01*
X055729Y015150D01*
D02*
G37*
G36*
X054950D02*
X054271D01*
X054281Y015057D01*
X054322Y014919D01*
X054390Y014793D01*
X054481Y014681D01*
X054593Y014590D01*
X054719Y014522D01*
X054857Y014481D01*
X054950Y014471D01*
Y015150D01*
D02*
G37*
G36*
X055952Y017250D02*
X055646D01*
Y016738D01*
X055952D01*
Y017250D01*
D02*
G37*
G36*
X055546D02*
X055241D01*
Y016738D01*
X055546D01*
Y017250D01*
D02*
G37*
G36*
X055050Y015929D02*
Y015250D01*
X055729D01*
X055719Y015343D01*
X055678Y015481D01*
X055610Y015607D01*
X055519Y015719D01*
X055407Y015810D01*
X055281Y015878D01*
X055143Y015919D01*
X055050Y015929D01*
D02*
G37*
G36*
X054950Y024750D02*
X054271D01*
X054281Y024657D01*
X054322Y024519D01*
X054390Y024393D01*
X054481Y024281D01*
X054593Y024190D01*
X054719Y024122D01*
X054857Y024081D01*
X054950Y024071D01*
Y024750D01*
D02*
G37*
G36*
X054803Y022871D02*
X054252D01*
Y022781D01*
X051890D01*
X051840Y022771D01*
X051798Y022743D01*
X051770Y022715D01*
X051703Y022743D01*
X051600Y022757D01*
X051497Y022743D01*
X051401Y022704D01*
X051319Y022640D01*
X051256Y022558D01*
X051216Y022462D01*
X051203Y022360D01*
X051216Y022257D01*
X051256Y022161D01*
X051319Y022079D01*
X051401Y022016D01*
X051456Y021993D01*
Y021939D01*
X051401Y021916D01*
X051319Y021853D01*
X051256Y021771D01*
X051216Y021675D01*
X051203Y021572D01*
X051216Y021469D01*
X051256Y021374D01*
X051319Y021291D01*
X051401Y021228D01*
X051450Y021208D01*
Y021154D01*
X051401Y021134D01*
X051319Y021071D01*
X051256Y020989D01*
X051216Y020893D01*
X051203Y020790D01*
X051216Y020687D01*
X051256Y020591D01*
X051319Y020509D01*
X051401Y020446D01*
X051459Y020422D01*
Y020368D01*
X051401Y020344D01*
X051319Y020281D01*
X051256Y020199D01*
X051216Y020103D01*
X051203Y020000D01*
X051216Y019897D01*
X051256Y019801D01*
X051319Y019719D01*
X051401Y019656D01*
X051459Y019632D01*
Y019578D01*
X051401Y019554D01*
X051319Y019491D01*
X051256Y019409D01*
X051216Y019313D01*
X051203Y019210D01*
X051216Y019107D01*
X051256Y019011D01*
X051319Y018929D01*
X051401Y018866D01*
X051456Y018843D01*
Y018789D01*
X051401Y018767D01*
X051319Y018703D01*
X051256Y018621D01*
X051216Y018525D01*
X051203Y018423D01*
X051216Y018320D01*
X051256Y018224D01*
X051319Y018142D01*
X051401Y018079D01*
X051428Y018067D01*
X051428Y018013D01*
X051391Y017998D01*
X051304Y017931D01*
X051238Y017844D01*
X051196Y017744D01*
X051188Y017685D01*
X051600D01*
X052012D01*
X052004Y017744D01*
X051962Y017844D01*
X051896Y017931D01*
X051809Y017998D01*
X051772Y018013D01*
X051772Y018067D01*
X051799Y018079D01*
X051881Y018142D01*
X051944Y018224D01*
X051984Y018320D01*
X051997Y018423D01*
X051984Y018525D01*
X051956Y018593D01*
X053185Y019822D01*
X053234Y019812D01*
X053239Y019805D01*
X053254Y019783D01*
X053272Y019744D01*
X053254Y019705D01*
X053238Y019681D01*
X053225Y019616D01*
X053238Y019551D01*
X053270Y019503D01*
X053260Y019496D01*
X053218Y019434D01*
X053213Y019410D01*
X053661D01*
X054110D01*
X054105Y019434D01*
X054063Y019496D01*
X054053Y019503D01*
X054085Y019551D01*
X054098Y019616D01*
X054085Y019681D01*
X054069Y019705D01*
X054051Y019744D01*
X054069Y019783D01*
X054085Y019807D01*
X054098Y019872D01*
X054085Y019937D01*
X054048Y019993D01*
Y020007D01*
X054085Y020063D01*
X054098Y020128D01*
X054085Y020193D01*
X054069Y020217D01*
X054051Y020256D01*
X054069Y020295D01*
X054085Y020319D01*
X054098Y020384D01*
X054085Y020449D01*
X054048Y020504D01*
Y020519D01*
X054085Y020574D01*
X054098Y020640D01*
X054085Y020705D01*
X054069Y020729D01*
X054051Y020768D01*
X054069Y020806D01*
X054085Y020830D01*
X054098Y020896D01*
X054085Y020961D01*
X054048Y021016D01*
X053992Y021053D01*
X053927Y021066D01*
X053396D01*
X053330Y021053D01*
X053275Y021016D01*
X053238Y020961D01*
X053225Y020896D01*
X053238Y020830D01*
X053254Y020806D01*
X053272Y020768D01*
X053254Y020729D01*
X053238Y020705D01*
X053225Y020640D01*
X053238Y020574D01*
X053244Y020565D01*
X053218Y020515D01*
X053217D01*
X053167Y020505D01*
X053124Y020477D01*
X052015Y019368D01*
X051956Y019379D01*
X051944Y019409D01*
X051881Y019491D01*
X051799Y019554D01*
X051741Y019578D01*
Y019632D01*
X051799Y019656D01*
X051881Y019719D01*
X051944Y019801D01*
X051984Y019897D01*
X051997Y020000D01*
X051984Y020103D01*
X051944Y020199D01*
X051881Y020281D01*
X051799Y020344D01*
X051741Y020368D01*
Y020422D01*
X051799Y020446D01*
X051881Y020509D01*
X051944Y020591D01*
X051984Y020687D01*
X051997Y020790D01*
X051984Y020893D01*
X051944Y020989D01*
X051881Y021071D01*
X051799Y021134D01*
X051750Y021154D01*
Y021208D01*
X051799Y021228D01*
X051881Y021291D01*
X051944Y021374D01*
X051984Y021469D01*
X051997Y021572D01*
X051984Y021675D01*
X051944Y021771D01*
X051881Y021853D01*
X051799Y021916D01*
X051744Y021939D01*
Y021993D01*
X051799Y022016D01*
X051881Y022079D01*
X051944Y022161D01*
X051984Y022257D01*
X051997Y022360D01*
X051984Y022462D01*
X051977Y022477D01*
X052005Y022519D01*
X054069D01*
Y022000D01*
X054079Y021950D01*
X054107Y021907D01*
X054181Y021833D01*
X054224Y021805D01*
X054252Y021799D01*
Y021729D01*
X054803D01*
Y022082D01*
X054824D01*
Y022250D01*
X054528D01*
Y022350D01*
X054824D01*
Y022518D01*
X054803D01*
Y022871D01*
D02*
G37*
G36*
X055748Y022123D02*
X055197D01*
Y021729D01*
X055748D01*
Y022123D01*
D02*
G37*
G36*
X055050Y025529D02*
Y024850D01*
X055729D01*
X055719Y024943D01*
X055678Y025081D01*
X055610Y025207D01*
X055519Y025319D01*
X055407Y025410D01*
X055281Y025478D01*
X055143Y025519D01*
X055050Y025529D01*
D02*
G37*
G36*
X054950D02*
X054857Y025519D01*
X054719Y025478D01*
X054593Y025410D01*
X054481Y025319D01*
X054390Y025207D01*
X054322Y025081D01*
X054281Y024943D01*
X054271Y024850D01*
X054950D01*
Y025529D01*
D02*
G37*
G36*
X055729Y024750D02*
X055050D01*
Y024071D01*
X055143Y024081D01*
X055281Y024122D01*
X055407Y024190D01*
X055519Y024281D01*
X055610Y024393D01*
X055678Y024519D01*
X055719Y024657D01*
X055729Y024750D01*
D02*
G37*
G36*
X057717Y021971D02*
X057450D01*
Y021704D01*
X057717D01*
Y021971D01*
D02*
G37*
G36*
X055748Y022871D02*
X055197D01*
Y022477D01*
X055598D01*
X056207Y021868D01*
Y021066D01*
X056073D01*
X056008Y021053D01*
X055952Y021016D01*
X055915Y020961D01*
X055902Y020896D01*
X055915Y020830D01*
X055921Y020821D01*
X055895Y020771D01*
X055240D01*
X055190Y020761D01*
X055147Y020733D01*
X054807Y020393D01*
X054779Y020350D01*
X054769Y020300D01*
Y017870D01*
X054730Y017842D01*
X054061D01*
Y016759D01*
X054730D01*
Y017449D01*
X054993Y017712D01*
X055021Y017755D01*
X055031Y017805D01*
Y020246D01*
X055294Y020508D01*
X055895D01*
X055921Y020459D01*
X055915Y020449D01*
X055902Y020384D01*
X055915Y020319D01*
X055931Y020295D01*
X055949Y020256D01*
X055931Y020217D01*
X055915Y020193D01*
X055902Y020128D01*
X055915Y020063D01*
X055952Y020007D01*
Y019993D01*
X055915Y019937D01*
X055902Y019872D01*
X055915Y019807D01*
X055931Y019783D01*
X055949Y019744D01*
X055931Y019705D01*
X055915Y019681D01*
X055902Y019616D01*
X055915Y019551D01*
X055952Y019496D01*
Y019481D01*
X055915Y019426D01*
X055902Y019360D01*
X055915Y019295D01*
X055931Y019271D01*
X055949Y019232D01*
X055931Y019194D01*
X055915Y019170D01*
X055902Y019104D01*
X055915Y019039D01*
X055952Y018984D01*
X056008Y018947D01*
X056073Y018934D01*
X056324D01*
X056750Y018507D01*
X056793Y018479D01*
X056843Y018469D01*
X057099D01*
X057113Y018434D01*
X057166Y018366D01*
X057234Y018313D01*
X057314Y018280D01*
X057400Y018268D01*
X057486Y018280D01*
X057566Y018313D01*
X057634Y018366D01*
X057687Y018434D01*
X057720Y018514D01*
X057732Y018600D01*
X057720Y018686D01*
X057687Y018766D01*
X057634Y018834D01*
X057588Y018870D01*
X057587Y018872D01*
Y018928D01*
X057588Y018930D01*
X057634Y018966D01*
X057687Y019034D01*
X057720Y019114D01*
X057732Y019200D01*
X057720Y019286D01*
X057687Y019366D01*
X057634Y019434D01*
X057588Y019470D01*
X057587Y019472D01*
Y019528D01*
X057588Y019530D01*
X057634Y019566D01*
X057687Y019634D01*
X057720Y019714D01*
X057732Y019800D01*
X057720Y019886D01*
X057687Y019966D01*
X057634Y020034D01*
X057566Y020087D01*
X057486Y020120D01*
X057400Y020132D01*
X057314Y020120D01*
X057234Y020087D01*
X057166Y020034D01*
X057113Y019966D01*
X057080Y019886D01*
X057068Y019800D01*
X057070Y019785D01*
X057037Y019747D01*
X056782D01*
X056756Y019797D01*
X056762Y019807D01*
X056775Y019872D01*
X056762Y019937D01*
X056725Y019993D01*
Y020007D01*
X056762Y020063D01*
X056775Y020128D01*
X056762Y020193D01*
X056746Y020217D01*
X056728Y020256D01*
X056746Y020295D01*
X056762Y020319D01*
X056775Y020384D01*
X056762Y020449D01*
X056725Y020504D01*
Y020519D01*
X056762Y020574D01*
X056775Y020640D01*
X056762Y020705D01*
X056756Y020714D01*
X056782Y020764D01*
X057105D01*
Y020650D01*
X057695D01*
Y021241D01*
X057105D01*
Y021027D01*
X056709D01*
X056670Y021053D01*
X056604Y021066D01*
X056470D01*
Y021922D01*
X056460Y021972D01*
X056431Y022015D01*
X055748Y022698D01*
Y022871D01*
D02*
G37*
G36*
X059850Y020729D02*
Y020050D01*
X060529D01*
X060519Y020143D01*
X060478Y020281D01*
X060410Y020407D01*
X060319Y020519D01*
X060207Y020610D01*
X060081Y020678D01*
X059943Y020719D01*
X059850Y020729D01*
D02*
G37*
G36*
X059750D02*
X059657Y020719D01*
X059519Y020678D01*
X059393Y020610D01*
X059281Y020519D01*
X059190Y020407D01*
X059122Y020281D01*
X059081Y020143D01*
X059071Y020050D01*
X059750D01*
Y020729D01*
D02*
G37*
G36*
X057350Y021971D02*
X057083D01*
Y021704D01*
X057350D01*
Y021971D01*
D02*
G37*
G36*
X057717Y021604D02*
X057450D01*
Y021338D01*
X057717D01*
Y021604D01*
D02*
G37*
G36*
X057350D02*
X057083D01*
Y021338D01*
X057350D01*
Y021604D01*
D02*
G37*
%LPD*%
D10*
X055472Y022674D02*
D03*
Y021926D02*
D03*
X054528D02*
D03*
Y022300D02*
D03*
Y022674D02*
D03*
D11*
X055596Y017300D02*
D03*
X054396D02*
D03*
D12*
X056339Y019104D02*
D03*
Y019360D02*
D03*
Y019616D02*
D03*
Y019872D02*
D03*
Y020128D02*
D03*
Y020384D02*
D03*
Y020640D02*
D03*
Y020896D02*
D03*
X053661Y019104D02*
D03*
Y019360D02*
D03*
Y019616D02*
D03*
Y019872D02*
D03*
Y020128D02*
D03*
Y020384D02*
D03*
Y020640D02*
D03*
Y020896D02*
D03*
D13*
X057400Y021654D02*
D03*
Y020946D02*
D03*
D14*
X054200Y022550D02*
X054300Y022650D01*
X054200Y022000D02*
Y022550D01*
Y022000D02*
X054274Y021926D01*
X051890Y022650D02*
X054300D01*
X054274Y021926D02*
X054528D01*
X055472Y022674D02*
X055587D01*
X056339Y021922D01*
X051600Y022360D02*
X051890Y022650D01*
X056339Y020896D02*
Y021922D01*
X054900Y020300D02*
X055240Y020640D01*
X054900Y017805D02*
Y020300D01*
X054396Y017300D02*
X054900Y017805D01*
X055240Y020640D02*
X056339D01*
X057350Y020896D02*
X057400Y020946D01*
X056339Y020896D02*
X057350D01*
X056339Y020640D02*
Y020896D01*
X056777Y019360D02*
X056938Y019200D01*
X056339Y019360D02*
X056777D01*
X056339Y019616D02*
X057216D01*
X056339Y019104D02*
X056843Y018600D01*
X057400D01*
X056938Y019200D02*
X057400D01*
X057216Y019616D02*
X057400Y019800D01*
X053305Y020128D02*
X053661D01*
X051600Y018423D02*
X053305Y020128D01*
X053217Y020384D02*
X053661D01*
X052043Y019210D02*
X053217Y020384D01*
X051600Y019210D02*
X052043D01*
D15*
X051600Y020790D02*
D03*
Y020000D02*
D03*
Y019210D02*
D03*
Y018423D02*
D03*
Y017635D02*
D03*
Y021572D02*
D03*
Y022360D02*
D03*
D16*
X055000Y024800D02*
D03*
X059800Y020000D02*
D03*
X055000Y015200D02*
D03*
D17*
X057400Y018600D02*
D03*
Y019200D02*
D03*
Y019800D02*
D03*
M02*
