G04 Layer_Physical_Order=1*
G04 Layer_Color=255*
%FSAX24Y24*%
%MOIN*%
G70*
G01*
G75*
%ADD10R,0.0205X0.0205*%
%ADD11O,0.0610X0.0138*%
%ADD12R,0.0512X0.0925*%
%ADD13C,0.0100*%
%ADD14C,0.1220*%
%ADD15C,0.0630*%
G36*
X054950Y025879D02*
X055000Y025869D01*
Y025869D01*
X055002Y025871D01*
X055461Y025853D01*
X055918Y025799D01*
X056371Y025709D01*
X056814Y025583D01*
X057247Y025424D01*
X057665Y025231D01*
X058067Y025006D01*
X058451Y024750D01*
X058813Y024464D01*
X059151Y024151D01*
X059464Y023813D01*
X059750Y023451D01*
X060006Y023067D01*
X060231Y022665D01*
X060424Y022247D01*
X060583Y021814D01*
X060709Y021371D01*
X060799Y020918D01*
X060853Y020461D01*
X060871Y020000D01*
X060853Y019539D01*
X060799Y019082D01*
X060709Y018629D01*
X060583Y018186D01*
X060424Y017753D01*
X060231Y017335D01*
X060006Y016933D01*
X059750Y016549D01*
X059464Y016187D01*
X059151Y015849D01*
X058813Y015536D01*
X058451Y015250D01*
X058067Y014994D01*
X057665Y014769D01*
X057247Y014576D01*
X056814Y014417D01*
X056371Y014291D01*
X055918Y014201D01*
X055461Y014147D01*
X055002Y014129D01*
X055000Y014131D01*
Y014131D01*
X054950Y014121D01*
X054949Y014120D01*
X051052D01*
X051050Y014121D01*
X051000Y014131D01*
Y014131D01*
X050998Y014130D01*
X050756Y014146D01*
X050516Y014193D01*
X050284Y014272D01*
X050065Y014380D01*
X049861Y014516D01*
X049678Y014678D01*
X049516Y014861D01*
X049380Y015065D01*
X049272Y015284D01*
X049193Y015516D01*
X049146Y015756D01*
X049130Y015998D01*
X049131Y016000D01*
X049131D01*
X049121Y016050D01*
X049120Y016051D01*
Y023949D01*
X049121Y023950D01*
X049131Y024000D01*
X049131D01*
X049130Y024002D01*
X049146Y024244D01*
X049193Y024484D01*
X049272Y024716D01*
X049380Y024935D01*
X049516Y025139D01*
X049678Y025322D01*
X049861Y025484D01*
X050065Y025620D01*
X050284Y025728D01*
X050516Y025807D01*
X050756Y025854D01*
X050998Y025870D01*
X051000Y025869D01*
Y025869D01*
X051050Y025879D01*
X051052Y025880D01*
X054949D01*
X054950Y025879D01*
D02*
G37*
%LPC*%
G36*
X060509Y019950D02*
X059850D01*
Y019291D01*
X059939Y019300D01*
X060073Y019341D01*
X060196Y019407D01*
X060305Y019495D01*
X060393Y019604D01*
X060459Y019727D01*
X060500Y019861D01*
X060509Y019950D01*
D02*
G37*
G36*
X059750D02*
X059091D01*
X059100Y019861D01*
X059141Y019727D01*
X059207Y019604D01*
X059295Y019495D01*
X059404Y019407D01*
X059527Y019341D01*
X059661Y019300D01*
X059750Y019291D01*
Y019950D01*
D02*
G37*
G36*
Y020709D02*
X059661Y020700D01*
X059527Y020659D01*
X059404Y020593D01*
X059295Y020505D01*
X059207Y020396D01*
X059141Y020273D01*
X059100Y020139D01*
X059091Y020050D01*
X059750D01*
Y020709D01*
D02*
G37*
G36*
X056850Y020660D02*
X056698D01*
Y020507D01*
X056850D01*
Y020660D01*
D02*
G37*
G36*
X059850Y020709D02*
Y020050D01*
X060509D01*
X060500Y020139D01*
X060459Y020273D01*
X060393Y020396D01*
X060305Y020505D01*
X060196Y020593D01*
X060073Y020659D01*
X059939Y020700D01*
X059850Y020709D01*
D02*
G37*
G36*
X051550Y017191D02*
X051188D01*
X051196Y017133D01*
X051238Y017032D01*
X051304Y016946D01*
X051391Y016879D01*
X051492Y016837D01*
X051550Y016830D01*
Y017191D01*
D02*
G37*
G36*
X055709Y015150D02*
X055050D01*
Y014491D01*
X055139Y014500D01*
X055273Y014541D01*
X055396Y014607D01*
X055505Y014695D01*
X055593Y014804D01*
X055659Y014927D01*
X055700Y015061D01*
X055709Y015150D01*
D02*
G37*
G36*
X054950D02*
X054291D01*
X054300Y015061D01*
X054341Y014927D01*
X054407Y014804D01*
X054495Y014695D01*
X054604Y014607D01*
X054727Y014541D01*
X054861Y014500D01*
X054950Y014491D01*
Y015150D01*
D02*
G37*
G36*
Y015909D02*
X054861Y015900D01*
X054727Y015859D01*
X054604Y015793D01*
X054495Y015705D01*
X054407Y015596D01*
X054341Y015473D01*
X054300Y015339D01*
X054291Y015250D01*
X054950D01*
Y015909D01*
D02*
G37*
G36*
X052012Y017191D02*
X051650D01*
Y016830D01*
X051708Y016837D01*
X051809Y016879D01*
X051896Y016946D01*
X051962Y017032D01*
X052004Y017133D01*
X052012Y017191D01*
D02*
G37*
G36*
X055050Y015909D02*
Y015250D01*
X055709D01*
X055700Y015339D01*
X055659Y015473D01*
X055593Y015596D01*
X055505Y015705D01*
X055396Y015793D01*
X055273Y015859D01*
X055139Y015900D01*
X055050Y015909D01*
D02*
G37*
G36*
X054950Y024750D02*
X054291D01*
X054300Y024661D01*
X054341Y024527D01*
X054407Y024404D01*
X054495Y024295D01*
X054604Y024207D01*
X054727Y024141D01*
X054861Y024100D01*
X054950Y024091D01*
Y024750D01*
D02*
G37*
G36*
X054730Y023442D02*
X054061D01*
Y023032D01*
X051885D01*
X051881Y023037D01*
X051799Y023100D01*
X051703Y023140D01*
X051600Y023153D01*
X051497Y023140D01*
X051401Y023100D01*
X051319Y023037D01*
X051256Y022954D01*
X051216Y022859D01*
X051203Y022756D01*
X051216Y022653D01*
X051256Y022557D01*
X051319Y022475D01*
X051401Y022412D01*
X051459Y022388D01*
Y022334D01*
X051401Y022310D01*
X051319Y022247D01*
X051256Y022164D01*
X051216Y022069D01*
X051203Y021966D01*
X051216Y021863D01*
X051256Y021767D01*
X051319Y021685D01*
X051401Y021622D01*
X051456Y021599D01*
Y021545D01*
X051401Y021522D01*
X051319Y021459D01*
X051256Y021377D01*
X051216Y021281D01*
X051203Y021179D01*
X051216Y021076D01*
X051256Y020980D01*
X051319Y020898D01*
X051401Y020835D01*
X051450Y020814D01*
Y020760D01*
X051401Y020740D01*
X051319Y020677D01*
X051256Y020595D01*
X051216Y020499D01*
X051203Y020396D01*
X051216Y020294D01*
X051256Y020198D01*
X051319Y020115D01*
X051401Y020052D01*
X051459Y020028D01*
Y019974D01*
X051401Y019950D01*
X051319Y019887D01*
X051256Y019805D01*
X051216Y019709D01*
X051203Y019606D01*
X051216Y019504D01*
X051256Y019408D01*
X051319Y019325D01*
X051401Y019262D01*
X051459Y019238D01*
Y019184D01*
X051401Y019160D01*
X051319Y019097D01*
X051256Y019015D01*
X051216Y018919D01*
X051203Y018816D01*
X051216Y018714D01*
X051256Y018618D01*
X051319Y018535D01*
X051401Y018472D01*
X051456Y018450D01*
Y018396D01*
X051401Y018373D01*
X051319Y018310D01*
X051256Y018227D01*
X051216Y018132D01*
X051203Y018029D01*
X051216Y017926D01*
X051256Y017830D01*
X051319Y017748D01*
X051401Y017685D01*
X051428Y017674D01*
X051428Y017620D01*
X051391Y017604D01*
X051304Y017537D01*
X051238Y017451D01*
X051196Y017350D01*
X051188Y017292D01*
X051600D01*
X052012D01*
X052004Y017350D01*
X051962Y017451D01*
X051896Y017537D01*
X051809Y017604D01*
X051772Y017620D01*
X051772Y017674D01*
X051799Y017685D01*
X051881Y017748D01*
X051944Y017830D01*
X051972Y017898D01*
X053529D01*
X053579Y017908D01*
X053622Y017936D01*
X054493Y018807D01*
X054521Y018850D01*
X054531Y018900D01*
Y019300D01*
X054521Y019350D01*
X054493Y019393D01*
X054305Y019581D01*
X054262Y019609D01*
X054253Y019662D01*
X054263Y019678D01*
X054267Y019694D01*
X053868D01*
X053470D01*
X053473Y019678D01*
X053510Y019622D01*
X053506Y019565D01*
X053493Y019546D01*
X053481Y019488D01*
X053493Y019431D01*
X053504Y019414D01*
X053477Y019364D01*
X052016D01*
X051966Y019354D01*
X051965Y019353D01*
X051930Y019390D01*
X051944Y019408D01*
X051984Y019504D01*
X051997Y019606D01*
X051984Y019709D01*
X051956Y019776D01*
X052048Y019869D01*
X053452D01*
X053479Y019819D01*
X053473Y019810D01*
X053470Y019794D01*
X053868D01*
X054267D01*
X054263Y019810D01*
X054226Y019866D01*
X054230Y019923D01*
X054243Y019942D01*
X054255Y020000D01*
X054243Y020058D01*
X054219Y020095D01*
X054214Y020128D01*
X054219Y020161D01*
X054243Y020198D01*
X054255Y020256D01*
X054243Y020314D01*
X054211Y020362D01*
Y020405D01*
X054243Y020454D01*
X054255Y020512D01*
X054243Y020569D01*
X054219Y020606D01*
X054214Y020640D01*
X054219Y020673D01*
X054243Y020710D01*
X054255Y020768D01*
X054243Y020825D01*
X054211Y020874D01*
X054162Y020907D01*
X054104Y020918D01*
X053632D01*
X053574Y020907D01*
X053563Y020899D01*
X052853D01*
X051956Y021796D01*
X051984Y021863D01*
X051997Y021966D01*
X051984Y022069D01*
X051944Y022164D01*
X051881Y022247D01*
X051799Y022310D01*
X051741Y022334D01*
Y022388D01*
X051799Y022412D01*
X051881Y022475D01*
X051944Y022557D01*
X051984Y022653D01*
X051997Y022756D01*
X052009Y022769D01*
X054061D01*
Y022359D01*
X054730D01*
X054730Y022359D01*
Y022359D01*
X054772Y022339D01*
X054969Y022142D01*
Y020714D01*
X054979Y020664D01*
X055007Y020622D01*
X055466Y020163D01*
X055508Y020135D01*
X055558Y020125D01*
X055741D01*
X055768Y020075D01*
X055757Y020058D01*
X055745Y020000D01*
X055757Y019942D01*
X055789Y019894D01*
Y019851D01*
X055757Y019802D01*
X055745Y019744D01*
X055757Y019686D01*
X055781Y019649D01*
X055786Y019616D01*
X055781Y019583D01*
X055757Y019546D01*
X055745Y019488D01*
X055757Y019431D01*
X055789Y019382D01*
Y019339D01*
X055757Y019290D01*
X055745Y019232D01*
X055757Y019175D01*
X055789Y019126D01*
X055838Y019093D01*
X055896Y019082D01*
X056368D01*
X056426Y019093D01*
X056475Y019126D01*
X056507Y019175D01*
X056519Y019232D01*
X056507Y019290D01*
X056475Y019339D01*
Y019382D01*
X056507Y019431D01*
X056519Y019488D01*
X056507Y019546D01*
X056482Y019583D01*
X056478Y019616D01*
X056482Y019649D01*
X056507Y019686D01*
X056519Y019744D01*
X056507Y019802D01*
X056496Y019819D01*
X056523Y019869D01*
X056757D01*
X056808Y019879D01*
X056850Y019907D01*
X056905Y019961D01*
X057081D01*
Y020255D01*
X057102D01*
Y020407D01*
X056698D01*
Y020255D01*
X056719D01*
Y020147D01*
X056703Y020131D01*
X056523D01*
X056496Y020181D01*
X056507Y020198D01*
X056519Y020256D01*
X056507Y020314D01*
X056494Y020333D01*
X056490Y020390D01*
X056527Y020446D01*
X056530Y020462D01*
X056132D01*
X055733D01*
X055737Y020446D01*
X055742Y020437D01*
X055716Y020387D01*
X055613D01*
X055231Y020769D01*
Y022196D01*
X055221Y022246D01*
X055193Y022289D01*
X054730Y022751D01*
Y023442D01*
D02*
G37*
G36*
X055709Y024750D02*
X055050D01*
Y024091D01*
X055139Y024100D01*
X055273Y024141D01*
X055396Y024207D01*
X055505Y024295D01*
X055593Y024404D01*
X055659Y024527D01*
X055700Y024661D01*
X055709Y024750D01*
D02*
G37*
G36*
X055050Y025509D02*
Y024850D01*
X055709D01*
X055700Y024939D01*
X055659Y025073D01*
X055593Y025196D01*
X055505Y025305D01*
X055396Y025393D01*
X055273Y025459D01*
X055139Y025500D01*
X055050Y025509D01*
D02*
G37*
G36*
X054950D02*
X054861Y025500D01*
X054727Y025459D01*
X054604Y025393D01*
X054495Y025305D01*
X054407Y025196D01*
X054341Y025073D01*
X054300Y024939D01*
X054291Y024850D01*
X054950D01*
Y025509D01*
D02*
G37*
G36*
X055952Y023463D02*
X055646D01*
Y022950D01*
X055952D01*
Y023463D01*
D02*
G37*
G36*
X056368Y020918D02*
X055896D01*
X055838Y020907D01*
X055789Y020874D01*
X055757Y020825D01*
X055745Y020768D01*
X055757Y020710D01*
X055770Y020691D01*
X055774Y020634D01*
X055737Y020578D01*
X055733Y020562D01*
X056132D01*
X056530D01*
X056527Y020578D01*
X056490Y020634D01*
X056494Y020691D01*
X056507Y020710D01*
X056519Y020768D01*
X056507Y020825D01*
X056475Y020874D01*
X056426Y020907D01*
X056368Y020918D01*
D02*
G37*
G36*
X057102Y020660D02*
X056950D01*
Y020507D01*
X057102D01*
Y020660D01*
D02*
G37*
G36*
X055546Y022850D02*
X055241D01*
Y022338D01*
X055546D01*
Y022850D01*
D02*
G37*
G36*
Y023463D02*
X055241D01*
Y022950D01*
X055546D01*
Y023463D01*
D02*
G37*
G36*
X055952Y022850D02*
X055646D01*
Y022338D01*
X055952D01*
Y022850D01*
D02*
G37*
%LPD*%
D10*
X056900Y020457D02*
D03*
Y020143D02*
D03*
D11*
X053868Y020768D02*
D03*
Y020512D02*
D03*
Y020256D02*
D03*
Y020000D02*
D03*
Y019744D02*
D03*
Y019488D02*
D03*
Y019232D02*
D03*
X056132Y020768D02*
D03*
Y020512D02*
D03*
Y020256D02*
D03*
Y020000D02*
D03*
Y019744D02*
D03*
Y019488D02*
D03*
Y019232D02*
D03*
D12*
X055596Y022900D02*
D03*
X054396D02*
D03*
D13*
X052798Y020768D02*
X053868D01*
X051600Y021966D02*
X052798Y020768D01*
X054212Y019488D02*
X054400Y019300D01*
Y018900D02*
Y019300D01*
X053529Y018029D02*
X054400Y018900D01*
X053868Y019488D02*
X054212D01*
X051600Y018029D02*
X053529D01*
X052016Y019232D02*
X053868D01*
X051600Y018816D02*
X052016Y019232D01*
X051994Y020000D02*
X053868D01*
X051600Y019606D02*
X051994Y020000D01*
X051740Y020256D02*
X053868D01*
X051600Y020396D02*
X051740Y020256D01*
X052267Y020512D02*
X053868D01*
X051600Y021179D02*
X052267Y020512D01*
X054396Y022900D02*
X055100Y022196D01*
Y020714D02*
Y022196D01*
Y020714D02*
X055558Y020256D01*
X056132D01*
X051744Y022900D02*
X054396D01*
X051600Y022756D02*
X051744Y022900D01*
X056757Y020000D02*
X056900Y020143D01*
X056132Y020000D02*
X056757D01*
X056132D02*
Y020256D01*
D14*
X055000Y015200D02*
D03*
Y024800D02*
D03*
X059800Y020000D02*
D03*
D15*
X051600Y022756D02*
D03*
Y021966D02*
D03*
Y021179D02*
D03*
Y017241D02*
D03*
Y018029D02*
D03*
Y018816D02*
D03*
Y019606D02*
D03*
Y020396D02*
D03*
M02*
