G04 Layer_Physical_Order=1*
G04 Layer_Color=255*
%FSAX24Y24*%
%MOIN*%
G70*
G01*
G75*
%ADD10R,0.0512X0.0925*%
%ADD11R,0.0276X0.0354*%
%ADD12O,0.0709X0.0177*%
%ADD13C,0.0100*%
%ADD14C,0.0630*%
%ADD15C,0.1693*%
%ADD16C,0.0500*%
G36*
X054950Y025879D02*
X055000Y025869D01*
Y025869D01*
X055002Y025871D01*
X055461Y025853D01*
X055918Y025799D01*
X056371Y025709D01*
X056814Y025583D01*
X057247Y025424D01*
X057665Y025231D01*
X058067Y025006D01*
X058451Y024750D01*
X058813Y024464D01*
X059151Y024151D01*
X059464Y023813D01*
X059750Y023451D01*
X060006Y023067D01*
X060231Y022665D01*
X060424Y022247D01*
X060583Y021814D01*
X060709Y021371D01*
X060799Y020918D01*
X060853Y020461D01*
X060871Y020000D01*
X060853Y019539D01*
X060799Y019082D01*
X060709Y018629D01*
X060583Y018186D01*
X060424Y017753D01*
X060231Y017335D01*
X060006Y016933D01*
X059750Y016549D01*
X059464Y016187D01*
X059151Y015849D01*
X058813Y015536D01*
X058451Y015250D01*
X058067Y014994D01*
X057665Y014769D01*
X057247Y014576D01*
X056814Y014417D01*
X056371Y014291D01*
X055918Y014201D01*
X055461Y014147D01*
X055002Y014129D01*
X055000Y014131D01*
Y014131D01*
X054950Y014121D01*
X054949Y014120D01*
X051052D01*
X051050Y014121D01*
X051000Y014131D01*
Y014131D01*
X050998Y014130D01*
X050756Y014146D01*
X050516Y014193D01*
X050284Y014272D01*
X050065Y014380D01*
X049861Y014516D01*
X049678Y014678D01*
X049516Y014861D01*
X049380Y015065D01*
X049272Y015284D01*
X049193Y015516D01*
X049146Y015756D01*
X049130Y015998D01*
X049131Y016000D01*
X049131D01*
X049121Y016050D01*
X049120Y016051D01*
Y023949D01*
X049121Y023950D01*
X049131Y024000D01*
X049131D01*
X049130Y024002D01*
X049146Y024244D01*
X049193Y024484D01*
X049272Y024716D01*
X049380Y024935D01*
X049516Y025139D01*
X049678Y025322D01*
X049861Y025484D01*
X050065Y025620D01*
X050284Y025728D01*
X050516Y025807D01*
X050756Y025854D01*
X050998Y025870D01*
X051000Y025869D01*
Y025869D01*
X051050Y025879D01*
X051052Y025880D01*
X054949D01*
X054950Y025879D01*
D02*
G37*
%LPC*%
G36*
X059800Y020930D02*
X059619Y020912D01*
X059444Y020859D01*
X059283Y020773D01*
X059143Y020657D01*
X059027Y020517D01*
X058941Y020356D01*
X058888Y020181D01*
X058870Y020000D01*
X058888Y019819D01*
X058941Y019644D01*
X059027Y019483D01*
X059143Y019343D01*
X059283Y019227D01*
X059444Y019141D01*
X059619Y019088D01*
X059800Y019070D01*
X059981Y019088D01*
X060156Y019141D01*
X060317Y019227D01*
X060457Y019343D01*
X060573Y019483D01*
X060659Y019644D01*
X060712Y019819D01*
X060730Y020000D01*
X060712Y020181D01*
X060659Y020356D01*
X060573Y020517D01*
X060457Y020657D01*
X060317Y020773D01*
X060156Y020859D01*
X059981Y020912D01*
X059800Y020930D01*
D02*
G37*
G36*
X051600Y022757D02*
X051497Y022743D01*
X051401Y022704D01*
X051319Y022640D01*
X051256Y022558D01*
X051216Y022462D01*
X051203Y022360D01*
X051216Y022257D01*
X051256Y022161D01*
X051319Y022079D01*
X051401Y022016D01*
X051456Y021993D01*
Y021939D01*
X051401Y021916D01*
X051319Y021853D01*
X051256Y021771D01*
X051216Y021675D01*
X051203Y021572D01*
X051216Y021469D01*
X051256Y021374D01*
X051319Y021291D01*
X051401Y021228D01*
X051450Y021208D01*
Y021154D01*
X051401Y021134D01*
X051319Y021071D01*
X051256Y020989D01*
X051216Y020893D01*
X051203Y020790D01*
X051216Y020687D01*
X051256Y020591D01*
X051319Y020509D01*
X051401Y020446D01*
X051459Y020422D01*
Y020368D01*
X051401Y020344D01*
X051319Y020281D01*
X051256Y020199D01*
X051216Y020103D01*
X051203Y020000D01*
X051216Y019897D01*
X051256Y019801D01*
X051319Y019719D01*
X051401Y019656D01*
X051459Y019632D01*
Y019578D01*
X051401Y019554D01*
X051319Y019491D01*
X051256Y019409D01*
X051216Y019313D01*
X051203Y019210D01*
X051216Y019107D01*
X051256Y019011D01*
X051319Y018929D01*
X051401Y018866D01*
X051456Y018843D01*
Y018789D01*
X051401Y018767D01*
X051319Y018703D01*
X051256Y018621D01*
X051216Y018525D01*
X051203Y018423D01*
X051216Y018320D01*
X051256Y018224D01*
X051319Y018142D01*
X051401Y018079D01*
X051428Y018067D01*
Y018013D01*
X051391Y017998D01*
X051304Y017931D01*
X051238Y017844D01*
X051196Y017744D01*
X051188Y017685D01*
X051600D01*
X052012D01*
X052004Y017744D01*
X051962Y017844D01*
X051896Y017931D01*
X051809Y017998D01*
X051772Y018013D01*
Y018067D01*
X051799Y018079D01*
X051881Y018142D01*
X051944Y018224D01*
X051972Y018291D01*
X054936D01*
X054955Y018245D01*
X054772Y018062D01*
X054730Y018042D01*
Y018042D01*
X054730Y018042D01*
X054061D01*
Y016959D01*
X054730D01*
Y017649D01*
X055190Y018109D01*
X055240Y018104D01*
X055241Y018063D01*
X055241Y018063D01*
Y017550D01*
X055596D01*
X055952D01*
Y018063D01*
X055952Y018063D01*
X055953Y018113D01*
X056685D01*
X056735Y018123D01*
X056777Y018151D01*
X057293Y018666D01*
X057321Y018709D01*
X057331Y018759D01*
Y021010D01*
X057321Y021060D01*
X057293Y021103D01*
X056893Y021503D01*
X056850Y021531D01*
X056800Y021541D01*
X055994D01*
X055944Y021531D01*
X055901Y021503D01*
X054902Y020504D01*
X054856Y020523D01*
Y022044D01*
X054941D01*
Y022556D01*
X054508D01*
Y022491D01*
X051972D01*
X051944Y022558D01*
X051881Y022640D01*
X051799Y022704D01*
X051703Y022743D01*
X051600Y022757D01*
D02*
G37*
G36*
X057350Y017846D02*
Y017550D01*
X057646D01*
X057641Y017591D01*
X057606Y017677D01*
X057550Y017750D01*
X057477Y017806D01*
X057391Y017841D01*
X057350Y017846D01*
D02*
G37*
G36*
X052850Y016646D02*
Y016350D01*
X053146D01*
X053141Y016391D01*
X053106Y016477D01*
X053050Y016550D01*
X052977Y016606D01*
X052891Y016641D01*
X052850Y016646D01*
D02*
G37*
G36*
X052750Y016250D02*
X052454D01*
X052459Y016209D01*
X052494Y016123D01*
X052550Y016050D01*
X052623Y015994D01*
X052709Y015959D01*
X052750Y015954D01*
Y016250D01*
D02*
G37*
G36*
X053146D02*
X052850D01*
Y015954D01*
X052891Y015959D01*
X052977Y015994D01*
X053050Y016050D01*
X053106Y016123D01*
X053141Y016209D01*
X053146Y016250D01*
D02*
G37*
G36*
X052750Y016646D02*
X052709Y016641D01*
X052623Y016606D01*
X052550Y016550D01*
X052494Y016477D01*
X052459Y016391D01*
X052454Y016350D01*
X052750D01*
Y016646D01*
D02*
G37*
G36*
X057250Y017450D02*
X056954D01*
X056959Y017409D01*
X056994Y017323D01*
X057050Y017250D01*
X057123Y017194D01*
X057209Y017159D01*
X057250Y017154D01*
Y017450D01*
D02*
G37*
G36*
X055952Y017450D02*
X055646D01*
Y016938D01*
X055952D01*
Y017450D01*
D02*
G37*
G36*
X055546D02*
X055241D01*
Y016938D01*
X055546D01*
Y017450D01*
D02*
G37*
G36*
X057646Y017450D02*
X057350D01*
Y017154D01*
X057391Y017159D01*
X057477Y017194D01*
X057550Y017250D01*
X057606Y017323D01*
X057641Y017409D01*
X057646Y017450D01*
D02*
G37*
G36*
X057250Y017846D02*
X057209Y017841D01*
X057123Y017806D01*
X057050Y017750D01*
X056994Y017677D01*
X056959Y017591D01*
X056954Y017550D01*
X057250D01*
Y017846D01*
D02*
G37*
G36*
X052012Y017585D02*
X051650D01*
Y017223D01*
X051708Y017231D01*
X051809Y017273D01*
X051896Y017339D01*
X051962Y017426D01*
X052004Y017527D01*
X052012Y017585D01*
D02*
G37*
G36*
X051550D02*
X051188D01*
X051196Y017527D01*
X051238Y017426D01*
X051304Y017339D01*
X051391Y017273D01*
X051492Y017231D01*
X051550Y017223D01*
Y017585D01*
D02*
G37*
G36*
X052750Y023550D02*
X052454D01*
X052459Y023509D01*
X052494Y023423D01*
X052550Y023350D01*
X052623Y023294D01*
X052709Y023259D01*
X052750Y023254D01*
Y023550D01*
D02*
G37*
G36*
X055513Y022577D02*
X055326D01*
Y022350D01*
X055513D01*
Y022577D01*
D02*
G37*
G36*
X057350Y022646D02*
Y022350D01*
X057646D01*
X057641Y022391D01*
X057606Y022477D01*
X057550Y022550D01*
X057477Y022606D01*
X057391Y022641D01*
X057350Y022646D01*
D02*
G37*
G36*
X053146Y023550D02*
X052850D01*
Y023254D01*
X052891Y023259D01*
X052977Y023294D01*
X053050Y023350D01*
X053106Y023423D01*
X053141Y023509D01*
X053146Y023550D01*
D02*
G37*
G36*
X055000Y025730D02*
X054819Y025712D01*
X054644Y025659D01*
X054483Y025573D01*
X054343Y025457D01*
X054227Y025317D01*
X054141Y025156D01*
X054088Y024981D01*
X054070Y024800D01*
X054088Y024619D01*
X054141Y024444D01*
X054227Y024283D01*
X054343Y024143D01*
X054483Y024027D01*
X054644Y023941D01*
X054819Y023888D01*
X055000Y023870D01*
X055181Y023888D01*
X055356Y023941D01*
X055517Y024027D01*
X055657Y024143D01*
X055773Y024283D01*
X055859Y024444D01*
X055912Y024619D01*
X055930Y024800D01*
X055912Y024981D01*
X055859Y025156D01*
X055773Y025317D01*
X055657Y025457D01*
X055517Y025573D01*
X055356Y025659D01*
X055181Y025712D01*
X055000Y025730D01*
D02*
G37*
G36*
X052850Y023946D02*
Y023650D01*
X053146D01*
X053141Y023691D01*
X053106Y023777D01*
X053050Y023850D01*
X052977Y023906D01*
X052891Y023941D01*
X052850Y023946D01*
D02*
G37*
G36*
X052750D02*
X052709Y023941D01*
X052623Y023906D01*
X052550Y023850D01*
X052494Y023777D01*
X052459Y023691D01*
X052454Y023650D01*
X052750D01*
Y023946D01*
D02*
G37*
G36*
X057250Y022646D02*
X057209Y022641D01*
X057123Y022606D01*
X057050Y022550D01*
X056994Y022477D01*
X056959Y022391D01*
X056954Y022350D01*
X057250D01*
Y022646D01*
D02*
G37*
G36*
X057646Y022250D02*
X057350D01*
Y021954D01*
X057391Y021959D01*
X057477Y021994D01*
X057550Y022050D01*
X057606Y022123D01*
X057641Y022209D01*
X057646Y022250D01*
D02*
G37*
G36*
X057250D02*
X056954D01*
X056959Y022209D01*
X056994Y022123D01*
X057050Y022050D01*
X057123Y021994D01*
X057209Y021959D01*
X057250Y021954D01*
Y022250D01*
D02*
G37*
G36*
X055000Y016130D02*
X054819Y016112D01*
X054644Y016059D01*
X054483Y015973D01*
X054343Y015857D01*
X054227Y015717D01*
X054141Y015556D01*
X054088Y015381D01*
X054070Y015200D01*
X054088Y015019D01*
X054141Y014844D01*
X054227Y014684D01*
X054343Y014543D01*
X054483Y014427D01*
X054644Y014341D01*
X054819Y014288D01*
X055000Y014270D01*
X055181Y014288D01*
X055356Y014341D01*
X055517Y014427D01*
X055657Y014543D01*
X055773Y014684D01*
X055859Y014844D01*
X055912Y015019D01*
X055930Y015200D01*
X055912Y015381D01*
X055859Y015556D01*
X055773Y015717D01*
X055657Y015857D01*
X055517Y015973D01*
X055356Y016059D01*
X055181Y016112D01*
X055000Y016130D01*
D02*
G37*
G36*
X055226Y022250D02*
X055038D01*
Y022023D01*
X055226D01*
Y022250D01*
D02*
G37*
G36*
Y022577D02*
X055038D01*
Y022350D01*
X055226D01*
Y022577D01*
D02*
G37*
G36*
X055513Y022250D02*
X055326D01*
Y022023D01*
X055513D01*
Y022250D01*
D02*
G37*
%LPD*%
G36*
X054508Y022044D02*
X054593D01*
Y020195D01*
X054151Y019753D01*
X054102Y019757D01*
X054080Y019800D01*
X054085Y019807D01*
X054098Y019872D01*
X054085Y019937D01*
X054053Y019985D01*
X054063Y019992D01*
X054105Y020054D01*
X054110Y020078D01*
X053661D01*
X053213D01*
X053218Y020054D01*
X053260Y019992D01*
X053270Y019985D01*
X053238Y019937D01*
X053225Y019872D01*
X053238Y019807D01*
X053254Y019783D01*
X053272Y019744D01*
X053254Y019705D01*
X053238Y019681D01*
X053225Y019616D01*
X053238Y019551D01*
X053254Y019527D01*
X053272Y019488D01*
X053254Y019449D01*
X053238Y019426D01*
X053235Y019411D01*
X053181Y019395D01*
X051956Y020620D01*
X051984Y020687D01*
X051997Y020790D01*
X051984Y020893D01*
X051956Y020960D01*
X051998Y020988D01*
X052696Y020291D01*
X052738Y020263D01*
X052788Y020253D01*
X053199D01*
X053223Y020208D01*
X053218Y020202D01*
X053213Y020178D01*
X053661D01*
X054110D01*
X054105Y020202D01*
X054063Y020264D01*
X054053Y020271D01*
X054085Y020319D01*
X054098Y020384D01*
X054085Y020449D01*
X054069Y020473D01*
X054051Y020512D01*
X054069Y020551D01*
X054085Y020574D01*
X054098Y020640D01*
X054085Y020705D01*
X054053Y020753D01*
X054063Y020760D01*
X054105Y020822D01*
X054110Y020846D01*
X053661D01*
X053213D01*
X053218Y020822D01*
X053260Y020760D01*
X053270Y020753D01*
X053238Y020705D01*
X053225Y020640D01*
X053238Y020574D01*
X053244Y020565D01*
X053218Y020515D01*
X052843D01*
X051956Y021402D01*
X051984Y021469D01*
X051997Y021572D01*
X051984Y021675D01*
X051944Y021771D01*
X051881Y021853D01*
X051799Y021916D01*
X051744Y021939D01*
Y021993D01*
X051799Y022016D01*
X051881Y022079D01*
X051944Y022161D01*
X051972Y022228D01*
X054508D01*
Y022044D01*
D02*
G37*
%LPC*%
G36*
X052750Y021946D02*
X052709Y021941D01*
X052623Y021906D01*
X052550Y021850D01*
X052494Y021777D01*
X052459Y021691D01*
X052454Y021650D01*
X052750D01*
Y021946D01*
D02*
G37*
G36*
X052850D02*
Y021650D01*
X053146D01*
X053141Y021691D01*
X053106Y021777D01*
X053050Y021850D01*
X052977Y021906D01*
X052891Y021941D01*
X052850Y021946D01*
D02*
G37*
G36*
X053146Y021550D02*
X052850D01*
Y021254D01*
X052891Y021259D01*
X052977Y021294D01*
X053050Y021350D01*
X053106Y021423D01*
X053141Y021509D01*
X053146Y021550D01*
D02*
G37*
G36*
X053927Y021322D02*
X053396D01*
X053330Y021309D01*
X053275Y021272D01*
X053238Y021217D01*
X053225Y021152D01*
X053238Y021086D01*
X053270Y021038D01*
X053260Y021032D01*
X053218Y020969D01*
X053213Y020946D01*
X053661D01*
X054110D01*
X054105Y020969D01*
X054063Y021032D01*
X054053Y021038D01*
X054085Y021086D01*
X054098Y021152D01*
X054085Y021217D01*
X054048Y021272D01*
X053992Y021309D01*
X053927Y021322D01*
D02*
G37*
G36*
X052750Y021550D02*
X052454D01*
X052459Y021509D01*
X052494Y021423D01*
X052550Y021350D01*
X052623Y021294D01*
X052709Y021259D01*
X052750Y021254D01*
Y021550D01*
D02*
G37*
%LPD*%
D10*
X054396Y017500D02*
D03*
X055596D02*
D03*
D11*
X055276Y022300D02*
D03*
X054724D02*
D03*
D12*
X056339Y018848D02*
D03*
Y019104D02*
D03*
Y019360D02*
D03*
Y019616D02*
D03*
Y019872D02*
D03*
Y020128D02*
D03*
Y020384D02*
D03*
Y020640D02*
D03*
Y020896D02*
D03*
Y021152D02*
D03*
X053661Y018848D02*
D03*
Y019104D02*
D03*
Y019360D02*
D03*
Y019616D02*
D03*
Y019872D02*
D03*
Y020128D02*
D03*
Y020384D02*
D03*
Y020640D02*
D03*
Y020896D02*
D03*
Y021152D02*
D03*
D13*
X056800Y021410D02*
X057200Y021010D01*
Y018759D02*
Y021010D01*
X056685Y018244D02*
X057200Y018759D01*
X057000Y018900D02*
Y019672D01*
X056523Y018423D02*
X057000Y018900D01*
X056800Y019872D02*
X057000Y019672D01*
X051600Y018423D02*
X056523D01*
X055139Y018244D02*
X056685D01*
X054396Y017500D02*
X055139Y018244D01*
X054401Y018601D02*
X055416Y019616D01*
X052209Y018601D02*
X054401D01*
X051600Y019210D02*
X052209Y018601D01*
X054665Y022360D02*
X054724Y022300D01*
X051600Y022360D02*
X054665D01*
X054724Y020141D02*
X055994Y021410D01*
X054200Y019616D02*
X054724Y020141D01*
Y022300D01*
X053661Y019616D02*
X054200D01*
X055994Y021410D02*
X056800D01*
X055416Y019616D02*
X056339D01*
Y019872D02*
X056800D01*
X051600Y020000D02*
X052752Y018848D01*
X053661D01*
X052788Y020384D02*
X053661D01*
X051600Y021572D02*
X052788Y020384D01*
X051600Y020790D02*
X053286Y019104D01*
X053661D01*
D14*
X051600Y020790D02*
D03*
Y020000D02*
D03*
Y019210D02*
D03*
Y018423D02*
D03*
Y017635D02*
D03*
Y021572D02*
D03*
Y022360D02*
D03*
D15*
X055000Y015200D02*
D03*
X059800Y020000D02*
D03*
X055000Y024800D02*
D03*
D16*
X052800Y023600D02*
D03*
X057300Y022300D02*
D03*
Y017500D02*
D03*
X052800Y016300D02*
D03*
Y021600D02*
D03*
M02*
