G04 Layer_Color=8388736*
%FSAX24Y24*%
%MOIN*%
G70*
G01*
G75*
%ADD21R,0.0592X0.1005*%
%ADD22R,0.0356X0.0434*%
%ADD23O,0.0789X0.0257*%
%ADD24C,0.0710*%
%ADD25C,0.1773*%
%ADD26C,0.0360*%
D21*
X054396Y017500D02*
D03*
X055596D02*
D03*
D22*
X055276Y022300D02*
D03*
X054724D02*
D03*
D23*
X056339Y018848D02*
D03*
Y019104D02*
D03*
Y019360D02*
D03*
Y019616D02*
D03*
Y019872D02*
D03*
Y020128D02*
D03*
Y020384D02*
D03*
Y020640D02*
D03*
Y020896D02*
D03*
Y021152D02*
D03*
X053661Y018848D02*
D03*
Y019104D02*
D03*
Y019360D02*
D03*
Y019616D02*
D03*
Y019872D02*
D03*
Y020128D02*
D03*
Y020384D02*
D03*
Y020640D02*
D03*
Y020896D02*
D03*
Y021152D02*
D03*
D24*
X051600Y020790D02*
D03*
Y020000D02*
D03*
Y019210D02*
D03*
Y018423D02*
D03*
Y017635D02*
D03*
Y021572D02*
D03*
Y022360D02*
D03*
D25*
X055000Y015200D02*
D03*
X059800Y020000D02*
D03*
X055000Y024800D02*
D03*
D26*
X052800Y023600D02*
D03*
X057300Y022300D02*
D03*
Y017500D02*
D03*
X052800Y016300D02*
D03*
Y021600D02*
D03*
M02*
