M48
;Layer_Color=9474304
;FILE_FORMAT=2:4
INCH
;TYPE=PLATED
T1F00S00C0.0280
T2F00S00C0.0315
T3F00S00C0.0354
T4F00S00C0.0380
%
T01
X019450Y035900
X021000Y038900
X018300Y040000
X018350Y045050
T02
X014300Y038819
Y039606
Y040394
Y041184
Y043919
Y044706
Y045494
Y046284
T03
X013700Y033400
Y034400
Y035400
Y036400
T04
X015900Y033450
Y034450
Y035450
Y036450
Y037450
Y038450
Y039450
Y040450
Y041450
Y042450
Y043450
Y044450
Y045450
Y046450
X021900
Y045450
Y044450
Y043450
Y042450
Y041450
Y040450
Y039450
Y038450
Y037450
Y036450
Y035450
Y034450
Y033450
X020900
X019900
X018900
X017900
X016900
X020900Y041450
Y042450
Y043450
Y045450
M30
