G04 Layer_Color=65535*
%FSAX25Y25*%
%MOIN*%
G70*
G01*
G75*
%ADD39C,0.01000*%
%ADD67C,0.00984*%
%ADD68C,0.00600*%
%ADD69C,0.00800*%
%ADD70C,0.02362*%
%ADD71C,0.00787*%
%ADD72C,0.00300*%
%ADD73R,0.10236X0.03062*%
D39*
X0333867Y0106880D02*
G03*
X0348133Y0106880I0007133J0026620D01*
G01*
Y0160120D02*
G03*
X0333867Y0160120I-0007133J-0026620D01*
G01*
X0555780Y0249000D02*
G03*
X0555780Y0249000I-0063779J0000000D01*
G01*
X0607500Y0261500D02*
X0613300D01*
X0607500D02*
Y0327500D01*
X0645500D01*
Y0261500D02*
Y0327500D01*
X0613300Y0261500D02*
X0645500D01*
X0401937Y0114528D02*
X0418472D01*
X0401937Y0155472D02*
X0413748D01*
X0382252D02*
X0394063D01*
X0377528Y0114528D02*
X0394063D01*
X0377528Y0150748D02*
X0382252Y0155472D01*
X0377528Y0114528D02*
Y0150748D01*
X0413748Y0155472D02*
X0418472Y0150748D01*
Y0114528D02*
Y0150748D01*
X0401437Y0176028D02*
X0417972D01*
X0401437Y0216972D02*
X0413248D01*
X0381752D02*
X0393563D01*
X0377028Y0176028D02*
X0393563D01*
X0377028Y0212248D02*
X0381752Y0216972D01*
X0377028Y0176028D02*
Y0212248D01*
X0413248Y0216972D02*
X0417972Y0212248D01*
Y0176028D02*
Y0212248D01*
X0601972Y0279437D02*
Y0295972D01*
X0561028Y0279437D02*
Y0291248D01*
Y0259752D02*
Y0271563D01*
X0601972Y0255028D02*
Y0271563D01*
X0561028Y0259752D02*
X0565752Y0255028D01*
X0601972D01*
X0561028Y0291248D02*
X0565752Y0295972D01*
X0601972D01*
X0381549Y0226548D02*
X0380549Y0227548D01*
X0378550D01*
X0377550Y0226548D01*
Y0222550D01*
X0378550Y0221550D01*
X0380549D01*
X0381549Y0222550D01*
X0383548Y0221550D02*
X0385547D01*
X0384548D01*
Y0227548D01*
X0383548Y0226548D01*
X0388546D02*
X0389546Y0227548D01*
X0391546D01*
X0392545Y0226548D01*
Y0225549D01*
X0391546Y0224549D01*
X0392545Y0223549D01*
Y0222550D01*
X0391546Y0221550D01*
X0389546D01*
X0388546Y0222550D01*
Y0223549D01*
X0389546Y0224549D01*
X0388546Y0225549D01*
Y0226548D01*
X0389546Y0224549D02*
X0391546D01*
X0382049Y0165048D02*
X0381049Y0166048D01*
X0379050D01*
X0378050Y0165048D01*
Y0161050D01*
X0379050Y0160050D01*
X0381049D01*
X0382049Y0161050D01*
X0384048Y0160050D02*
X0386047D01*
X0385048D01*
Y0166048D01*
X0384048Y0165048D01*
X0389046Y0161050D02*
X0390046Y0160050D01*
X0392045D01*
X0393045Y0161050D01*
Y0165048D01*
X0392045Y0166048D01*
X0390046D01*
X0389046Y0165048D01*
Y0164049D01*
X0390046Y0163049D01*
X0393045D01*
X0672332Y0318334D02*
X0672999Y0319001D01*
Y0320334D01*
X0672332Y0321000D01*
X0669666D01*
X0669000Y0320334D01*
Y0319001D01*
X0669666Y0318334D01*
X0669000Y0314335D02*
Y0317001D01*
X0671666Y0314335D01*
X0672332D01*
X0672999Y0315002D01*
Y0316335D01*
X0672332Y0317001D01*
X0672999Y0313003D02*
Y0310337D01*
X0672332D01*
X0669666Y0313003D01*
X0669000D01*
X0546999Y0295998D02*
X0545999Y0296998D01*
X0544000D01*
X0543000Y0295998D01*
Y0292000D01*
X0544000Y0291000D01*
X0545999D01*
X0546999Y0292000D01*
X0548998Y0295998D02*
X0549998Y0296998D01*
X0551997D01*
X0552997Y0295998D01*
Y0294999D01*
X0551997Y0293999D01*
X0550997D01*
X0551997D01*
X0552997Y0292999D01*
Y0292000D01*
X0551997Y0291000D01*
X0549998D01*
X0548998Y0292000D01*
X0554996Y0295998D02*
X0555996Y0296998D01*
X0557995D01*
X0558995Y0295998D01*
Y0294999D01*
X0557995Y0293999D01*
X0556995D01*
X0557995D01*
X0558995Y0292999D01*
Y0292000D01*
X0557995Y0291000D01*
X0555996D01*
X0554996Y0292000D01*
X0478666Y0117668D02*
X0477999Y0117001D01*
X0476666D01*
X0476000Y0117668D01*
Y0120334D01*
X0476666Y0121000D01*
X0477999D01*
X0478666Y0120334D01*
X0479999Y0117668D02*
X0480665Y0117001D01*
X0481998D01*
X0482664Y0117668D01*
Y0118334D01*
X0481998Y0119001D01*
X0481332D01*
X0481998D01*
X0482664Y0119667D01*
Y0120334D01*
X0481998Y0121000D01*
X0480665D01*
X0479999Y0120334D01*
X0486663Y0117001D02*
X0483997D01*
Y0119001D01*
X0485330Y0118334D01*
X0485997D01*
X0486663Y0119001D01*
Y0120334D01*
X0485997Y0121000D01*
X0484664D01*
X0483997Y0120334D01*
X0464666Y0120332D02*
X0463999Y0120999D01*
X0462666D01*
X0462000Y0120332D01*
Y0117666D01*
X0462666Y0117000D01*
X0463999D01*
X0464666Y0117666D01*
X0465999Y0120332D02*
X0466665Y0120999D01*
X0467998D01*
X0468665Y0120332D01*
Y0119666D01*
X0467998Y0118999D01*
X0467332D01*
X0467998D01*
X0468665Y0118333D01*
Y0117666D01*
X0467998Y0117000D01*
X0466665D01*
X0465999Y0117666D01*
X0469997D02*
X0470664Y0117000D01*
X0471997D01*
X0472663Y0117666D01*
Y0120332D01*
X0471997Y0120999D01*
X0470664D01*
X0469997Y0120332D01*
Y0119666D01*
X0470664Y0118999D01*
X0472663D01*
X0285350Y0143348D02*
Y0137350D01*
X0288349D01*
X0289349Y0138350D01*
Y0142348D01*
X0288349Y0143348D01*
X0285350D01*
X0295347Y0137350D02*
X0291348D01*
X0295347Y0141349D01*
Y0142348D01*
X0294347Y0143348D01*
X0292348D01*
X0291348Y0142348D01*
X0560500Y0241998D02*
Y0236000D01*
X0563499D01*
X0564499Y0237000D01*
Y0240998D01*
X0563499Y0241998D01*
X0560500D01*
X0569497Y0236000D02*
Y0241998D01*
X0566498Y0238999D01*
X0570497D01*
X0186499Y0333498D02*
X0184499D01*
X0185499D01*
Y0328500D01*
X0184499Y0327500D01*
X0183500D01*
X0182500Y0328500D01*
X0188498Y0327500D02*
Y0333498D01*
X0191497D01*
X0192497Y0332498D01*
Y0330499D01*
X0191497Y0329499D01*
X0188498D01*
X0194496Y0327500D02*
X0196495D01*
X0195496D01*
Y0333498D01*
X0194496Y0332498D01*
X0171099Y0144698D02*
X0169099D01*
X0170099D01*
Y0139700D01*
X0169099Y0138700D01*
X0168100D01*
X0167100Y0139700D01*
X0173098Y0138700D02*
Y0144698D01*
X0176097D01*
X0177097Y0143698D01*
Y0141699D01*
X0176097Y0140699D01*
X0173098D01*
X0183095Y0138700D02*
X0179096D01*
X0183095Y0142699D01*
Y0143698D01*
X0182095Y0144698D01*
X0180096D01*
X0179096Y0143698D01*
X0154300Y0258598D02*
Y0252600D01*
X0158299D01*
X0160298D02*
X0162297D01*
X0161298D01*
Y0258598D01*
X0160298Y0257598D01*
X0314050Y0170548D02*
Y0164550D01*
X0318049D01*
X0324047D02*
X0320048D01*
X0324047Y0168549D01*
Y0169548D01*
X0323047Y0170548D01*
X0321048D01*
X0320048Y0169548D01*
X0433000Y0303998D02*
Y0298000D01*
X0436999D01*
X0438998Y0302998D02*
X0439998Y0303998D01*
X0441997D01*
X0442997Y0302998D01*
Y0301999D01*
X0441997Y0300999D01*
X0440997D01*
X0441997D01*
X0442997Y0299999D01*
Y0299000D01*
X0441997Y0298000D01*
X0439998D01*
X0438998Y0299000D01*
X0151650Y0326350D02*
Y0332348D01*
X0154649D01*
X0155649Y0331348D01*
Y0329349D01*
X0154649Y0328349D01*
X0151650D01*
X0157648Y0326350D02*
X0159647D01*
X0158648D01*
Y0332348D01*
X0157648Y0331348D01*
X0165150Y0326350D02*
Y0332348D01*
X0168149D01*
X0169149Y0331348D01*
Y0329349D01*
X0168149Y0328349D01*
X0165150D01*
X0175147Y0326350D02*
X0171148D01*
X0175147Y0330349D01*
Y0331348D01*
X0174147Y0332348D01*
X0172148D01*
X0171148Y0331348D01*
X0150650Y0164350D02*
Y0170348D01*
X0153649D01*
X0154649Y0169348D01*
Y0167349D01*
X0153649Y0166349D01*
X0150650D01*
X0156648Y0169348D02*
X0157648Y0170348D01*
X0159647D01*
X0160647Y0169348D01*
Y0168349D01*
X0159647Y0167349D01*
X0158647D01*
X0159647D01*
X0160647Y0166349D01*
Y0165350D01*
X0159647Y0164350D01*
X0157648D01*
X0156648Y0165350D01*
X0150600Y0130400D02*
Y0136398D01*
X0153599D01*
X0154599Y0135398D01*
Y0133399D01*
X0153599Y0132399D01*
X0150600D01*
X0159597Y0130400D02*
Y0136398D01*
X0156598Y0133399D01*
X0160597D01*
X0197499Y0250000D02*
Y0253998D01*
X0196499Y0254998D01*
X0194500D01*
X0193500Y0253998D01*
Y0250000D01*
X0194500Y0249000D01*
X0196499D01*
X0195499Y0250999D02*
X0197499Y0249000D01*
X0196499D02*
X0197499Y0250000D01*
X0199498Y0249000D02*
X0201497D01*
X0200498D01*
Y0254998D01*
X0199498Y0253998D01*
X0244499Y0250000D02*
Y0253998D01*
X0243499Y0254998D01*
X0241500D01*
X0240500Y0253998D01*
Y0250000D01*
X0241500Y0249000D01*
X0243499D01*
X0242499Y0250999D02*
X0244499Y0249000D01*
X0243499D02*
X0244499Y0250000D01*
X0250497Y0249000D02*
X0246498D01*
X0250497Y0252999D01*
Y0253998D01*
X0249497Y0254998D01*
X0247498D01*
X0246498Y0253998D01*
X0291499Y0248000D02*
Y0251998D01*
X0290499Y0252998D01*
X0288500D01*
X0287500Y0251998D01*
Y0248000D01*
X0288500Y0247000D01*
X0290499D01*
X0289499Y0248999D02*
X0291499Y0247000D01*
X0290499D02*
X0291499Y0248000D01*
X0293498Y0251998D02*
X0294498Y0252998D01*
X0296497D01*
X0297497Y0251998D01*
Y0250999D01*
X0296497Y0249999D01*
X0295497D01*
X0296497D01*
X0297497Y0248999D01*
Y0248000D01*
X0296497Y0247000D01*
X0294498D01*
X0293498Y0248000D01*
X0339049Y0251650D02*
Y0255648D01*
X0338049Y0256648D01*
X0336050D01*
X0335050Y0255648D01*
Y0251650D01*
X0336050Y0250650D01*
X0338049D01*
X0337049Y0252649D02*
X0339049Y0250650D01*
X0338049D02*
X0339049Y0251650D01*
X0344047Y0250650D02*
Y0256648D01*
X0341048Y0253649D01*
X0345047D01*
X0386549Y0251650D02*
Y0255648D01*
X0385549Y0256648D01*
X0383550D01*
X0382550Y0255648D01*
Y0251650D01*
X0383550Y0250650D01*
X0385549D01*
X0384549Y0252649D02*
X0386549Y0250650D01*
X0385549D02*
X0386549Y0251650D01*
X0392547Y0256648D02*
X0388548D01*
Y0253649D01*
X0390547Y0254649D01*
X0391547D01*
X0392547Y0253649D01*
Y0251650D01*
X0391547Y0250650D01*
X0389548D01*
X0388548Y0251650D01*
X0244549Y0292150D02*
Y0296148D01*
X0243549Y0297148D01*
X0241550D01*
X0240550Y0296148D01*
Y0292150D01*
X0241550Y0291150D01*
X0243549D01*
X0242549Y0293149D02*
X0244549Y0291150D01*
X0243549D02*
X0244549Y0292150D01*
X0250547Y0297148D02*
X0248547Y0296148D01*
X0246548Y0294149D01*
Y0292150D01*
X0247548Y0291150D01*
X0249547D01*
X0250547Y0292150D01*
Y0293149D01*
X0249547Y0294149D01*
X0246548D01*
X0292049Y0292150D02*
Y0296148D01*
X0291049Y0297148D01*
X0289050D01*
X0288050Y0296148D01*
Y0292150D01*
X0289050Y0291150D01*
X0291049D01*
X0290049Y0293149D02*
X0292049Y0291150D01*
X0291049D02*
X0292049Y0292150D01*
X0294048Y0297148D02*
X0298047D01*
Y0296148D01*
X0294048Y0292150D01*
Y0291150D01*
X0339049Y0292150D02*
Y0296148D01*
X0338049Y0297148D01*
X0336050D01*
X0335050Y0296148D01*
Y0292150D01*
X0336050Y0291150D01*
X0338049D01*
X0337049Y0293149D02*
X0339049Y0291150D01*
X0338049D02*
X0339049Y0292150D01*
X0341048Y0296148D02*
X0342048Y0297148D01*
X0344047D01*
X0345047Y0296148D01*
Y0295149D01*
X0344047Y0294149D01*
X0345047Y0293149D01*
Y0292150D01*
X0344047Y0291150D01*
X0342048D01*
X0341048Y0292150D01*
Y0293149D01*
X0342048Y0294149D01*
X0341048Y0295149D01*
Y0296148D01*
X0342048Y0294149D02*
X0344047D01*
X0386777Y0292291D02*
Y0296290D01*
X0385777Y0297290D01*
X0383778D01*
X0382778Y0296290D01*
Y0292291D01*
X0383778Y0291292D01*
X0385777D01*
X0384778Y0293291D02*
X0386777Y0291292D01*
X0385777D02*
X0386777Y0292291D01*
X0388776D02*
X0389776Y0291292D01*
X0391775D01*
X0392775Y0292291D01*
Y0296290D01*
X0391775Y0297290D01*
X0389776D01*
X0388776Y0296290D01*
Y0295290D01*
X0389776Y0294291D01*
X0392775D01*
X0381727Y0325141D02*
Y0329140D01*
X0380727Y0330140D01*
X0378728D01*
X0377728Y0329140D01*
Y0325141D01*
X0378728Y0324142D01*
X0380727D01*
X0379728Y0326141D02*
X0381727Y0324142D01*
X0380727D02*
X0381727Y0325141D01*
X0383726Y0324142D02*
X0385726D01*
X0384726D01*
Y0330140D01*
X0383726Y0329140D01*
X0388725D02*
X0389724Y0330140D01*
X0391724D01*
X0392723Y0329140D01*
Y0325141D01*
X0391724Y0324142D01*
X0389724D01*
X0388725Y0325141D01*
Y0329140D01*
X0336727Y0325141D02*
Y0329140D01*
X0335727Y0330140D01*
X0333728D01*
X0332728Y0329140D01*
Y0325141D01*
X0333728Y0324142D01*
X0335727D01*
X0334728Y0326141D02*
X0336727Y0324142D01*
X0335727D02*
X0336727Y0325141D01*
X0338726Y0324142D02*
X0340726D01*
X0339726D01*
Y0330140D01*
X0338726Y0329140D01*
X0343725Y0324142D02*
X0345724D01*
X0344724D01*
Y0330140D01*
X0343725Y0329140D01*
X0287727Y0325141D02*
Y0329140D01*
X0286727Y0330140D01*
X0284728D01*
X0283728Y0329140D01*
Y0325141D01*
X0284728Y0324142D01*
X0286727D01*
X0285728Y0326141D02*
X0287727Y0324142D01*
X0286727D02*
X0287727Y0325141D01*
X0289726Y0324142D02*
X0291726D01*
X0290726D01*
Y0330140D01*
X0289726Y0329140D01*
X0298724Y0324142D02*
X0294725D01*
X0298724Y0328140D01*
Y0329140D01*
X0297724Y0330140D01*
X0295725D01*
X0294725Y0329140D01*
X0595549Y0180750D02*
Y0184748D01*
X0594549Y0185748D01*
X0592550D01*
X0591550Y0184748D01*
Y0180750D01*
X0592550Y0179750D01*
X0594549D01*
X0593549Y0181749D02*
X0595549Y0179750D01*
X0594549D02*
X0595549Y0180750D01*
X0597548Y0179750D02*
X0599547D01*
X0598548D01*
Y0185748D01*
X0597548Y0184748D01*
X0602546D02*
X0603546Y0185748D01*
X0605546D01*
X0606545Y0184748D01*
Y0183749D01*
X0605546Y0182749D01*
X0604546D01*
X0605546D01*
X0606545Y0181749D01*
Y0180750D01*
X0605546Y0179750D01*
X0603546D01*
X0602546Y0180750D01*
X0644549D02*
Y0184748D01*
X0643549Y0185748D01*
X0641550D01*
X0640550Y0184748D01*
Y0180750D01*
X0641550Y0179750D01*
X0643549D01*
X0642549Y0181749D02*
X0644549Y0179750D01*
X0643549D02*
X0644549Y0180750D01*
X0646548Y0179750D02*
X0648547D01*
X0647548D01*
Y0185748D01*
X0646548Y0184748D01*
X0654545Y0179750D02*
Y0185748D01*
X0651546Y0182749D01*
X0655545D01*
X0555500Y0184499D02*
X0551502D01*
X0550502Y0183499D01*
Y0181500D01*
X0551502Y0180500D01*
X0555500D01*
X0556500Y0181500D01*
Y0183499D01*
X0554501Y0182499D02*
X0556500Y0184499D01*
Y0183499D02*
X0555500Y0184499D01*
X0556500Y0186498D02*
Y0188497D01*
Y0187498D01*
X0550502D01*
X0551502Y0186498D01*
X0550502Y0191496D02*
Y0195495D01*
X0551502D01*
X0555500Y0191496D01*
X0556500D01*
X0152999Y0190000D02*
Y0193998D01*
X0151999Y0194998D01*
X0150000D01*
X0149000Y0193998D01*
Y0190000D01*
X0150000Y0189000D01*
X0151999D01*
X0150999Y0190999D02*
X0152999Y0189000D01*
X0151999D02*
X0152999Y0190000D01*
X0158997Y0189000D02*
X0154998D01*
X0158997Y0192999D01*
Y0193998D01*
X0157997Y0194998D01*
X0155998D01*
X0154998Y0193998D01*
X0160996D02*
X0161996Y0194998D01*
X0163995D01*
X0164995Y0193998D01*
Y0190000D01*
X0163995Y0189000D01*
X0161996D01*
X0160996Y0190000D01*
Y0193998D01*
X0607950Y0330950D02*
Y0336948D01*
X0610949D01*
X0611949Y0335948D01*
Y0333949D01*
X0610949Y0332949D01*
X0607950D01*
X0609949D02*
X0611949Y0330950D01*
X0613948Y0336948D02*
X0617947D01*
Y0335948D01*
X0613948Y0331950D01*
Y0330950D01*
X0205500Y0249000D02*
Y0254998D01*
X0208499D01*
X0209499Y0253998D01*
Y0251999D01*
X0208499Y0250999D01*
X0205500D01*
X0207499D02*
X0209499Y0249000D01*
X0211498Y0253998D02*
X0212498Y0254998D01*
X0214497D01*
X0215497Y0253998D01*
Y0252999D01*
X0214497Y0251999D01*
X0213497D01*
X0214497D01*
X0215497Y0250999D01*
Y0250000D01*
X0214497Y0249000D01*
X0212498D01*
X0211498Y0250000D01*
X0217496Y0253998D02*
X0218496Y0254998D01*
X0220495D01*
X0221495Y0253998D01*
Y0252999D01*
X0220495Y0251999D01*
X0221495Y0250999D01*
Y0250000D01*
X0220495Y0249000D01*
X0218496D01*
X0217496Y0250000D01*
Y0250999D01*
X0218496Y0251999D01*
X0217496Y0252999D01*
Y0253998D01*
X0218496Y0251999D02*
X0220495D01*
X0252500Y0250000D02*
Y0255998D01*
X0255499D01*
X0256499Y0254998D01*
Y0252999D01*
X0255499Y0251999D01*
X0252500D01*
X0254499D02*
X0256499Y0250000D01*
X0258498Y0254998D02*
X0259498Y0255998D01*
X0261497D01*
X0262497Y0254998D01*
Y0253999D01*
X0261497Y0252999D01*
X0260497D01*
X0261497D01*
X0262497Y0251999D01*
Y0251000D01*
X0261497Y0250000D01*
X0259498D01*
X0258498Y0251000D01*
X0264496D02*
X0265496Y0250000D01*
X0267495D01*
X0268495Y0251000D01*
Y0254998D01*
X0267495Y0255998D01*
X0265496D01*
X0264496Y0254998D01*
Y0253999D01*
X0265496Y0252999D01*
X0268495D01*
X0299500Y0250000D02*
Y0255998D01*
X0302499D01*
X0303499Y0254998D01*
Y0252999D01*
X0302499Y0251999D01*
X0299500D01*
X0301499D02*
X0303499Y0250000D01*
X0308497D02*
Y0255998D01*
X0305498Y0252999D01*
X0309497D01*
X0311496Y0254998D02*
X0312496Y0255998D01*
X0314495D01*
X0315495Y0254998D01*
Y0251000D01*
X0314495Y0250000D01*
X0312496D01*
X0311496Y0251000D01*
Y0254998D01*
X0347500Y0252800D02*
Y0258798D01*
X0350499D01*
X0351499Y0257798D01*
Y0255799D01*
X0350499Y0254799D01*
X0347500D01*
X0349499D02*
X0351499Y0252800D01*
X0356497D02*
Y0258798D01*
X0353498Y0255799D01*
X0357497D01*
X0359496Y0252800D02*
X0361495D01*
X0360496D01*
Y0258798D01*
X0359496Y0257798D01*
X0395000Y0252800D02*
Y0258798D01*
X0397999D01*
X0398999Y0257798D01*
Y0255799D01*
X0397999Y0254799D01*
X0395000D01*
X0396999D02*
X0398999Y0252800D01*
X0403997D02*
Y0258798D01*
X0400998Y0255799D01*
X0404997D01*
X0410995Y0252800D02*
X0406996D01*
X0410995Y0256799D01*
Y0257798D01*
X0409995Y0258798D01*
X0407996D01*
X0406996Y0257798D01*
X0253000Y0293300D02*
Y0299298D01*
X0255999D01*
X0256999Y0298298D01*
Y0296299D01*
X0255999Y0295299D01*
X0253000D01*
X0254999D02*
X0256999Y0293300D01*
X0261997D02*
Y0299298D01*
X0258998Y0296299D01*
X0262997D01*
X0264996Y0298298D02*
X0265996Y0299298D01*
X0267995D01*
X0268995Y0298298D01*
Y0297299D01*
X0267995Y0296299D01*
X0266996D01*
X0267995D01*
X0268995Y0295299D01*
Y0294300D01*
X0267995Y0293300D01*
X0265996D01*
X0264996Y0294300D01*
X0300500Y0293300D02*
Y0299298D01*
X0303499D01*
X0304499Y0298298D01*
Y0296299D01*
X0303499Y0295299D01*
X0300500D01*
X0302499D02*
X0304499Y0293300D01*
X0309497D02*
Y0299298D01*
X0306498Y0296299D01*
X0310497D01*
X0315495Y0293300D02*
Y0299298D01*
X0312496Y0296299D01*
X0316495D01*
X0347500Y0293300D02*
Y0299298D01*
X0350499D01*
X0351499Y0298298D01*
Y0296299D01*
X0350499Y0295299D01*
X0347500D01*
X0349499D02*
X0351499Y0293300D01*
X0356497D02*
Y0299298D01*
X0353498Y0296299D01*
X0357497D01*
X0363495Y0299298D02*
X0359496D01*
Y0296299D01*
X0361495Y0297299D01*
X0362495D01*
X0363495Y0296299D01*
Y0294300D01*
X0362495Y0293300D01*
X0360496D01*
X0359496Y0294300D01*
X0395228Y0293442D02*
Y0299440D01*
X0398227D01*
X0399227Y0298440D01*
Y0296441D01*
X0398227Y0295441D01*
X0395228D01*
X0397228D02*
X0399227Y0293442D01*
X0404225D02*
Y0299440D01*
X0401226Y0296441D01*
X0405225D01*
X0411223Y0299440D02*
X0409224Y0298440D01*
X0407225Y0296441D01*
Y0294441D01*
X0408224Y0293442D01*
X0410223D01*
X0411223Y0294441D01*
Y0295441D01*
X0410223Y0296441D01*
X0407225D01*
X0395228Y0325942D02*
Y0331940D01*
X0398227D01*
X0399227Y0330940D01*
Y0328941D01*
X0398227Y0327941D01*
X0395228D01*
X0397228D02*
X0399227Y0325942D01*
X0404225D02*
Y0331940D01*
X0401226Y0328941D01*
X0405225D01*
X0407225Y0331940D02*
X0411223D01*
Y0330940D01*
X0407225Y0326941D01*
Y0325942D01*
X0348228D02*
Y0331940D01*
X0351227D01*
X0352227Y0330940D01*
Y0328941D01*
X0351227Y0327941D01*
X0348228D01*
X0350228D02*
X0352227Y0325942D01*
X0357225D02*
Y0331940D01*
X0354226Y0328941D01*
X0358225D01*
X0360225Y0330940D02*
X0361224Y0331940D01*
X0363224D01*
X0364223Y0330940D01*
Y0329940D01*
X0363224Y0328941D01*
X0364223Y0327941D01*
Y0326941D01*
X0363224Y0325942D01*
X0361224D01*
X0360225Y0326941D01*
Y0327941D01*
X0361224Y0328941D01*
X0360225Y0329940D01*
Y0330940D01*
X0361224Y0328941D02*
X0363224D01*
X0301228Y0325942D02*
Y0331940D01*
X0304227D01*
X0305227Y0330940D01*
Y0328941D01*
X0304227Y0327941D01*
X0301228D01*
X0303228D02*
X0305227Y0325942D01*
X0310225D02*
Y0331940D01*
X0307226Y0328941D01*
X0311225D01*
X0313225Y0326941D02*
X0314224Y0325942D01*
X0316224D01*
X0317223Y0326941D01*
Y0330940D01*
X0316224Y0331940D01*
X0314224D01*
X0313225Y0330940D01*
Y0329940D01*
X0314224Y0328941D01*
X0317223D01*
X0486000Y0131500D02*
Y0135499D01*
X0487999D01*
X0488666Y0134832D01*
Y0133499D01*
X0487999Y0132833D01*
X0486000D01*
X0487333D02*
X0488666Y0131500D01*
X0492664Y0135499D02*
X0489999D01*
Y0133499D01*
X0491332Y0134166D01*
X0491998D01*
X0492664Y0133499D01*
Y0132167D01*
X0491998Y0131500D01*
X0490665D01*
X0489999Y0132167D01*
X0493997Y0134832D02*
X0494664Y0135499D01*
X0495997D01*
X0496663Y0134832D01*
Y0132167D01*
X0495997Y0131500D01*
X0494664D01*
X0493997Y0132167D01*
Y0134832D01*
X0486000Y0105000D02*
Y0108999D01*
X0487999D01*
X0488666Y0108332D01*
Y0106999D01*
X0487999Y0106333D01*
X0486000D01*
X0487333D02*
X0488666Y0105000D01*
X0492664Y0108999D02*
X0489999D01*
Y0106999D01*
X0491332Y0107666D01*
X0491998D01*
X0492664Y0106999D01*
Y0105666D01*
X0491998Y0105000D01*
X0490665D01*
X0489999Y0105666D01*
X0493997Y0105000D02*
X0495330D01*
X0494664D01*
Y0108999D01*
X0493997Y0108332D01*
X0464000Y0178000D02*
Y0183998D01*
X0466999D01*
X0467999Y0182998D01*
Y0180999D01*
X0466999Y0179999D01*
X0464000D01*
X0465999D02*
X0467999Y0178000D01*
X0473997Y0183998D02*
X0469998D01*
Y0180999D01*
X0471997Y0181999D01*
X0472997D01*
X0473997Y0180999D01*
Y0179000D01*
X0472997Y0178000D01*
X0470998D01*
X0469998Y0179000D01*
X0479995Y0178000D02*
X0475996D01*
X0479995Y0181999D01*
Y0182998D01*
X0478995Y0183998D01*
X0476996D01*
X0475996Y0182998D01*
X0441000Y0133500D02*
Y0137499D01*
X0442999D01*
X0443666Y0136832D01*
Y0135499D01*
X0442999Y0134833D01*
X0441000D01*
X0442333D02*
X0443666Y0133500D01*
X0447664Y0137499D02*
X0444999D01*
Y0135499D01*
X0446332Y0136166D01*
X0446998D01*
X0447664Y0135499D01*
Y0134167D01*
X0446998Y0133500D01*
X0445665D01*
X0444999Y0134167D01*
X0448997Y0136832D02*
X0449664Y0137499D01*
X0450997D01*
X0451663Y0136832D01*
Y0136166D01*
X0450997Y0135499D01*
X0450330D01*
X0450997D01*
X0451663Y0134833D01*
Y0134167D01*
X0450997Y0133500D01*
X0449664D01*
X0448997Y0134167D01*
X0469000Y0132500D02*
Y0136499D01*
X0470999D01*
X0471666Y0135832D01*
Y0134499D01*
X0470999Y0133833D01*
X0469000D01*
X0470333D02*
X0471666Y0132500D01*
X0475665Y0136499D02*
X0472999D01*
Y0134499D01*
X0474332Y0135166D01*
X0474998D01*
X0475665Y0134499D01*
Y0133167D01*
X0474998Y0132500D01*
X0473665D01*
X0472999Y0133167D01*
X0479663Y0136499D02*
X0478330Y0135832D01*
X0476997Y0134499D01*
Y0133167D01*
X0477664Y0132500D01*
X0478997D01*
X0479663Y0133167D01*
Y0133833D01*
X0478997Y0134499D01*
X0476997D01*
X0147002Y0278500D02*
X0152000D01*
X0153000Y0279500D01*
Y0281499D01*
X0152000Y0282499D01*
X0147002D01*
X0153000Y0284498D02*
Y0286497D01*
Y0285498D01*
X0147002D01*
X0148002Y0284498D01*
X0314400Y0226498D02*
Y0221500D01*
X0315400Y0220500D01*
X0317399D01*
X0318399Y0221500D01*
Y0226498D01*
X0324397Y0220500D02*
X0320398D01*
X0324397Y0224499D01*
Y0225498D01*
X0323397Y0226498D01*
X0321398D01*
X0320398Y0225498D01*
X0158002Y0211000D02*
X0163000D01*
X0164000Y0212000D01*
Y0213999D01*
X0163000Y0214999D01*
X0158002D01*
X0159002Y0216998D02*
X0158002Y0217998D01*
Y0219997D01*
X0159002Y0220997D01*
X0160001D01*
X0161001Y0219997D01*
Y0218997D01*
Y0219997D01*
X0162001Y0220997D01*
X0163000D01*
X0164000Y0219997D01*
Y0217998D01*
X0163000Y0216998D01*
X0237550Y0148248D02*
Y0143250D01*
X0238550Y0142250D01*
X0240549D01*
X0241549Y0143250D01*
Y0148248D01*
X0246547Y0142250D02*
Y0148248D01*
X0243548Y0145249D01*
X0247547D01*
X0681998Y0306000D02*
X0677000D01*
X0676000Y0305000D01*
Y0303001D01*
X0677000Y0302001D01*
X0681998D01*
Y0296003D02*
Y0300002D01*
X0678999D01*
X0679999Y0298003D01*
Y0297003D01*
X0678999Y0296003D01*
X0677000D01*
X0676000Y0297003D01*
Y0299002D01*
X0677000Y0300002D01*
X0460000Y0175998D02*
Y0171000D01*
X0461000Y0170000D01*
X0462999D01*
X0463999Y0171000D01*
Y0175998D01*
X0469997D02*
X0467997Y0174998D01*
X0465998Y0172999D01*
Y0171000D01*
X0466998Y0170000D01*
X0468997D01*
X0469997Y0171000D01*
Y0171999D01*
X0468997Y0172999D01*
X0465998D01*
X0430600Y0192398D02*
Y0187400D01*
X0431600Y0186400D01*
X0433599D01*
X0434599Y0187400D01*
Y0192398D01*
X0436598D02*
X0440597D01*
Y0191398D01*
X0436598Y0187400D01*
Y0186400D01*
X0513999Y0166998D02*
X0511999D01*
X0512999D01*
Y0162000D01*
X0511999Y0161000D01*
X0511000D01*
X0510000Y0162000D01*
X0515998Y0161000D02*
Y0166998D01*
X0518997D01*
X0519997Y0165998D01*
Y0163999D01*
X0518997Y0162999D01*
X0515998D01*
X0521996Y0165998D02*
X0522996Y0166998D01*
X0524995D01*
X0525995Y0165998D01*
Y0164999D01*
X0524995Y0163999D01*
X0523995D01*
X0524995D01*
X0525995Y0162999D01*
Y0162000D01*
X0524995Y0161000D01*
X0522996D01*
X0521996Y0162000D01*
X0653668Y0256166D02*
X0653001Y0255499D01*
Y0254166D01*
X0653668Y0253500D01*
X0656334D01*
X0657000Y0254166D01*
Y0255499D01*
X0656334Y0256166D01*
X0657000Y0260164D02*
Y0257499D01*
X0654334Y0260164D01*
X0653668D01*
X0653001Y0259498D01*
Y0258165D01*
X0653668Y0257499D01*
X0657000Y0264163D02*
Y0261497D01*
X0654334Y0264163D01*
X0653668D01*
X0653001Y0263497D01*
Y0262164D01*
X0653668Y0261497D01*
X0671168Y0256166D02*
X0670501Y0255499D01*
Y0254166D01*
X0671168Y0253500D01*
X0673834D01*
X0674500Y0254166D01*
Y0255499D01*
X0673834Y0256166D01*
X0674500Y0259498D02*
X0670501D01*
X0672501Y0257499D01*
Y0260164D01*
X0671168Y0261497D02*
X0670501Y0262164D01*
Y0263497D01*
X0671168Y0264163D01*
X0671834D01*
X0672501Y0263497D01*
Y0262830D01*
Y0263497D01*
X0673167Y0264163D01*
X0673834D01*
X0674500Y0263497D01*
Y0262164D01*
X0673834Y0261497D01*
X0576000Y0151998D02*
Y0146000D01*
X0579999D01*
X0581998Y0148999D02*
X0585997D01*
X0588500Y0107998D02*
Y0102000D01*
X0592499D01*
X0594498Y0104999D02*
X0598497D01*
X0596497Y0106998D02*
Y0103000D01*
X0506000Y0325998D02*
Y0320000D01*
X0508999D01*
X0509999Y0321000D01*
Y0321999D01*
X0508999Y0322999D01*
X0506000D01*
X0508999D01*
X0509999Y0323999D01*
Y0324998D01*
X0508999Y0325998D01*
X0506000D01*
X0511998Y0322999D02*
X0515997D01*
X0567500Y0333498D02*
Y0327500D01*
X0570499D01*
X0571499Y0328500D01*
Y0329499D01*
X0570499Y0330499D01*
X0567500D01*
X0570499D01*
X0571499Y0331499D01*
Y0332498D01*
X0570499Y0333498D01*
X0567500D01*
X0573498Y0330499D02*
X0577497D01*
X0575497Y0332498D02*
Y0328500D01*
D67*
X0593760Y0118394D02*
G03*
X0593760Y0118394I-0000492J0000000D01*
G01*
X0642760D02*
G03*
X0642760Y0118394I-0000492J0000000D01*
G01*
X0290492Y0108024D02*
G03*
X0290492Y0108024I-0000492J0000000D01*
G01*
X0366917Y0178980D02*
G03*
X0366917Y0178980I-0000492J0000000D01*
G01*
X0243984Y0137189D02*
G03*
X0243984Y0137189I-0000492J0000000D01*
G01*
X0159665Y0265713D02*
G03*
X0159665Y0265713I-0000492J0000000D01*
G01*
X0673535Y0302646D02*
G03*
X0673535Y0302646I-0000492J0000000D01*
G01*
X0467012Y0165024D02*
G03*
X0467012Y0165024I-0000492J0000000D01*
G01*
X0617098Y0181768D02*
G03*
X0617098Y0181768I-0000492J0000000D01*
G01*
X0566153Y0252642D02*
G03*
X0566153Y0252642I-0000492J0000000D01*
G01*
D68*
X0429950Y0167800D02*
G03*
X0429950Y0170200I0000000J0001200D01*
G01*
X0450050Y0162039D02*
Y0175961D01*
X0429950Y0162039D02*
Y0175961D01*
D69*
X0528000Y0128000D02*
G03*
X0518100Y0119000I-0000450J-0009450D01*
G01*
X0537843D02*
G03*
X0528000Y0128000I-0009421J-0000421D01*
G01*
X0382217Y0284442D02*
X0384579D01*
X0382217Y0281248D02*
Y0284442D01*
X0390928D02*
X0393328D01*
Y0281248D02*
Y0284442D01*
X0345600Y0281106D02*
Y0284300D01*
X0343200D02*
X0345600D01*
X0334488Y0281106D02*
Y0284300D01*
X0336850D01*
X0287488D02*
X0289850D01*
X0287488Y0281106D02*
Y0284300D01*
X0296200D02*
X0298600D01*
Y0281106D02*
Y0284300D01*
X0251100Y0281106D02*
Y0284300D01*
X0248700D02*
X0251100D01*
X0239988Y0281106D02*
Y0284300D01*
X0242350D01*
X0381988Y0243800D02*
X0384350D01*
X0381988Y0240606D02*
Y0243800D01*
X0390700D02*
X0393100D01*
Y0240606D02*
Y0243800D01*
X0345600Y0240606D02*
Y0243800D01*
X0343200D02*
X0345600D01*
X0334488Y0240606D02*
Y0243800D01*
X0336850D01*
X0229522Y0105300D02*
Y0135299D01*
X0166504Y0105300D02*
X0229496D01*
X0166504D02*
Y0135299D01*
X0226963D02*
X0229522D01*
X0166504D02*
X0169104D01*
X0226963Y0129000D02*
Y0135299D01*
X0169104Y0129000D02*
Y0135299D01*
X0510200Y0157600D02*
X0545716D01*
X0510200Y0105220D02*
X0518100D01*
X0537843D01*
X0545716D01*
X0518100D02*
Y0119000D01*
X0537843Y0105220D02*
Y0119000D01*
X0510200Y0105220D02*
Y0111126D01*
Y0126900D02*
Y0135200D01*
Y0151300D02*
Y0157600D01*
X0545716Y0150900D02*
Y0157600D01*
Y0126900D02*
Y0135200D01*
Y0105220D02*
Y0111126D01*
X0154200Y0175488D02*
Y0177850D01*
Y0175488D02*
X0157394D01*
X0154200Y0184200D02*
Y0186600D01*
X0157394D01*
X0251100Y0240606D02*
Y0243800D01*
X0248700D02*
X0251100D01*
X0239988Y0240606D02*
Y0243800D01*
X0242350D01*
X0192988D02*
X0195350D01*
X0192988Y0240606D02*
Y0243800D01*
X0201700D02*
X0204100D01*
Y0240606D02*
Y0243800D01*
X0286988D02*
X0289350D01*
X0286988Y0240606D02*
Y0243800D01*
X0295700D02*
X0298100D01*
Y0240606D02*
Y0243800D01*
X0335216Y0316942D02*
X0337579D01*
X0335216Y0313748D02*
Y0316942D01*
X0343928D02*
X0346328D01*
Y0313748D02*
Y0316942D01*
X0393328Y0313748D02*
Y0316942D01*
X0390928D02*
X0393328D01*
X0382217Y0313748D02*
Y0316942D01*
X0384579D01*
X0299328Y0313748D02*
Y0316942D01*
X0296928D02*
X0299328D01*
X0288216Y0313748D02*
Y0316942D01*
X0290579D01*
X0172500Y0182000D02*
Y0192000D01*
X0167500D02*
X0172500D01*
X0167500D02*
Y0222000D01*
X0307500D01*
Y0152000D02*
Y0222000D01*
X0167500Y0152000D02*
X0307500D01*
X0167500D02*
Y0182000D01*
X0172500D01*
X0179819Y0306701D02*
Y0336700D01*
X0282181D01*
Y0306701D02*
Y0336700D01*
X0179819Y0306701D02*
X0182378D01*
X0279581D02*
X0282181D01*
X0182378D02*
Y0313000D01*
X0279581Y0306701D02*
Y0313000D01*
D70*
X0161831Y0274965D02*
G03*
X0161831Y0274965I-0001181J0000000D01*
G01*
D71*
X0164500Y0303000D02*
Y0323000D01*
Y0303000D02*
X0174500D01*
Y0323000D01*
X0164500D02*
X0174500D01*
X0307854Y0308941D02*
X0323602D01*
X0307854Y0321342D02*
X0323602D01*
X0354854Y0308941D02*
X0370602D01*
X0354854Y0321342D02*
X0370602D01*
X0151000Y0303000D02*
Y0323000D01*
Y0303000D02*
X0161000D01*
Y0323000D01*
X0151000D02*
X0161000D01*
X0401854Y0308941D02*
X0417602D01*
X0401854Y0321342D02*
X0417602D01*
X0401854Y0276441D02*
X0417602D01*
X0401854Y0288843D02*
X0417602D01*
X0354126Y0276299D02*
X0369874D01*
X0354126Y0288701D02*
X0369874D01*
X0307126Y0276299D02*
X0322874D01*
X0307126Y0288701D02*
X0322874D01*
X0259626Y0276299D02*
X0275374D01*
X0259626Y0288701D02*
X0275374D01*
X0401626Y0235799D02*
X0417374D01*
X0401626Y0248201D02*
X0417374D01*
X0354126Y0235799D02*
X0369874D01*
X0354126Y0248201D02*
X0369874D01*
X0633169Y0128630D02*
Y0139654D01*
X0591831Y0128630D02*
X0633169D01*
X0591831D02*
Y0139654D01*
X0682169Y0128630D02*
Y0139654D01*
X0640831Y0128630D02*
X0682169D01*
X0640831D02*
Y0139654D01*
X0160000Y0107000D02*
Y0127000D01*
X0150000D02*
X0160000D01*
X0150000Y0107000D02*
Y0127000D01*
Y0107000D02*
X0160000D01*
X0150000Y0141000D02*
Y0161000D01*
Y0141000D02*
X0160000D01*
Y0161000D01*
X0150000D02*
X0160000D01*
X0284882Y0119638D02*
Y0124894D01*
Y0119638D02*
X0295118D01*
Y0124894D01*
X0353630Y0176028D02*
Y0216972D01*
X0346937D02*
X0353630D01*
X0346937Y0176028D02*
X0353630D01*
X0661803Y0317575D02*
X0662197D01*
X0661803Y0314425D02*
X0662197D01*
X0249594Y0110811D02*
Y0137189D01*
X0261405Y0110811D02*
Y0137189D01*
X0249594D02*
X0261405D01*
X0249594Y0110811D02*
X0261405D01*
X0457803Y0136878D02*
X0458197D01*
X0457803Y0134122D02*
X0458197D01*
X0479622Y0126803D02*
Y0127197D01*
X0482378Y0126803D02*
Y0127197D01*
X0468378Y0126803D02*
Y0127197D01*
X0465622Y0126803D02*
Y0127197D01*
X0475378Y0126803D02*
Y0127197D01*
X0472622Y0126803D02*
Y0127197D01*
X0489622Y0114559D02*
Y0114953D01*
X0492378Y0114559D02*
Y0114953D01*
X0489622Y0125559D02*
Y0125953D01*
X0492378Y0125559D02*
Y0125953D01*
X0156713Y0271028D02*
X0208287D01*
X0156713Y0286972D02*
X0208287D01*
X0156713Y0271028D02*
Y0286972D01*
X0208287Y0271028D02*
Y0286972D01*
X0212626Y0233799D02*
X0228374D01*
X0212626Y0246201D02*
X0228374D01*
X0259626Y0234799D02*
X0275374D01*
X0259626Y0247201D02*
X0275374D01*
X0306626Y0234799D02*
X0322374D01*
X0306626Y0247201D02*
X0322374D01*
X0652157Y0289850D02*
Y0296150D01*
X0671842Y0289850D02*
Y0296150D01*
X0652157Y0289850D02*
X0671842D01*
X0652157Y0296150D02*
X0671842D01*
X0487685Y0172276D02*
X0498315D01*
X0487685Y0181724D02*
X0498315D01*
X0465339Y0167780D02*
X0482661D01*
X0464945Y0140220D02*
X0482661D01*
X0595346Y0221669D02*
X0606370D01*
Y0180331D02*
Y0221669D01*
X0595346Y0180331D02*
X0606370D01*
X0572847Y0252189D02*
X0577472D01*
X0572847Y0225811D02*
Y0252189D01*
Y0225811D02*
X0577472D01*
X0659122Y0258803D02*
Y0259197D01*
X0661878Y0258803D02*
Y0259197D01*
X0665122Y0258803D02*
Y0259197D01*
X0667878Y0258803D02*
Y0259197D01*
D72*
X0431110Y0161913D02*
X0434443Y0165246D01*
Y0161913D02*
X0431110Y0165246D01*
X0432776Y0161913D02*
Y0165246D01*
X0434443Y0163579D02*
X0431110D01*
D73*
X0290000Y0121170D02*
D03*
M02*
