G04 Layer_Physical_Order=2*
G04 Layer_Color=16711680*
%FSAX25Y25*%
%MOIN*%
G70*
G01*
G75*
%ADD17R,0.03543X0.03937*%
%ADD26R,0.02756X0.03543*%
%ADD27R,0.03543X0.02756*%
%ADD28R,0.03600X0.03200*%
%ADD39C,0.01000*%
%ADD40C,0.01500*%
%ADD41C,0.05000*%
%ADD45C,0.05906*%
%ADD46R,0.05906X0.05906*%
%ADD47C,0.06300*%
%ADD48C,0.08000*%
%ADD49C,0.09567*%
%ADD50C,0.05700*%
%ADD51C,0.04200*%
%ADD52C,0.05000*%
%ADD53R,0.03937X0.03543*%
%ADD54R,0.02480X0.03268*%
%ADD55R,0.04331X0.04331*%
%ADD56R,0.05315X0.03740*%
%ADD57R,0.10236X0.09449*%
%ADD58R,0.02362X0.03150*%
%ADD59R,0.05315X0.20866*%
%ADD60R,0.03740X0.05315*%
%ADD61R,0.03583X0.04803*%
%ADD62R,0.12795X0.04134*%
%ADD63R,0.03740X0.06693*%
%ADD64R,0.02205X0.04701*%
%ADD65C,0.03000*%
%ADD66R,0.19000X0.13500*%
G36*
X0689000Y0324500D02*
Y0103500D01*
X0680000Y0094500D01*
X0151000D01*
X0141000Y0104500D01*
Y0326000D01*
X0154500Y0339500D01*
X0674000Y0339500D01*
X0689000Y0324500D01*
D02*
G37*
%LPC*%
G36*
X0545059Y0190500D02*
X0542402D01*
Y0180067D01*
X0545059D01*
Y0190500D01*
D02*
G37*
G36*
X0549717D02*
X0547059D01*
Y0180067D01*
X0549717D01*
Y0190500D01*
D02*
G37*
G36*
X0440776Y0175657D02*
X0438905D01*
Y0173000D01*
X0440776D01*
Y0175657D01*
D02*
G37*
G36*
X0494362Y0311901D02*
X0492959Y0311716D01*
X0491652Y0311175D01*
X0490529Y0310313D01*
X0489668Y0309191D01*
X0489126Y0307883D01*
X0488942Y0306480D01*
X0489126Y0305077D01*
X0489668Y0303770D01*
X0490529Y0302647D01*
X0491245Y0302098D01*
Y0283007D01*
X0490500D01*
X0489732Y0282854D01*
X0489081Y0282419D01*
X0488646Y0281768D01*
X0488493Y0281000D01*
Y0275000D01*
X0488646Y0274232D01*
X0489081Y0273581D01*
X0489732Y0273146D01*
X0490500Y0272993D01*
X0507169D01*
X0518710Y0261452D01*
X0518518Y0260990D01*
X0516807D01*
Y0257929D01*
X0501714Y0242835D01*
X0501473Y0242475D01*
X0501388Y0242049D01*
X0501388Y0242049D01*
Y0189461D01*
X0500214Y0188286D01*
X0499973Y0187926D01*
X0499905Y0187587D01*
X0499569Y0187401D01*
X0499428Y0187357D01*
X0498572Y0188213D01*
X0498660Y0188300D01*
X0498901Y0188661D01*
X0498986Y0189087D01*
Y0196013D01*
X0499027Y0196074D01*
X0499112Y0196500D01*
Y0252549D01*
X0499027Y0252975D01*
X0498786Y0253335D01*
X0498786Y0253335D01*
X0497885Y0254237D01*
X0498076Y0254699D01*
X0499602D01*
Y0257049D01*
X0497500D01*
Y0258049D01*
X0496500D01*
Y0261400D01*
X0495398D01*
Y0257377D01*
X0494936Y0257186D01*
X0494193Y0257929D01*
Y0260990D01*
X0490807D01*
Y0255108D01*
X0493868D01*
X0496888Y0252089D01*
Y0196861D01*
X0496847Y0196800D01*
X0496762Y0196374D01*
X0496762Y0196374D01*
Y0194963D01*
X0496262Y0194793D01*
X0495833Y0195352D01*
X0494710Y0196214D01*
X0493403Y0196755D01*
X0492000Y0196940D01*
X0490597Y0196755D01*
X0489290Y0196214D01*
X0488167Y0195352D01*
X0487306Y0194230D01*
X0486764Y0192923D01*
X0486580Y0191520D01*
X0486764Y0190117D01*
X0487306Y0188810D01*
X0488167Y0187687D01*
X0489290Y0186826D01*
X0490597Y0186284D01*
X0492000Y0186099D01*
X0493403Y0186284D01*
X0494710Y0186826D01*
X0495572Y0187487D01*
X0496200Y0187428D01*
X0496242Y0187398D01*
X0497788Y0185852D01*
X0496214Y0184277D01*
X0495973Y0183916D01*
X0495888Y0183491D01*
X0495888Y0183491D01*
Y0165452D01*
X0495643Y0165350D01*
X0495081Y0164919D01*
X0494650Y0164357D01*
X0494502Y0164001D01*
X0493930Y0163926D01*
X0493711Y0164211D01*
X0493063Y0164708D01*
X0492500Y0164941D01*
Y0162000D01*
X0490500D01*
Y0164941D01*
X0489937Y0164708D01*
X0489612Y0164459D01*
X0489112Y0164705D01*
Y0167048D01*
X0489357Y0167150D01*
X0489919Y0167581D01*
X0490350Y0168143D01*
X0490621Y0168798D01*
X0490714Y0169500D01*
X0490621Y0170202D01*
X0490350Y0170857D01*
X0489919Y0171419D01*
X0489357Y0171850D01*
X0488702Y0172121D01*
X0488000Y0172214D01*
X0487298Y0172121D01*
X0486643Y0171850D01*
X0486081Y0171419D01*
X0485650Y0170857D01*
X0485379Y0170202D01*
X0485286Y0169500D01*
X0485379Y0168798D01*
X0485650Y0168143D01*
X0486081Y0167581D01*
X0486643Y0167150D01*
X0486888Y0167048D01*
Y0158895D01*
X0486888Y0158895D01*
X0486973Y0158469D01*
X0487214Y0158108D01*
X0489645Y0155677D01*
X0489657Y0155663D01*
X0489695Y0155551D01*
X0489705Y0155032D01*
X0489388Y0154619D01*
X0489117Y0153964D01*
X0489104Y0153868D01*
X0483362D01*
Y0154724D01*
X0478638D01*
Y0153868D01*
X0470626D01*
X0468772Y0155722D01*
Y0158087D01*
X0465228D01*
Y0153756D01*
X0467593D01*
X0469379Y0151970D01*
X0469740Y0151729D01*
X0470165Y0151644D01*
X0478638D01*
Y0150787D01*
X0483362D01*
Y0151644D01*
X0489588D01*
X0489819Y0151343D01*
X0490381Y0150912D01*
X0490559Y0150838D01*
X0490676Y0150249D01*
X0486214Y0145786D01*
X0485973Y0145425D01*
X0485888Y0145000D01*
X0485888Y0145000D01*
Y0138961D01*
X0485186Y0138259D01*
X0484713Y0138492D01*
X0484714Y0138500D01*
X0484621Y0139202D01*
X0484350Y0139857D01*
X0483919Y0140419D01*
X0483357Y0140850D01*
X0483112Y0140952D01*
Y0145276D01*
X0483362D01*
Y0149213D01*
X0478638D01*
Y0145276D01*
X0480888D01*
Y0141155D01*
X0480626Y0141006D01*
X0480134Y0141277D01*
Y0141772D01*
X0478756D01*
Y0139000D01*
Y0136228D01*
X0480134D01*
Y0136228D01*
X0480381Y0136351D01*
X0480643Y0136150D01*
X0481298Y0135879D01*
X0481671Y0135830D01*
X0481909Y0135294D01*
X0481783Y0135112D01*
X0479724D01*
Y0135362D01*
X0475787D01*
Y0130638D01*
X0479724D01*
Y0132888D01*
X0482500D01*
X0482500Y0132888D01*
X0482926Y0132973D01*
X0483286Y0133214D01*
X0486798Y0136725D01*
X0487260Y0136534D01*
Y0134409D01*
X0488219D01*
X0488638Y0134213D01*
Y0130276D01*
X0489888D01*
Y0127724D01*
X0488638D01*
Y0125612D01*
X0463952D01*
X0463850Y0125857D01*
X0463419Y0126419D01*
X0462857Y0126850D01*
X0462202Y0127121D01*
X0461500Y0127214D01*
X0460798Y0127121D01*
X0460143Y0126850D01*
X0459581Y0126419D01*
X0459150Y0125857D01*
X0458879Y0125202D01*
X0458786Y0124500D01*
X0458879Y0123798D01*
X0459150Y0123143D01*
X0459581Y0122581D01*
X0460143Y0122150D01*
X0460798Y0121879D01*
X0461500Y0121786D01*
X0462202Y0121879D01*
X0462857Y0122150D01*
X0463419Y0122581D01*
X0463850Y0123143D01*
X0463952Y0123388D01*
X0489744D01*
X0489744Y0123388D01*
X0490170Y0123473D01*
X0490530Y0123714D01*
X0490604Y0123787D01*
X0493362D01*
X0493605Y0123388D01*
X0493658Y0123122D01*
X0493489Y0122799D01*
X0493351Y0122622D01*
X0492000D01*
Y0121244D01*
X0493772D01*
Y0121992D01*
X0494059Y0122138D01*
X0494272Y0122169D01*
X0506220Y0110220D01*
X0507037Y0109675D01*
X0508000Y0109483D01*
X0531000D01*
X0531963Y0109675D01*
X0532780Y0110220D01*
X0542780Y0120220D01*
X0543325Y0121037D01*
X0543517Y0122000D01*
Y0152957D01*
X0558163Y0167603D01*
X0559000Y0167493D01*
X0560167Y0167647D01*
X0561253Y0168097D01*
X0562187Y0168813D01*
X0562903Y0169746D01*
X0563353Y0170834D01*
X0563507Y0172000D01*
X0563353Y0173167D01*
X0562903Y0174253D01*
X0562187Y0175187D01*
X0561253Y0175903D01*
X0560167Y0176354D01*
X0559000Y0176507D01*
X0557833Y0176354D01*
X0556746Y0175903D01*
X0555813Y0175187D01*
X0555097Y0174253D01*
X0554646Y0173167D01*
X0554493Y0172000D01*
X0554603Y0171163D01*
X0539220Y0155780D01*
X0538675Y0154963D01*
X0538483Y0154000D01*
Y0123043D01*
X0532852Y0117411D01*
X0532428Y0117694D01*
X0532472Y0117802D01*
X0532630Y0119000D01*
X0532472Y0120198D01*
X0532010Y0121315D01*
X0531274Y0122274D01*
X0530315Y0123010D01*
X0529198Y0123472D01*
X0528000Y0123630D01*
X0526802Y0123472D01*
X0525685Y0123010D01*
X0524726Y0122274D01*
X0523990Y0121315D01*
X0523528Y0120198D01*
X0523370Y0119000D01*
X0523528Y0117802D01*
X0523990Y0116685D01*
X0524726Y0115726D01*
X0525650Y0115017D01*
X0525652Y0114963D01*
X0525362Y0114517D01*
X0509043D01*
X0498517Y0125042D01*
Y0132756D01*
X0498325Y0133719D01*
X0497780Y0134536D01*
X0494740Y0137575D01*
Y0141102D01*
X0488112D01*
Y0144539D01*
X0489814Y0146241D01*
X0490287Y0146008D01*
X0490286Y0146000D01*
X0490379Y0145298D01*
X0490650Y0144643D01*
X0491081Y0144081D01*
X0491643Y0143650D01*
X0492298Y0143379D01*
X0493000Y0143286D01*
X0493702Y0143379D01*
X0494357Y0143650D01*
X0494919Y0144081D01*
X0495350Y0144643D01*
X0495452Y0144888D01*
X0498000D01*
X0498000Y0144888D01*
X0498425Y0144973D01*
X0498786Y0145214D01*
X0529286Y0175714D01*
X0529286Y0175714D01*
X0529527Y0176075D01*
X0529612Y0176500D01*
Y0252993D01*
X0535500D01*
X0536268Y0253146D01*
X0536919Y0253581D01*
X0537354Y0254232D01*
X0537507Y0255000D01*
Y0261000D01*
X0537354Y0261768D01*
X0536919Y0262419D01*
X0536268Y0262854D01*
X0535500Y0263007D01*
X0529331D01*
X0519807Y0272531D01*
X0519999Y0272993D01*
X0535500D01*
X0536268Y0273146D01*
X0536919Y0273581D01*
X0537354Y0274232D01*
X0537507Y0275000D01*
Y0281493D01*
X0546133D01*
X0547231Y0280395D01*
X0547059Y0279980D01*
Y0269500D01*
X0549717D01*
Y0277256D01*
X0550178Y0277448D01*
X0560219Y0267407D01*
X0559946Y0267052D01*
X0559536Y0266062D01*
X0559396Y0265000D01*
X0559536Y0263938D01*
X0559946Y0262948D01*
X0560598Y0262098D01*
X0561315Y0261548D01*
Y0256098D01*
X0562442D01*
Y0254902D01*
X0561315D01*
Y0230098D01*
X0562442D01*
Y0228902D01*
X0561315D01*
Y0204098D01*
X0561315D01*
Y0203902D01*
X0561315D01*
Y0179098D01*
X0570567D01*
Y0203902D01*
X0570567D01*
Y0204098D01*
X0570567D01*
Y0228902D01*
X0569439D01*
Y0230098D01*
X0570567D01*
Y0254902D01*
X0569439D01*
Y0256098D01*
X0570567D01*
Y0261245D01*
X0571052Y0261446D01*
X0571902Y0262098D01*
X0572554Y0262948D01*
X0572964Y0263938D01*
X0573104Y0265000D01*
X0572964Y0266062D01*
X0572554Y0267052D01*
X0572018Y0267750D01*
X0572554Y0268448D01*
X0572964Y0269438D01*
X0573104Y0270500D01*
X0572964Y0271562D01*
X0572554Y0272552D01*
X0571902Y0273402D01*
X0571052Y0274054D01*
X0570567Y0274255D01*
Y0280902D01*
X0561315D01*
Y0279712D01*
X0560853Y0279521D01*
X0551187Y0289187D01*
X0550253Y0289903D01*
X0549166Y0290353D01*
X0548000Y0290507D01*
X0535500D01*
X0535500Y0290507D01*
X0516500D01*
X0515732Y0290354D01*
X0515081Y0289919D01*
X0514646Y0289268D01*
X0514493Y0288500D01*
Y0278499D01*
X0514031Y0278307D01*
X0509919Y0282419D01*
X0509268Y0282854D01*
X0508500Y0283007D01*
X0497479D01*
Y0302098D01*
X0498195Y0302647D01*
X0499056Y0303770D01*
X0499598Y0305077D01*
X0499783Y0306480D01*
X0499598Y0307883D01*
X0499056Y0309191D01*
X0498195Y0310313D01*
X0497072Y0311175D01*
X0495765Y0311716D01*
X0494362Y0311901D01*
D02*
G37*
G36*
X0452500Y0192374D02*
X0451735Y0192057D01*
X0451004Y0191496D01*
X0450443Y0190765D01*
X0450126Y0190000D01*
X0452500D01*
Y0192374D01*
D02*
G37*
G36*
X0454500D02*
Y0190000D01*
X0456874D01*
X0456557Y0190765D01*
X0455996Y0191496D01*
X0455265Y0192057D01*
X0454500Y0192374D01*
D02*
G37*
G36*
X0452500Y0188000D02*
X0450126D01*
X0450443Y0187235D01*
X0451004Y0186504D01*
X0451735Y0185943D01*
X0452500Y0185626D01*
Y0188000D01*
D02*
G37*
G36*
X0456874D02*
X0454500D01*
Y0185626D01*
X0455265Y0185943D01*
X0455996Y0186504D01*
X0456557Y0187235D01*
X0456874Y0188000D01*
D02*
G37*
G36*
X0436905Y0175657D02*
X0435035D01*
Y0173000D01*
X0436905D01*
Y0175657D01*
D02*
G37*
G36*
X0456000Y0164134D02*
X0454228D01*
Y0162756D01*
X0456000D01*
Y0164134D01*
D02*
G37*
G36*
X0459772D02*
X0458000D01*
Y0162756D01*
X0459772D01*
Y0164134D01*
D02*
G37*
G36*
X0436256Y0162500D02*
X0434878D01*
Y0160728D01*
X0436256D01*
Y0162500D01*
D02*
G37*
G36*
X0439634D02*
X0438256D01*
Y0160728D01*
X0439634D01*
Y0162500D01*
D02*
G37*
G36*
X0436905Y0171000D02*
X0435035D01*
Y0168342D01*
X0436905D01*
Y0171000D01*
D02*
G37*
G36*
X0440776D02*
X0438905D01*
Y0168342D01*
X0440776D01*
Y0171000D01*
D02*
G37*
G36*
X0436256Y0166272D02*
X0434878D01*
Y0164500D01*
X0436256D01*
Y0166272D01*
D02*
G37*
G36*
X0439634D02*
X0438256D01*
Y0164500D01*
X0439634D01*
Y0166272D01*
D02*
G37*
G36*
X0545059Y0227933D02*
X0542402D01*
Y0217500D01*
X0545059D01*
Y0227933D01*
D02*
G37*
G36*
X0549717D02*
X0547059D01*
Y0217500D01*
X0549717D01*
Y0227933D01*
D02*
G37*
G36*
Y0215500D02*
X0547059D01*
Y0205067D01*
X0549717D01*
Y0215500D01*
D02*
G37*
G36*
X0619828Y0215931D02*
X0615047D01*
Y0211550D01*
X0619828D01*
Y0212628D01*
X0622138D01*
Y0211787D01*
X0626862D01*
Y0215724D01*
X0622138D01*
Y0214852D01*
X0619828D01*
Y0215931D01*
D02*
G37*
G36*
X0678000Y0242500D02*
X0675626D01*
X0675943Y0241735D01*
X0676504Y0241004D01*
X0677235Y0240443D01*
X0678000Y0240126D01*
Y0242500D01*
D02*
G37*
G36*
X0682374D02*
X0680000D01*
Y0240126D01*
X0680765Y0240443D01*
X0681496Y0241004D01*
X0682057Y0241735D01*
X0682374Y0242500D01*
D02*
G37*
G36*
X0545059Y0241500D02*
X0542402D01*
Y0231067D01*
X0545059D01*
Y0241500D01*
D02*
G37*
G36*
X0549717D02*
X0547059D01*
Y0231067D01*
X0549717D01*
Y0241500D01*
D02*
G37*
G36*
X0545059Y0215500D02*
X0542402D01*
Y0205067D01*
X0545059D01*
Y0215500D01*
D02*
G37*
G36*
Y0202933D02*
X0542402D01*
Y0192500D01*
X0545059D01*
Y0202933D01*
D02*
G37*
G36*
X0549717D02*
X0547059D01*
Y0192500D01*
X0549717D01*
Y0202933D01*
D02*
G37*
G36*
X0623500Y0192244D02*
X0621728D01*
Y0190866D01*
X0623500D01*
Y0192244D01*
D02*
G37*
G36*
X0627272D02*
X0625500D01*
Y0190866D01*
X0627272D01*
Y0192244D01*
D02*
G37*
G36*
X0620700Y0198600D02*
X0618900D01*
Y0197000D01*
X0620700D01*
Y0198600D01*
D02*
G37*
G36*
X0602500Y0200622D02*
X0600728D01*
Y0199244D01*
X0602500D01*
Y0200622D01*
D02*
G37*
G36*
X0623500Y0195622D02*
X0621728D01*
Y0194244D01*
X0623500D01*
Y0195622D01*
D02*
G37*
G36*
X0627272D02*
X0625500D01*
Y0194244D01*
X0627272D01*
Y0195622D01*
D02*
G37*
G36*
X0459772Y0160756D02*
X0458000D01*
Y0159378D01*
X0459772D01*
Y0160756D01*
D02*
G37*
G36*
X0436262Y0129433D02*
X0434490D01*
Y0128055D01*
X0436262D01*
Y0129433D01*
D02*
G37*
G36*
X0440033D02*
X0438262D01*
Y0128055D01*
X0440033D01*
Y0129433D01*
D02*
G37*
G36*
X0446262Y0128539D02*
X0443604D01*
Y0126669D01*
X0446262D01*
Y0128539D01*
D02*
G37*
G36*
X0450919D02*
X0448261D01*
Y0126669D01*
X0450919D01*
Y0128539D01*
D02*
G37*
G36*
X0436262Y0132811D02*
X0434490D01*
Y0131433D01*
X0436262D01*
Y0132811D01*
D02*
G37*
G36*
X0440033D02*
X0438262D01*
Y0131433D01*
X0440033D01*
Y0132811D01*
D02*
G37*
G36*
X0446262Y0132410D02*
X0443604D01*
Y0130539D01*
X0446262D01*
Y0132410D01*
D02*
G37*
G36*
X0450919D02*
X0448261D01*
Y0130539D01*
X0450919D01*
Y0132410D01*
D02*
G37*
G36*
X0490000Y0122622D02*
X0488228D01*
Y0121244D01*
X0490000D01*
Y0122622D01*
D02*
G37*
G36*
X0443000Y0114000D02*
X0440626D01*
X0440943Y0113235D01*
X0441504Y0112504D01*
X0442235Y0111943D01*
X0443000Y0111626D01*
Y0114000D01*
D02*
G37*
G36*
X0447374D02*
X0445000D01*
Y0111626D01*
X0445765Y0111943D01*
X0446496Y0112504D01*
X0447057Y0113235D01*
X0447374Y0114000D01*
D02*
G37*
G36*
X0155000Y0115574D02*
X0154075Y0115452D01*
X0153213Y0115095D01*
X0152473Y0114527D01*
X0151905Y0113787D01*
X0151548Y0112925D01*
X0151426Y0112000D01*
X0151548Y0111075D01*
X0151905Y0110213D01*
X0152473Y0109473D01*
X0153213Y0108905D01*
X0154075Y0108548D01*
X0155000Y0108426D01*
X0155925Y0108548D01*
X0156787Y0108905D01*
X0157527Y0109473D01*
X0158095Y0110213D01*
X0158452Y0111075D01*
X0158574Y0112000D01*
X0158452Y0112925D01*
X0158095Y0113787D01*
X0157527Y0114527D01*
X0156787Y0115095D01*
X0155925Y0115452D01*
X0155000Y0115574D01*
D02*
G37*
G36*
X0684366Y0128618D02*
X0667634D01*
Y0120547D01*
X0673258D01*
Y0119028D01*
X0672813Y0118687D01*
X0672097Y0117754D01*
X0671646Y0116666D01*
X0671493Y0115500D01*
X0671646Y0114333D01*
X0672097Y0113247D01*
X0672813Y0112313D01*
X0673746Y0111597D01*
X0674833Y0111146D01*
X0676000Y0110993D01*
X0677167Y0111146D01*
X0678254Y0111597D01*
X0679187Y0112313D01*
X0679903Y0113247D01*
X0680353Y0114333D01*
X0680507Y0115500D01*
X0680353Y0116666D01*
X0679903Y0117754D01*
X0679187Y0118687D01*
X0678742Y0119028D01*
Y0120547D01*
X0684366D01*
Y0128618D01*
D02*
G37*
G36*
X0490000Y0119244D02*
X0488228D01*
Y0117866D01*
X0490000D01*
Y0119244D01*
D02*
G37*
G36*
X0493772D02*
X0492000D01*
Y0117866D01*
X0493772D01*
Y0119244D01*
D02*
G37*
G36*
X0443000Y0118374D02*
X0442235Y0118057D01*
X0441504Y0117496D01*
X0440943Y0116765D01*
X0440626Y0116000D01*
X0443000D01*
Y0118374D01*
D02*
G37*
G36*
X0445000D02*
Y0116000D01*
X0447374D01*
X0447057Y0116765D01*
X0446496Y0117496D01*
X0445765Y0118057D01*
X0445000Y0118374D01*
D02*
G37*
G36*
X0436374Y0148500D02*
X0434000D01*
Y0146126D01*
X0434765Y0146443D01*
X0435496Y0147004D01*
X0436057Y0147735D01*
X0436374Y0148500D01*
D02*
G37*
G36*
X0473000Y0149374D02*
X0472235Y0149057D01*
X0471504Y0148496D01*
X0470943Y0147765D01*
X0470626Y0147000D01*
X0473000D01*
Y0149374D01*
D02*
G37*
G36*
X0442988Y0149346D02*
X0441118D01*
Y0146000D01*
X0442988D01*
Y0149346D01*
D02*
G37*
G36*
X0446858D02*
X0444988D01*
Y0146000D01*
X0446858D01*
Y0149346D01*
D02*
G37*
G36*
X0459362Y0158213D02*
X0454638D01*
Y0154828D01*
X0454379Y0154202D01*
X0454286Y0153500D01*
X0454379Y0152798D01*
X0454650Y0152143D01*
X0455081Y0151581D01*
X0455643Y0151150D01*
X0456298Y0150879D01*
X0457000Y0150786D01*
X0457702Y0150879D01*
X0458357Y0151150D01*
X0458919Y0151581D01*
X0459350Y0152143D01*
X0459621Y0152798D01*
X0459714Y0153500D01*
X0459621Y0154202D01*
X0459362Y0154828D01*
Y0158213D01*
D02*
G37*
G36*
X0456000Y0160756D02*
X0454228D01*
Y0159378D01*
X0456000D01*
Y0160756D01*
D02*
G37*
G36*
X0475000Y0149374D02*
Y0147000D01*
X0477374D01*
X0477057Y0147765D01*
X0476496Y0148496D01*
X0475765Y0149057D01*
X0475000Y0149374D01*
D02*
G37*
G36*
X0434000Y0152874D02*
Y0150500D01*
X0436374D01*
X0436057Y0151265D01*
X0435496Y0151996D01*
X0434765Y0152557D01*
X0434000Y0152874D01*
D02*
G37*
G36*
X0477374Y0145000D02*
X0475000D01*
Y0142626D01*
X0475765Y0142943D01*
X0476496Y0143504D01*
X0477057Y0144235D01*
X0477374Y0145000D01*
D02*
G37*
G36*
X0457472Y0148937D02*
X0452551D01*
Y0146380D01*
X0452150Y0145857D01*
X0451879Y0145202D01*
X0451786Y0144500D01*
X0451879Y0143798D01*
X0452150Y0143143D01*
X0452516Y0142666D01*
X0448150Y0138299D01*
X0444014D01*
Y0136951D01*
X0439624D01*
Y0137913D01*
X0434899D01*
Y0133976D01*
X0439624D01*
Y0134727D01*
X0444014D01*
Y0133378D01*
X0450510D01*
Y0137514D01*
X0454058Y0141063D01*
X0457472D01*
Y0148937D01*
D02*
G37*
G36*
X0476756Y0141772D02*
X0475378D01*
Y0140000D01*
X0476756D01*
Y0141772D01*
D02*
G37*
G36*
X0528000Y0141630D02*
X0526802Y0141472D01*
X0525685Y0141010D01*
X0524726Y0140274D01*
X0523990Y0139315D01*
X0523528Y0138198D01*
X0523370Y0137000D01*
X0523528Y0135802D01*
X0523990Y0134685D01*
X0524726Y0133726D01*
X0525685Y0132990D01*
X0526802Y0132528D01*
X0528000Y0132370D01*
X0529198Y0132528D01*
X0530315Y0132990D01*
X0531274Y0133726D01*
X0532010Y0134685D01*
X0532472Y0135802D01*
X0532630Y0137000D01*
X0532472Y0138198D01*
X0532010Y0139315D01*
X0531274Y0140274D01*
X0530315Y0141010D01*
X0529198Y0141472D01*
X0528000Y0141630D01*
D02*
G37*
G36*
X0476756Y0138000D02*
X0475378D01*
Y0136228D01*
X0476756D01*
Y0138000D01*
D02*
G37*
G36*
X0468772Y0148244D02*
X0465228D01*
Y0143913D01*
X0465888D01*
Y0141487D01*
X0465519Y0141146D01*
X0465000Y0141214D01*
X0464298Y0141121D01*
X0463643Y0140850D01*
X0463081Y0140419D01*
X0462650Y0139857D01*
X0462379Y0139202D01*
X0462286Y0138500D01*
X0462379Y0137798D01*
X0462650Y0137143D01*
X0463081Y0136581D01*
X0463643Y0136150D01*
X0464298Y0135879D01*
X0465000Y0135786D01*
X0465702Y0135879D01*
X0466357Y0136150D01*
X0466919Y0136581D01*
X0467350Y0137143D01*
X0467621Y0137798D01*
X0467714Y0138500D01*
X0467621Y0139202D01*
X0467373Y0139801D01*
X0467786Y0140214D01*
X0467786Y0140214D01*
X0468027Y0140575D01*
X0468087Y0140877D01*
X0468437Y0141050D01*
X0468598Y0141074D01*
X0470276Y0139396D01*
Y0136638D01*
X0471132D01*
Y0135362D01*
X0470276D01*
Y0130638D01*
X0474213D01*
Y0135362D01*
X0473356D01*
Y0136638D01*
X0474213D01*
Y0141362D01*
X0471454D01*
X0468772Y0144045D01*
Y0148244D01*
D02*
G37*
G36*
X0473000Y0145000D02*
X0470626D01*
X0470943Y0144235D01*
X0471504Y0143504D01*
X0472235Y0142943D01*
X0473000Y0142626D01*
Y0145000D01*
D02*
G37*
G36*
X0442988Y0144000D02*
X0441118D01*
Y0140654D01*
X0442988D01*
Y0144000D01*
D02*
G37*
G36*
X0446858D02*
X0444988D01*
Y0140654D01*
X0446858D01*
Y0144000D01*
D02*
G37*
G36*
X0545059Y0253933D02*
X0542402D01*
Y0243500D01*
X0545059D01*
Y0253933D01*
D02*
G37*
G36*
X0501500Y0257049D02*
X0500398D01*
Y0254699D01*
X0501500D01*
Y0257049D01*
D02*
G37*
G36*
X0499602Y0261400D02*
X0498500D01*
Y0259049D01*
X0499602D01*
Y0261400D01*
D02*
G37*
G36*
X0545059Y0279933D02*
X0542402D01*
Y0269500D01*
X0545059D01*
Y0279933D01*
D02*
G37*
G36*
X0549717Y0267500D02*
X0547059D01*
Y0257067D01*
X0549717D01*
Y0267500D01*
D02*
G37*
G36*
X0506500Y0261400D02*
X0505398D01*
Y0259049D01*
X0506500D01*
Y0261400D01*
D02*
G37*
G36*
X0509602D02*
X0508500D01*
Y0259049D01*
X0509602D01*
Y0261400D01*
D02*
G37*
G36*
X0501500D02*
X0500398D01*
Y0259049D01*
X0501500D01*
Y0261400D01*
D02*
G37*
G36*
X0504602D02*
X0503500D01*
Y0259049D01*
X0504602D01*
Y0261400D01*
D02*
G37*
G36*
X0680000Y0246874D02*
Y0244500D01*
X0682374D01*
X0682057Y0245265D01*
X0681496Y0245996D01*
X0680765Y0246557D01*
X0680000Y0246874D01*
D02*
G37*
G36*
X0506500Y0257049D02*
X0505398D01*
Y0254699D01*
X0506500D01*
Y0257049D01*
D02*
G37*
G36*
X0509602D02*
X0508500D01*
Y0254699D01*
X0509602D01*
Y0257049D01*
D02*
G37*
G36*
X0504602D02*
X0503500D01*
Y0254699D01*
X0504602D01*
Y0257049D01*
D02*
G37*
G36*
X0645159Y0336702D02*
X0645159Y0336702D01*
X0159341D01*
X0159341Y0336702D01*
X0158916Y0336618D01*
X0158555Y0336377D01*
X0158555Y0336377D01*
X0145842Y0323664D01*
X0145601Y0323303D01*
X0145516Y0322878D01*
X0145516Y0322878D01*
Y0230675D01*
X0145516Y0230675D01*
X0145601Y0230249D01*
X0145842Y0229888D01*
X0170441Y0205289D01*
Y0202797D01*
X0170154Y0202740D01*
X0169793Y0202499D01*
X0169793Y0202499D01*
X0169155Y0201860D01*
X0168914Y0201499D01*
X0168829Y0201074D01*
X0168829Y0201074D01*
Y0171402D01*
X0156600Y0159172D01*
X0155925Y0159452D01*
X0155000Y0159574D01*
X0154075Y0159452D01*
X0153213Y0159095D01*
X0152569Y0158601D01*
X0152069Y0158751D01*
Y0183030D01*
X0152357Y0183150D01*
X0152919Y0183581D01*
X0153350Y0184143D01*
X0153621Y0184798D01*
X0153714Y0185500D01*
X0153621Y0186202D01*
X0153350Y0186857D01*
X0152919Y0187419D01*
X0152357Y0187850D01*
X0151702Y0188121D01*
X0151000Y0188214D01*
X0150298Y0188121D01*
X0149643Y0187850D01*
X0149081Y0187419D01*
X0148650Y0186857D01*
X0148379Y0186202D01*
X0148286Y0185500D01*
X0148379Y0184798D01*
X0148650Y0184143D01*
X0149081Y0183581D01*
X0149643Y0183150D01*
X0149845Y0183066D01*
Y0126043D01*
X0149845Y0126043D01*
X0149929Y0125618D01*
X0150170Y0125257D01*
X0151457Y0123971D01*
Y0118457D01*
X0158543D01*
Y0125543D01*
X0153029D01*
X0152069Y0126504D01*
Y0142457D01*
X0158543D01*
Y0147731D01*
X0159005Y0147922D01*
X0169052Y0137876D01*
Y0127244D01*
X0169052Y0127243D01*
X0169136Y0126818D01*
X0169377Y0126457D01*
X0178408Y0117426D01*
X0178408Y0117426D01*
X0178769Y0117185D01*
X0179194Y0117101D01*
X0179194Y0117101D01*
X0246979D01*
X0246979Y0117101D01*
X0247405Y0117185D01*
X0247765Y0117426D01*
X0253255Y0122916D01*
X0254363D01*
X0254463Y0122416D01*
X0253941Y0122200D01*
X0253296Y0121704D01*
X0252800Y0121059D01*
X0252489Y0120307D01*
X0252383Y0119500D01*
X0252489Y0118693D01*
X0252800Y0117941D01*
X0253296Y0117296D01*
X0253941Y0116800D01*
X0254693Y0116489D01*
X0255500Y0116383D01*
X0256307Y0116489D01*
X0256753Y0116674D01*
X0273854Y0099574D01*
X0273662Y0099112D01*
X0266961D01*
X0258826Y0107246D01*
X0259011Y0107693D01*
X0259117Y0108500D01*
X0259011Y0109307D01*
X0258700Y0110059D01*
X0258204Y0110704D01*
X0257559Y0111200D01*
X0256807Y0111511D01*
X0256000Y0111617D01*
X0255193Y0111511D01*
X0254441Y0111200D01*
X0253796Y0110704D01*
X0253300Y0110059D01*
X0252989Y0109307D01*
X0252883Y0108500D01*
X0252989Y0107693D01*
X0253300Y0106941D01*
X0253796Y0106296D01*
X0254441Y0105800D01*
X0255193Y0105489D01*
X0256000Y0105383D01*
X0256807Y0105489D01*
X0257254Y0105674D01*
X0264944Y0097983D01*
X0264753Y0097521D01*
X0260051D01*
X0243786Y0113786D01*
X0243425Y0114027D01*
X0243000Y0114112D01*
X0243000Y0114112D01*
X0235385D01*
X0235200Y0114559D01*
X0234704Y0115204D01*
X0234059Y0115700D01*
X0233307Y0116011D01*
X0232500Y0116117D01*
X0231693Y0116011D01*
X0230941Y0115700D01*
X0230296Y0115204D01*
X0229800Y0114559D01*
X0229489Y0113807D01*
X0229383Y0113000D01*
X0229489Y0112193D01*
X0229800Y0111441D01*
X0230296Y0110796D01*
X0230941Y0110300D01*
X0231693Y0109989D01*
X0232500Y0109883D01*
X0233307Y0109989D01*
X0234059Y0110300D01*
X0234704Y0110796D01*
X0235200Y0111441D01*
X0235385Y0111888D01*
X0242539D01*
X0258804Y0095623D01*
X0259165Y0095382D01*
X0259591Y0095297D01*
X0649409D01*
X0649409Y0095297D01*
X0649835Y0095382D01*
X0650196Y0095623D01*
X0658786Y0104214D01*
X0658786Y0104214D01*
X0659027Y0104575D01*
X0659112Y0105000D01*
Y0140997D01*
X0667172Y0149057D01*
X0667634Y0148866D01*
Y0143382D01*
X0684366D01*
Y0151453D01*
X0684008D01*
X0683626Y0151953D01*
X0683679Y0152354D01*
Y0153631D01*
X0684705D01*
Y0160768D01*
X0677169D01*
Y0153631D01*
X0677629D01*
X0677836Y0153131D01*
X0676158Y0151453D01*
X0670221D01*
X0670029Y0151915D01*
X0675546Y0157431D01*
X0676369D01*
Y0158299D01*
X0676518Y0158523D01*
X0676603Y0158948D01*
Y0169786D01*
X0678176Y0171359D01*
X0678638Y0171168D01*
Y0168276D01*
X0679888D01*
Y0166931D01*
X0678546D01*
Y0162550D01*
X0683328D01*
Y0166931D01*
X0682112D01*
Y0168276D01*
X0683362D01*
Y0172213D01*
X0679682D01*
X0679491Y0172675D01*
X0680604Y0173787D01*
X0683362D01*
Y0177724D01*
X0678638D01*
Y0174966D01*
X0675804Y0172132D01*
X0675342Y0172324D01*
Y0176900D01*
X0675342Y0176900D01*
X0675248Y0177610D01*
X0674975Y0178271D01*
X0674539Y0178839D01*
X0672934Y0180444D01*
X0673007Y0181000D01*
X0672854Y0182167D01*
X0672403Y0183254D01*
X0671687Y0184187D01*
X0670753Y0184903D01*
X0669666Y0185354D01*
X0668500Y0185507D01*
X0667334Y0185354D01*
X0666247Y0184903D01*
X0665313Y0184187D01*
X0664597Y0183254D01*
X0664147Y0182167D01*
X0663993Y0181000D01*
X0664147Y0179833D01*
X0664597Y0178746D01*
X0665313Y0177813D01*
X0666247Y0177097D01*
X0667334Y0176646D01*
X0668500Y0176493D01*
X0669056Y0176566D01*
X0669858Y0175764D01*
Y0164568D01*
X0668831D01*
Y0157431D01*
X0671748D01*
X0671939Y0156970D01*
X0657214Y0142244D01*
X0656973Y0141883D01*
X0656888Y0141458D01*
X0656888Y0141458D01*
Y0105461D01*
X0648949Y0097521D01*
X0574235D01*
X0574044Y0097983D01*
X0594314Y0118254D01*
X0594842Y0118075D01*
X0594879Y0117798D01*
X0595150Y0117143D01*
X0595581Y0116581D01*
X0596143Y0116150D01*
X0596798Y0115879D01*
X0597500Y0115786D01*
X0598202Y0115879D01*
X0598857Y0116150D01*
X0599419Y0116581D01*
X0599850Y0117143D01*
X0599952Y0117388D01*
X0644048D01*
X0644150Y0117143D01*
X0644581Y0116581D01*
X0645143Y0116150D01*
X0645798Y0115879D01*
X0646500Y0115786D01*
X0647202Y0115879D01*
X0647857Y0116150D01*
X0648419Y0116581D01*
X0648850Y0117143D01*
X0649121Y0117798D01*
X0649214Y0118500D01*
X0649121Y0119202D01*
X0649020Y0119447D01*
X0651649Y0122076D01*
X0651890Y0122437D01*
X0651974Y0122862D01*
Y0142074D01*
X0651890Y0142499D01*
X0651649Y0142860D01*
X0651648Y0142860D01*
X0651010Y0143499D01*
X0650649Y0143740D01*
X0650362Y0143797D01*
Y0147724D01*
X0648919D01*
X0648786Y0147923D01*
X0643328Y0153382D01*
Y0156391D01*
X0638920Y0156391D01*
X0638895D01*
D01*
X0638851Y0156391D01*
X0638817Y0156474D01*
X0638644Y0156891D01*
X0639691Y0157938D01*
X0648985D01*
X0648986Y0157938D01*
X0649411Y0158022D01*
X0649772Y0158263D01*
X0650499Y0158990D01*
X0650740Y0159351D01*
X0650797Y0159638D01*
X0654724D01*
Y0164362D01*
X0650787D01*
Y0163112D01*
X0649713D01*
X0649213Y0163522D01*
Y0164362D01*
X0645276D01*
Y0163112D01*
X0643328D01*
Y0163931D01*
X0638547D01*
Y0159904D01*
X0638445Y0159836D01*
X0635453Y0156844D01*
X0634991Y0157035D01*
Y0160191D01*
X0630829D01*
X0630740Y0160653D01*
X0630740Y0160691D01*
Y0167347D01*
X0629517D01*
Y0168957D01*
X0634663Y0174103D01*
X0635500Y0173993D01*
X0636666Y0174146D01*
X0637753Y0174597D01*
X0638687Y0175313D01*
X0639403Y0176247D01*
X0639853Y0177333D01*
X0640007Y0178500D01*
X0639853Y0179666D01*
X0639403Y0180754D01*
X0638687Y0181687D01*
X0637753Y0182403D01*
X0636666Y0182853D01*
X0635500Y0183007D01*
X0634334Y0182853D01*
X0633247Y0182403D01*
X0632313Y0181687D01*
X0631597Y0180754D01*
X0631146Y0179666D01*
X0630993Y0178500D01*
X0631103Y0177663D01*
X0625220Y0171780D01*
X0624675Y0170963D01*
X0624483Y0170000D01*
Y0167347D01*
X0623260D01*
Y0160653D01*
X0624219D01*
X0624638Y0160457D01*
X0624638Y0160153D01*
Y0156520D01*
X0625888D01*
Y0154969D01*
X0624638D01*
Y0151366D01*
X0624565Y0151318D01*
X0624565Y0151318D01*
X0623351Y0150104D01*
X0623110Y0149743D01*
X0623026Y0149318D01*
X0623026Y0149318D01*
Y0146354D01*
X0621034Y0144362D01*
X0618276D01*
Y0141604D01*
X0599474Y0122802D01*
X0596178D01*
X0596178Y0122802D01*
X0595753Y0122718D01*
X0595392Y0122477D01*
X0595392Y0122477D01*
X0572027Y0099112D01*
X0562747D01*
X0562556Y0099574D01*
X0598530Y0135548D01*
X0598530Y0135548D01*
X0598771Y0135909D01*
X0598856Y0136335D01*
Y0189638D01*
X0599713D01*
Y0192396D01*
X0600826Y0193509D01*
X0601287Y0193317D01*
Y0189638D01*
X0605224D01*
Y0191148D01*
X0607172D01*
Y0190069D01*
X0611953D01*
Y0194086D01*
X0612454Y0194293D01*
X0615388Y0191358D01*
Y0188385D01*
X0614941Y0188200D01*
X0614296Y0187704D01*
X0613800Y0187059D01*
X0613489Y0186307D01*
X0613383Y0185500D01*
X0613489Y0184693D01*
X0613800Y0183941D01*
X0614296Y0183296D01*
X0614941Y0182800D01*
X0615693Y0182489D01*
X0616500Y0182383D01*
X0617307Y0182489D01*
X0618059Y0182800D01*
X0618704Y0183296D01*
X0619200Y0183941D01*
X0619511Y0184693D01*
X0619617Y0185500D01*
X0619511Y0186307D01*
X0619200Y0187059D01*
X0618704Y0187704D01*
X0618059Y0188200D01*
X0617612Y0188385D01*
Y0191819D01*
X0617527Y0192244D01*
X0617286Y0192605D01*
X0617286Y0192605D01*
X0616953Y0192938D01*
X0617145Y0193400D01*
X0620700D01*
Y0195000D01*
X0617900D01*
Y0196000D01*
X0616900D01*
Y0198600D01*
X0615100D01*
Y0195445D01*
X0614638Y0195253D01*
X0611953Y0197938D01*
Y0200618D01*
X0615345Y0204009D01*
X0617674D01*
X0622138Y0199546D01*
Y0196787D01*
X0626862D01*
Y0200724D01*
X0624104D01*
X0619828Y0205001D01*
Y0207779D01*
X0622138D01*
Y0206276D01*
X0626862D01*
Y0210213D01*
X0622138D01*
Y0210002D01*
X0613711D01*
X0613711Y0210002D01*
X0613286Y0209918D01*
X0612925Y0209677D01*
X0611952Y0208704D01*
X0611490Y0208896D01*
Y0212191D01*
X0607240D01*
Y0214937D01*
X0616820Y0224517D01*
X0617000Y0224493D01*
X0618166Y0224646D01*
X0619253Y0225097D01*
X0620187Y0225813D01*
X0620903Y0226747D01*
X0621353Y0227834D01*
X0621507Y0229000D01*
X0621353Y0230167D01*
X0620903Y0231254D01*
X0620187Y0232187D01*
X0619253Y0232903D01*
X0618166Y0233353D01*
X0617000Y0233507D01*
X0615834Y0233353D01*
X0614747Y0232903D01*
X0613813Y0232187D01*
X0613097Y0231254D01*
X0612646Y0230167D01*
X0612493Y0229000D01*
X0612646Y0227834D01*
X0612755Y0227571D01*
X0603287Y0218102D01*
X0599760D01*
Y0211409D01*
X0600719D01*
X0601138Y0211213D01*
Y0207276D01*
X0602388D01*
Y0205724D01*
X0601138D01*
Y0201787D01*
X0605560D01*
Y0200622D01*
X0604500D01*
Y0198244D01*
X0603500D01*
Y0197244D01*
X0600728D01*
Y0196557D01*
X0598534Y0194362D01*
X0595776D01*
Y0189638D01*
X0596632D01*
Y0136795D01*
X0560539Y0100703D01*
X0275870D01*
X0258326Y0118246D01*
X0258511Y0118693D01*
X0258617Y0119500D01*
X0258511Y0120307D01*
X0258200Y0121059D01*
X0257704Y0121704D01*
X0257059Y0122200D01*
X0256537Y0122416D01*
X0256637Y0122916D01*
X0260898D01*
Y0118713D01*
X0272315D01*
Y0129342D01*
X0271262D01*
Y0134441D01*
X0272512D01*
Y0137790D01*
X0275339Y0140617D01*
X0275803Y0140374D01*
X0275879Y0139798D01*
X0276150Y0139143D01*
X0276581Y0138581D01*
X0277143Y0138150D01*
X0277388Y0138048D01*
Y0115000D01*
X0277388Y0115000D01*
X0277473Y0114575D01*
X0277714Y0114214D01*
X0290214Y0101714D01*
X0290575Y0101473D01*
X0291000Y0101388D01*
X0291000Y0101388D01*
X0472500D01*
X0472500Y0101388D01*
X0472926Y0101473D01*
X0473286Y0101714D01*
X0482553Y0110980D01*
X0482798Y0110879D01*
X0483500Y0110786D01*
X0484202Y0110879D01*
X0484857Y0111150D01*
X0485419Y0111581D01*
X0485850Y0112143D01*
X0486121Y0112798D01*
X0486214Y0113500D01*
X0486121Y0114202D01*
X0485850Y0114857D01*
X0485419Y0115419D01*
X0484857Y0115850D01*
X0484202Y0116121D01*
X0483500Y0116214D01*
X0482798Y0116121D01*
X0482143Y0115850D01*
X0481581Y0115419D01*
X0481150Y0114857D01*
X0480879Y0114202D01*
X0480786Y0113500D01*
X0480879Y0112798D01*
X0480980Y0112553D01*
X0472039Y0103612D01*
X0419969D01*
X0419762Y0104112D01*
X0428877Y0113226D01*
X0428877Y0113226D01*
X0429118Y0113587D01*
X0429203Y0114013D01*
X0429203Y0114013D01*
Y0148216D01*
X0429703Y0148315D01*
X0429943Y0147735D01*
X0430504Y0147004D01*
X0431235Y0146443D01*
X0432000Y0146126D01*
Y0149500D01*
Y0152874D01*
X0431235Y0152557D01*
X0430504Y0151996D01*
X0429943Y0151265D01*
X0429703Y0150685D01*
X0429203Y0150784D01*
Y0168024D01*
X0429931Y0168752D01*
X0430632D01*
Y0165862D01*
X0429776D01*
Y0161138D01*
X0433713D01*
Y0165862D01*
X0432856D01*
Y0168752D01*
X0434067D01*
Y0175248D01*
X0432297D01*
X0432041Y0175866D01*
X0431609Y0176428D01*
X0431047Y0176860D01*
X0430393Y0177131D01*
X0429691Y0177223D01*
X0428988Y0177131D01*
X0428334Y0176860D01*
X0428112Y0176690D01*
X0427612Y0176936D01*
Y0305539D01*
X0451961Y0329888D01*
X0643039D01*
X0650388Y0322539D01*
Y0271488D01*
X0650388Y0271488D01*
X0650473Y0271062D01*
X0650714Y0270702D01*
X0656392Y0265023D01*
X0656392Y0265023D01*
X0656753Y0264782D01*
X0657178Y0264698D01*
X0657178Y0264698D01*
X0659822D01*
X0659822Y0264698D01*
X0660247Y0264782D01*
X0660608Y0265023D01*
X0662477Y0266892D01*
X0662718Y0267253D01*
X0662803Y0267678D01*
Y0267999D01*
X0663178Y0268329D01*
X0663500Y0268286D01*
X0664202Y0268379D01*
X0664857Y0268650D01*
X0665419Y0269081D01*
X0665850Y0269643D01*
X0666121Y0270298D01*
X0666153Y0270536D01*
X0666572Y0270626D01*
X0666668Y0270619D01*
X0667081Y0270081D01*
X0667643Y0269650D01*
X0668298Y0269379D01*
X0669000Y0269286D01*
X0669702Y0269379D01*
X0670357Y0269650D01*
X0670919Y0270081D01*
X0671350Y0270643D01*
X0671621Y0271298D01*
X0671714Y0272000D01*
X0671621Y0272702D01*
X0671350Y0273357D01*
X0670919Y0273919D01*
X0670357Y0274350D01*
X0669702Y0274621D01*
X0669000Y0274714D01*
X0668298Y0274621D01*
X0668229Y0274593D01*
X0667802Y0274923D01*
Y0314059D01*
X0667718Y0314484D01*
X0667477Y0314845D01*
X0667477Y0314845D01*
X0645945Y0336377D01*
X0645584Y0336618D01*
X0645159Y0336702D01*
D02*
G37*
G36*
X0545059Y0267500D02*
X0542402D01*
Y0257067D01*
X0545059D01*
Y0267500D01*
D02*
G37*
G36*
X0678000Y0246874D02*
X0677235Y0246557D01*
X0676504Y0245996D01*
X0675943Y0245265D01*
X0675626Y0244500D01*
X0678000D01*
Y0246874D01*
D02*
G37*
G36*
X0549717Y0253933D02*
X0547059D01*
Y0243500D01*
X0549717D01*
Y0253933D01*
D02*
G37*
%LPD*%
G36*
X0202574Y0297859D02*
Y0287930D01*
X0202074Y0287684D01*
X0201857Y0287850D01*
X0201202Y0288121D01*
X0200500Y0288214D01*
X0199798Y0288121D01*
X0199143Y0287850D01*
X0198969Y0287716D01*
X0198468Y0287963D01*
Y0288122D01*
X0196500D01*
Y0285350D01*
Y0282579D01*
X0197799D01*
X0198006Y0282079D01*
X0197576Y0281648D01*
X0197335Y0281288D01*
X0197250Y0280862D01*
X0196847Y0280634D01*
X0196500D01*
Y0278256D01*
X0195500D01*
Y0277256D01*
X0192728D01*
Y0275878D01*
X0194487D01*
X0194650Y0275378D01*
X0194473Y0275113D01*
X0194393Y0274713D01*
X0193138D01*
Y0270776D01*
X0194388D01*
Y0257461D01*
X0181690Y0244763D01*
X0181228Y0244954D01*
Y0246902D01*
X0179437D01*
Y0243500D01*
Y0240098D01*
X0180207D01*
Y0239280D01*
X0177972Y0237045D01*
X0168445D01*
X0168019Y0236960D01*
X0167659Y0236719D01*
X0167186Y0236246D01*
X0166658Y0236425D01*
X0166621Y0236702D01*
X0166350Y0237357D01*
X0165919Y0237919D01*
X0165357Y0238350D01*
X0165112Y0238452D01*
Y0240508D01*
X0167945D01*
Y0246492D01*
X0163181D01*
X0162793Y0246762D01*
Y0249032D01*
X0163131Y0249369D01*
X0163202Y0249379D01*
X0163857Y0249650D01*
X0164419Y0250081D01*
X0164850Y0250643D01*
X0165121Y0251298D01*
X0165214Y0252000D01*
X0165121Y0252702D01*
X0164850Y0253357D01*
X0164419Y0253919D01*
X0163857Y0254350D01*
X0163202Y0254621D01*
X0162500Y0254714D01*
X0161798Y0254621D01*
X0161143Y0254350D01*
X0160581Y0253919D01*
X0160150Y0253357D01*
X0159879Y0252702D01*
X0159786Y0252000D01*
X0159879Y0251298D01*
X0160150Y0250643D01*
X0160581Y0250081D01*
X0160701Y0249989D01*
X0160654Y0249918D01*
X0160569Y0249492D01*
X0160569Y0249492D01*
Y0246386D01*
X0158824Y0244641D01*
X0158362Y0244832D01*
Y0247724D01*
X0155604D01*
X0154948Y0248380D01*
X0155121Y0248798D01*
X0155214Y0249500D01*
X0155121Y0250202D01*
X0154850Y0250857D01*
X0154419Y0251419D01*
X0153857Y0251850D01*
X0153202Y0252121D01*
X0152500Y0252214D01*
X0151798Y0252121D01*
X0151143Y0251850D01*
X0150581Y0251419D01*
X0150150Y0250857D01*
X0149879Y0250202D01*
X0149831Y0249839D01*
X0149331Y0249871D01*
Y0274432D01*
X0149793Y0274623D01*
X0150638Y0273778D01*
Y0271020D01*
X0155362D01*
Y0271876D01*
X0157638D01*
Y0270776D01*
X0162362D01*
Y0271632D01*
X0164638D01*
Y0270776D01*
X0169362D01*
Y0271632D01*
X0171638D01*
Y0270776D01*
X0176362D01*
Y0271632D01*
X0178638D01*
Y0270776D01*
X0183362D01*
Y0271632D01*
X0185638D01*
Y0270776D01*
X0190362D01*
Y0274713D01*
X0185638D01*
Y0273856D01*
X0183362D01*
Y0274713D01*
X0178638D01*
Y0273856D01*
X0176362D01*
Y0274713D01*
X0171638D01*
Y0273856D01*
X0169362D01*
Y0274713D01*
X0164638D01*
Y0273856D01*
X0162362D01*
Y0274713D01*
X0157638D01*
Y0274100D01*
X0155362D01*
Y0274957D01*
X0152604D01*
X0151491Y0276070D01*
X0151682Y0276532D01*
X0155362D01*
Y0279172D01*
X0155621Y0279798D01*
X0155714Y0280500D01*
X0155621Y0281202D01*
X0155350Y0281857D01*
X0155295Y0281929D01*
X0155541Y0282429D01*
X0157959D01*
X0158205Y0281929D01*
X0158150Y0281857D01*
X0157879Y0281202D01*
X0157808Y0280666D01*
X0157638Y0280224D01*
X0157638Y0280224D01*
X0157638Y0280224D01*
Y0276287D01*
X0162362D01*
Y0278538D01*
X0162419Y0278581D01*
X0162850Y0279143D01*
X0163121Y0279798D01*
X0163214Y0280500D01*
X0163121Y0281202D01*
X0162850Y0281857D01*
X0162481Y0282339D01*
X0162616Y0282839D01*
X0164954D01*
X0165175Y0282390D01*
X0165150Y0282357D01*
X0164879Y0281702D01*
X0164786Y0281000D01*
X0164822Y0280724D01*
X0164638Y0280224D01*
X0164638D01*
Y0276287D01*
X0169362D01*
Y0279038D01*
X0169419Y0279081D01*
X0169850Y0279643D01*
X0170121Y0280298D01*
X0170214Y0281000D01*
X0170121Y0281702D01*
X0169850Y0282357D01*
X0169825Y0282390D01*
X0170046Y0282839D01*
X0171884D01*
X0172019Y0282339D01*
X0171650Y0281857D01*
X0171379Y0281202D01*
X0171286Y0280500D01*
X0171379Y0279798D01*
X0171638Y0279172D01*
Y0276287D01*
X0176362D01*
Y0279172D01*
X0176621Y0279798D01*
X0176714Y0280500D01*
X0176621Y0281202D01*
X0176350Y0281857D01*
X0175919Y0282419D01*
X0175357Y0282850D01*
X0174702Y0283121D01*
X0174559Y0283140D01*
Y0283639D01*
X0174718Y0284089D01*
X0175143Y0284173D01*
X0175504Y0284415D01*
X0176570Y0285480D01*
X0177032Y0285289D01*
Y0282429D01*
X0177959D01*
X0178205Y0281929D01*
X0178150Y0281857D01*
X0177879Y0281202D01*
X0177786Y0280500D01*
X0177879Y0279798D01*
X0178150Y0279143D01*
X0178581Y0278581D01*
X0178638Y0278538D01*
Y0276287D01*
X0183362D01*
Y0280224D01*
X0183362D01*
X0183193Y0280655D01*
X0183121Y0281202D01*
X0182850Y0281857D01*
X0182795Y0281929D01*
X0182968Y0282429D01*
X0182968D01*
Y0284201D01*
X0180000D01*
Y0286201D01*
X0182968D01*
Y0287101D01*
X0185531D01*
Y0286350D01*
X0191469D01*
Y0287101D01*
X0192063D01*
X0192063Y0287101D01*
X0192532Y0286684D01*
Y0286350D01*
X0194500D01*
Y0288122D01*
X0194198D01*
X0194007Y0288584D01*
X0194710Y0289287D01*
X0198059D01*
Y0294012D01*
X0196612D01*
Y0297500D01*
X0196612Y0297500D01*
X0196527Y0297925D01*
X0196286Y0298286D01*
X0196286Y0298286D01*
X0195122Y0299451D01*
X0195265Y0299959D01*
X0195278Y0299976D01*
X0195309Y0299980D01*
X0196063Y0300292D01*
X0196711Y0300789D01*
X0197208Y0301437D01*
X0197520Y0302191D01*
X0197530Y0302268D01*
X0198004Y0302429D01*
X0202574Y0297859D01*
D02*
G37*
G36*
X0528500Y0261000D02*
X0535500D01*
Y0255000D01*
X0521500D01*
Y0261500D01*
X0508000Y0275000D01*
X0490500D01*
Y0281000D01*
X0508500D01*
X0528500Y0261000D01*
D02*
G37*
G36*
X0223419Y0312023D02*
X0223796Y0311114D01*
X0224395Y0310332D01*
X0225177Y0309733D01*
X0225696Y0309517D01*
Y0301147D01*
X0225800Y0300623D01*
X0226097Y0300180D01*
X0238586Y0287690D01*
X0238496Y0287000D01*
X0238588Y0286298D01*
X0238859Y0285643D01*
X0239262Y0285118D01*
X0239230Y0284975D01*
X0239041Y0284643D01*
X0238500Y0284714D01*
X0237798Y0284621D01*
X0237143Y0284350D01*
X0236581Y0283919D01*
X0236150Y0283357D01*
X0235879Y0282702D01*
X0235786Y0282000D01*
X0235879Y0281298D01*
X0236150Y0280643D01*
X0236581Y0280081D01*
X0237143Y0279650D01*
X0237798Y0279379D01*
X0238500Y0279286D01*
X0239202Y0279379D01*
X0239857Y0279650D01*
X0240419Y0280081D01*
X0240850Y0280643D01*
X0241010Y0281029D01*
X0241286Y0281214D01*
X0241961Y0281888D01*
X0245850D01*
X0245850Y0281888D01*
X0246276Y0281973D01*
X0246637Y0282214D01*
X0246710Y0282287D01*
X0249693D01*
X0249752Y0281989D01*
X0249993Y0281628D01*
X0250632Y0280989D01*
X0250632Y0280989D01*
X0250993Y0280748D01*
X0251418Y0280664D01*
X0251988D01*
Y0276529D01*
X0251612Y0276199D01*
X0251500Y0276214D01*
X0250798Y0276121D01*
X0250559Y0276023D01*
X0250059Y0276357D01*
Y0280713D01*
X0244941D01*
Y0277364D01*
X0244714Y0277137D01*
X0244473Y0276776D01*
X0244388Y0276350D01*
X0244388Y0276350D01*
Y0274452D01*
X0244143Y0274350D01*
X0243581Y0273919D01*
X0243150Y0273357D01*
X0242879Y0272702D01*
X0242786Y0272000D01*
X0242879Y0271298D01*
X0243150Y0270643D01*
X0243581Y0270081D01*
X0244143Y0269650D01*
X0244798Y0269379D01*
X0245500Y0269286D01*
X0246202Y0269379D01*
X0246857Y0269650D01*
X0247419Y0270081D01*
X0247850Y0270643D01*
X0248121Y0271298D01*
X0248214Y0272000D01*
X0248121Y0272702D01*
X0247850Y0273357D01*
X0247419Y0273919D01*
X0246857Y0274350D01*
X0246612Y0274452D01*
Y0275890D01*
X0246710Y0275988D01*
X0249502D01*
X0249671Y0275488D01*
X0249581Y0275419D01*
X0249150Y0274857D01*
X0248879Y0274202D01*
X0248786Y0273500D01*
X0248879Y0272798D01*
X0249150Y0272143D01*
X0249581Y0271581D01*
X0250143Y0271150D01*
X0250798Y0270879D01*
X0251500Y0270786D01*
X0252190Y0270877D01*
X0263034Y0260033D01*
X0263477Y0259737D01*
X0264000Y0259633D01*
X0384174D01*
X0384504Y0259257D01*
X0384470Y0259000D01*
X0384590Y0258086D01*
X0384943Y0257235D01*
X0385504Y0256504D01*
X0386235Y0255943D01*
X0387000Y0255626D01*
Y0259000D01*
X0389000D01*
Y0255626D01*
X0389765Y0255943D01*
X0390496Y0256504D01*
X0391057Y0257235D01*
X0391410Y0258086D01*
X0391530Y0259000D01*
X0391496Y0259257D01*
X0391826Y0259633D01*
X0406434D01*
X0413877Y0252190D01*
X0413786Y0251500D01*
X0413879Y0250798D01*
X0414150Y0250143D01*
X0414581Y0249581D01*
X0415143Y0249150D01*
X0415798Y0248879D01*
X0416500Y0248786D01*
X0417202Y0248879D01*
X0417857Y0249150D01*
X0418079Y0249320D01*
X0418579Y0249073D01*
Y0241235D01*
X0413718Y0236374D01*
X0413256Y0236565D01*
Y0240213D01*
X0409250D01*
X0408546Y0240916D01*
X0408738Y0241378D01*
X0409500D01*
Y0243543D01*
X0407335D01*
Y0242781D01*
X0406873Y0242590D01*
X0405721Y0243742D01*
Y0246224D01*
X0402059D01*
Y0245112D01*
X0399987D01*
X0396241Y0248858D01*
X0395880Y0249099D01*
X0395455Y0249184D01*
X0395455Y0249184D01*
X0378889D01*
X0377520Y0250553D01*
X0377621Y0250798D01*
X0377714Y0251500D01*
X0377621Y0252202D01*
X0377350Y0252857D01*
X0376919Y0253419D01*
X0376357Y0253850D01*
X0375702Y0254121D01*
X0375000Y0254214D01*
X0374298Y0254121D01*
X0373643Y0253850D01*
X0373081Y0253419D01*
X0372650Y0252857D01*
X0372379Y0252202D01*
X0372286Y0251500D01*
X0372379Y0250798D01*
X0372650Y0250143D01*
X0373081Y0249581D01*
X0373643Y0249150D01*
X0374298Y0248879D01*
X0375000Y0248786D01*
X0375702Y0248879D01*
X0375947Y0248980D01*
X0376856Y0248072D01*
X0366218Y0237434D01*
X0365756Y0237626D01*
Y0240213D01*
X0361817D01*
X0361113Y0240916D01*
X0361304Y0241378D01*
X0362000D01*
Y0243543D01*
X0359835D01*
Y0242848D01*
X0359373Y0242656D01*
X0358221Y0243809D01*
Y0246224D01*
X0354559D01*
Y0245112D01*
X0352487D01*
X0348313Y0249286D01*
X0347952Y0249527D01*
X0347527Y0249612D01*
X0347527Y0249612D01*
X0331547D01*
X0331163Y0250112D01*
X0331214Y0250500D01*
X0331121Y0251202D01*
X0330850Y0251857D01*
X0330419Y0252419D01*
X0329857Y0252850D01*
X0329202Y0253121D01*
X0328500Y0253214D01*
X0327798Y0253121D01*
X0327143Y0252850D01*
X0326581Y0252419D01*
X0326150Y0251857D01*
X0325879Y0251202D01*
X0325786Y0250500D01*
X0325879Y0249798D01*
X0326150Y0249143D01*
X0326581Y0248581D01*
X0327143Y0248150D01*
X0327615Y0247954D01*
X0327784Y0247417D01*
X0318718Y0238350D01*
X0318256Y0238542D01*
Y0239213D01*
X0314317D01*
X0313613Y0239916D01*
X0313805Y0240378D01*
X0314500D01*
Y0242543D01*
X0312335D01*
Y0241848D01*
X0311873Y0241656D01*
X0310720Y0242809D01*
Y0245224D01*
X0307059D01*
Y0244112D01*
X0305265D01*
X0301591Y0247786D01*
X0301230Y0248027D01*
X0300805Y0248112D01*
X0300805Y0248112D01*
X0288973D01*
X0287108Y0249977D01*
X0286874Y0250133D01*
X0287025Y0250633D01*
X0318657D01*
X0319081Y0250081D01*
X0319643Y0249650D01*
X0320298Y0249379D01*
X0321000Y0249286D01*
X0321702Y0249379D01*
X0322357Y0249650D01*
X0322919Y0250081D01*
X0323350Y0250643D01*
X0323621Y0251298D01*
X0323714Y0252000D01*
X0323621Y0252702D01*
X0323350Y0253357D01*
X0322919Y0253919D01*
X0322357Y0254350D01*
X0321702Y0254621D01*
X0321000Y0254714D01*
X0320298Y0254621D01*
X0319643Y0254350D01*
X0319081Y0253919D01*
X0318657Y0253367D01*
X0278432D01*
X0276587Y0255212D01*
X0276778Y0255674D01*
X0363393D01*
X0365877Y0253190D01*
X0365786Y0252500D01*
X0365879Y0251798D01*
X0366150Y0251143D01*
X0366581Y0250581D01*
X0367143Y0250150D01*
X0367798Y0249879D01*
X0368500Y0249786D01*
X0369202Y0249879D01*
X0369857Y0250150D01*
X0370419Y0250581D01*
X0370850Y0251143D01*
X0371121Y0251798D01*
X0371214Y0252500D01*
X0371121Y0253202D01*
X0370850Y0253857D01*
X0370419Y0254419D01*
X0369857Y0254850D01*
X0369202Y0255121D01*
X0368500Y0255214D01*
X0367810Y0255123D01*
X0364926Y0258007D01*
X0364482Y0258304D01*
X0363959Y0258408D01*
X0226607D01*
X0220608Y0264407D01*
Y0309517D01*
X0221127Y0309733D01*
X0221909Y0310332D01*
X0222508Y0311114D01*
X0222885Y0312023D01*
X0222900Y0312134D01*
X0223404D01*
X0223419Y0312023D01*
D02*
G37*
G36*
X0657388Y0319539D02*
Y0271452D01*
X0657143Y0271350D01*
X0656581Y0270919D01*
X0656150Y0270357D01*
X0655879Y0269702D01*
X0655842Y0269425D01*
X0655314Y0269246D01*
X0652612Y0271949D01*
Y0323000D01*
X0652612Y0323000D01*
X0652527Y0323426D01*
X0652286Y0323786D01*
X0644286Y0331786D01*
X0643926Y0332027D01*
X0643500Y0332112D01*
X0643500Y0332112D01*
X0451500D01*
X0451500Y0332112D01*
X0451075Y0332027D01*
X0450714Y0331786D01*
X0425714Y0306786D01*
X0425473Y0306425D01*
X0425388Y0306000D01*
X0425388Y0306000D01*
Y0117961D01*
X0418254Y0110826D01*
X0417807Y0111011D01*
X0417000Y0111117D01*
X0416193Y0111011D01*
X0415441Y0110700D01*
X0414796Y0110204D01*
X0414300Y0109559D01*
X0413989Y0108807D01*
X0413883Y0108000D01*
X0413989Y0107193D01*
X0414300Y0106441D01*
X0414623Y0106021D01*
X0414376Y0105521D01*
X0301051D01*
X0300020Y0106553D01*
X0300121Y0106798D01*
X0300214Y0107500D01*
X0300121Y0108202D01*
X0299850Y0108857D01*
X0299419Y0109419D01*
X0298857Y0109850D01*
X0298202Y0110121D01*
X0297500Y0110214D01*
X0296798Y0110121D01*
X0296143Y0109850D01*
X0295581Y0109419D01*
X0295150Y0108857D01*
X0294879Y0108202D01*
X0294786Y0107500D01*
X0294879Y0106798D01*
X0295150Y0106143D01*
X0295581Y0105581D01*
X0296143Y0105150D01*
X0296798Y0104879D01*
X0297500Y0104786D01*
X0298202Y0104879D01*
X0298447Y0104980D01*
X0299316Y0104112D01*
X0299109Y0103612D01*
X0291461D01*
X0279612Y0115461D01*
Y0138048D01*
X0279857Y0138150D01*
X0280419Y0138581D01*
X0280850Y0139143D01*
X0281121Y0139798D01*
X0281214Y0140500D01*
X0281121Y0141202D01*
X0280850Y0141857D01*
X0280419Y0142419D01*
X0279857Y0142850D01*
X0279202Y0143121D01*
X0278626Y0143197D01*
X0278383Y0143661D01*
X0289346Y0154624D01*
X0289351Y0154631D01*
X0289966Y0154651D01*
X0290046Y0154546D01*
X0290765Y0153995D01*
X0291602Y0153648D01*
X0292500Y0153530D01*
X0293398Y0153648D01*
X0294235Y0153995D01*
X0294954Y0154546D01*
X0295505Y0155265D01*
X0295852Y0156102D01*
X0295970Y0157000D01*
X0295852Y0157898D01*
X0295505Y0158735D01*
X0294954Y0159454D01*
X0294235Y0160005D01*
X0293398Y0160352D01*
X0292500Y0160470D01*
X0291602Y0160352D01*
X0290765Y0160005D01*
X0290171Y0159550D01*
X0289671Y0159729D01*
Y0163035D01*
X0291176Y0164539D01*
X0291638Y0164348D01*
Y0162276D01*
X0295652D01*
X0299406Y0158521D01*
X0299148Y0157898D01*
X0299030Y0157000D01*
X0299148Y0156102D01*
X0299495Y0155265D01*
X0300046Y0154546D01*
X0300765Y0153995D01*
X0301602Y0153648D01*
X0302500Y0153530D01*
X0303398Y0153648D01*
X0304235Y0153995D01*
X0304954Y0154546D01*
X0305505Y0155265D01*
X0305852Y0156102D01*
X0305970Y0157000D01*
X0305852Y0157898D01*
X0305505Y0158735D01*
X0304954Y0159454D01*
X0304235Y0160005D01*
X0303398Y0160352D01*
X0302500Y0160470D01*
X0301602Y0160352D01*
X0300979Y0160094D01*
X0296362Y0164710D01*
Y0166213D01*
X0295522D01*
X0295112Y0166713D01*
Y0167787D01*
X0296362D01*
Y0171724D01*
X0291638D01*
Y0167797D01*
X0291351Y0167740D01*
X0290990Y0167499D01*
X0287773Y0164282D01*
X0287532Y0163921D01*
X0287448Y0163495D01*
X0287448Y0163495D01*
Y0155870D01*
X0271136Y0139559D01*
X0267787D01*
Y0134441D01*
X0269038D01*
Y0129342D01*
X0260898D01*
Y0125139D01*
X0252794D01*
X0252794Y0125139D01*
X0252369Y0125055D01*
X0252008Y0124814D01*
X0252008Y0124814D01*
X0247990Y0120795D01*
X0247528Y0120987D01*
Y0123028D01*
X0241409D01*
Y0124028D01*
X0240409D01*
Y0129752D01*
X0237336D01*
X0237145Y0130214D01*
X0258286Y0151356D01*
X0258286Y0151356D01*
X0258527Y0151716D01*
X0258612Y0152142D01*
X0258612Y0152142D01*
Y0156343D01*
X0259112Y0156376D01*
X0259148Y0156102D01*
X0259495Y0155265D01*
X0260046Y0154546D01*
X0260765Y0153995D01*
X0261602Y0153648D01*
X0262500Y0153530D01*
X0263398Y0153648D01*
X0264235Y0153995D01*
X0264954Y0154546D01*
X0265505Y0155265D01*
X0265852Y0156102D01*
X0265970Y0157000D01*
X0265852Y0157898D01*
X0265594Y0158521D01*
X0289346Y0182273D01*
X0289346Y0182273D01*
X0289587Y0182634D01*
X0289671Y0183059D01*
X0289671Y0183060D01*
Y0214271D01*
X0290171Y0214450D01*
X0290765Y0213995D01*
X0291602Y0213648D01*
X0292500Y0213530D01*
X0293398Y0213648D01*
X0294235Y0213995D01*
X0294954Y0214546D01*
X0295505Y0215265D01*
X0295852Y0216102D01*
X0295970Y0217000D01*
X0295852Y0217898D01*
X0295594Y0218521D01*
X0299954Y0222882D01*
X0300415Y0222635D01*
X0300388Y0222500D01*
Y0222033D01*
X0297773Y0219419D01*
X0297532Y0219058D01*
X0297447Y0218632D01*
X0297447Y0218632D01*
Y0183520D01*
X0274021Y0160094D01*
X0273398Y0160352D01*
X0272500Y0160470D01*
X0271602Y0160352D01*
X0270765Y0160005D01*
X0270046Y0159454D01*
X0269495Y0158735D01*
X0269148Y0157898D01*
X0269030Y0157000D01*
X0269148Y0156102D01*
X0269495Y0155265D01*
X0270046Y0154546D01*
X0270765Y0153995D01*
X0271602Y0153648D01*
X0272500Y0153530D01*
X0273398Y0153648D01*
X0274235Y0153995D01*
X0274954Y0154546D01*
X0275505Y0155265D01*
X0275852Y0156102D01*
X0275970Y0157000D01*
X0275852Y0157898D01*
X0275594Y0158521D01*
X0299346Y0182273D01*
X0299346Y0182273D01*
X0299587Y0182634D01*
X0299671Y0183059D01*
X0299671Y0183060D01*
Y0184272D01*
X0300171Y0184450D01*
X0300765Y0183995D01*
X0301602Y0183648D01*
X0302500Y0183530D01*
X0303398Y0183648D01*
X0304235Y0183995D01*
X0304954Y0184546D01*
X0305505Y0185265D01*
X0305852Y0186102D01*
X0305970Y0187000D01*
X0305852Y0187898D01*
X0305505Y0188735D01*
X0304954Y0189454D01*
X0304235Y0190005D01*
X0303398Y0190352D01*
X0302500Y0190470D01*
X0301602Y0190352D01*
X0300765Y0190005D01*
X0300171Y0189550D01*
X0299671Y0189728D01*
Y0194272D01*
X0300171Y0194450D01*
X0300765Y0193995D01*
X0301602Y0193648D01*
X0302500Y0193530D01*
X0303398Y0193648D01*
X0304235Y0193995D01*
X0304954Y0194546D01*
X0305505Y0195265D01*
X0305852Y0196102D01*
X0305970Y0197000D01*
X0305852Y0197898D01*
X0305505Y0198735D01*
X0304954Y0199454D01*
X0304235Y0200005D01*
X0303398Y0200352D01*
X0302500Y0200470D01*
X0301602Y0200352D01*
X0300765Y0200005D01*
X0300171Y0199550D01*
X0299671Y0199729D01*
Y0204272D01*
X0300171Y0204450D01*
X0300765Y0203995D01*
X0301602Y0203648D01*
X0302500Y0203530D01*
X0303398Y0203648D01*
X0304235Y0203995D01*
X0304954Y0204546D01*
X0305505Y0205265D01*
X0305852Y0206102D01*
X0305970Y0207000D01*
X0305852Y0207898D01*
X0305505Y0208735D01*
X0304954Y0209454D01*
X0304235Y0210005D01*
X0303398Y0210352D01*
X0302500Y0210470D01*
X0301602Y0210352D01*
X0300765Y0210005D01*
X0300171Y0209550D01*
X0299671Y0209729D01*
Y0214271D01*
X0300171Y0214450D01*
X0300765Y0213995D01*
X0301602Y0213648D01*
X0302500Y0213530D01*
X0303398Y0213648D01*
X0304235Y0213995D01*
X0304954Y0214546D01*
X0305505Y0215265D01*
X0305852Y0216102D01*
X0305970Y0217000D01*
X0305852Y0217898D01*
X0305505Y0218735D01*
X0304954Y0219454D01*
X0304235Y0220005D01*
X0303398Y0220352D01*
X0302647Y0220451D01*
X0302597Y0220497D01*
X0302436Y0220794D01*
X0302404Y0220959D01*
X0302413Y0220975D01*
X0302527Y0221147D01*
X0302543Y0221227D01*
X0302627Y0221388D01*
X0399963D01*
X0399989Y0221193D01*
X0400300Y0220441D01*
X0400796Y0219796D01*
X0401441Y0219300D01*
X0402193Y0218989D01*
X0403000Y0218883D01*
X0403807Y0218989D01*
X0404559Y0219300D01*
X0405204Y0219796D01*
X0405700Y0220441D01*
X0406011Y0221193D01*
X0406016Y0221235D01*
X0406537Y0221356D01*
X0406623Y0221227D01*
X0408727Y0219123D01*
X0408727Y0219123D01*
X0408961Y0218967D01*
X0412528Y0215400D01*
X0412489Y0215307D01*
X0412383Y0214500D01*
X0412489Y0213693D01*
X0412800Y0212941D01*
X0413296Y0212296D01*
X0413941Y0211800D01*
X0414693Y0211489D01*
X0415500Y0211383D01*
X0416307Y0211489D01*
X0417059Y0211800D01*
X0417704Y0212296D01*
X0418200Y0212941D01*
X0418511Y0213693D01*
X0418617Y0214500D01*
X0418511Y0215307D01*
X0418200Y0216059D01*
X0417704Y0216704D01*
X0417059Y0217200D01*
X0416307Y0217511D01*
X0415500Y0217617D01*
X0414693Y0217511D01*
X0413941Y0217200D01*
X0413903Y0217170D01*
X0411171Y0219901D01*
X0411351Y0220429D01*
X0411807Y0220489D01*
X0412559Y0220800D01*
X0413204Y0221296D01*
X0413700Y0221941D01*
X0414011Y0222693D01*
X0414117Y0223500D01*
X0414011Y0224307D01*
X0413700Y0225059D01*
X0413204Y0225704D01*
X0412559Y0226200D01*
X0411807Y0226511D01*
X0411000Y0226617D01*
X0410519Y0226554D01*
X0409875Y0227198D01*
X0410066Y0227660D01*
X0416768D01*
X0417674Y0226753D01*
X0417489Y0226307D01*
X0417383Y0225500D01*
X0417489Y0224693D01*
X0417800Y0223941D01*
X0418296Y0223296D01*
X0418941Y0222800D01*
X0419693Y0222489D01*
X0420500Y0222383D01*
X0421307Y0222489D01*
X0422059Y0222800D01*
X0422704Y0223296D01*
X0423200Y0223941D01*
X0423511Y0224693D01*
X0423617Y0225500D01*
X0423511Y0226307D01*
X0423200Y0227059D01*
X0422704Y0227704D01*
X0422059Y0228200D01*
X0421307Y0228511D01*
X0420500Y0228617D01*
X0419693Y0228511D01*
X0419246Y0228326D01*
X0418015Y0229558D01*
X0417654Y0229799D01*
X0417228Y0229884D01*
X0417228Y0229884D01*
X0393769D01*
X0393702Y0230379D01*
X0394357Y0230650D01*
X0394919Y0231081D01*
X0395350Y0231643D01*
X0395621Y0232298D01*
X0395714Y0233000D01*
X0395623Y0233690D01*
X0397317Y0235384D01*
X0397355Y0235441D01*
X0398703D01*
X0398760Y0235154D01*
X0399001Y0234793D01*
X0400380Y0233415D01*
X0400380Y0233415D01*
X0400741Y0233173D01*
X0401166Y0233089D01*
X0401166Y0233089D01*
X0413117D01*
X0413117Y0233089D01*
X0413543Y0233173D01*
X0413903Y0233415D01*
X0420477Y0239988D01*
X0420477Y0239988D01*
X0420718Y0240349D01*
X0420802Y0240774D01*
Y0259310D01*
X0420718Y0259735D01*
X0420477Y0260096D01*
X0420477Y0260096D01*
X0416286Y0264286D01*
X0415926Y0264527D01*
X0415500Y0264612D01*
X0415500Y0264612D01*
X0391995D01*
X0391139Y0265467D01*
X0390779Y0265708D01*
X0390353Y0265793D01*
X0390353Y0265793D01*
X0385647D01*
X0385647Y0265793D01*
X0385221Y0265708D01*
X0384861Y0265467D01*
X0384861Y0265467D01*
X0384005Y0264612D01*
X0283417D01*
X0271256Y0276773D01*
Y0280713D01*
X0267317D01*
X0266613Y0281416D01*
X0266805Y0281878D01*
X0267500D01*
Y0285043D01*
X0269500D01*
Y0281878D01*
X0271665D01*
Y0285525D01*
X0272127Y0285717D01*
X0274831Y0283013D01*
X0275192Y0282772D01*
X0275617Y0282687D01*
X0283388D01*
Y0272952D01*
X0283143Y0272850D01*
X0282581Y0272419D01*
X0282150Y0271857D01*
X0281879Y0271202D01*
X0281786Y0270500D01*
X0281879Y0269798D01*
X0282150Y0269143D01*
X0282581Y0268581D01*
X0283143Y0268150D01*
X0283798Y0267879D01*
X0284500Y0267786D01*
X0285202Y0267879D01*
X0285857Y0268150D01*
X0286419Y0268581D01*
X0286850Y0269143D01*
X0287121Y0269798D01*
X0287214Y0270500D01*
X0287121Y0271202D01*
X0286850Y0271857D01*
X0286419Y0272419D01*
X0285857Y0272850D01*
X0285612Y0272952D01*
Y0281135D01*
X0286112Y0281235D01*
X0286150Y0281143D01*
X0286581Y0280581D01*
X0287143Y0280150D01*
X0287798Y0279879D01*
X0288500Y0279786D01*
X0289202Y0279879D01*
X0289857Y0280150D01*
X0290419Y0280581D01*
X0290850Y0281143D01*
X0290952Y0281388D01*
X0292850D01*
X0292850Y0281388D01*
X0293276Y0281473D01*
X0293637Y0281714D01*
X0294210Y0282287D01*
X0297193D01*
X0297252Y0281989D01*
X0297493Y0281628D01*
X0298132Y0280989D01*
X0298132Y0280989D01*
X0298493Y0280748D01*
X0298918Y0280664D01*
X0299488D01*
Y0276154D01*
X0299087Y0275702D01*
X0299000Y0275714D01*
X0298298Y0275621D01*
X0297643Y0275350D01*
X0297081Y0274919D01*
X0296650Y0274357D01*
X0296612Y0274265D01*
X0296112Y0274365D01*
Y0275988D01*
X0297559D01*
Y0280713D01*
X0292441D01*
Y0275988D01*
X0293888D01*
Y0273651D01*
X0293447Y0273210D01*
X0293202Y0273312D01*
X0292500Y0273404D01*
X0291798Y0273312D01*
X0291143Y0273041D01*
X0290581Y0272609D01*
X0290150Y0272047D01*
X0289879Y0271393D01*
X0289786Y0270690D01*
X0289879Y0269988D01*
X0290150Y0269334D01*
X0290581Y0268772D01*
X0291143Y0268340D01*
X0291798Y0268069D01*
X0292500Y0267977D01*
X0293202Y0268069D01*
X0293857Y0268340D01*
X0294419Y0268772D01*
X0294850Y0269334D01*
X0295121Y0269988D01*
X0295214Y0270690D01*
X0295121Y0271393D01*
X0295020Y0271638D01*
X0295786Y0272404D01*
X0295786Y0272404D01*
X0295848Y0272497D01*
X0296368Y0272376D01*
X0296379Y0272298D01*
X0296650Y0271643D01*
X0297081Y0271081D01*
X0297643Y0270650D01*
X0298298Y0270379D01*
X0299000Y0270286D01*
X0299702Y0270379D01*
X0300357Y0270650D01*
X0300919Y0271081D01*
X0301350Y0271643D01*
X0301621Y0272298D01*
X0301714Y0273000D01*
X0301623Y0273690D01*
X0302817Y0274884D01*
X0303113Y0275327D01*
X0303217Y0275850D01*
Y0275941D01*
X0304213D01*
Y0280157D01*
X0304713Y0280364D01*
X0305787Y0279290D01*
Y0275941D01*
X0310512D01*
Y0277388D01*
X0313244D01*
Y0275201D01*
X0318756D01*
Y0280713D01*
X0314817D01*
X0314113Y0281416D01*
X0314304Y0281878D01*
X0315000D01*
Y0285043D01*
X0317000D01*
Y0281878D01*
X0319165D01*
Y0285525D01*
X0319627Y0285717D01*
X0322831Y0282513D01*
X0322831Y0282513D01*
X0323192Y0282272D01*
X0323617Y0282187D01*
X0323617Y0282187D01*
X0330388D01*
Y0271952D01*
X0330143Y0271850D01*
X0329581Y0271419D01*
X0329150Y0270857D01*
X0328879Y0270202D01*
X0328786Y0269500D01*
X0328879Y0268798D01*
X0329150Y0268143D01*
X0329581Y0267581D01*
X0330143Y0267150D01*
X0330798Y0266879D01*
X0331500Y0266786D01*
X0332202Y0266879D01*
X0332857Y0267150D01*
X0333419Y0267581D01*
X0333850Y0268143D01*
X0334121Y0268798D01*
X0334214Y0269500D01*
X0334121Y0270202D01*
X0333850Y0270857D01*
X0333419Y0271419D01*
X0332857Y0271850D01*
X0332612Y0271952D01*
Y0281135D01*
X0333112Y0281235D01*
X0333150Y0281143D01*
X0333581Y0280581D01*
X0334143Y0280150D01*
X0334798Y0279879D01*
X0335500Y0279786D01*
X0336202Y0279879D01*
X0336857Y0280150D01*
X0337419Y0280581D01*
X0337850Y0281143D01*
X0337952Y0281388D01*
X0339850D01*
X0339850Y0281388D01*
X0340276Y0281473D01*
X0340637Y0281714D01*
X0341210Y0282287D01*
X0344193D01*
X0344252Y0281989D01*
X0344493Y0281628D01*
X0345132Y0280989D01*
X0345132Y0280989D01*
X0345493Y0280748D01*
X0345918Y0280664D01*
X0346488D01*
Y0276154D01*
X0346087Y0275702D01*
X0346000Y0275714D01*
X0345298Y0275621D01*
X0344643Y0275350D01*
X0344081Y0274919D01*
X0343650Y0274357D01*
X0343612Y0274265D01*
X0343112Y0274365D01*
Y0275988D01*
X0344559D01*
Y0280713D01*
X0339441D01*
Y0275988D01*
X0340888D01*
Y0273548D01*
X0340388Y0273163D01*
X0340000Y0273214D01*
X0339298Y0273121D01*
X0338643Y0272850D01*
X0338081Y0272419D01*
X0337650Y0271857D01*
X0337379Y0271202D01*
X0337286Y0270500D01*
X0337379Y0269798D01*
X0337650Y0269143D01*
X0338081Y0268581D01*
X0338643Y0268150D01*
X0339298Y0267879D01*
X0340000Y0267786D01*
X0340702Y0267879D01*
X0341357Y0268150D01*
X0341919Y0268581D01*
X0342350Y0269143D01*
X0342621Y0269798D01*
X0342714Y0270500D01*
X0342621Y0271202D01*
X0342520Y0271447D01*
X0342786Y0271714D01*
X0342786Y0271714D01*
X0342967Y0271985D01*
X0343310Y0272014D01*
X0343514Y0271971D01*
X0343650Y0271643D01*
X0344081Y0271081D01*
X0344643Y0270650D01*
X0345298Y0270379D01*
X0346000Y0270286D01*
X0346702Y0270379D01*
X0347357Y0270650D01*
X0347919Y0271081D01*
X0348350Y0271643D01*
X0348621Y0272298D01*
X0348714Y0273000D01*
X0348623Y0273690D01*
X0349817Y0274884D01*
X0350113Y0275327D01*
X0350217Y0275850D01*
Y0275941D01*
X0351213D01*
Y0280157D01*
X0351713Y0280364D01*
X0352787Y0279290D01*
Y0275941D01*
X0357512D01*
Y0277388D01*
X0360244D01*
Y0275201D01*
X0365756D01*
Y0280713D01*
X0361817D01*
X0361113Y0281416D01*
X0361304Y0281878D01*
X0362000D01*
Y0285043D01*
X0364000D01*
Y0281878D01*
X0366165D01*
Y0285525D01*
X0366627Y0285717D01*
X0370831Y0281513D01*
X0371192Y0281272D01*
X0371617Y0281187D01*
X0376888D01*
Y0274952D01*
X0376643Y0274850D01*
X0376081Y0274419D01*
X0375650Y0273857D01*
X0375379Y0273202D01*
X0375286Y0272500D01*
X0375379Y0271798D01*
X0375650Y0271143D01*
X0376081Y0270581D01*
X0376643Y0270150D01*
X0377298Y0269879D01*
X0378000Y0269786D01*
X0378702Y0269879D01*
X0379357Y0270150D01*
X0379919Y0270581D01*
X0380350Y0271143D01*
X0380621Y0271798D01*
X0380714Y0272500D01*
X0380621Y0273202D01*
X0380350Y0273857D01*
X0379919Y0274419D01*
X0379357Y0274850D01*
X0379112Y0274952D01*
Y0281839D01*
X0380081Y0282807D01*
X0380527Y0282547D01*
X0380607Y0281939D01*
X0380878Y0281285D01*
X0381309Y0280723D01*
X0381872Y0280292D01*
X0382526Y0280020D01*
X0383228Y0279928D01*
X0383931Y0280020D01*
X0384585Y0280292D01*
X0385147Y0280723D01*
X0385578Y0281285D01*
X0385680Y0281530D01*
X0387579D01*
X0387579Y0281530D01*
X0388004Y0281614D01*
X0388365Y0281856D01*
X0388939Y0282429D01*
X0391745D01*
X0391760Y0282351D01*
X0392001Y0281990D01*
X0393077Y0280915D01*
X0393077Y0280914D01*
X0393438Y0280674D01*
X0393863Y0280589D01*
X0394216D01*
Y0276626D01*
X0393835Y0276275D01*
X0393228Y0276356D01*
X0392787Y0276297D01*
X0392287Y0276659D01*
Y0280854D01*
X0387169D01*
Y0276130D01*
X0388616D01*
Y0274863D01*
X0388438Y0274707D01*
X0387735Y0274614D01*
X0387081Y0274343D01*
X0386519Y0273912D01*
X0386088Y0273350D01*
X0385817Y0272695D01*
X0385724Y0271993D01*
X0385817Y0271290D01*
X0386088Y0270636D01*
X0386519Y0270074D01*
X0387081Y0269643D01*
X0387735Y0269372D01*
X0388438Y0269279D01*
X0389140Y0269372D01*
X0389795Y0269643D01*
X0390357Y0270074D01*
X0390788Y0270636D01*
X0391059Y0271290D01*
X0391592Y0271506D01*
X0391872Y0271291D01*
X0392526Y0271020D01*
X0393228Y0270928D01*
X0393931Y0271020D01*
X0394585Y0271291D01*
X0395147Y0271723D01*
X0395579Y0272285D01*
X0395850Y0272939D01*
X0395942Y0273642D01*
X0395851Y0274332D01*
X0397545Y0276026D01*
X0397583Y0276083D01*
X0398941D01*
Y0277119D01*
X0399441Y0277530D01*
X0400516D01*
Y0276083D01*
X0405240D01*
Y0277987D01*
X0407972D01*
Y0276343D01*
X0413484D01*
Y0281854D01*
X0409545D01*
X0408842Y0282558D01*
X0409033Y0283020D01*
X0409728D01*
Y0285185D01*
X0407563D01*
Y0284489D01*
X0407101Y0284298D01*
X0405971Y0285428D01*
X0405949Y0285443D01*
Y0286866D01*
X0402287D01*
Y0282417D01*
X0405837D01*
X0407544Y0280710D01*
X0407337Y0280210D01*
X0405240D01*
Y0281201D01*
X0400525D01*
X0400468Y0281487D01*
X0400227Y0281848D01*
X0400227Y0281848D01*
X0399588Y0282487D01*
X0399228Y0282728D01*
X0398802Y0282813D01*
X0398802Y0282813D01*
X0397169D01*
Y0284900D01*
X0400598Y0288329D01*
X0407563D01*
Y0287185D01*
X0410728D01*
X0413894D01*
Y0287629D01*
X0413977Y0287698D01*
X0419321D01*
X0419322Y0287698D01*
X0419747Y0287782D01*
X0420108Y0288023D01*
X0421977Y0289892D01*
X0422218Y0290253D01*
X0422302Y0290678D01*
Y0295098D01*
X0422218Y0295524D01*
X0421977Y0295885D01*
X0421977Y0295885D01*
X0413248Y0304613D01*
X0413350Y0304858D01*
X0413442Y0305561D01*
X0413350Y0306263D01*
X0413078Y0306918D01*
X0412752Y0307343D01*
X0412942Y0307842D01*
X0413484D01*
Y0313354D01*
X0409478D01*
X0408775Y0314058D01*
X0408966Y0314520D01*
X0409728D01*
Y0316685D01*
X0407563D01*
Y0315923D01*
X0407101Y0315731D01*
X0405949Y0316883D01*
Y0319366D01*
X0402287D01*
Y0314917D01*
X0404770D01*
X0407477Y0312210D01*
X0407270Y0311710D01*
X0405240D01*
Y0313701D01*
X0400516D01*
Y0308583D01*
X0405240D01*
Y0309487D01*
X0407972D01*
Y0307842D01*
X0408514D01*
X0408704Y0307343D01*
X0408378Y0306918D01*
X0408107Y0306263D01*
X0408015Y0305561D01*
X0408107Y0304858D01*
X0408337Y0304303D01*
X0407913Y0304020D01*
X0404825Y0307108D01*
X0404381Y0307404D01*
X0403858Y0307508D01*
X0397181D01*
X0396990Y0307970D01*
X0397545Y0308526D01*
X0397583Y0308583D01*
X0398941D01*
Y0313701D01*
X0394216D01*
Y0309126D01*
X0393835Y0308775D01*
X0393228Y0308856D01*
X0392787Y0308797D01*
X0392287Y0309159D01*
Y0313354D01*
X0387169D01*
Y0309983D01*
X0386973Y0309689D01*
X0386888Y0309264D01*
X0386888Y0309264D01*
Y0307452D01*
X0386643Y0307350D01*
X0386081Y0306919D01*
X0385650Y0306357D01*
X0385379Y0305702D01*
X0385286Y0305000D01*
X0385379Y0304298D01*
X0385650Y0303643D01*
X0386081Y0303081D01*
X0386643Y0302650D01*
X0387298Y0302379D01*
X0388000Y0302286D01*
X0388702Y0302379D01*
X0389357Y0302650D01*
X0389919Y0303081D01*
X0390350Y0303643D01*
X0390621Y0304298D01*
X0390621Y0304298D01*
X0391144Y0304438D01*
X0391309Y0304223D01*
X0391872Y0303791D01*
X0392526Y0303520D01*
X0393228Y0303428D01*
X0393931Y0303520D01*
X0394585Y0303791D01*
X0395147Y0304223D01*
X0395571Y0304775D01*
X0403292D01*
X0415377Y0292690D01*
X0415286Y0292000D01*
X0415379Y0291298D01*
X0415650Y0290643D01*
X0415820Y0290421D01*
X0415573Y0289921D01*
X0414437D01*
X0414132Y0290227D01*
X0413771Y0290468D01*
X0413345Y0290553D01*
X0413345Y0290553D01*
X0400138D01*
X0400138Y0290553D01*
X0399712Y0290468D01*
X0399352Y0290227D01*
X0399352Y0290227D01*
X0395990Y0286866D01*
X0393899D01*
Y0287015D01*
X0393815Y0287440D01*
X0393574Y0287801D01*
X0392289Y0289086D01*
X0391928Y0289327D01*
X0391503Y0289411D01*
X0391503Y0289411D01*
X0384000D01*
X0383575Y0289327D01*
X0383214Y0289086D01*
X0377539Y0283411D01*
X0372078D01*
X0369560Y0285929D01*
X0369782Y0286344D01*
X0369820Y0286376D01*
X0370500Y0286286D01*
X0371202Y0286379D01*
X0371857Y0286650D01*
X0372419Y0287081D01*
X0372850Y0287643D01*
X0373121Y0288298D01*
X0373214Y0289000D01*
X0373121Y0289702D01*
X0372850Y0290357D01*
X0372419Y0290919D01*
X0371857Y0291350D01*
X0371202Y0291621D01*
X0370500Y0291714D01*
X0369798Y0291621D01*
X0369143Y0291350D01*
X0368581Y0290919D01*
X0368433Y0290726D01*
X0367770Y0290683D01*
X0367346Y0291106D01*
X0366902Y0291403D01*
X0366379Y0291507D01*
X0327932D01*
X0322913Y0296526D01*
X0322469Y0296822D01*
X0321946Y0296926D01*
X0292141D01*
X0289420Y0299648D01*
X0288976Y0299944D01*
X0288453Y0300048D01*
X0265596D01*
X0255938Y0309706D01*
X0256268Y0310083D01*
X0256725Y0309733D01*
X0257634Y0309356D01*
X0258611Y0309227D01*
X0259588Y0309356D01*
X0260497Y0309733D01*
X0261279Y0310332D01*
X0261878Y0311114D01*
X0262255Y0312023D01*
X0262283Y0312233D01*
X0262787D01*
X0262815Y0312023D01*
X0263192Y0311114D01*
X0263791Y0310332D01*
X0264573Y0309733D01*
X0265483Y0309356D01*
X0266459Y0309227D01*
X0267436Y0309356D01*
X0268345Y0309733D01*
X0269127Y0310332D01*
X0269726Y0311114D01*
X0270103Y0312023D01*
X0270157Y0312430D01*
X0270661D01*
X0270715Y0312023D01*
X0271092Y0311114D01*
X0271691Y0310332D01*
X0272473Y0309733D01*
X0273383Y0309356D01*
X0274359Y0309227D01*
X0275336Y0309356D01*
X0276245Y0309733D01*
X0277027Y0310332D01*
X0277626Y0311114D01*
X0278003Y0312023D01*
X0278132Y0313000D01*
X0278003Y0313977D01*
X0277626Y0314886D01*
X0277027Y0315668D01*
X0276245Y0316267D01*
X0275336Y0316644D01*
X0274359Y0316773D01*
X0273383Y0316644D01*
X0272473Y0316267D01*
X0271691Y0315668D01*
X0271092Y0314886D01*
X0270715Y0313977D01*
X0270661Y0313570D01*
X0270157D01*
X0270103Y0313977D01*
X0269726Y0314886D01*
X0269127Y0315668D01*
X0268345Y0316267D01*
X0267436Y0316644D01*
X0266459Y0316773D01*
X0265483Y0316644D01*
X0264573Y0316267D01*
X0264340Y0316089D01*
X0264009Y0316465D01*
X0271677Y0324133D01*
X0378934D01*
X0379377Y0323690D01*
X0379286Y0323000D01*
X0379379Y0322298D01*
X0379650Y0321643D01*
X0379984Y0321208D01*
X0379803Y0320708D01*
X0372726D01*
X0372301Y0320623D01*
X0371940Y0320382D01*
X0371940Y0320382D01*
X0367356Y0315798D01*
X0366894Y0315989D01*
Y0316685D01*
X0363728D01*
X0360563D01*
Y0315989D01*
X0360101Y0315798D01*
X0358949Y0316950D01*
Y0319366D01*
X0355287D01*
Y0314917D01*
X0357837D01*
X0360039Y0312716D01*
X0359847Y0312254D01*
X0358240D01*
Y0313701D01*
X0353516D01*
Y0308583D01*
X0358240D01*
Y0310030D01*
X0360972D01*
Y0307842D01*
X0362616D01*
Y0305689D01*
X0356947Y0300020D01*
X0356702Y0300121D01*
X0356000Y0300214D01*
X0355298Y0300121D01*
X0354643Y0299850D01*
X0354081Y0299419D01*
X0353650Y0298857D01*
X0353379Y0298202D01*
X0353286Y0297500D01*
X0353379Y0296798D01*
X0353650Y0296143D01*
X0354081Y0295581D01*
X0354643Y0295150D01*
X0355298Y0294879D01*
X0356000Y0294786D01*
X0356702Y0294879D01*
X0357357Y0295150D01*
X0357919Y0295581D01*
X0358350Y0296143D01*
X0358621Y0296798D01*
X0358714Y0297500D01*
X0358621Y0298202D01*
X0358520Y0298447D01*
X0364515Y0304442D01*
X0364756Y0304803D01*
X0364840Y0305228D01*
X0364840Y0305228D01*
Y0307842D01*
X0366484D01*
Y0311782D01*
X0373187Y0318484D01*
X0377996D01*
X0378166Y0317984D01*
X0378081Y0317919D01*
X0377650Y0317357D01*
X0377379Y0316702D01*
X0377286Y0316000D01*
X0377379Y0315298D01*
X0377650Y0314643D01*
X0378081Y0314081D01*
X0378643Y0313650D01*
X0379298Y0313379D01*
X0380000Y0313286D01*
X0380702Y0313379D01*
X0381357Y0313650D01*
X0381919Y0314081D01*
X0382263Y0314530D01*
X0388079D01*
X0388079Y0314530D01*
X0388504Y0314614D01*
X0388865Y0314856D01*
X0388939Y0314929D01*
X0392287D01*
Y0315740D01*
X0392787Y0316069D01*
X0392984Y0316030D01*
X0393508D01*
Y0314917D01*
X0397169D01*
Y0319366D01*
X0394096D01*
Y0319596D01*
X0394011Y0320022D01*
X0393771Y0320382D01*
X0393410Y0320623D01*
X0393212Y0320663D01*
X0392935Y0320940D01*
X0392574Y0321181D01*
X0392149Y0321266D01*
X0392148Y0321266D01*
X0387308D01*
X0386883Y0321181D01*
X0386522Y0320940D01*
X0386290Y0320708D01*
X0384197D01*
X0384016Y0321208D01*
X0384350Y0321643D01*
X0384621Y0322298D01*
X0384714Y0323000D01*
X0384621Y0323702D01*
X0384350Y0324357D01*
X0383919Y0324919D01*
X0383357Y0325350D01*
X0382702Y0325621D01*
X0382000Y0325714D01*
X0381310Y0325623D01*
X0380467Y0326466D01*
X0380023Y0326763D01*
X0379500Y0326867D01*
X0271111D01*
X0270588Y0326763D01*
X0270145Y0326466D01*
X0260107Y0316429D01*
X0259588Y0316644D01*
X0258611Y0316773D01*
X0257634Y0316644D01*
X0256725Y0316267D01*
X0255943Y0315668D01*
X0255344Y0314886D01*
X0254967Y0313977D01*
X0254913Y0313570D01*
X0254409D01*
X0254355Y0313977D01*
X0253978Y0314886D01*
X0253379Y0315668D01*
X0252597Y0316267D01*
X0251688Y0316644D01*
X0250711Y0316773D01*
X0249734Y0316644D01*
X0248825Y0316267D01*
X0248043Y0315668D01*
X0247444Y0314886D01*
X0247067Y0313977D01*
X0247013Y0313570D01*
X0246509D01*
X0246455Y0313977D01*
X0246078Y0314886D01*
X0245479Y0315668D01*
X0244697Y0316267D01*
X0243788Y0316644D01*
X0242811Y0316773D01*
X0241834Y0316644D01*
X0240925Y0316267D01*
X0240143Y0315668D01*
X0239544Y0314886D01*
X0239167Y0313977D01*
X0239126Y0313668D01*
X0238622D01*
X0238581Y0313977D01*
X0238204Y0314886D01*
X0237605Y0315668D01*
X0236823Y0316267D01*
X0235913Y0316644D01*
X0234937Y0316773D01*
X0233961Y0316644D01*
X0233051Y0316267D01*
X0232269Y0315668D01*
X0231670Y0314886D01*
X0231293Y0313977D01*
X0231252Y0313668D01*
X0230748D01*
X0230707Y0313977D01*
X0230330Y0314886D01*
X0229731Y0315668D01*
X0228949Y0316267D01*
X0228040Y0316644D01*
X0227063Y0316773D01*
X0226086Y0316644D01*
X0225177Y0316267D01*
X0224395Y0315668D01*
X0223796Y0314886D01*
X0223419Y0313977D01*
X0223404Y0313866D01*
X0222900D01*
X0222885Y0313977D01*
X0222508Y0314886D01*
X0221909Y0315668D01*
X0221127Y0316267D01*
X0220217Y0316644D01*
X0219241Y0316773D01*
X0218265Y0316644D01*
X0217354Y0316267D01*
X0216573Y0315668D01*
X0215974Y0314886D01*
X0215597Y0313977D01*
X0215543Y0313570D01*
X0215039D01*
X0214985Y0313977D01*
X0214608Y0314886D01*
X0214009Y0315668D01*
X0213227Y0316267D01*
X0212317Y0316644D01*
X0211341Y0316773D01*
X0210365Y0316644D01*
X0209454Y0316267D01*
X0208673Y0315668D01*
X0208074Y0314886D01*
X0207697Y0313977D01*
X0207643Y0313570D01*
X0207139D01*
X0207085Y0313977D01*
X0206708Y0314886D01*
X0206109Y0315668D01*
X0205327Y0316267D01*
X0204417Y0316644D01*
X0203441Y0316773D01*
X0202465Y0316644D01*
X0201554Y0316267D01*
X0200773Y0315668D01*
X0200174Y0314886D01*
X0199797Y0313977D01*
X0199756Y0313668D01*
X0199252D01*
X0199211Y0313977D01*
X0198834Y0314886D01*
X0198235Y0315668D01*
X0197453Y0316267D01*
X0196543Y0316644D01*
X0195567Y0316773D01*
X0194590Y0316644D01*
X0193681Y0316267D01*
X0192899Y0315668D01*
X0192299Y0314886D01*
X0191923Y0313977D01*
X0191882Y0313668D01*
X0191378D01*
X0191337Y0313977D01*
X0190960Y0314886D01*
X0190361Y0315668D01*
X0189579Y0316267D01*
X0188669Y0316644D01*
X0187693Y0316773D01*
X0186716Y0316644D01*
X0185807Y0316267D01*
X0185025Y0315668D01*
X0184425Y0314886D01*
X0184049Y0313977D01*
X0183920Y0313000D01*
X0184049Y0312023D01*
X0184425Y0311114D01*
X0185025Y0310332D01*
X0185807Y0309733D01*
X0186716Y0309356D01*
X0187693Y0309227D01*
X0188669Y0309356D01*
X0189189Y0309571D01*
X0192650Y0306109D01*
X0192602Y0305451D01*
X0192289Y0305211D01*
X0191792Y0304563D01*
X0191480Y0303809D01*
X0191383Y0303072D01*
X0191171Y0302936D01*
X0190889Y0302846D01*
X0190654Y0303047D01*
X0190714Y0303500D01*
X0190621Y0304202D01*
X0190350Y0304857D01*
X0189919Y0305419D01*
X0189357Y0305850D01*
X0188702Y0306121D01*
X0188000Y0306214D01*
X0187298Y0306121D01*
X0186643Y0305850D01*
X0186081Y0305419D01*
X0185650Y0304857D01*
X0185552Y0304621D01*
X0185062Y0304523D01*
X0184798Y0304786D01*
X0184438Y0305027D01*
X0184012Y0305112D01*
X0184012Y0305112D01*
X0181464D01*
X0181362Y0305357D01*
X0180931Y0305919D01*
X0180369Y0306350D01*
X0179715Y0306621D01*
X0179012Y0306714D01*
X0178310Y0306621D01*
X0177655Y0306350D01*
X0177093Y0305919D01*
X0176662Y0305357D01*
X0176391Y0304702D01*
X0176298Y0304000D01*
X0176391Y0303298D01*
X0176492Y0303053D01*
X0175012Y0301572D01*
X0172999Y0303585D01*
X0173191Y0304047D01*
X0173453D01*
Y0307000D01*
X0169500D01*
X0165547D01*
Y0305203D01*
X0162341D01*
X0162341Y0305203D01*
X0161916Y0305118D01*
X0161555Y0304877D01*
X0161555Y0304877D01*
X0161481Y0304802D01*
X0159953D01*
Y0307000D01*
X0156000D01*
X0152047D01*
Y0304047D01*
X0153822D01*
X0154013Y0303585D01*
X0149793Y0299365D01*
X0149331Y0299557D01*
Y0321758D01*
X0160461Y0332888D01*
X0644039D01*
X0657388Y0319539D01*
D02*
G37*
G36*
X0645426Y0148139D02*
X0645638Y0147724D01*
X0645638D01*
X0645638Y0147724D01*
Y0143787D01*
X0646888D01*
Y0142713D01*
X0646814Y0142622D01*
X0645228D01*
Y0141244D01*
X0648000D01*
Y0140244D01*
X0649000D01*
Y0137866D01*
X0649750D01*
Y0123323D01*
X0647447Y0121020D01*
X0647202Y0121121D01*
X0646500Y0121214D01*
X0645798Y0121121D01*
X0645143Y0120850D01*
X0644581Y0120419D01*
X0644150Y0119857D01*
X0644048Y0119612D01*
X0599952D01*
X0599850Y0119857D01*
X0599680Y0120079D01*
X0599927Y0120579D01*
X0599935D01*
X0599935Y0120579D01*
X0600360Y0120663D01*
X0600721Y0120904D01*
X0619454Y0139638D01*
X0622213D01*
Y0142396D01*
X0623325Y0143509D01*
X0623787Y0143317D01*
Y0139638D01*
X0626546D01*
X0626710Y0139474D01*
X0626710Y0139474D01*
X0627071Y0139233D01*
X0627496Y0139148D01*
X0630672D01*
Y0138069D01*
X0634955D01*
X0635155Y0138069D01*
X0635508Y0137988D01*
X0635607Y0137885D01*
X0635605Y0137477D01*
X0635443Y0137265D01*
X0635126Y0136500D01*
X0637500D01*
Y0138874D01*
X0636735Y0138557D01*
X0636113Y0138080D01*
X0636004Y0137996D01*
X0635907Y0137989D01*
X0635454Y0138405D01*
X0635454Y0138559D01*
Y0142450D01*
X0630672D01*
Y0141372D01*
X0627957D01*
X0627724Y0141604D01*
Y0144362D01*
X0625017D01*
X0624800Y0144849D01*
X0625008Y0145110D01*
X0626000D01*
Y0147488D01*
X0627000D01*
Y0148488D01*
X0629772D01*
Y0149420D01*
X0630672D01*
Y0145609D01*
X0635454D01*
Y0148618D01*
X0638845Y0152009D01*
X0641555D01*
X0645426Y0148139D01*
D02*
G37*
G36*
X0282342Y0245575D02*
X0282379Y0245298D01*
X0282650Y0244643D01*
X0283081Y0244081D01*
X0283643Y0243650D01*
X0283698Y0243627D01*
Y0240679D01*
X0283698Y0240678D01*
X0283782Y0240253D01*
X0284023Y0239892D01*
X0285892Y0238023D01*
X0286253Y0237782D01*
X0286678Y0237698D01*
X0290628D01*
X0290628Y0237698D01*
X0291054Y0237782D01*
X0291395Y0238010D01*
X0291768D01*
X0291941Y0237837D01*
Y0234488D01*
X0295504D01*
X0295751Y0233988D01*
X0295650Y0233857D01*
X0295379Y0233202D01*
X0295286Y0232500D01*
X0295379Y0231798D01*
X0295650Y0231143D01*
X0296081Y0230581D01*
X0296339Y0230384D01*
X0296169Y0229884D01*
X0295272D01*
X0294846Y0229799D01*
X0294485Y0229558D01*
X0285560Y0220632D01*
X0285319Y0220271D01*
X0285234Y0219846D01*
X0285234Y0219846D01*
X0284734Y0219623D01*
X0284235Y0220005D01*
X0283398Y0220352D01*
X0282500Y0220470D01*
X0281602Y0220352D01*
X0280765Y0220005D01*
X0280046Y0219454D01*
X0279495Y0218735D01*
X0279237Y0218112D01*
X0278533D01*
X0270083Y0226562D01*
X0269723Y0226803D01*
X0269297Y0226887D01*
X0269297Y0226887D01*
X0206056D01*
X0205905Y0227387D01*
X0206108Y0227523D01*
X0212026Y0233441D01*
X0216012D01*
Y0234345D01*
X0218744D01*
Y0232701D01*
X0224256D01*
Y0238213D01*
X0220250D01*
X0219546Y0238916D01*
X0219738Y0239378D01*
X0220500D01*
Y0242543D01*
X0222500D01*
Y0239378D01*
X0224665D01*
Y0240597D01*
X0225127Y0240788D01*
X0229892Y0236023D01*
X0229892Y0236023D01*
X0230253Y0235782D01*
X0230678Y0235698D01*
X0230679Y0235698D01*
X0234349D01*
X0234349Y0235698D01*
X0234775Y0235782D01*
X0235136Y0236023D01*
X0237000Y0237888D01*
X0241686Y0233202D01*
X0241686Y0233202D01*
X0242046Y0232961D01*
X0242472Y0232876D01*
X0249117D01*
X0249451Y0232376D01*
X0249379Y0232202D01*
X0249286Y0231500D01*
X0249379Y0230798D01*
X0249650Y0230143D01*
X0250081Y0229581D01*
X0250643Y0229150D01*
X0251298Y0228879D01*
X0252000Y0228786D01*
X0252702Y0228879D01*
X0253357Y0229150D01*
X0253919Y0229581D01*
X0254350Y0230143D01*
X0254621Y0230798D01*
X0254714Y0231500D01*
X0254623Y0232190D01*
X0255317Y0232884D01*
X0255613Y0233327D01*
X0255717Y0233850D01*
Y0234441D01*
X0256713D01*
Y0238691D01*
X0256720Y0239164D01*
X0257146Y0239248D01*
X0257506Y0239489D01*
X0259597Y0241580D01*
X0260059Y0241389D01*
Y0240776D01*
X0262609D01*
X0264810Y0238574D01*
X0264619Y0238112D01*
X0263012D01*
Y0239559D01*
X0258287D01*
Y0234441D01*
X0263012D01*
Y0235888D01*
X0265744D01*
Y0233701D01*
X0271256D01*
Y0239213D01*
X0267317D01*
X0266613Y0239916D01*
X0266805Y0240378D01*
X0267500D01*
Y0243543D01*
X0269500D01*
Y0240378D01*
X0271665D01*
Y0244025D01*
X0272127Y0244216D01*
X0273130Y0243214D01*
X0273491Y0242973D01*
X0273916Y0242888D01*
X0278488D01*
X0278488Y0242888D01*
X0278913Y0242973D01*
X0279274Y0243214D01*
X0281814Y0245754D01*
X0282342Y0245575D01*
D02*
G37*
G36*
X0272571Y0220930D02*
X0272343Y0220450D01*
X0271602Y0220352D01*
X0270765Y0220005D01*
X0270046Y0219454D01*
X0269495Y0218735D01*
X0269148Y0217898D01*
X0269030Y0217000D01*
X0269148Y0216102D01*
X0269495Y0215265D01*
X0270046Y0214546D01*
X0270765Y0213995D01*
X0271602Y0213648D01*
X0272500Y0213530D01*
X0273398Y0213648D01*
X0274235Y0213995D01*
X0274954Y0214546D01*
X0275505Y0215265D01*
X0275852Y0216102D01*
X0275950Y0216844D01*
X0276430Y0217071D01*
X0277287Y0216214D01*
X0277647Y0215973D01*
X0278073Y0215888D01*
X0278073Y0215888D01*
X0279237D01*
X0279495Y0215265D01*
X0280046Y0214546D01*
X0280765Y0213995D01*
X0281602Y0213648D01*
X0282500Y0213530D01*
X0283398Y0213648D01*
X0284235Y0213995D01*
X0284829Y0214450D01*
X0285329Y0214271D01*
Y0191401D01*
X0263253Y0169326D01*
X0262807Y0169511D01*
X0262000Y0169617D01*
X0261193Y0169511D01*
X0260441Y0169200D01*
X0259796Y0168704D01*
X0259300Y0168059D01*
X0259112Y0167604D01*
X0258612Y0167703D01*
Y0198539D01*
X0265030Y0204958D01*
X0265030Y0204958D01*
X0265271Y0205319D01*
X0265356Y0205744D01*
Y0206638D01*
X0266213D01*
Y0211362D01*
X0265356D01*
Y0215070D01*
X0265505Y0215265D01*
X0265852Y0216102D01*
X0265970Y0217000D01*
X0265852Y0217898D01*
X0265505Y0218735D01*
X0264954Y0219454D01*
X0264235Y0220005D01*
X0263398Y0220352D01*
X0262500Y0220470D01*
X0261602Y0220352D01*
X0260765Y0220005D01*
X0260046Y0219454D01*
X0259495Y0218735D01*
X0259148Y0217898D01*
X0259030Y0217000D01*
X0259148Y0216102D01*
X0259495Y0215265D01*
X0260046Y0214546D01*
X0260765Y0213995D01*
X0261602Y0213648D01*
X0262500Y0213530D01*
X0262756Y0213563D01*
X0263132Y0213234D01*
Y0211362D01*
X0262276D01*
Y0206638D01*
X0262971D01*
X0263065Y0206138D01*
X0256714Y0199786D01*
X0256473Y0199425D01*
X0256388Y0199000D01*
X0256388Y0199000D01*
Y0157657D01*
X0255888Y0157624D01*
X0255852Y0157898D01*
X0255505Y0158735D01*
X0254954Y0159454D01*
X0254235Y0160005D01*
X0253398Y0160352D01*
X0252500Y0160470D01*
X0251602Y0160352D01*
X0250765Y0160005D01*
X0250112Y0159504D01*
X0249612Y0159626D01*
Y0199939D01*
X0254030Y0204357D01*
X0254030Y0204357D01*
X0254271Y0204718D01*
X0254356Y0205143D01*
X0254356Y0205143D01*
Y0206638D01*
X0255213D01*
Y0211362D01*
X0254356D01*
Y0214087D01*
X0254954Y0214546D01*
X0255505Y0215265D01*
X0255852Y0216102D01*
X0255970Y0217000D01*
X0255852Y0217898D01*
X0255505Y0218735D01*
X0254954Y0219454D01*
X0254235Y0220005D01*
X0253398Y0220352D01*
X0252500Y0220470D01*
X0251602Y0220352D01*
X0250765Y0220005D01*
X0250046Y0219454D01*
X0249495Y0218735D01*
X0249148Y0217898D01*
X0249107Y0217585D01*
X0248612Y0217573D01*
X0248612Y0217573D01*
X0248527Y0217998D01*
X0248286Y0218359D01*
X0248286Y0218359D01*
X0243359Y0223286D01*
X0242998Y0223527D01*
X0242573Y0223612D01*
X0242573Y0223612D01*
X0216500D01*
X0216074Y0223527D01*
X0215714Y0223286D01*
X0215714Y0223286D01*
X0212852Y0220424D01*
X0212500Y0220470D01*
X0211602Y0220352D01*
X0210765Y0220005D01*
X0210046Y0219454D01*
X0209495Y0218735D01*
X0209148Y0217898D01*
X0209030Y0217000D01*
X0209148Y0216102D01*
X0209495Y0215265D01*
X0210046Y0214546D01*
X0210765Y0213995D01*
X0211602Y0213648D01*
X0212500Y0213530D01*
X0213398Y0213648D01*
X0214235Y0213995D01*
X0214954Y0214546D01*
X0215505Y0215265D01*
X0215852Y0216102D01*
X0215970Y0217000D01*
X0215852Y0217898D01*
X0215505Y0218735D01*
X0214985Y0219413D01*
X0216961Y0221388D01*
X0242112D01*
X0242571Y0220930D01*
X0242343Y0220450D01*
X0241602Y0220352D01*
X0240765Y0220005D01*
X0240046Y0219454D01*
X0239495Y0218735D01*
X0239236Y0218112D01*
X0238073D01*
X0238073Y0218112D01*
X0237647Y0218027D01*
X0237286Y0217786D01*
X0237286Y0217786D01*
X0236430Y0216929D01*
X0235950Y0217157D01*
X0235852Y0217898D01*
X0235505Y0218735D01*
X0234954Y0219454D01*
X0234235Y0220005D01*
X0233398Y0220352D01*
X0232500Y0220470D01*
X0231602Y0220352D01*
X0230765Y0220005D01*
X0230046Y0219454D01*
X0229495Y0218735D01*
X0229148Y0217898D01*
X0229030Y0217000D01*
X0229148Y0216102D01*
X0229495Y0215265D01*
X0230046Y0214546D01*
X0230765Y0213995D01*
X0231602Y0213648D01*
X0232344Y0213550D01*
X0232571Y0213071D01*
X0214996Y0195496D01*
X0214548Y0195683D01*
X0214515Y0195722D01*
X0214617Y0196500D01*
X0214511Y0197307D01*
X0214326Y0197754D01*
X0218030Y0201458D01*
X0218271Y0201819D01*
X0218356Y0202244D01*
X0218356Y0202244D01*
Y0206638D01*
X0219213D01*
Y0211362D01*
X0215276D01*
Y0206638D01*
X0216132D01*
Y0202705D01*
X0212754Y0199326D01*
X0212307Y0199511D01*
X0211500Y0199617D01*
X0210693Y0199511D01*
X0209941Y0199200D01*
X0209296Y0198704D01*
X0208800Y0198059D01*
X0208489Y0197307D01*
X0208383Y0196500D01*
X0208489Y0195693D01*
X0208800Y0194941D01*
X0209296Y0194296D01*
X0209941Y0193800D01*
X0210693Y0193489D01*
X0211500Y0193383D01*
X0212278Y0193485D01*
X0212317Y0193452D01*
X0212504Y0193004D01*
X0212112Y0192612D01*
X0201427D01*
X0201427Y0192612D01*
X0201002Y0192527D01*
X0200641Y0192286D01*
X0167773Y0159418D01*
X0167532Y0159058D01*
X0167447Y0158632D01*
X0167447Y0158632D01*
Y0156020D01*
X0165253Y0153826D01*
X0164807Y0154011D01*
X0164000Y0154117D01*
X0163193Y0154011D01*
X0162441Y0153700D01*
X0161796Y0153204D01*
X0161300Y0152559D01*
X0160989Y0151807D01*
X0160883Y0151000D01*
X0160989Y0150193D01*
X0161300Y0149441D01*
X0160892Y0149180D01*
X0157270Y0152802D01*
X0157303Y0153301D01*
X0157527Y0153473D01*
X0158095Y0154213D01*
X0158452Y0155075D01*
X0158574Y0156000D01*
X0158452Y0156925D01*
X0158173Y0157600D01*
X0170727Y0170155D01*
X0170968Y0170515D01*
X0171053Y0170941D01*
X0171053Y0170941D01*
Y0196079D01*
X0172000D01*
Y0198850D01*
X0173000D01*
Y0199850D01*
X0175969D01*
Y0201622D01*
X0174186D01*
X0174112Y0201713D01*
Y0202787D01*
X0175559D01*
Y0204038D01*
X0178441D01*
Y0202787D01*
X0183559D01*
Y0204038D01*
X0186441D01*
Y0202787D01*
X0191559D01*
Y0204038D01*
X0194441D01*
Y0202787D01*
X0199559D01*
Y0207512D01*
X0194441D01*
Y0206261D01*
X0191559D01*
Y0207512D01*
X0190112D01*
Y0213039D01*
X0190979Y0213906D01*
X0191602Y0213648D01*
X0192500Y0213530D01*
X0193398Y0213648D01*
X0194235Y0213995D01*
X0194954Y0214546D01*
X0195505Y0215265D01*
X0195852Y0216102D01*
X0195970Y0217000D01*
X0195852Y0217898D01*
X0195505Y0218735D01*
X0194954Y0219454D01*
X0194235Y0220005D01*
X0193398Y0220352D01*
X0192500Y0220470D01*
X0191602Y0220352D01*
X0190765Y0220005D01*
X0190046Y0219454D01*
X0189495Y0218735D01*
X0189148Y0217898D01*
X0189030Y0217000D01*
X0189148Y0216102D01*
X0189406Y0215479D01*
X0188214Y0214286D01*
X0187973Y0213926D01*
X0187888Y0213500D01*
X0187888Y0213500D01*
Y0207512D01*
X0186441D01*
Y0206261D01*
X0183559D01*
Y0207512D01*
X0178441D01*
Y0206261D01*
X0175559D01*
Y0207512D01*
X0171363D01*
X0154674Y0224202D01*
X0154865Y0224664D01*
X0268837D01*
X0272571Y0220930D01*
D02*
G37*
G36*
X0246388Y0216343D02*
Y0202109D01*
X0246123Y0201844D01*
X0245882Y0201483D01*
X0245797Y0201058D01*
X0245797Y0201058D01*
Y0159176D01*
X0245298Y0159006D01*
X0244954Y0159454D01*
X0244235Y0160005D01*
X0243398Y0160352D01*
X0242500Y0160470D01*
X0241602Y0160352D01*
X0240765Y0160005D01*
X0240046Y0159454D01*
X0239495Y0158735D01*
X0239148Y0157898D01*
X0239030Y0157000D01*
X0239148Y0156102D01*
X0239495Y0155265D01*
X0240046Y0154546D01*
X0240765Y0153995D01*
X0241388Y0153737D01*
Y0150313D01*
X0223399Y0132324D01*
X0222624Y0132644D01*
X0221648Y0132773D01*
X0220672Y0132644D01*
X0219762Y0132267D01*
X0218980Y0131668D01*
X0218381Y0130886D01*
X0218004Y0129976D01*
X0217963Y0129668D01*
X0217459D01*
X0217418Y0129976D01*
X0217097Y0130751D01*
X0233286Y0146940D01*
X0233286Y0146940D01*
X0233527Y0147301D01*
X0233612Y0147726D01*
Y0153737D01*
X0234235Y0153995D01*
X0234954Y0154546D01*
X0235505Y0155265D01*
X0235852Y0156102D01*
X0235970Y0157000D01*
X0235852Y0157898D01*
X0235505Y0158735D01*
X0234954Y0159454D01*
X0234235Y0160005D01*
X0233398Y0160352D01*
X0232500Y0160470D01*
X0231602Y0160352D01*
X0230765Y0160005D01*
X0230046Y0159454D01*
X0229495Y0158735D01*
X0229148Y0157898D01*
X0229030Y0157000D01*
X0229148Y0156102D01*
X0229495Y0155265D01*
X0230046Y0154546D01*
X0230765Y0153995D01*
X0231388Y0153737D01*
Y0148187D01*
X0215525Y0132324D01*
X0214751Y0132644D01*
X0213774Y0132773D01*
X0212797Y0132644D01*
X0211888Y0132267D01*
X0211106Y0131668D01*
X0210507Y0130886D01*
X0210130Y0129976D01*
X0210089Y0129668D01*
X0209585D01*
X0209544Y0129976D01*
X0209224Y0130751D01*
X0223286Y0144814D01*
X0223286Y0144814D01*
X0223527Y0145175D01*
X0223612Y0145600D01*
X0223612Y0145600D01*
Y0153737D01*
X0224235Y0153995D01*
X0224954Y0154546D01*
X0225505Y0155265D01*
X0225852Y0156102D01*
X0225970Y0157000D01*
X0225852Y0157898D01*
X0225505Y0158735D01*
X0224954Y0159454D01*
X0224235Y0160005D01*
X0223398Y0160352D01*
X0222500Y0160470D01*
X0221602Y0160352D01*
X0220765Y0160005D01*
X0220046Y0159454D01*
X0219495Y0158735D01*
X0219148Y0157898D01*
X0219030Y0157000D01*
X0219148Y0156102D01*
X0219495Y0155265D01*
X0220046Y0154546D01*
X0220765Y0153995D01*
X0221388Y0153737D01*
Y0146061D01*
X0207651Y0132324D01*
X0206876Y0132644D01*
X0205900Y0132773D01*
X0204924Y0132644D01*
X0204014Y0132267D01*
X0203232Y0131668D01*
X0202633Y0130886D01*
X0202256Y0129976D01*
X0202202Y0129570D01*
X0201698D01*
X0201644Y0129976D01*
X0201324Y0130751D01*
X0213286Y0142714D01*
X0213286Y0142714D01*
X0213527Y0143075D01*
X0213612Y0143500D01*
X0213612Y0143500D01*
Y0153737D01*
X0214235Y0153995D01*
X0214954Y0154546D01*
X0215505Y0155265D01*
X0215852Y0156102D01*
X0215970Y0157000D01*
X0215852Y0157898D01*
X0215505Y0158735D01*
X0214954Y0159454D01*
X0214235Y0160005D01*
X0213398Y0160352D01*
X0212500Y0160470D01*
X0211602Y0160352D01*
X0210765Y0160005D01*
X0210046Y0159454D01*
X0209495Y0158735D01*
X0209148Y0157898D01*
X0209030Y0157000D01*
X0209148Y0156102D01*
X0209495Y0155265D01*
X0210046Y0154546D01*
X0210765Y0153995D01*
X0211388Y0153737D01*
Y0143961D01*
X0199751Y0132324D01*
X0198977Y0132644D01*
X0198000Y0132773D01*
X0197023Y0132644D01*
X0196114Y0132267D01*
X0195332Y0131668D01*
X0194733Y0130886D01*
X0194356Y0129976D01*
X0194302Y0129570D01*
X0193798D01*
X0193744Y0129976D01*
X0193423Y0130751D01*
X0203286Y0140614D01*
X0203286Y0140614D01*
X0203527Y0140974D01*
X0203612Y0141400D01*
X0203612Y0141400D01*
Y0153737D01*
X0204235Y0153995D01*
X0204954Y0154546D01*
X0205505Y0155265D01*
X0205852Y0156102D01*
X0205970Y0157000D01*
X0205852Y0157898D01*
X0205505Y0158735D01*
X0204954Y0159454D01*
X0204235Y0160005D01*
X0203398Y0160352D01*
X0202500Y0160470D01*
X0201602Y0160352D01*
X0200765Y0160005D01*
X0200046Y0159454D01*
X0199495Y0158735D01*
X0199148Y0157898D01*
X0199030Y0157000D01*
X0199148Y0156102D01*
X0199495Y0155265D01*
X0200046Y0154546D01*
X0200765Y0153995D01*
X0201388Y0153737D01*
Y0141861D01*
X0191851Y0132324D01*
X0191077Y0132644D01*
X0190100Y0132773D01*
X0189123Y0132644D01*
X0188214Y0132267D01*
X0187432Y0131668D01*
X0186833Y0130886D01*
X0186456Y0129976D01*
X0186441Y0129866D01*
X0185937D01*
X0185922Y0129976D01*
X0185601Y0130751D01*
X0193286Y0138436D01*
X0193286Y0138436D01*
X0193527Y0138796D01*
X0193612Y0139222D01*
Y0153737D01*
X0194235Y0153995D01*
X0194954Y0154546D01*
X0195505Y0155265D01*
X0195852Y0156102D01*
X0195970Y0157000D01*
X0195852Y0157898D01*
X0195505Y0158735D01*
X0194954Y0159454D01*
X0194235Y0160005D01*
X0193398Y0160352D01*
X0192500Y0160470D01*
X0191602Y0160352D01*
X0190765Y0160005D01*
X0190046Y0159454D01*
X0189495Y0158735D01*
X0189148Y0157898D01*
X0189030Y0157000D01*
X0189148Y0156102D01*
X0189495Y0155265D01*
X0190046Y0154546D01*
X0190765Y0153995D01*
X0191388Y0153737D01*
Y0139683D01*
X0184029Y0132324D01*
X0183254Y0132644D01*
X0182278Y0132773D01*
X0181301Y0132644D01*
X0180392Y0132267D01*
X0179610Y0131668D01*
X0179011Y0130886D01*
X0178634Y0129976D01*
X0178593Y0129668D01*
X0178089D01*
X0178048Y0129976D01*
X0177727Y0130751D01*
X0183286Y0136310D01*
X0183286Y0136310D01*
X0183527Y0136671D01*
X0183612Y0137096D01*
X0183612Y0137096D01*
Y0153737D01*
X0184235Y0153995D01*
X0184954Y0154546D01*
X0185505Y0155265D01*
X0185852Y0156102D01*
X0185970Y0157000D01*
X0185852Y0157898D01*
X0185505Y0158735D01*
X0184954Y0159454D01*
X0184235Y0160005D01*
X0183398Y0160352D01*
X0182500Y0160470D01*
X0181602Y0160352D01*
X0180765Y0160005D01*
X0180046Y0159454D01*
X0179495Y0158735D01*
X0179148Y0157898D01*
X0179030Y0157000D01*
X0179148Y0156102D01*
X0179495Y0155265D01*
X0180046Y0154546D01*
X0180765Y0153995D01*
X0181388Y0153737D01*
Y0137557D01*
X0176155Y0132324D01*
X0175380Y0132644D01*
X0174404Y0132773D01*
X0173427Y0132644D01*
X0172518Y0132267D01*
X0171775Y0131698D01*
X0171483Y0131754D01*
X0171275Y0131824D01*
Y0138337D01*
X0171191Y0138762D01*
X0170950Y0139123D01*
X0170950Y0139123D01*
X0162180Y0147892D01*
X0162441Y0148300D01*
X0163193Y0147989D01*
X0164000Y0147883D01*
X0164807Y0147989D01*
X0165559Y0148300D01*
X0166204Y0148796D01*
X0166700Y0149441D01*
X0167011Y0150193D01*
X0167117Y0151000D01*
X0167011Y0151807D01*
X0166826Y0152253D01*
X0168995Y0154422D01*
X0169659Y0154379D01*
X0169754Y0154254D01*
X0170558Y0153637D01*
X0171495Y0153249D01*
X0171500Y0153248D01*
Y0157000D01*
X0172500D01*
Y0158000D01*
X0176252D01*
X0176251Y0158005D01*
X0175863Y0158942D01*
X0175246Y0159746D01*
X0174442Y0160363D01*
X0173505Y0160751D01*
X0173021Y0160815D01*
X0172842Y0161343D01*
X0201888Y0190388D01*
X0212573D01*
X0212573Y0190388D01*
X0212998Y0190473D01*
X0213359Y0190714D01*
X0238533Y0215888D01*
X0239236D01*
X0239495Y0215265D01*
X0240046Y0214546D01*
X0240765Y0213995D01*
X0241602Y0213648D01*
X0242500Y0213530D01*
X0243398Y0213648D01*
X0244235Y0213995D01*
X0244954Y0214546D01*
X0245505Y0215265D01*
X0245852Y0216102D01*
X0245888Y0216376D01*
X0246388Y0216343D01*
D02*
G37*
G36*
X0151650Y0295143D02*
X0152081Y0294581D01*
X0152580Y0294198D01*
X0152941Y0293862D01*
Y0289138D01*
X0158059D01*
Y0289433D01*
X0158521Y0289624D01*
X0160293Y0287852D01*
X0160654Y0287611D01*
X0160941Y0287554D01*
Y0283535D01*
X0160565Y0283205D01*
X0160500Y0283214D01*
X0159798Y0283121D01*
X0159143Y0282850D01*
X0158968Y0282716D01*
X0158468Y0282963D01*
Y0284201D01*
X0152532D01*
Y0283152D01*
X0152298Y0283121D01*
X0151643Y0282850D01*
X0151421Y0282680D01*
X0150921Y0282927D01*
Y0295595D01*
X0151421Y0295695D01*
X0151650Y0295143D01*
D02*
G37*
%LPC*%
G36*
X0644200Y0146600D02*
X0642400D01*
Y0145000D01*
X0644200D01*
Y0146600D01*
D02*
G37*
G36*
X0227000Y0288874D02*
Y0286500D01*
X0229374D01*
X0229057Y0287265D01*
X0228496Y0287996D01*
X0227765Y0288557D01*
X0227000Y0288874D01*
D02*
G37*
G36*
X0640400Y0146600D02*
X0638600D01*
Y0145000D01*
X0640400D01*
Y0146600D01*
D02*
G37*
G36*
X0279874Y0303500D02*
X0277500D01*
Y0301126D01*
X0278265Y0301443D01*
X0278996Y0302004D01*
X0279557Y0302735D01*
X0279874Y0303500D01*
D02*
G37*
G36*
X0275500D02*
X0273126D01*
X0273443Y0302735D01*
X0274004Y0302004D01*
X0274735Y0301443D01*
X0275500Y0301126D01*
Y0303500D01*
D02*
G37*
G36*
X0629772Y0146488D02*
X0628000D01*
Y0145110D01*
X0629772D01*
Y0146488D01*
D02*
G37*
G36*
X0225000Y0288874D02*
X0224235Y0288557D01*
X0223504Y0287996D01*
X0222943Y0287265D01*
X0222626Y0286500D01*
X0225000D01*
Y0288874D01*
D02*
G37*
G36*
X0158468Y0287972D02*
X0156500D01*
Y0286201D01*
X0158468D01*
Y0287972D01*
D02*
G37*
G36*
X0225000Y0284500D02*
X0222626D01*
X0222943Y0283735D01*
X0223504Y0283004D01*
X0224235Y0282443D01*
X0225000Y0282126D01*
Y0284500D01*
D02*
G37*
G36*
X0229374D02*
X0227000D01*
Y0282126D01*
X0227765Y0282443D01*
X0228496Y0283004D01*
X0229057Y0283735D01*
X0229374Y0284500D01*
D02*
G37*
G36*
X0302500Y0170470D02*
X0301602Y0170352D01*
X0300765Y0170005D01*
X0300046Y0169454D01*
X0299495Y0168735D01*
X0299148Y0167898D01*
X0299030Y0167000D01*
X0299148Y0166102D01*
X0299495Y0165265D01*
X0300046Y0164546D01*
X0300765Y0163995D01*
X0301602Y0163648D01*
X0302500Y0163530D01*
X0303398Y0163648D01*
X0304235Y0163995D01*
X0304954Y0164546D01*
X0305505Y0165265D01*
X0305852Y0166102D01*
X0305970Y0167000D01*
X0305852Y0167898D01*
X0305505Y0168735D01*
X0304954Y0169454D01*
X0304235Y0170005D01*
X0303398Y0170352D01*
X0302500Y0170470D01*
D02*
G37*
G36*
X0191469Y0284350D02*
X0185531D01*
Y0282579D01*
X0185573D01*
X0185820Y0282079D01*
X0185650Y0281857D01*
X0185379Y0281202D01*
X0185286Y0280500D01*
X0185379Y0279798D01*
X0185638Y0279172D01*
Y0276287D01*
X0190362D01*
Y0279172D01*
X0190621Y0279798D01*
X0190714Y0280500D01*
X0190621Y0281202D01*
X0190350Y0281857D01*
X0190180Y0282079D01*
X0190427Y0282579D01*
X0191469D01*
Y0284350D01*
D02*
G37*
G36*
X0194500Y0280634D02*
X0192728D01*
Y0279256D01*
X0194500D01*
Y0280634D01*
D02*
G37*
G36*
X0176252Y0156000D02*
X0173500D01*
Y0153248D01*
X0173505Y0153249D01*
X0174442Y0153637D01*
X0175246Y0154254D01*
X0175863Y0155058D01*
X0176251Y0155995D01*
X0176252Y0156000D01*
D02*
G37*
G36*
X0154500Y0287972D02*
X0152532D01*
Y0286201D01*
X0154500D01*
Y0287972D01*
D02*
G37*
G36*
X0282500Y0160470D02*
X0281602Y0160352D01*
X0280765Y0160005D01*
X0280046Y0159454D01*
X0279495Y0158735D01*
X0279148Y0157898D01*
X0279030Y0157000D01*
X0279148Y0156102D01*
X0279495Y0155265D01*
X0280046Y0154546D01*
X0280765Y0153995D01*
X0281602Y0153648D01*
X0282500Y0153530D01*
X0283398Y0153648D01*
X0284235Y0153995D01*
X0284954Y0154546D01*
X0285505Y0155265D01*
X0285852Y0156102D01*
X0285970Y0157000D01*
X0285852Y0157898D01*
X0285505Y0158735D01*
X0284954Y0159454D01*
X0284235Y0160005D01*
X0283398Y0160352D01*
X0282500Y0160470D01*
D02*
G37*
G36*
X0194500Y0284350D02*
X0192532D01*
Y0282579D01*
X0194500D01*
Y0284350D01*
D02*
G37*
G36*
X0413894Y0285185D02*
X0411728D01*
Y0283020D01*
X0413894D01*
Y0285185D01*
D02*
G37*
G36*
Y0316685D02*
X0411728D01*
Y0314520D01*
X0413894D01*
Y0316685D01*
D02*
G37*
G36*
X0303579Y0316142D02*
X0302339D01*
Y0314508D01*
X0303579D01*
Y0316142D01*
D02*
G37*
G36*
X0247528Y0129752D02*
X0242409D01*
Y0125028D01*
X0247528D01*
Y0129752D01*
D02*
G37*
G36*
X0298287Y0319654D02*
X0293169D01*
Y0316305D01*
X0292476Y0315612D01*
X0288144D01*
X0288043Y0315857D01*
X0287612Y0316419D01*
X0287050Y0316850D01*
X0286395Y0317121D01*
X0285693Y0317214D01*
X0284991Y0317121D01*
X0284336Y0316850D01*
X0283774Y0316419D01*
X0283343Y0315857D01*
X0283072Y0315202D01*
X0282979Y0314500D01*
X0283072Y0313798D01*
X0283343Y0313143D01*
X0283774Y0312581D01*
X0284336Y0312150D01*
X0284991Y0311879D01*
X0285693Y0311786D01*
X0286395Y0311879D01*
X0287050Y0312150D01*
X0287612Y0312581D01*
X0288043Y0313143D01*
X0288144Y0313388D01*
X0292683D01*
X0292946Y0313370D01*
X0293169Y0312925D01*
Y0308630D01*
X0293169D01*
X0293095Y0308160D01*
X0292798Y0308121D01*
X0292143Y0307850D01*
X0291581Y0307419D01*
X0291150Y0306857D01*
X0290879Y0306202D01*
X0290786Y0305500D01*
X0290879Y0304798D01*
X0291150Y0304143D01*
X0291581Y0303581D01*
X0292143Y0303150D01*
X0292798Y0302879D01*
X0293500Y0302786D01*
X0294202Y0302879D01*
X0294857Y0303150D01*
X0295419Y0303581D01*
X0295850Y0304143D01*
X0296121Y0304798D01*
X0296172Y0305183D01*
X0296685Y0305251D01*
X0296878Y0304785D01*
X0297309Y0304223D01*
X0297871Y0303791D01*
X0298526Y0303520D01*
X0299228Y0303428D01*
X0299931Y0303520D01*
X0300585Y0303791D01*
X0301147Y0304223D01*
X0301578Y0304785D01*
X0301850Y0305439D01*
X0301942Y0306142D01*
X0301851Y0306832D01*
X0303545Y0308526D01*
X0303583Y0308583D01*
X0304941D01*
Y0313701D01*
X0300217D01*
Y0309126D01*
X0299835Y0308775D01*
X0299228Y0308856D01*
X0298787Y0308797D01*
X0298287Y0309159D01*
Y0313354D01*
X0294063D01*
X0293864Y0313854D01*
X0294939Y0314929D01*
X0298287D01*
Y0319654D01*
D02*
G37*
G36*
X0300339Y0316142D02*
X0299098D01*
Y0314508D01*
X0300339D01*
Y0316142D01*
D02*
G37*
G36*
X0327500Y0314874D02*
Y0312500D01*
X0329874D01*
X0329557Y0313265D01*
X0328996Y0313996D01*
X0328265Y0314557D01*
X0327500Y0314874D01*
D02*
G37*
G36*
X0325500D02*
X0324735Y0314557D01*
X0324004Y0313996D01*
X0323443Y0313265D01*
X0323126Y0312500D01*
X0325500D01*
Y0314874D01*
D02*
G37*
G36*
X0169500Y0321574D02*
X0168575Y0321452D01*
X0167713Y0321095D01*
X0166973Y0320527D01*
X0166405Y0319787D01*
X0166048Y0318925D01*
X0165926Y0318000D01*
X0166048Y0317075D01*
X0166405Y0316213D01*
X0166973Y0315473D01*
X0167713Y0314905D01*
X0168575Y0314548D01*
X0169500Y0314426D01*
X0170425Y0314548D01*
X0171287Y0314905D01*
X0172027Y0315473D01*
X0172595Y0316213D01*
X0172952Y0317075D01*
X0173074Y0318000D01*
X0172952Y0318925D01*
X0172595Y0319787D01*
X0172027Y0320527D01*
X0171287Y0321095D01*
X0170425Y0321452D01*
X0169500Y0321574D01*
D02*
G37*
G36*
X0156000D02*
X0155075Y0321452D01*
X0154213Y0321095D01*
X0153473Y0320527D01*
X0152905Y0319787D01*
X0152548Y0318925D01*
X0152426Y0318000D01*
X0152548Y0317075D01*
X0152905Y0316213D01*
X0153473Y0315473D01*
X0154213Y0314905D01*
X0155075Y0314548D01*
X0156000Y0314426D01*
X0156925Y0314548D01*
X0157787Y0314905D01*
X0158527Y0315473D01*
X0159095Y0316213D01*
X0159452Y0317075D01*
X0159574Y0318000D01*
X0159452Y0318925D01*
X0159095Y0319787D01*
X0158527Y0320527D01*
X0157787Y0321095D01*
X0156925Y0321452D01*
X0156000Y0321574D01*
D02*
G37*
G36*
X0413894Y0320850D02*
X0411728D01*
Y0318685D01*
X0413894D01*
Y0320850D01*
D02*
G37*
G36*
X0362728D02*
X0360563D01*
Y0318685D01*
X0362728D01*
Y0320850D01*
D02*
G37*
G36*
X0366894D02*
X0364728D01*
Y0318685D01*
X0366894D01*
Y0320850D01*
D02*
G37*
G36*
X0319894D02*
X0317728D01*
Y0318685D01*
X0319894D01*
Y0320850D01*
D02*
G37*
G36*
X0315728D02*
X0313563D01*
Y0318685D01*
X0315728D01*
Y0320850D01*
D02*
G37*
G36*
X0300339Y0319776D02*
X0299098D01*
Y0318142D01*
X0300339D01*
Y0319776D01*
D02*
G37*
G36*
X0345230Y0321462D02*
X0345230Y0321462D01*
X0326480D01*
X0326055Y0321378D01*
X0325694Y0321137D01*
X0325694Y0321137D01*
X0320356Y0315798D01*
X0319894Y0315989D01*
Y0316685D01*
X0316728D01*
X0313563D01*
Y0315989D01*
X0313101Y0315798D01*
X0311949Y0316950D01*
Y0319366D01*
X0308287D01*
Y0314917D01*
X0310837D01*
X0313544Y0312210D01*
X0313337Y0311710D01*
X0311240D01*
Y0313701D01*
X0306516D01*
Y0308583D01*
X0307766D01*
Y0306339D01*
X0307125Y0305697D01*
X0307000Y0305714D01*
X0306298Y0305621D01*
X0305643Y0305350D01*
X0305081Y0304919D01*
X0304650Y0304357D01*
X0304379Y0303702D01*
X0304286Y0303000D01*
X0304379Y0302298D01*
X0304650Y0301643D01*
X0305081Y0301081D01*
X0305643Y0300650D01*
X0306298Y0300379D01*
X0307000Y0300286D01*
X0307702Y0300379D01*
X0308357Y0300650D01*
X0308919Y0301081D01*
X0309350Y0301643D01*
X0309621Y0302298D01*
X0309714Y0303000D01*
X0309621Y0303702D01*
X0309350Y0304357D01*
X0309168Y0304595D01*
X0309664Y0305092D01*
X0309664Y0305092D01*
X0309905Y0305452D01*
X0309990Y0305878D01*
X0309990Y0305878D01*
Y0308583D01*
X0311240D01*
Y0309487D01*
X0313972D01*
Y0307842D01*
X0319484D01*
Y0311782D01*
X0326941Y0319238D01*
X0340169D01*
Y0318403D01*
X0338378D01*
X0338378Y0318403D01*
X0337952Y0318319D01*
X0337592Y0318078D01*
X0337592Y0318077D01*
X0335494Y0315980D01*
X0334995Y0316013D01*
X0334919Y0316112D01*
X0334357Y0316543D01*
X0333702Y0316814D01*
X0333000Y0316907D01*
X0332298Y0316814D01*
X0331643Y0316543D01*
X0331081Y0316112D01*
X0330650Y0315550D01*
X0330379Y0314895D01*
X0330286Y0314193D01*
X0330379Y0313491D01*
X0330650Y0312836D01*
X0331081Y0312274D01*
X0331643Y0311843D01*
X0332298Y0311572D01*
X0333000Y0311479D01*
X0333702Y0311572D01*
X0334357Y0311843D01*
X0334919Y0312274D01*
X0335350Y0312836D01*
X0335467Y0313118D01*
X0335705Y0313166D01*
X0336066Y0313407D01*
X0338839Y0316179D01*
X0340169D01*
Y0314929D01*
X0345287D01*
Y0315740D01*
X0345787Y0316069D01*
X0345984Y0316030D01*
X0346508D01*
Y0314917D01*
X0350169D01*
Y0319366D01*
X0347498D01*
X0347096Y0319596D01*
X0347011Y0320022D01*
X0346771Y0320382D01*
X0346016Y0321137D01*
X0345656Y0321378D01*
X0345230Y0321462D01*
D02*
G37*
G36*
X0409728Y0320850D02*
X0407563D01*
Y0318685D01*
X0409728D01*
Y0320850D01*
D02*
G37*
G36*
X0303579Y0319776D02*
X0302339D01*
Y0318142D01*
X0303579D01*
Y0319776D01*
D02*
G37*
G36*
X0637500Y0134500D02*
X0635126D01*
X0635443Y0133735D01*
X0636004Y0133004D01*
X0636735Y0132443D01*
X0637500Y0132126D01*
Y0134500D01*
D02*
G37*
G36*
X0155000Y0311953D02*
X0152047D01*
Y0309000D01*
X0155000D01*
Y0311953D01*
D02*
G37*
G36*
X0329874Y0310500D02*
X0327500D01*
Y0308126D01*
X0328265Y0308443D01*
X0328996Y0309004D01*
X0329557Y0309735D01*
X0329874Y0310500D01*
D02*
G37*
G36*
X0266622Y0139969D02*
X0264850D01*
Y0138000D01*
X0266622D01*
Y0139969D01*
D02*
G37*
G36*
X0168500Y0311953D02*
X0165547D01*
Y0309000D01*
X0168500D01*
Y0311953D01*
D02*
G37*
G36*
X0325500Y0310500D02*
X0323126D01*
X0323443Y0309735D01*
X0324004Y0309004D01*
X0324735Y0308443D01*
X0325500Y0308126D01*
Y0310500D01*
D02*
G37*
G36*
X0277500Y0307874D02*
Y0305500D01*
X0279874D01*
X0279557Y0306265D01*
X0278996Y0306996D01*
X0278265Y0307557D01*
X0277500Y0307874D01*
D02*
G37*
G36*
X0275500D02*
X0274735Y0307557D01*
X0274004Y0306996D01*
X0273443Y0306265D01*
X0273126Y0305500D01*
X0275500D01*
Y0307874D01*
D02*
G37*
G36*
X0640400Y0143000D02*
X0638600D01*
Y0141400D01*
X0640400D01*
Y0143000D01*
D02*
G37*
G36*
X0644200D02*
X0642400D01*
Y0141400D01*
X0644200D01*
Y0143000D01*
D02*
G37*
G36*
X0262850Y0136000D02*
X0261079D01*
Y0134031D01*
X0262850D01*
Y0136000D01*
D02*
G37*
G36*
X0266622D02*
X0264850D01*
Y0134031D01*
X0266622D01*
Y0136000D01*
D02*
G37*
G36*
X0641874Y0134500D02*
X0639500D01*
Y0132126D01*
X0640265Y0132443D01*
X0640996Y0133004D01*
X0641557Y0133735D01*
X0641874Y0134500D01*
D02*
G37*
G36*
X0351941Y0313701D02*
X0347217D01*
Y0310563D01*
X0345976Y0309322D01*
X0345787Y0309297D01*
X0345287Y0309659D01*
Y0313354D01*
X0340169D01*
Y0310006D01*
X0338714Y0308550D01*
X0338473Y0308189D01*
X0338388Y0307764D01*
X0338388Y0307764D01*
Y0304952D01*
X0338143Y0304850D01*
X0337581Y0304419D01*
X0337150Y0303857D01*
X0336879Y0303202D01*
X0336786Y0302500D01*
X0336879Y0301798D01*
X0337150Y0301143D01*
X0337581Y0300581D01*
X0338143Y0300150D01*
X0338798Y0299879D01*
X0339500Y0299786D01*
X0340202Y0299879D01*
X0340857Y0300150D01*
X0341419Y0300581D01*
X0341850Y0301143D01*
X0342121Y0301798D01*
X0342214Y0302500D01*
X0342121Y0303202D01*
X0341850Y0303857D01*
X0341419Y0304419D01*
X0340857Y0304850D01*
X0340612Y0304952D01*
Y0307303D01*
X0341939Y0308630D01*
X0343732D01*
X0343979Y0308130D01*
X0343878Y0307999D01*
X0343607Y0307344D01*
X0343515Y0306642D01*
X0343607Y0305939D01*
X0343878Y0305285D01*
X0344309Y0304723D01*
X0344871Y0304292D01*
X0345526Y0304020D01*
X0346228Y0303928D01*
X0346931Y0304020D01*
X0347585Y0304292D01*
X0348147Y0304723D01*
X0348579Y0305285D01*
X0348850Y0305939D01*
X0348942Y0306642D01*
X0348850Y0307344D01*
X0348579Y0307999D01*
X0348552Y0308033D01*
X0349102Y0308583D01*
X0351941D01*
Y0313701D01*
D02*
G37*
G36*
X0173453Y0311953D02*
X0170500D01*
Y0309000D01*
X0173453D01*
Y0311953D01*
D02*
G37*
G36*
X0647000Y0139244D02*
X0645228D01*
Y0137866D01*
X0647000D01*
Y0139244D01*
D02*
G37*
G36*
X0262850Y0139969D02*
X0261079D01*
Y0138000D01*
X0262850D01*
Y0139969D01*
D02*
G37*
G36*
X0639500Y0138874D02*
Y0136500D01*
X0641874D01*
X0641557Y0137265D01*
X0640996Y0137996D01*
X0640265Y0138557D01*
X0639500Y0138874D01*
D02*
G37*
G36*
X0159953Y0311953D02*
X0157000D01*
Y0309000D01*
X0159953D01*
Y0311953D01*
D02*
G37*
G36*
X0419500Y0271874D02*
Y0269500D01*
X0421874D01*
X0421557Y0270265D01*
X0420996Y0270996D01*
X0420265Y0271557D01*
X0419500Y0271874D01*
D02*
G37*
G36*
X0222500Y0220470D02*
X0221602Y0220352D01*
X0220765Y0220005D01*
X0220046Y0219454D01*
X0219495Y0218735D01*
X0219148Y0217898D01*
X0219030Y0217000D01*
X0219148Y0216102D01*
X0219495Y0215265D01*
X0220046Y0214546D01*
X0220765Y0213995D01*
X0221602Y0213648D01*
X0221644Y0213643D01*
Y0211362D01*
X0220787D01*
Y0206638D01*
X0224724D01*
Y0211362D01*
X0223868D01*
Y0213843D01*
X0224235Y0213995D01*
X0224954Y0214546D01*
X0225505Y0215265D01*
X0225852Y0216102D01*
X0225970Y0217000D01*
X0225852Y0217898D01*
X0225505Y0218735D01*
X0224954Y0219454D01*
X0224235Y0220005D01*
X0223398Y0220352D01*
X0222500Y0220470D01*
D02*
G37*
G36*
X0272134Y0208000D02*
X0270756D01*
Y0206228D01*
X0272134D01*
Y0208000D01*
D02*
G37*
G36*
X0268756D02*
X0267378D01*
Y0206228D01*
X0268756D01*
Y0208000D01*
D02*
G37*
G36*
X0257756Y0211772D02*
X0256378D01*
Y0210000D01*
X0257756D01*
Y0211772D01*
D02*
G37*
G36*
X0272134D02*
X0270756D01*
Y0210000D01*
X0272134D01*
Y0211772D01*
D02*
G37*
G36*
X0261134D02*
X0259756D01*
Y0210000D01*
X0261134D01*
Y0211772D01*
D02*
G37*
G36*
X0268756D02*
X0267378D01*
Y0210000D01*
X0268756D01*
Y0211772D01*
D02*
G37*
G36*
X0261134Y0208000D02*
X0259756D01*
Y0206228D01*
X0261134D01*
Y0208000D01*
D02*
G37*
G36*
X0382500Y0207874D02*
X0381735Y0207557D01*
X0381004Y0206996D01*
X0380443Y0206265D01*
X0380126Y0205500D01*
X0382500D01*
Y0207874D01*
D02*
G37*
G36*
X0362000Y0247709D02*
X0359835D01*
Y0245543D01*
X0362000D01*
Y0247709D01*
D02*
G37*
G36*
X0413665D02*
X0411500D01*
Y0245543D01*
X0413665D01*
Y0247709D01*
D02*
G37*
G36*
X0384500Y0207874D02*
Y0205500D01*
X0386874D01*
X0386557Y0206265D01*
X0385996Y0206996D01*
X0385265Y0207557D01*
X0384500Y0207874D01*
D02*
G37*
G36*
X0257756Y0208000D02*
X0256378D01*
Y0206228D01*
X0257756D01*
Y0208000D01*
D02*
G37*
G36*
X0282000Y0208374D02*
Y0206000D01*
X0284374D01*
X0284057Y0206765D01*
X0283496Y0207496D01*
X0282765Y0208057D01*
X0282000Y0208374D01*
D02*
G37*
G36*
X0280000D02*
X0279235Y0208057D01*
X0278504Y0207496D01*
X0277943Y0206765D01*
X0277626Y0206000D01*
X0280000D01*
Y0208374D01*
D02*
G37*
G36*
X0177437Y0242500D02*
X0175646D01*
Y0240098D01*
X0177437D01*
Y0242500D01*
D02*
G37*
G36*
X0280000Y0232874D02*
Y0230500D01*
X0282374D01*
X0282057Y0231265D01*
X0281496Y0231996D01*
X0280765Y0232557D01*
X0280000Y0232874D01*
D02*
G37*
G36*
X0278000D02*
X0277235Y0232557D01*
X0276504Y0231996D01*
X0275943Y0231265D01*
X0275626Y0230500D01*
X0278000D01*
Y0232874D01*
D02*
G37*
G36*
X0177437Y0246902D02*
X0175646D01*
Y0244500D01*
X0177437D01*
Y0246902D01*
D02*
G37*
G36*
X0413665Y0243543D02*
X0411500D01*
Y0241378D01*
X0413665D01*
Y0243543D01*
D02*
G37*
G36*
X0366165D02*
X0364000D01*
Y0241378D01*
X0366165D01*
Y0243543D01*
D02*
G37*
G36*
X0318665Y0242543D02*
X0316500D01*
Y0240378D01*
X0318665D01*
Y0242543D01*
D02*
G37*
G36*
X0282374Y0228500D02*
X0280000D01*
Y0226126D01*
X0280765Y0226443D01*
X0281496Y0227004D01*
X0282057Y0227735D01*
X0282374Y0228500D01*
D02*
G37*
G36*
X0182500Y0220470D02*
X0181602Y0220352D01*
X0180765Y0220005D01*
X0180046Y0219454D01*
X0179495Y0218735D01*
X0179148Y0217898D01*
X0179030Y0217000D01*
X0179148Y0216102D01*
X0179495Y0215265D01*
X0180046Y0214546D01*
X0180765Y0213995D01*
X0181602Y0213648D01*
X0182500Y0213530D01*
X0183398Y0213648D01*
X0184235Y0213995D01*
X0184954Y0214546D01*
X0185505Y0215265D01*
X0185852Y0216102D01*
X0185970Y0217000D01*
X0185852Y0217898D01*
X0185505Y0218735D01*
X0184954Y0219454D01*
X0184235Y0220005D01*
X0183398Y0220352D01*
X0182500Y0220470D01*
D02*
G37*
G36*
X0172500D02*
X0171602Y0220352D01*
X0170765Y0220005D01*
X0170046Y0219454D01*
X0169495Y0218735D01*
X0169148Y0217898D01*
X0169030Y0217000D01*
X0169148Y0216102D01*
X0169495Y0215265D01*
X0170046Y0214546D01*
X0170765Y0213995D01*
X0171602Y0213648D01*
X0172500Y0213530D01*
X0173398Y0213648D01*
X0174235Y0213995D01*
X0174954Y0214546D01*
X0175505Y0215265D01*
X0175852Y0216102D01*
X0175970Y0217000D01*
X0175852Y0217898D01*
X0175505Y0218735D01*
X0174954Y0219454D01*
X0174235Y0220005D01*
X0173398Y0220352D01*
X0172500Y0220470D01*
D02*
G37*
G36*
X0409500Y0247709D02*
X0407335D01*
Y0245543D01*
X0409500D01*
Y0247709D01*
D02*
G37*
G36*
X0202500Y0220470D02*
X0201602Y0220352D01*
X0200765Y0220005D01*
X0200046Y0219454D01*
X0199495Y0218735D01*
X0199148Y0217898D01*
X0199030Y0217000D01*
X0199148Y0216102D01*
X0199495Y0215265D01*
X0200046Y0214546D01*
X0200765Y0213995D01*
X0201602Y0213648D01*
X0202500Y0213530D01*
X0203398Y0213648D01*
X0204235Y0213995D01*
X0204954Y0214546D01*
X0205505Y0215265D01*
X0205852Y0216102D01*
X0205970Y0217000D01*
X0205852Y0217898D01*
X0205505Y0218735D01*
X0204954Y0219454D01*
X0204235Y0220005D01*
X0203398Y0220352D01*
X0202500Y0220470D01*
D02*
G37*
G36*
X0278000Y0228500D02*
X0275626D01*
X0275943Y0227735D01*
X0276504Y0227004D01*
X0277235Y0226443D01*
X0278000Y0226126D01*
Y0228500D01*
D02*
G37*
G36*
X0314500Y0246709D02*
X0312335D01*
Y0244543D01*
X0314500D01*
Y0246709D01*
D02*
G37*
G36*
X0318665D02*
X0316500D01*
Y0244543D01*
X0318665D01*
Y0246709D01*
D02*
G37*
G36*
X0176500Y0187874D02*
X0175735Y0187557D01*
X0175004Y0186996D01*
X0174443Y0186265D01*
X0174126Y0185500D01*
X0176500D01*
Y0187874D01*
D02*
G37*
G36*
X0180874Y0183500D02*
X0178500D01*
Y0181126D01*
X0179265Y0181443D01*
X0179996Y0182004D01*
X0180557Y0182735D01*
X0180874Y0183500D01*
D02*
G37*
G36*
X0176500D02*
X0174126D01*
X0174443Y0182735D01*
X0175004Y0182004D01*
X0175735Y0181443D01*
X0176500Y0181126D01*
Y0183500D01*
D02*
G37*
G36*
X0178500Y0187874D02*
Y0185500D01*
X0180874D01*
X0180557Y0186265D01*
X0179996Y0186996D01*
X0179265Y0187557D01*
X0178500Y0187874D01*
D02*
G37*
G36*
X0183968Y0197850D02*
X0182000D01*
Y0196079D01*
X0183968D01*
Y0197850D01*
D02*
G37*
G36*
X0180000D02*
X0178032D01*
Y0196079D01*
X0180000D01*
Y0197850D01*
D02*
G37*
G36*
X0175969D02*
X0174000D01*
Y0196079D01*
X0175969D01*
Y0197850D01*
D02*
G37*
G36*
X0417500Y0267500D02*
X0415126D01*
X0415443Y0266735D01*
X0416004Y0266004D01*
X0416735Y0265443D01*
X0417500Y0265126D01*
Y0267500D01*
D02*
G37*
G36*
X0217374Y0172000D02*
X0215000D01*
Y0169626D01*
X0215765Y0169943D01*
X0216496Y0170504D01*
X0217057Y0171235D01*
X0217374Y0172000D01*
D02*
G37*
G36*
X0213000D02*
X0210626D01*
X0210943Y0171235D01*
X0211504Y0170504D01*
X0212235Y0169943D01*
X0213000Y0169626D01*
Y0172000D01*
D02*
G37*
G36*
X0417500Y0271874D02*
X0416735Y0271557D01*
X0416004Y0270996D01*
X0415443Y0270265D01*
X0415126Y0269500D01*
X0417500D01*
Y0271874D01*
D02*
G37*
G36*
X0302500Y0180470D02*
X0301602Y0180352D01*
X0300765Y0180005D01*
X0300046Y0179454D01*
X0299495Y0178735D01*
X0299148Y0177898D01*
X0299030Y0177000D01*
X0299148Y0176102D01*
X0299495Y0175265D01*
X0300046Y0174546D01*
X0300765Y0173995D01*
X0301602Y0173648D01*
X0302500Y0173530D01*
X0303398Y0173648D01*
X0304235Y0173995D01*
X0304954Y0174546D01*
X0305505Y0175265D01*
X0305852Y0176102D01*
X0305970Y0177000D01*
X0305852Y0177898D01*
X0305505Y0178735D01*
X0304954Y0179454D01*
X0304235Y0180005D01*
X0303398Y0180352D01*
X0302500Y0180470D01*
D02*
G37*
G36*
X0421874Y0267500D02*
X0419500D01*
Y0265126D01*
X0420265Y0265443D01*
X0420996Y0266004D01*
X0421557Y0266735D01*
X0421874Y0267500D01*
D02*
G37*
G36*
X0215000Y0176374D02*
Y0174000D01*
X0217374D01*
X0217057Y0174765D01*
X0216496Y0175496D01*
X0215765Y0176057D01*
X0215000Y0176374D01*
D02*
G37*
G36*
X0213000D02*
X0212235Y0176057D01*
X0211504Y0175496D01*
X0210943Y0174765D01*
X0210626Y0174000D01*
X0213000D01*
Y0176374D01*
D02*
G37*
G36*
X0199969Y0201622D02*
X0198000D01*
Y0199850D01*
X0199969D01*
Y0201622D01*
D02*
G37*
G36*
X0196000D02*
X0194032D01*
Y0199850D01*
X0196000D01*
Y0201622D01*
D02*
G37*
G36*
X0191969D02*
X0190000D01*
Y0199850D01*
X0191969D01*
Y0201622D01*
D02*
G37*
G36*
X0382500Y0203500D02*
X0380126D01*
X0380443Y0202735D01*
X0381004Y0202004D01*
X0381735Y0201443D01*
X0382500Y0201126D01*
Y0203500D01*
D02*
G37*
G36*
X0284374Y0204000D02*
X0282000D01*
Y0201626D01*
X0282765Y0201943D01*
X0283496Y0202504D01*
X0284057Y0203235D01*
X0284374Y0204000D01*
D02*
G37*
G36*
X0280000D02*
X0277626D01*
X0277943Y0203235D01*
X0278504Y0202504D01*
X0279235Y0201943D01*
X0280000Y0201626D01*
Y0204000D01*
D02*
G37*
G36*
X0386874Y0203500D02*
X0384500D01*
Y0201126D01*
X0385265Y0201443D01*
X0385996Y0202004D01*
X0386557Y0202735D01*
X0386874Y0203500D01*
D02*
G37*
G36*
X0188000Y0201622D02*
X0186031D01*
Y0199850D01*
X0188000D01*
Y0201622D01*
D02*
G37*
G36*
X0196000Y0197850D02*
X0194032D01*
Y0196079D01*
X0196000D01*
Y0197850D01*
D02*
G37*
G36*
X0191969D02*
X0190000D01*
Y0196079D01*
X0191969D01*
Y0197850D01*
D02*
G37*
G36*
X0188000D02*
X0186031D01*
Y0196079D01*
X0188000D01*
Y0197850D01*
D02*
G37*
G36*
X0199969D02*
X0198000D01*
Y0196079D01*
X0199969D01*
Y0197850D01*
D02*
G37*
G36*
X0183968Y0201622D02*
X0182000D01*
Y0199850D01*
X0183968D01*
Y0201622D01*
D02*
G37*
G36*
X0180000D02*
X0178032D01*
Y0199850D01*
X0180000D01*
Y0201622D01*
D02*
G37*
G36*
X0366165Y0247709D02*
X0364000D01*
Y0245543D01*
X0366165D01*
Y0247709D01*
D02*
G37*
%LPD*%
D17*
X0263850Y0137000D02*
D03*
X0270150D02*
D03*
X0402878Y0311142D02*
D03*
X0396579D02*
D03*
X0355878D02*
D03*
X0349579D02*
D03*
X0308878D02*
D03*
X0302579D02*
D03*
X0213650Y0236000D02*
D03*
X0207350D02*
D03*
X0307650Y0237000D02*
D03*
X0301350D02*
D03*
X0260650D02*
D03*
X0254350D02*
D03*
X0355150Y0238000D02*
D03*
X0348850D02*
D03*
X0402650D02*
D03*
X0396350D02*
D03*
X0260650Y0278500D02*
D03*
X0254350D02*
D03*
X0355150D02*
D03*
X0348850D02*
D03*
X0308150D02*
D03*
X0301850D02*
D03*
X0402878Y0278642D02*
D03*
X0396579D02*
D03*
D26*
X0647244Y0162000D02*
D03*
X0652756D02*
D03*
X0625756Y0142000D02*
D03*
X0620244D02*
D03*
X0477756Y0139000D02*
D03*
X0472244D02*
D03*
X0477756Y0133000D02*
D03*
X0472244D02*
D03*
X0431744Y0163500D02*
D03*
X0437256D02*
D03*
X0264244Y0209000D02*
D03*
X0269756D02*
D03*
X0253244D02*
D03*
X0258756D02*
D03*
X0603256Y0192000D02*
D03*
X0597744D02*
D03*
X0217244Y0209000D02*
D03*
X0222756D02*
D03*
D27*
X0294000Y0164244D02*
D03*
Y0169756D02*
D03*
X0457000Y0161756D02*
D03*
Y0156244D02*
D03*
X0481000Y0152756D02*
D03*
Y0147244D02*
D03*
X0437261Y0135945D02*
D03*
Y0130433D02*
D03*
X0627000Y0153000D02*
D03*
Y0147488D02*
D03*
Y0164000D02*
D03*
Y0158488D02*
D03*
X0648000Y0145756D02*
D03*
Y0140244D02*
D03*
X0491000Y0125756D02*
D03*
Y0120244D02*
D03*
Y0137756D02*
D03*
Y0132244D02*
D03*
X0624500Y0198756D02*
D03*
Y0193244D02*
D03*
Y0213756D02*
D03*
Y0208244D02*
D03*
X0603500Y0203756D02*
D03*
Y0198244D02*
D03*
Y0214756D02*
D03*
Y0209244D02*
D03*
X0156000Y0233756D02*
D03*
Y0228244D02*
D03*
X0167000Y0278256D02*
D03*
Y0272744D02*
D03*
X0160000Y0278256D02*
D03*
Y0272744D02*
D03*
X0153000Y0278500D02*
D03*
Y0272988D02*
D03*
X0174000Y0278256D02*
D03*
Y0272744D02*
D03*
X0181000Y0278256D02*
D03*
Y0272744D02*
D03*
X0188000Y0278256D02*
D03*
Y0272744D02*
D03*
X0195500Y0272744D02*
D03*
Y0278256D02*
D03*
X0681000Y0170244D02*
D03*
Y0175756D02*
D03*
X0156000Y0245756D02*
D03*
Y0240244D02*
D03*
D28*
X0640937Y0161740D02*
D03*
Y0154200D02*
D03*
X0632600Y0158000D02*
D03*
X0633063Y0140260D02*
D03*
Y0147800D02*
D03*
X0641400Y0144000D02*
D03*
X0609100Y0210000D02*
D03*
X0617437Y0206200D02*
D03*
Y0213740D02*
D03*
X0609563Y0192260D02*
D03*
Y0199800D02*
D03*
X0617900Y0196000D02*
D03*
X0680937Y0164740D02*
D03*
Y0157200D02*
D03*
X0672600Y0161000D02*
D03*
D39*
X0168134Y0302366D02*
X0170000Y0300500D01*
X0165437Y0302366D02*
X0168134D01*
X0165303Y0302500D02*
X0165437Y0302366D01*
X0165962Y0304090D02*
X0166095Y0303957D01*
X0171055D01*
X0195500Y0291650D02*
Y0296488D01*
X0188500Y0291650D02*
Y0298488D01*
X0182988Y0304000D02*
X0188500Y0298488D01*
X0179012Y0304000D02*
X0182988D01*
X0214193Y0235457D02*
X0221433D01*
X0213650Y0236000D02*
X0214193Y0235457D01*
X0261890Y0243000D02*
X0261957D01*
X0245850Y0241500D02*
X0247500Y0243150D01*
X0308890Y0243000D02*
X0308957D01*
X0314957Y0237000D01*
X0307650D02*
X0314957D01*
X0293350Y0242000D02*
X0294500Y0243150D01*
X0356390Y0284500D02*
X0356457D01*
X0362457Y0278500D01*
X0355150D02*
X0362457D01*
X0339850Y0282500D02*
X0342000Y0284650D01*
X0335500Y0282500D02*
X0339850D01*
X0309390Y0284500D02*
X0309457D01*
X0308150Y0278500D02*
X0315457D01*
X0292850Y0282500D02*
X0295000Y0284650D01*
X0261890Y0284500D02*
X0261957D01*
X0260650Y0278500D02*
X0267957D01*
X0245850Y0283000D02*
X0247500Y0284650D01*
X0356390Y0244000D02*
X0356457D01*
X0362457Y0238000D01*
X0355150D02*
X0362457D01*
X0337650Y0244150D02*
X0342000D01*
X0335500Y0242000D02*
X0337650Y0244150D01*
X0310118Y0317142D02*
X0310185D01*
X0309421Y0310598D02*
X0316728D01*
X0308878Y0311142D02*
X0309421Y0310598D01*
X0357118Y0317142D02*
X0357185D01*
X0355878Y0311142D02*
X0363185D01*
X0338378Y0317291D02*
X0342728D01*
X0404118Y0317142D02*
X0410661Y0310598D01*
X0403421D02*
X0410661D01*
X0402878Y0311142D02*
X0403421Y0310598D01*
X0388079Y0315642D02*
X0389728Y0317291D01*
X0404118Y0284642D02*
X0405185D01*
X0410728Y0279098D01*
X0403335D02*
X0410728D01*
X0402878Y0278642D02*
X0403335Y0279098D01*
X0387579Y0282642D02*
X0389728Y0284791D01*
X0383228Y0282642D02*
X0387579D01*
X0392984Y0317142D02*
X0395339D01*
X0392984D02*
Y0319596D01*
X0345984Y0317142D02*
X0348339D01*
X0306911Y0237000D02*
X0307650D01*
X0206110Y0242000D02*
X0210195D01*
X0214191Y0245996D01*
X0259911Y0237000D02*
X0260650D01*
X0304805Y0243000D02*
X0308890D01*
X0300110D02*
X0300911D01*
X0253110D02*
X0257195D01*
X0242472Y0233988D02*
X0249920D01*
X0250559Y0234627D01*
Y0238491D01*
X0252344Y0240276D01*
X0256720D01*
X0352027Y0244000D02*
X0356390D01*
X0347610D02*
X0349777D01*
Y0242356D02*
Y0244000D01*
Y0242356D02*
X0351713Y0240420D01*
Y0236155D02*
Y0240420D01*
Y0236155D02*
X0353666Y0234201D01*
X0199000Y0231000D02*
X0199988D01*
X0202678Y0228309D01*
X0205322D01*
X0213012Y0236000D01*
X0213650D01*
X0247500Y0236850D02*
Y0238500D01*
X0249920Y0240287D02*
X0250559Y0240926D01*
Y0245373D01*
X0292228Y0239122D02*
X0294500Y0236850D01*
X0290941Y0239122D02*
X0292228D01*
X0290628Y0238809D02*
X0290941Y0239122D01*
X0286678Y0238809D02*
X0290628D01*
X0284809Y0240678D02*
X0286678Y0238809D01*
X0328500Y0250440D02*
Y0250500D01*
X0253110Y0243000D02*
Y0245890D01*
X0251136Y0247864D02*
X0253110Y0245890D01*
X0328500Y0250440D02*
X0330440Y0248500D01*
X0347527D02*
X0352027Y0244000D01*
X0318117Y0233201D02*
X0318756Y0233840D01*
Y0236816D01*
X0330440Y0248500D01*
X0339728Y0240122D02*
X0342000Y0237850D01*
X0338690Y0240122D02*
X0339728D01*
X0337378Y0238809D02*
X0338690Y0240122D01*
X0334178Y0238809D02*
X0337378D01*
X0332310Y0240678D02*
X0334178Y0238809D01*
X0332310Y0240678D02*
Y0245035D01*
X0332035Y0245309D02*
X0332310Y0245035D01*
X0330440Y0248500D02*
X0347527D01*
X0375000Y0251500D02*
X0378428Y0248072D01*
X0251136Y0247864D02*
Y0249308D01*
X0353666Y0234201D02*
X0365617D01*
X0366256Y0234840D01*
Y0235900D01*
X0378428Y0248072D01*
X0384000Y0241000D02*
X0386350D01*
X0389500Y0244150D01*
X0387475Y0239875D02*
X0389500Y0237850D01*
X0382678Y0237809D02*
X0387475D01*
X0380809Y0239678D02*
X0382678Y0237809D01*
X0380809Y0239678D02*
Y0243191D01*
X0379500Y0244500D02*
X0380809Y0243191D01*
X0387475Y0237809D02*
Y0239875D01*
X0378428Y0248072D02*
X0395455D01*
X0395110Y0244000D02*
Y0245379D01*
X0399441Y0278642D02*
X0402878D01*
X0399441D02*
Y0281062D01*
X0398802Y0281701D02*
X0399441Y0281062D01*
X0393863Y0281701D02*
X0398802D01*
X0392787Y0282777D02*
X0393863Y0281701D01*
X0392787Y0282777D02*
Y0287015D01*
X0391503Y0288299D02*
X0392787Y0287015D01*
X0351000Y0288000D02*
X0360084D01*
X0351000Y0287890D02*
Y0288000D01*
X0347610Y0284500D02*
X0351000Y0287890D01*
X0343633Y0288299D02*
X0345280Y0286652D01*
Y0282414D02*
Y0286652D01*
Y0282414D02*
X0345918Y0281776D01*
X0351874D01*
X0355150Y0278500D01*
X0388438Y0271993D02*
X0389728Y0273283D01*
Y0278492D01*
X0378000Y0272500D02*
Y0282299D01*
X0384000Y0288299D01*
X0391503D01*
X0340000Y0270500D02*
X0342000Y0272500D01*
Y0278350D01*
X0331500Y0269500D02*
Y0283299D01*
X0336500Y0288299D02*
X0343633D01*
X0292500Y0270690D02*
X0295000Y0273190D01*
Y0278350D01*
X0253110Y0284500D02*
X0257473D01*
X0296633Y0288299D02*
X0298280Y0286652D01*
Y0282414D02*
Y0286652D01*
Y0282414D02*
X0298918Y0281776D01*
X0304874D01*
X0308150Y0278500D01*
X0237000Y0239460D02*
X0242472Y0233988D01*
X0245932Y0250000D02*
X0250559Y0245373D01*
X0242432Y0246500D02*
X0245932Y0250000D01*
X0241641Y0247290D02*
X0242432Y0246500D01*
X0242000Y0241500D02*
X0245850D01*
X0246887Y0240287D02*
X0249920D01*
X0246509Y0239910D02*
X0246887Y0240287D01*
X0246091Y0239910D02*
X0246509D01*
X0246091D02*
X0247500Y0238500D01*
X0241065Y0247290D02*
X0241641D01*
X0237462Y0239922D02*
Y0244119D01*
X0289000Y0288299D02*
X0296633D01*
X0245500Y0272000D02*
Y0276350D01*
X0247500Y0278350D01*
X0250500Y0289500D02*
X0250780Y0289220D01*
Y0282414D02*
Y0289220D01*
Y0282414D02*
X0251418Y0281776D01*
X0260650Y0278500D02*
Y0279350D01*
X0395339Y0284642D02*
X0400138Y0289441D01*
X0413345D01*
X0413977Y0288809D01*
X0419322D01*
X0421191Y0290678D01*
Y0295098D01*
X0410728Y0305561D02*
X0421191Y0295098D01*
X0410728Y0305561D02*
Y0310598D01*
X0388000Y0305000D02*
Y0309264D01*
X0389728Y0310992D01*
X0356000Y0297500D02*
X0363728Y0305228D01*
Y0310598D01*
X0339500Y0302500D02*
Y0307764D01*
X0342728Y0310992D01*
X0308878Y0305878D02*
Y0311142D01*
X0295728Y0306728D02*
Y0310992D01*
X0156000Y0233756D02*
Y0240244D01*
X0152500Y0249256D02*
X0156000Y0245756D01*
X0152500Y0249256D02*
Y0249500D01*
X0156000Y0240244D02*
X0161681Y0245925D01*
Y0249492D01*
X0162500Y0250311D01*
Y0252000D01*
X0153000Y0272988D02*
X0159756D01*
X0160000Y0272744D01*
X0167000D01*
X0174000D01*
X0181000D01*
X0188000D01*
X0195500Y0278256D02*
Y0285350D01*
X0195500Y0285350D01*
X0188500D02*
X0195500D01*
X0180000Y0285201D02*
X0180150Y0285350D01*
X0163500Y0285201D02*
X0172000D01*
X0174718D01*
X0177729Y0288213D01*
X0192063D02*
X0195500Y0291650D01*
X0177282Y0291500D02*
X0180000D01*
X0168782D02*
X0172000D01*
X0165920Y0288638D02*
X0168782Y0291500D01*
X0161080Y0288638D02*
X0165920D01*
X0158218Y0291500D02*
X0161080Y0288638D01*
X0188000Y0278256D02*
Y0280500D01*
X0181000Y0278256D02*
Y0280500D01*
X0174000Y0278256D02*
Y0280500D01*
X0167000Y0278256D02*
Y0280500D01*
X0167500Y0281000D01*
X0160000Y0278256D02*
X0160500Y0278756D01*
X0157000Y0291500D02*
X0158218D01*
X0172000D02*
X0172000Y0291500D01*
X0163500D02*
X0166362Y0294362D01*
X0153000Y0278500D02*
Y0280500D01*
X0149809Y0276179D02*
X0153000Y0272988D01*
X0160500Y0278756D02*
Y0280500D01*
X0180150Y0285350D02*
X0188500D01*
X0174420Y0294362D02*
X0177282Y0291500D01*
X0195500Y0285350D02*
Y0288787D01*
X0198362Y0280862D02*
X0200500Y0283000D01*
Y0285500D01*
X0188000Y0280500D02*
X0188000Y0280500D01*
X0174000Y0280500D02*
X0174000Y0280500D01*
X0180500Y0280500D02*
X0181000D01*
X0180000Y0291500D02*
X0182468Y0293969D01*
Y0299031D01*
X0177729Y0288213D02*
X0192063D01*
X0166362Y0294362D02*
X0174420D01*
X0182468Y0299031D02*
X0182937Y0299500D01*
X0149809Y0276179D02*
Y0297810D01*
X0155691Y0303691D01*
X0154000Y0296500D02*
X0155500Y0295000D01*
Y0293000D02*
Y0295000D01*
Y0291500D02*
Y0295000D01*
X0163000Y0302500D01*
X0155691Y0303691D02*
X0161941D01*
X0162341Y0304090D01*
X0165962D01*
X0163000Y0302500D02*
X0165303D01*
X0163500Y0291500D02*
Y0298488D01*
X0164188Y0299176D01*
X0295256Y0164244D02*
X0302500Y0157000D01*
X0294000Y0164244D02*
X0295256D01*
X0178437Y0243500D02*
X0179429Y0242508D01*
X0164000Y0236000D02*
Y0241937D01*
X0165563Y0243500D01*
X0155500Y0285201D02*
X0157968D01*
Y0282481D02*
Y0285201D01*
X0157138Y0281650D02*
X0157968Y0282481D01*
X0157138Y0276426D02*
Y0281650D01*
Y0276426D02*
X0157777Y0275787D01*
X0176223D01*
X0177191Y0276755D01*
Y0285201D02*
X0180000D01*
X0177191Y0276755D02*
Y0285201D01*
X0156000Y0228244D02*
X0160565Y0232809D01*
X0165322D01*
X0168445Y0235933D01*
X0264244Y0209000D02*
Y0215256D01*
X0262500Y0217000D02*
X0264244Y0215256D01*
X0253244Y0209000D02*
Y0216256D01*
X0252500Y0217000D02*
X0253244Y0216256D01*
X0222756Y0209000D02*
Y0216744D01*
X0222500Y0217000D02*
X0222756Y0216744D01*
X0189000Y0205150D02*
X0197000D01*
X0181000D02*
X0189000D01*
X0173000D02*
X0181000D01*
X0189000D02*
Y0213500D01*
X0192500Y0217000D01*
X0173000Y0201713D02*
Y0205150D01*
X0170580Y0201713D02*
X0173000D01*
X0169941Y0201074D02*
X0170580Y0201713D01*
X0169941Y0170941D02*
Y0201074D01*
X0155000Y0156000D02*
X0169941Y0170941D01*
X0170163Y0127243D02*
X0179194Y0118213D01*
X0246979D02*
X0252794Y0124028D01*
X0266606D01*
X0270150Y0127571D01*
Y0137000D01*
X0288560Y0155410D01*
Y0163495D01*
X0291777Y0166713D01*
X0294000D01*
Y0169756D01*
X0155000Y0153500D02*
Y0156000D01*
Y0153500D02*
X0170163Y0138337D01*
Y0127243D02*
Y0138337D01*
X0164000Y0151000D02*
X0168559Y0155559D01*
Y0158632D01*
X0238073Y0217000D02*
X0242500D01*
X0182500Y0137096D02*
Y0157000D01*
X0174404Y0129000D02*
X0182500Y0137096D01*
X0192500Y0139222D02*
Y0157000D01*
X0182278Y0129000D02*
X0192500Y0139222D01*
X0202500Y0141400D02*
Y0157000D01*
X0190100Y0129000D02*
X0202500Y0141400D01*
X0212500Y0143500D02*
Y0157000D01*
X0198000Y0129000D02*
X0212500Y0143500D01*
X0222500Y0145600D02*
Y0157000D01*
X0205900Y0129000D02*
X0222500Y0145600D01*
X0232500Y0147726D02*
Y0157000D01*
X0242500Y0149852D02*
Y0157000D01*
X0199350Y0237000D02*
X0200500Y0235850D01*
X0198350Y0242150D02*
X0200500D01*
X0194000Y0242500D02*
X0198000D01*
X0198350Y0242150D01*
X0182937Y0299500D02*
X0183449Y0298988D01*
X0171055Y0303957D02*
X0175012Y0300000D01*
X0179012Y0304000D01*
X0188488Y0303500D02*
X0195500Y0296488D01*
X0194500Y0303000D02*
X0195000D01*
X0183449Y0298988D02*
X0183488D01*
X0188000Y0303500D02*
X0188488D01*
X0214890Y0242000D02*
X0221433Y0235457D01*
X0224756Y0242732D02*
X0230678Y0236809D01*
X0234349D01*
X0237462Y0239922D01*
X0260650Y0237000D02*
X0267957D01*
X0284809Y0240678D02*
Y0245810D01*
X0288000Y0242000D02*
X0293350D01*
X0284809Y0245810D02*
X0285000Y0246000D01*
X0261957Y0243000D02*
X0267957Y0237000D01*
X0256720Y0240276D02*
X0260667Y0244223D01*
X0261890Y0243000D01*
X0260994Y0246799D02*
X0271117D01*
X0257195Y0243000D02*
X0260994Y0246799D01*
X0271117D02*
X0273916Y0244000D01*
X0214191Y0245996D02*
X0223401D01*
X0223598Y0245799D01*
X0224117D01*
X0224756Y0245160D01*
Y0242732D02*
Y0245160D01*
X0195500Y0288787D02*
X0197920D01*
X0198559Y0289426D01*
X0195000Y0303000D02*
X0198559Y0299441D01*
Y0289426D02*
Y0299441D01*
X0241500Y0283000D02*
X0245850D01*
X0240500Y0282000D02*
X0241500Y0283000D01*
X0238500Y0282000D02*
X0240500D01*
X0284500Y0270500D02*
Y0283799D01*
X0288500Y0282500D02*
X0292850D01*
X0251418Y0281776D02*
X0258224D01*
X0260650Y0279350D01*
X0261957Y0284500D02*
X0267957Y0278500D01*
X0284500Y0283799D02*
X0289000Y0288299D01*
X0257473Y0284500D02*
X0261273Y0288299D01*
X0275617Y0283799D02*
X0284500D01*
X0271117Y0288299D02*
X0275617Y0283799D01*
X0261273Y0288299D02*
X0271117D01*
X0309457Y0284500D02*
X0315457Y0278500D01*
X0331500Y0283299D02*
X0336500Y0288299D01*
X0323617Y0283299D02*
X0331500D01*
X0318617Y0288299D02*
X0323617Y0283299D01*
X0371617Y0282299D02*
X0378000D01*
X0365617Y0288299D02*
X0371617Y0282299D01*
X0360383Y0288299D02*
X0365617D01*
X0360084Y0288000D02*
X0360383Y0288299D01*
X0294500Y0305500D02*
X0295728Y0306728D01*
X0293500Y0305500D02*
X0294500D01*
X0300610Y0284500D02*
X0304974D01*
X0308773Y0288299D01*
X0318617D01*
X0307000Y0304000D02*
X0308878Y0305878D01*
X0307000Y0303000D02*
Y0304000D01*
X0335279Y0314193D02*
X0338378Y0317291D01*
X0333000Y0314193D02*
X0335279D01*
X0380358Y0315642D02*
X0388079D01*
X0387308Y0320153D02*
X0392149D01*
X0392706Y0319596D01*
X0392984D01*
X0380000Y0316000D02*
X0380358Y0315642D01*
X0168559Y0158632D02*
X0201427Y0191500D01*
X0212573D01*
X0211500Y0196500D02*
X0217244Y0202244D01*
Y0209000D01*
X0457000Y0153500D02*
Y0156244D01*
X0457000Y0156244D01*
X0150957Y0185457D02*
X0151000Y0185500D01*
X0150957Y0126043D02*
Y0185457D01*
Y0126043D02*
X0155000Y0122000D01*
X0541000Y0154000D02*
X0559000Y0172000D01*
X0496000Y0124000D02*
Y0132756D01*
X0491000Y0137756D02*
X0496000Y0132756D01*
X0491000Y0125756D02*
Y0132244D01*
X0470165Y0152756D02*
X0481000D01*
X0467000Y0155921D02*
X0470165Y0152756D01*
X0278500Y0115000D02*
Y0140500D01*
X0502500Y0242049D02*
X0518500Y0258049D01*
X0502500Y0189000D02*
Y0242049D01*
X0497874Y0189087D02*
Y0196374D01*
X0498000Y0196500D01*
Y0252549D01*
X0492500Y0258049D02*
X0498000Y0252549D01*
X0461500Y0124500D02*
X0489744D01*
X0491000Y0125756D01*
X0148219Y0231333D02*
X0153777Y0225776D01*
X0269297D02*
X0278073Y0217000D01*
X0282500D01*
X0148219Y0231333D02*
Y0322219D01*
X0658500Y0269000D02*
Y0320000D01*
X0148219Y0322219D02*
X0160000Y0334000D01*
X0644500D01*
X0658500Y0320000D01*
X0402650Y0238000D02*
X0403193Y0237457D01*
X0403890Y0244000D02*
X0410433Y0237457D01*
X0403193D02*
X0410433D01*
X0399787Y0235580D02*
X0401166Y0234201D01*
X0399787Y0235580D02*
Y0241490D01*
X0397389Y0243889D02*
X0399787Y0241490D01*
X0396995Y0243495D02*
X0397389Y0243889D01*
X0395110Y0245379D02*
X0396995Y0243495D01*
X0395455Y0248072D02*
X0399527Y0244000D01*
X0403890D01*
X0419691Y0240774D02*
Y0259310D01*
X0413117Y0234201D02*
X0419691Y0240774D01*
X0401166Y0234201D02*
X0413117D01*
X0661691Y0269191D02*
X0663500Y0271000D01*
X0661691Y0267678D02*
Y0269191D01*
X0659822Y0265809D02*
X0661691Y0267678D01*
X0657178Y0265809D02*
X0659822D01*
X0651500Y0271488D02*
X0657178Y0265809D01*
X0651500Y0271488D02*
Y0323000D01*
X0643500Y0331000D02*
X0651500Y0323000D01*
X0451500Y0331000D02*
X0643500D01*
X0417000Y0108000D02*
X0426500Y0117500D01*
Y0306000D02*
X0451500Y0331000D01*
X0666690Y0274309D02*
X0669000Y0272000D01*
X0666690Y0274309D02*
Y0314059D01*
X0645159Y0335591D02*
X0666690Y0314059D01*
X0159341Y0335591D02*
X0645159D01*
X0146628Y0322878D02*
X0159341Y0335591D01*
X0146628Y0230675D02*
Y0322878D01*
X0431744Y0163500D02*
Y0171862D01*
X0431606Y0172000D02*
X0431744Y0171862D01*
X0429500Y0174106D02*
X0431606Y0172000D01*
X0429500Y0175000D02*
X0429691Y0174810D01*
Y0174510D02*
Y0174810D01*
X0429500Y0174106D02*
Y0175000D01*
X0428090Y0168484D02*
X0431606Y0172000D01*
X0428090Y0114013D02*
Y0168484D01*
X0146628Y0230675D02*
X0172153Y0205150D01*
X0173000D01*
X0187000Y0240500D02*
X0190500Y0237000D01*
X0199350D01*
X0192000Y0240500D02*
X0194000Y0242500D01*
X0153777Y0225776D02*
X0269297D01*
X0195500Y0272744D02*
Y0274688D01*
X0196600Y0275787D01*
X0197723D01*
X0198362Y0276426D01*
Y0280862D01*
X0187000Y0240500D02*
Y0242000D01*
X0195500Y0257000D02*
Y0272744D01*
X0181319Y0238819D02*
Y0242819D01*
X0195500Y0257000D01*
X0168445Y0235933D02*
X0178433D01*
X0181319Y0238819D01*
X0472244Y0133000D02*
Y0139000D01*
X0472244Y0139000D02*
X0472244Y0139000D01*
X0467000Y0144244D02*
X0472244Y0139000D01*
X0465000Y0139000D02*
X0467000Y0141000D01*
X0465000Y0138500D02*
Y0139000D01*
X0467000Y0141000D02*
Y0144244D01*
Y0146079D01*
X0491232Y0152756D02*
X0491738Y0153262D01*
X0481000Y0152756D02*
X0491232D01*
X0528500Y0176500D02*
Y0258049D01*
X0541000Y0122000D02*
Y0154000D01*
X0496000Y0124000D02*
X0508000Y0112000D01*
X0531000D01*
X0541000Y0122000D01*
X0306166Y0233201D02*
X0318117D01*
X0304787Y0234580D02*
Y0240768D01*
Y0234580D02*
X0306166Y0233201D01*
X0273916Y0244000D02*
X0278488D01*
X0300110Y0243000D02*
X0301110Y0244000D01*
X0301555D01*
X0304787Y0240768D01*
X0278488Y0244000D02*
X0283678Y0249190D01*
X0286322D01*
X0288512Y0247000D01*
X0300805D01*
X0304805Y0243000D01*
X0268500Y0277957D02*
X0282957Y0263500D01*
X0415500D02*
X0419691Y0259310D01*
X0282957Y0263500D02*
X0384466D01*
X0385647Y0264681D01*
X0390353D01*
X0391534Y0263500D01*
X0415500D01*
X0357185Y0317142D02*
X0363185Y0311142D01*
X0310185Y0317142D02*
X0316728Y0310598D01*
X0285693Y0314500D02*
X0292937D01*
X0295728Y0317291D01*
X0386751Y0319596D02*
X0387308Y0320153D01*
X0363728Y0310598D02*
X0372726Y0319596D01*
X0386751D01*
X0345984Y0317142D02*
Y0319596D01*
X0345230Y0320350D02*
X0345984Y0319596D01*
X0326480Y0320350D02*
X0345230D01*
X0316728Y0310598D02*
X0326480Y0320350D01*
X0641197Y0162000D02*
X0647244D01*
X0640937Y0161740D02*
X0641197Y0162000D01*
X0627496Y0140260D02*
X0633063D01*
X0625756Y0142000D02*
X0627496Y0140260D01*
X0648000Y0142713D02*
Y0145756D01*
Y0142713D02*
X0650223D01*
X0650862Y0142074D01*
Y0122862D02*
Y0142074D01*
X0646500Y0118500D02*
X0650862Y0122862D01*
X0597500Y0118500D02*
X0646500D01*
X0640937Y0154200D02*
X0648000Y0147137D01*
Y0145756D02*
Y0147137D01*
X0639463Y0154200D02*
X0640937D01*
X0633063Y0147800D02*
X0639463Y0154200D01*
X0627000Y0164000D02*
Y0170000D01*
X0635500Y0178500D01*
X0627000Y0153000D02*
Y0158488D01*
X0632112D01*
X0632600Y0158000D01*
X0649713Y0162000D02*
X0652756D01*
X0649713Y0159777D02*
Y0162000D01*
X0648986Y0159050D02*
X0649713Y0159777D01*
X0639231Y0159050D02*
X0648986D01*
X0630713Y0150531D02*
X0639231Y0159050D01*
X0625351Y0150531D02*
X0630713D01*
X0624138Y0149318D02*
X0625351Y0150531D01*
X0624138Y0145894D02*
Y0149318D01*
X0620244Y0142000D02*
X0624138Y0145894D01*
X0599935Y0121691D02*
X0620244Y0142000D01*
X0596178Y0121691D02*
X0599935D01*
X0264244Y0205744D02*
Y0209000D01*
X0235201Y0127701D02*
Y0129842D01*
X0232000Y0124500D02*
X0235201Y0127701D01*
X0681000Y0164803D02*
Y0170244D01*
X0680937Y0164740D02*
X0681000Y0164803D01*
X0617437Y0213740D02*
X0624484D01*
X0624500Y0213756D01*
X0617437Y0205819D02*
Y0206200D01*
Y0205819D02*
X0624500Y0198756D01*
X0615963Y0206200D02*
X0617437D01*
X0609563Y0199800D02*
X0615963Y0206200D01*
X0603516Y0192260D02*
X0609563D01*
X0603256Y0192000D02*
X0603516Y0192260D01*
X0603500Y0203756D02*
Y0209244D01*
X0604256Y0210000D01*
X0609100D01*
X0603500Y0214756D02*
X0617000Y0228256D01*
Y0229000D01*
X0609563Y0198756D02*
X0616500Y0191819D01*
Y0185500D02*
Y0191819D01*
X0481000Y0147244D02*
X0482000Y0146244D01*
Y0138500D02*
Y0146244D01*
X0609563Y0198756D02*
Y0199800D01*
X0597744Y0192000D02*
X0601520Y0195776D01*
X0605723D01*
X0606672Y0196725D01*
Y0201852D01*
X0613711Y0208891D01*
X0623854D01*
X0624500Y0208244D01*
X0477756Y0133000D02*
X0478756Y0134000D01*
X0482500D01*
X0487000Y0138500D01*
Y0145000D01*
X0492072Y0150072D01*
X0493000Y0146000D02*
X0498000D01*
X0501000Y0187500D02*
X0502500Y0189000D01*
X0488000Y0158895D02*
X0490442Y0156453D01*
X0488000Y0158895D02*
Y0169500D01*
X0496000Y0159000D02*
X0497000Y0158000D01*
X0498000Y0146000D02*
X0528500Y0176500D01*
X0492072Y0150072D02*
X0493059D01*
X0494928Y0151941D01*
Y0154584D01*
X0493059Y0156453D02*
X0494928Y0154584D01*
X0490442Y0156453D02*
X0493059D01*
X0497000Y0188213D02*
X0497874Y0189087D01*
X0497000Y0188213D02*
X0499361Y0185852D01*
X0497000Y0183491D02*
X0499361Y0185852D01*
X0497000Y0163000D02*
Y0183491D01*
X0496000Y0159000D02*
X0496645Y0159645D01*
X0498157D02*
X0501000Y0162488D01*
X0496645Y0159645D02*
X0498157D01*
X0501000Y0162488D02*
Y0187500D01*
X0675491Y0170247D02*
X0681000Y0175756D01*
X0675491Y0158948D02*
Y0170247D01*
X0658000Y0141458D02*
X0675491Y0158948D01*
X0658000Y0105000D02*
Y0141458D01*
X0179194Y0118213D02*
X0246979D01*
X0232500Y0113000D02*
X0243000D01*
X0212573Y0191500D02*
X0238073Y0217000D01*
X0212500D02*
Y0218500D01*
X0216500Y0222500D01*
X0242573D01*
X0247500Y0217573D01*
X0297500Y0107500D02*
X0300590Y0104409D01*
X0418487D01*
X0428090Y0114013D01*
X0278500Y0115000D02*
X0291000Y0102500D01*
X0472500D01*
X0483500Y0113500D01*
X0256000Y0108500D02*
X0266500Y0098000D01*
X0572488D01*
X0596178Y0121691D01*
X0259591Y0096409D02*
X0649409D01*
X0243000Y0113000D02*
X0259591Y0096409D01*
X0649409D02*
X0658000Y0105000D01*
X0597744Y0136335D02*
Y0192000D01*
X0561000Y0099590D02*
X0597744Y0136335D01*
X0275410Y0099590D02*
X0561000D01*
X0255500Y0119500D02*
X0275410Y0099590D01*
X0253244Y0205143D02*
Y0209000D01*
X0241000Y0141000D02*
X0242073D01*
X0247500Y0201649D02*
Y0217573D01*
X0248500Y0200399D02*
X0253244Y0205143D01*
X0246909Y0201058D02*
X0247500Y0201649D01*
X0242073Y0141000D02*
X0248500Y0147427D01*
X0246909Y0152012D02*
Y0201058D01*
X0248500Y0147427D02*
Y0200399D01*
X0232500Y0137603D02*
X0246909Y0152012D01*
X0213774Y0129000D02*
X0232500Y0147726D01*
X0221648Y0129000D02*
X0242500Y0149852D01*
X0232500Y0134000D02*
Y0137603D01*
X0235201Y0129842D02*
X0257500Y0152142D01*
Y0199000D01*
X0264244Y0205744D01*
X0286346Y0218727D02*
X0286440Y0218632D01*
Y0190941D02*
Y0218632D01*
X0262000Y0166500D02*
X0286440Y0190941D01*
X0286346Y0218727D02*
Y0219846D01*
X0262500Y0157000D02*
X0288560Y0183059D01*
Y0218632D01*
X0426500Y0117500D02*
Y0306000D01*
X0411000Y0223500D02*
Y0224500D01*
X0272500Y0157000D02*
X0298559Y0183059D01*
Y0218632D01*
X0301500Y0221573D01*
Y0222500D01*
X0409513Y0219910D02*
X0409590D01*
X0407409Y0222013D02*
X0409513Y0219910D01*
X0295272Y0228772D02*
X0417228D01*
X0297108Y0227181D02*
X0408319D01*
X0301091Y0225590D02*
X0404487D01*
X0402500Y0222500D02*
X0403000Y0222000D01*
X0301500Y0222500D02*
X0402500D01*
X0292500Y0217000D02*
X0301091Y0225590D01*
X0288560Y0218632D02*
X0297108Y0227181D01*
X0408319D02*
X0411000Y0224500D01*
X0286346Y0219846D02*
X0295272Y0228772D01*
X0417228D02*
X0420500Y0225500D01*
X0404487Y0225590D02*
X0407409Y0222668D01*
Y0222013D02*
Y0222668D01*
X0415000Y0214500D02*
X0415500D01*
X0409590Y0219910D02*
X0415000Y0214500D01*
X0454500Y0143077D02*
Y0144500D01*
X0447261Y0135839D02*
X0454500Y0143077D01*
X0437368Y0135839D02*
X0447261D01*
X0437261Y0135945D02*
X0437368Y0135839D01*
D40*
X0348850Y0275850D02*
Y0278500D01*
X0301850Y0275850D02*
Y0278500D01*
X0299000Y0273000D02*
X0301850Y0275850D01*
X0254350D02*
Y0278500D01*
X0252000Y0273500D02*
X0254350Y0275850D01*
X0396350Y0236350D02*
Y0238000D01*
X0393000Y0233000D02*
X0396350Y0236350D01*
X0346000Y0235150D02*
X0348850Y0238000D01*
X0346000Y0233000D02*
Y0235150D01*
X0396579Y0309492D02*
Y0311142D01*
X0349579Y0310992D02*
Y0311142D01*
X0346228Y0307642D02*
X0349579Y0310992D01*
X0346228Y0306642D02*
Y0307642D01*
X0302579Y0309492D02*
Y0311142D01*
X0299228Y0306142D02*
X0302579Y0309492D01*
X0393228Y0273642D02*
X0396579Y0276992D01*
Y0278642D01*
X0396350Y0238000D02*
X0396987Y0238637D01*
X0346000Y0273000D02*
X0348850Y0275850D01*
X0301350Y0235850D02*
Y0237000D01*
X0204000Y0232650D02*
X0207350Y0236000D01*
X0204000Y0231500D02*
Y0232650D01*
X0252000Y0231500D02*
X0254350Y0233850D01*
Y0237000D01*
X0251500Y0273500D02*
X0252000D01*
X0403858Y0306142D02*
X0418000Y0292000D01*
X0194252Y0306440D02*
X0195925D01*
X0187693Y0313000D02*
X0194252Y0306440D01*
X0298000Y0232500D02*
X0301350Y0235850D01*
X0224360Y0247640D02*
X0224879D01*
X0207000Y0265000D02*
X0224360Y0247640D01*
X0232000Y0240000D02*
Y0240519D01*
X0224879Y0247640D02*
X0232000Y0240519D01*
X0195925Y0306440D02*
X0203941Y0298425D01*
Y0273582D02*
Y0298425D01*
X0203441Y0305559D02*
Y0313000D01*
X0195567D02*
X0201350Y0307217D01*
Y0304693D02*
Y0307217D01*
Y0304693D02*
X0207000Y0299043D01*
Y0265000D02*
Y0299043D01*
X0203441Y0305559D02*
X0209090Y0299909D01*
Y0267910D02*
Y0299909D01*
Y0267910D02*
X0225000Y0252000D01*
X0248963D01*
X0249813Y0252850D01*
X0277866Y0252000D02*
X0321000D01*
X0274925Y0254941D02*
X0277866Y0252000D01*
X0225185Y0254941D02*
X0274925D01*
X0211397Y0268728D02*
X0225185Y0254941D01*
X0211228Y0268728D02*
X0211397D01*
X0211228D02*
Y0312887D01*
X0211341Y0313000D01*
X0219241Y0263841D02*
Y0313000D01*
X0227063Y0301147D02*
X0241210Y0287000D01*
X0227063Y0301147D02*
Y0313000D01*
X0270500Y0294500D02*
X0277500Y0287500D01*
X0240000Y0294500D02*
X0270500D01*
X0234937Y0299563D02*
X0240000Y0294500D01*
X0234937Y0299563D02*
Y0313000D01*
X0322019Y0287500D02*
X0324000D01*
X0319379Y0290140D02*
X0322019Y0287500D01*
X0274490Y0296590D02*
X0280941Y0290140D01*
X0259221Y0296590D02*
X0274490D01*
X0242811Y0313000D02*
X0259221Y0296590D01*
X0367519Y0289000D02*
X0370500D01*
X0366379Y0290140D02*
X0367519Y0289000D01*
X0327366Y0290140D02*
X0366379D01*
X0321946Y0295560D02*
X0327366Y0290140D01*
X0250711Y0313000D02*
X0265030Y0298681D01*
X0288453D01*
X0280941Y0290140D02*
X0319379D01*
X0288453Y0298681D02*
X0291575Y0295560D01*
X0321946D01*
X0393228Y0306142D02*
X0396579Y0309492D01*
X0393228Y0306142D02*
X0403858D01*
X0191500Y0245500D02*
Y0250397D01*
X0197341Y0256238D01*
Y0266982D01*
X0203941Y0273582D01*
X0249813Y0252850D02*
X0272150D01*
X0276000Y0249000D01*
X0219241Y0263841D02*
X0226041Y0257041D01*
X0363959D02*
X0368500Y0252500D01*
X0407000Y0261000D02*
X0416500Y0251500D01*
X0391431Y0261000D02*
X0407000D01*
X0226041Y0257041D02*
X0363959D01*
X0251500Y0273500D02*
X0264000Y0261000D01*
X0384569D01*
X0389591Y0262841D02*
X0391431Y0261000D01*
X0384569D02*
X0386409Y0262841D01*
X0389591D01*
X0258611Y0313000D02*
X0271111Y0325500D01*
X0379500D01*
X0382000Y0323000D01*
X0672600Y0161000D02*
Y0176900D01*
X0668500Y0181000D02*
X0672600Y0176900D01*
X0680937Y0152354D02*
Y0157200D01*
X0676000Y0147417D02*
X0680937Y0152354D01*
X0676000Y0115500D02*
Y0124583D01*
D41*
X0548000Y0286000D02*
X0563500Y0270500D01*
X0519000Y0286000D02*
X0548000D01*
X0494362Y0281089D02*
Y0306480D01*
Y0281089D02*
X0497500Y0277951D01*
D45*
X0169500Y0318000D02*
D03*
X0156000D02*
D03*
X0155000Y0112000D02*
D03*
Y0156000D02*
D03*
D46*
X0169500Y0308000D02*
D03*
X0156000D02*
D03*
X0155000Y0122000D02*
D03*
Y0146000D02*
D03*
D47*
X0174404Y0129000D02*
D03*
X0182278D02*
D03*
X0221648D02*
D03*
X0213774D02*
D03*
X0205900D02*
D03*
X0198000D02*
D03*
X0190100D02*
D03*
X0266459Y0313000D02*
D03*
X0274359D02*
D03*
X0258611D02*
D03*
X0250711D02*
D03*
X0242811D02*
D03*
X0234937D02*
D03*
X0227063D02*
D03*
X0187693D02*
D03*
X0195567D02*
D03*
X0203441D02*
D03*
X0211341D02*
D03*
X0219241D02*
D03*
D48*
X0528000Y0119000D02*
D03*
Y0137000D02*
D03*
D49*
X0492000Y0191520D02*
D03*
X0494362Y0306480D02*
D03*
D50*
X0172500Y0157000D02*
D03*
X0182500D02*
D03*
X0192500D02*
D03*
X0202500D02*
D03*
X0212500D02*
D03*
X0222500D02*
D03*
X0232500D02*
D03*
X0242500D02*
D03*
X0252500D02*
D03*
X0262500D02*
D03*
X0272500D02*
D03*
X0282500D02*
D03*
X0292500D02*
D03*
X0302500D02*
D03*
Y0167000D02*
D03*
Y0177000D02*
D03*
Y0187000D02*
D03*
Y0197000D02*
D03*
Y0207000D02*
D03*
Y0217000D02*
D03*
X0292500D02*
D03*
X0282500D02*
D03*
X0272500D02*
D03*
X0262500D02*
D03*
X0252500D02*
D03*
X0242500D02*
D03*
X0232500D02*
D03*
X0222500D02*
D03*
X0212500D02*
D03*
X0202500D02*
D03*
X0192500D02*
D03*
X0182500D02*
D03*
X0172500D02*
D03*
D51*
X0335500Y0282500D02*
D03*
Y0242000D02*
D03*
X0383228Y0282642D02*
D03*
X0393000Y0233000D02*
D03*
X0346000D02*
D03*
X0393228Y0273642D02*
D03*
X0346228Y0306642D02*
D03*
X0299228Y0306142D02*
D03*
X0346000Y0273000D02*
D03*
X0204000Y0231500D02*
D03*
X0199000Y0231000D02*
D03*
X0252000Y0231500D02*
D03*
X0328500Y0250500D02*
D03*
X0332035Y0245309D02*
D03*
X0375000Y0251500D02*
D03*
X0251136Y0249308D02*
D03*
X0384000Y0241000D02*
D03*
X0379500Y0244500D02*
D03*
X0299000Y0273000D02*
D03*
X0388438Y0271993D02*
D03*
X0378000Y0272500D02*
D03*
X0340000Y0270500D02*
D03*
X0331500Y0269500D02*
D03*
X0292500Y0270690D02*
D03*
X0251500Y0273500D02*
D03*
X0237462Y0244119D02*
D03*
X0242000Y0241500D02*
D03*
X0241065Y0247290D02*
D03*
X0284500Y0270500D02*
D03*
X0245500Y0272000D02*
D03*
X0250500Y0289500D02*
D03*
X0418000Y0292000D02*
D03*
X0410728Y0305561D02*
D03*
X0388000Y0305000D02*
D03*
X0356000Y0297500D02*
D03*
X0339500Y0302500D02*
D03*
X0152500Y0249500D02*
D03*
X0162500Y0252000D02*
D03*
X0167500Y0281000D02*
D03*
X0170000Y0300500D02*
D03*
X0153000Y0280500D02*
D03*
X0160500D02*
D03*
X0179012Y0304000D02*
D03*
X0200500Y0285500D02*
D03*
X0188000Y0280500D02*
D03*
X0174000D02*
D03*
X0180500D02*
D03*
X0154000Y0296500D02*
D03*
X0164188Y0299176D02*
D03*
X0164000Y0236000D02*
D03*
X0194500Y0303000D02*
D03*
X0183488Y0298988D02*
D03*
X0188000Y0303500D02*
D03*
X0232000Y0240000D02*
D03*
X0298000Y0232500D02*
D03*
X0288000Y0242000D02*
D03*
X0285000Y0246000D02*
D03*
X0276000Y0249000D02*
D03*
X0321000Y0252000D02*
D03*
X0368500Y0252500D02*
D03*
X0238500Y0282000D02*
D03*
X0241210Y0287000D02*
D03*
X0288500Y0282500D02*
D03*
X0277500Y0287500D02*
D03*
X0324000D02*
D03*
X0370500Y0289000D02*
D03*
X0293500Y0305500D02*
D03*
X0307000Y0303000D02*
D03*
X0285693Y0314500D02*
D03*
X0333000Y0314193D02*
D03*
X0393228Y0306142D02*
D03*
X0382000Y0323000D02*
D03*
X0380000Y0316000D02*
D03*
X0563500Y0270500D02*
D03*
X0569000D02*
D03*
Y0265000D02*
D03*
X0563500D02*
D03*
X0457000Y0153500D02*
D03*
X0454500Y0144500D02*
D03*
X0151000Y0185500D02*
D03*
X0483500Y0113500D02*
D03*
X0278500Y0140500D02*
D03*
X0461500Y0124500D02*
D03*
X0669000Y0272000D02*
D03*
X0663500Y0271000D02*
D03*
X0658500Y0269000D02*
D03*
X0416500Y0251500D02*
D03*
X0429691Y0174510D02*
D03*
X0297500Y0107500D02*
D03*
X0192000Y0240500D02*
D03*
X0191500Y0245500D02*
D03*
X0187000Y0242000D02*
D03*
X0465000Y0138500D02*
D03*
X0491738Y0153262D02*
D03*
X0488000Y0169500D02*
D03*
X0646500Y0118500D02*
D03*
X0597500D02*
D03*
X0482000Y0138500D02*
D03*
X0493000Y0146000D02*
D03*
X0497000Y0158000D02*
D03*
Y0163000D02*
D03*
X0491500Y0162000D02*
D03*
D52*
X0266606Y0124028D02*
D03*
X0164000Y0151000D02*
D03*
X0211500Y0196500D02*
D03*
X0559000Y0172000D02*
D03*
X0417000Y0108000D02*
D03*
X0388000Y0259000D02*
D03*
X0383500Y0204500D02*
D03*
X0226000Y0285500D02*
D03*
X0474000Y0146000D02*
D03*
X0418500Y0268500D02*
D03*
X0276500Y0304500D02*
D03*
X0326500Y0311500D02*
D03*
X0635500Y0178500D02*
D03*
X0232000Y0124500D02*
D03*
X0256000Y0108500D02*
D03*
X0638500Y0135500D02*
D03*
X0668500Y0181000D02*
D03*
X0676000Y0115500D02*
D03*
X0617000Y0229000D02*
D03*
X0616500Y0185500D02*
D03*
X0232500Y0113000D02*
D03*
X0214000Y0173000D02*
D03*
X0177500Y0184500D02*
D03*
X0255500Y0119500D02*
D03*
X0241000Y0141000D02*
D03*
X0232500Y0134000D02*
D03*
X0262000Y0166500D02*
D03*
X0420500Y0225500D02*
D03*
X0411000Y0223500D02*
D03*
X0403000Y0222000D02*
D03*
X0433000Y0149500D02*
D03*
X0415500Y0214500D02*
D03*
X0279000Y0229500D02*
D03*
X0453500Y0189000D02*
D03*
X0281000Y0205000D02*
D03*
X0444000Y0115000D02*
D03*
X0679000Y0243500D02*
D03*
D53*
X0173000Y0205150D02*
D03*
Y0198850D02*
D03*
X0389728Y0310992D02*
D03*
Y0317291D02*
D03*
X0342728Y0310992D02*
D03*
Y0317291D02*
D03*
X0181000Y0205150D02*
D03*
Y0198850D02*
D03*
X0197000Y0205150D02*
D03*
Y0198850D02*
D03*
X0189000Y0205150D02*
D03*
Y0198850D02*
D03*
X0188500Y0291650D02*
D03*
Y0285350D02*
D03*
X0195500Y0291650D02*
D03*
Y0285350D02*
D03*
X0155500Y0291500D02*
D03*
Y0285201D02*
D03*
X0180000Y0291500D02*
D03*
Y0285201D02*
D03*
X0172000Y0291500D02*
D03*
Y0285201D02*
D03*
X0163500Y0291500D02*
D03*
Y0285201D02*
D03*
X0200500Y0235850D02*
D03*
Y0242150D02*
D03*
X0247500Y0236850D02*
D03*
Y0243150D02*
D03*
X0294500Y0236850D02*
D03*
Y0243150D02*
D03*
X0342000Y0237850D02*
D03*
Y0244150D02*
D03*
X0389500Y0237850D02*
D03*
Y0244150D02*
D03*
X0247500Y0278350D02*
D03*
Y0284650D02*
D03*
X0295000Y0278350D02*
D03*
Y0284650D02*
D03*
X0342000Y0278350D02*
D03*
Y0284650D02*
D03*
X0389728Y0278492D02*
D03*
Y0284791D02*
D03*
X0295728Y0310992D02*
D03*
Y0317291D02*
D03*
D54*
X0404118Y0317142D02*
D03*
X0395339D02*
D03*
X0357118D02*
D03*
X0348339D02*
D03*
X0310118D02*
D03*
X0301339D02*
D03*
X0261890Y0243000D02*
D03*
X0253110D02*
D03*
X0214890Y0242000D02*
D03*
X0206110D02*
D03*
X0308890Y0243000D02*
D03*
X0300110D02*
D03*
X0356390Y0244000D02*
D03*
X0347610D02*
D03*
X0403890D02*
D03*
X0395110D02*
D03*
X0261890Y0284500D02*
D03*
X0253110D02*
D03*
X0309390D02*
D03*
X0300610D02*
D03*
X0356390D02*
D03*
X0347610D02*
D03*
X0404118Y0284642D02*
D03*
X0395339D02*
D03*
D55*
X0410728Y0310598D02*
D03*
Y0317685D02*
D03*
X0363728Y0310598D02*
D03*
Y0317685D02*
D03*
X0316728Y0310598D02*
D03*
Y0317685D02*
D03*
X0221500Y0235457D02*
D03*
Y0242543D02*
D03*
X0268500Y0236457D02*
D03*
Y0243543D02*
D03*
X0315500Y0236457D02*
D03*
Y0243543D02*
D03*
X0363000Y0237457D02*
D03*
Y0244543D02*
D03*
X0410500Y0237457D02*
D03*
Y0244543D02*
D03*
X0268500Y0277957D02*
D03*
Y0285043D02*
D03*
X0363000Y0277957D02*
D03*
Y0285043D02*
D03*
X0316000Y0277957D02*
D03*
Y0285043D02*
D03*
X0410728Y0279098D02*
D03*
Y0286185D02*
D03*
D56*
X0447261Y0135839D02*
D03*
Y0129539D02*
D03*
D57*
X0266606Y0124028D02*
D03*
X0241409D02*
D03*
D58*
X0467000Y0146079D02*
D03*
Y0155921D02*
D03*
D59*
X0565941Y0268500D02*
D03*
X0546059D02*
D03*
X0565941Y0242500D02*
D03*
X0546059D02*
D03*
X0565941Y0216500D02*
D03*
X0546059D02*
D03*
X0565941Y0191500D02*
D03*
X0546059D02*
D03*
D60*
X0431606Y0172000D02*
D03*
X0437906D02*
D03*
D61*
X0165563Y0243500D02*
D03*
X0178437D02*
D03*
D62*
X0676000Y0124583D02*
D03*
Y0147417D02*
D03*
D63*
X0443988Y0145000D02*
D03*
X0455012D02*
D03*
D64*
X0507500Y0258049D02*
D03*
X0502500D02*
D03*
X0497500D02*
D03*
X0492500D02*
D03*
X0507500Y0277951D02*
D03*
X0502500D02*
D03*
X0497500D02*
D03*
X0492500D02*
D03*
X0533500Y0258049D02*
D03*
X0528500D02*
D03*
X0523500D02*
D03*
X0518500D02*
D03*
X0533500Y0277951D02*
D03*
X0528500D02*
D03*
X0523500D02*
D03*
X0518500D02*
D03*
D65*
X0565941Y0191500D02*
Y0216500D01*
Y0242500D01*
Y0268500D01*
D66*
X0526000Y0281750D02*
D03*
M02*
