M48
;Layer_Color=9474304
;FILE_FORMAT=2:5
INCH
;TYPE=PLATED
T1F00S00C0.02000
T2F00S00C0.02800
T3F00S00C0.03543
T4F00S00C0.03800
T5F00S00C0.06417
T6F00S00C0.08000
%
T01
X0297500Y0107500
X0278500Y0140500
X0454500Y0144500
X0457000Y0153500
X0465000Y0138500
X0461500Y0124500
X0483500Y0113500
X0482000Y0138500
X0493000Y0146000
X0491738Y0153262
X0597500Y0118500
X0646500
X0658500Y0269000
X0663500Y0271000
X0669000Y0272000
X0569000Y0270500
X0563500
Y0265000
X0569000
X0497000Y0163000
Y0158000
X0491500Y0162000
X0488000Y0169500
X0429691Y0174510
X0416500Y0251500
X0375000
X0368500Y0252500
X0379500Y0244500
X0384000Y0241000
X0393000Y0233000
X0393228Y0273642
X0388438Y0271993
X0378000Y0272500
X0383228Y0282642
X0370500Y0289000
X0356000Y0297500
X0346228Y0306642
X0339500Y0302500
X0335500Y0282500
X0340000Y0270500
X0346000Y0273000
X0331500Y0269500
X0328500Y0250500
X0332035Y0245309
X0335500Y0242000
X0346000Y0233000
X0321000Y0252000
X0324000Y0287500
X0388000Y0305000
X0393228Y0306142
X0410728Y0305561
X0418000Y0292000
X0307000Y0303000
X0299228Y0306142
X0293500Y0305500
X0288500Y0282500
X0292500Y0270690
X0284500Y0270500
X0299000Y0273000
X0277500Y0287500
X0250500Y0289500
X0241210Y0287000
X0238500Y0282000
X0245500Y0272000
X0251500Y0273500
X0251136Y0249308
X0241065Y0247290
X0242000Y0241500
X0237462Y0244119
X0232000Y0240000
X0252000Y0231500
X0276000Y0249000
X0285000Y0246000
X0288000Y0242000
X0298000Y0232500
X0204000Y0231500
X0199000Y0231000
X0192000Y0240500
X0191500Y0245500
X0187000Y0242000
X0164000Y0236000
X0162500Y0252000
X0160500Y0280500
X0167500Y0281000
X0174000Y0280500
X0180500
X0188000
X0200500Y0285500
X0194500Y0303000
X0188000Y0303500
X0183488Y0298988
X0179012Y0304000
X0170000Y0300500
X0164188Y0299176
X0154000Y0296500
X0153000Y0280500
X0152500Y0249500
X0151000Y0185500
X0285693Y0314500
X0333000Y0314193
X0380000Y0316000
X0382000Y0323000
T02
X0174404Y0129000
X0182278
X0190100
X0198000
X0205900
X0213774
X0221648
X0232000Y0124500
X0232500Y0134000
X0241000Y0141000
X0255500Y0119500
X0256000Y0108500
X0266606Y0124028
X0232500Y0113000
X0164000Y0151000
X0433000Y0149500
X0444000Y0115000
X0417000Y0108000
X0474000Y0146000
X0638500Y0135500
X0676000Y0115500
X0668500Y0181000
X0635500Y0178500
X0679000Y0243500
X0617000Y0229000
X0616500Y0185500
X0559000Y0172000
X0453500Y0189000
X0415500Y0214500
X0411000Y0223500
X0403000Y0222000
X0420500Y0225500
X0418500Y0268500
X0388000Y0259000
X0383500Y0204500
X0326500Y0311500
X0276500Y0304500
X0226000Y0285500
X0211500Y0196500
X0214000Y0173000
X0177500Y0184500
X0262000Y0166500
X0281000Y0205000
X0279000Y0229500
X0274359Y0313000
X0266459
X0258611
X0250711
X0242811
X0234937
X0227063
X0219241
X0211341
X0203441
X0195567
X0187693
T03
X0155000Y0112000
Y0122000
Y0146000
Y0156000
X0169500Y0308000
X0156000
Y0318000
X0169500
T04
X0172500Y0157000
X0182500
X0192500
X0202500
X0212500
X0222500
X0232500
X0242500
X0252500
X0262500
X0272500
X0282500
X0292500
X0302500
Y0167000
Y0177000
Y0187000
Y0197000
Y0207000
Y0217000
X0292500
X0282500
X0272500
X0262500
X0252500
X0242500
X0232500
X0222500
X0212500
X0202500
X0192500
X0182500
X0172500
T05
X0492000Y0191520
X0494362Y0306480
T06
X0528000Y0119000
Y0137000
M30
