G04 Layer_Color=8421504*
%FSAX25Y25*%
%MOIN*%
G70*
G01*
G75*
%ADD10R,0.04921X0.13189*%
%ADD11R,0.06299X0.04724*%
%ADD12R,0.41732X0.34646*%
%ADD13R,0.04134X0.16339*%
%ADD14R,0.07874X0.07874*%
%ADD15R,0.31496X0.40945*%
%ADD16R,0.11417X0.03937*%
%ADD17R,0.03543X0.03937*%
%ADD18R,0.01400X0.05800*%
G04:AMPARAMS|DCode=19|XSize=187.01mil|YSize=551.18mil|CornerRadius=93.5mil|HoleSize=0mil|Usage=FLASHONLY|Rotation=0.000|XOffset=0mil|YOffset=0mil|HoleType=Round|Shape=RoundedRectangle|*
%AMROUNDEDRECTD19*
21,1,0.18701,0.36417,0,0,0.0*
21,1,0.00000,0.55118,0,0,0.0*
1,1,0.18701,0.00000,-0.18209*
1,1,0.18701,0.00000,-0.18209*
1,1,0.18701,0.00000,0.18209*
1,1,0.18701,0.00000,0.18209*
%
%ADD19ROUNDEDRECTD19*%
%ADD20R,0.03200X0.03600*%
%ADD21R,0.33400X0.20500*%
%ADD22R,0.03937X0.12598*%
%ADD23R,0.09843X0.03937*%
%ADD24R,0.09843X0.12992*%
%ADD25R,0.09500X0.11100*%
%ADD26R,0.02756X0.03543*%
%ADD27R,0.03543X0.02756*%
%ADD28R,0.03600X0.03200*%
%ADD29O,0.00984X0.07480*%
%ADD30O,0.02756X0.09843*%
%ADD31R,0.04134X0.10236*%
%ADD32R,0.04134X0.01772*%
%ADD33R,0.10787X0.23898*%
%ADD34R,0.12598X0.03937*%
%ADD35R,0.34646X0.41732*%
%ADD36R,0.16339X0.04134*%
%ADD37R,0.11221X0.04921*%
%ADD38R,0.24803X0.21850*%
%ADD44R,0.12000X0.23500*%
%ADD74R,0.06500X0.03700*%
%ADD75R,0.03795X0.06500*%
%ADD76R,0.03745X0.06510*%
%ADD77R,0.03800X0.06510*%
G36*
X0365650Y0160958D02*
X0366607Y0160561D01*
X0367430Y0159930D01*
X0368061Y0159107D01*
X0368458Y0158150D01*
X0368559Y0157380D01*
Y0157122D01*
Y0109878D01*
Y0109620D01*
X0368458Y0108850D01*
X0368061Y0107893D01*
X0367430Y0107070D01*
X0366607Y0106439D01*
X0365650Y0106042D01*
X0364880Y0105941D01*
X0349858D01*
Y0161059D01*
X0364880D01*
X0365650Y0160958D01*
D02*
G37*
G36*
X0332142Y0105941D02*
X0317120D01*
X0316350Y0106042D01*
X0315392Y0106439D01*
X0314570Y0107070D01*
X0313939Y0107893D01*
X0313542Y0108850D01*
X0313441Y0109620D01*
Y0109878D01*
Y0157122D01*
Y0157380D01*
X0313542Y0158150D01*
X0313939Y0159107D01*
X0314570Y0159930D01*
X0315392Y0160561D01*
X0316350Y0160958D01*
X0317120Y0161059D01*
X0332142D01*
Y0105941D01*
D02*
G37*
G36*
X0586500Y0131000D02*
X0586500Y0106500D01*
X0582500Y0102500D01*
X0548500D01*
X0544500Y0106500D01*
Y0149500D01*
X0568000D01*
X0586500Y0131000D01*
D02*
G37*
G36*
X0684000Y0105000D02*
X0681000Y0102000D01*
X0603000Y0102000D01*
X0600500Y0104500D01*
Y0127000D01*
X0643500D01*
Y0109500D01*
X0649500D01*
X0649500Y0127000D01*
X0684000Y0127000D01*
X0684000Y0105000D01*
D02*
G37*
G36*
X0647000Y0325000D02*
X0647000Y0301500D01*
X0584256Y0301500D01*
X0583111Y0302434D01*
X0580076Y0305663D01*
X0578281Y0308193D01*
X0576780Y0310908D01*
X0575593Y0313774D01*
X0574604Y0317433D01*
X0574410Y0318682D01*
X0581787Y0329000D01*
X0642999Y0329000D01*
X0647000Y0325000D01*
D02*
G37*
G36*
X0568000Y0323000D02*
X0568000Y0301500D01*
X0533500D01*
X0519000Y0316000D01*
X0519000Y0329000D01*
X0562000D01*
X0568000Y0323000D01*
D02*
G37*
G36*
X0625500Y0189000D02*
X0608500D01*
Y0222000D01*
X0625500D01*
Y0189000D01*
D02*
G37*
D10*
X0327539Y0315142D02*
D03*
X0303917D02*
D03*
X0374539D02*
D03*
X0350917D02*
D03*
X0421539D02*
D03*
X0397917D02*
D03*
X0421539Y0282642D02*
D03*
X0397917D02*
D03*
X0373811Y0282500D02*
D03*
X0350189D02*
D03*
X0326811D02*
D03*
X0303189D02*
D03*
X0279311D02*
D03*
X0255689D02*
D03*
X0421311Y0242000D02*
D03*
X0397689D02*
D03*
X0373811D02*
D03*
X0350189D02*
D03*
X0232311Y0240000D02*
D03*
X0208689D02*
D03*
X0279311Y0241000D02*
D03*
X0255689D02*
D03*
X0326311D02*
D03*
X0302689D02*
D03*
D11*
X0171087Y0236500D02*
D03*
X0156913D02*
D03*
D12*
X0612500Y0158551D02*
D03*
X0661500D02*
D03*
D13*
X0627500Y0118394D02*
D03*
X0622500D02*
D03*
X0617500D02*
D03*
X0607500D02*
D03*
X0602500D02*
D03*
X0597500D02*
D03*
X0676500D02*
D03*
X0671500D02*
D03*
X0666500D02*
D03*
X0656500D02*
D03*
X0651500D02*
D03*
X0646500D02*
D03*
D14*
X0290000Y0129874D02*
D03*
Y0114126D02*
D03*
D15*
X0329614Y0196500D02*
D03*
D16*
X0366425Y0209886D02*
D03*
Y0203193D02*
D03*
Y0196500D02*
D03*
Y0189807D02*
D03*
Y0183114D02*
D03*
D17*
X0658850Y0316000D02*
D03*
X0665150D02*
D03*
D18*
X0431043Y0157900D02*
D03*
X0433602D02*
D03*
X0436161D02*
D03*
X0438721D02*
D03*
X0441280D02*
D03*
X0443839D02*
D03*
X0446398D02*
D03*
X0448957D02*
D03*
Y0180100D02*
D03*
X0446398D02*
D03*
X0443839D02*
D03*
X0441280D02*
D03*
X0438721D02*
D03*
X0436161D02*
D03*
X0433602D02*
D03*
X0431043D02*
D03*
D19*
X0322791Y0133500D02*
D03*
X0359209D02*
D03*
D20*
X0383988Y0277705D02*
D03*
X0391528D02*
D03*
X0387728Y0286042D02*
D03*
X0340000Y0285900D02*
D03*
X0343800Y0277563D02*
D03*
X0336260D02*
D03*
X0289260D02*
D03*
X0296800D02*
D03*
X0293000Y0285900D02*
D03*
X0245500D02*
D03*
X0249300Y0277563D02*
D03*
X0241760D02*
D03*
X0383760Y0237063D02*
D03*
X0391300D02*
D03*
X0387500Y0245400D02*
D03*
X0340000D02*
D03*
X0343800Y0237063D02*
D03*
X0336260D02*
D03*
X0245500Y0245400D02*
D03*
X0249300Y0237063D02*
D03*
X0241760D02*
D03*
X0194760D02*
D03*
X0202300D02*
D03*
X0198500Y0245400D02*
D03*
X0288760Y0237063D02*
D03*
X0296300D02*
D03*
X0292500Y0245400D02*
D03*
X0336988Y0310205D02*
D03*
X0344528D02*
D03*
X0340728Y0318542D02*
D03*
X0387728D02*
D03*
X0391528Y0310205D02*
D03*
X0383988D02*
D03*
X0293728Y0318542D02*
D03*
X0297528Y0310205D02*
D03*
X0289988D02*
D03*
D21*
X0626500Y0315750D02*
D03*
Y0273250D02*
D03*
D22*
X0398000Y0119646D02*
D03*
Y0150354D02*
D03*
X0397500Y0181146D02*
D03*
Y0211854D02*
D03*
D23*
X0243492Y0133055D02*
D03*
Y0124000D02*
D03*
Y0114945D02*
D03*
D24*
X0267508Y0124000D02*
D03*
D25*
X0505500Y0119000D02*
D03*
X0550441D02*
D03*
X0505500Y0143100D02*
D03*
X0550441D02*
D03*
D26*
X0460756Y0135500D02*
D03*
X0455244D02*
D03*
D27*
X0481000Y0124244D02*
D03*
Y0129756D02*
D03*
X0467000Y0129756D02*
D03*
Y0124244D02*
D03*
X0474000Y0124244D02*
D03*
Y0129756D02*
D03*
X0491000Y0117512D02*
D03*
Y0112000D02*
D03*
Y0128512D02*
D03*
Y0123000D02*
D03*
X0660500Y0256244D02*
D03*
Y0261756D02*
D03*
X0666500Y0256244D02*
D03*
Y0261756D02*
D03*
D28*
X0160937Y0177260D02*
D03*
Y0184800D02*
D03*
X0152600Y0181000D02*
D03*
D29*
X0161831Y0265713D02*
D03*
X0163799D02*
D03*
X0165768D02*
D03*
X0167736D02*
D03*
X0169705D02*
D03*
X0171673D02*
D03*
X0173642D02*
D03*
X0175610D02*
D03*
X0177579D02*
D03*
X0179547D02*
D03*
X0181516D02*
D03*
X0183484D02*
D03*
X0185453D02*
D03*
X0187421D02*
D03*
X0189390D02*
D03*
X0191358D02*
D03*
X0193327D02*
D03*
X0195295D02*
D03*
X0197264D02*
D03*
X0199232D02*
D03*
X0201201D02*
D03*
X0203169D02*
D03*
X0161831Y0292287D02*
D03*
X0163799D02*
D03*
X0165768D02*
D03*
X0167736D02*
D03*
X0169705D02*
D03*
X0171673D02*
D03*
X0173642D02*
D03*
X0175610D02*
D03*
X0177579D02*
D03*
X0179547D02*
D03*
X0181516D02*
D03*
X0183484D02*
D03*
X0185453D02*
D03*
X0187421D02*
D03*
X0189390D02*
D03*
X0191358D02*
D03*
X0193327D02*
D03*
X0195295D02*
D03*
X0197264D02*
D03*
X0199232D02*
D03*
X0201201D02*
D03*
X0203169D02*
D03*
D30*
X0654500Y0283354D02*
D03*
X0659500D02*
D03*
X0664500D02*
D03*
X0669500D02*
D03*
X0654500Y0302646D02*
D03*
X0659500D02*
D03*
X0664500D02*
D03*
X0669500D02*
D03*
D31*
X0501858Y0177000D02*
D03*
X0484142D02*
D03*
D32*
X0462386Y0165516D02*
D03*
Y0162957D02*
D03*
Y0160398D02*
D03*
Y0157839D02*
D03*
Y0155280D02*
D03*
Y0152720D02*
D03*
Y0150161D02*
D03*
Y0147602D02*
D03*
Y0145043D02*
D03*
Y0142484D02*
D03*
X0485614Y0165516D02*
D03*
Y0162957D02*
D03*
Y0160398D02*
D03*
Y0157839D02*
D03*
Y0155280D02*
D03*
Y0152720D02*
D03*
Y0150161D02*
D03*
Y0147602D02*
D03*
Y0145043D02*
D03*
Y0142484D02*
D03*
D33*
X0474000Y0154000D02*
D03*
D34*
X0596854Y0275500D02*
D03*
X0566146D02*
D03*
D35*
X0576449Y0201000D02*
D03*
D36*
X0616606Y0216000D02*
D03*
Y0211000D02*
D03*
Y0206000D02*
D03*
Y0196000D02*
D03*
Y0191000D02*
D03*
Y0186000D02*
D03*
D37*
X0565661Y0248016D02*
D03*
Y0229984D02*
D03*
D38*
X0591449Y0239000D02*
D03*
D44*
X0565500Y0238750D02*
D03*
D74*
X0505650Y0150350D02*
D03*
D75*
X0499150Y0119002D02*
D03*
D76*
X0556980Y0118628D02*
D03*
D77*
X0556970Y0143600D02*
D03*
M02*
