M48
;Layer_Color=9474304
;FILE_FORMAT=2:4
INCH
;TYPE=PLATED
T1F00S00C0.0200
T2F00S00C0.0280
T3F00S00C0.0354
T4F00S00C0.0380
T5F00S00C0.0642
T6F00S00C0.0800
%
T01
X029750Y010750
X027850Y014050
X045450Y014450
X045700Y015350
X046500Y013850
X046150Y012450
X048350Y011350
X048200Y013850
X049300Y014600
X049174Y015326
X059750Y011850
X064650
X065850Y026900
X066350Y027100
X066900Y027200
X056900Y027050
X056350
Y026500
X056900
X049700Y016300
Y015800
X049150Y016200
X048800Y016950
X042969Y017451
X041650Y025150
X037500
X036850Y025250
X037950Y024450
X038400Y024100
X039300Y023300
X039323Y027364
X038844Y027199
X037800Y027250
X038323Y028264
X037050Y028900
X035600Y029750
X034623Y030664
X033950Y030250
X033550Y028250
X034000Y027050
X034600Y027300
X033150Y026950
X032850Y025050
X033203Y024531
X033550Y024200
X034600Y023300
X032100Y025200
X032400Y028750
X038800Y030500
X039323Y030614
X041073Y030556
X041800Y029200
X030700Y030300
X029923Y030614
X029350Y030550
X028850Y028250
X029250Y027069
X028450Y027050
X029900Y027300
X027750Y028750
X025050Y028950
X024121Y028700
X023850Y028200
X024550Y027200
X025150Y027350
X025114Y024931
X024107Y024729
X024200Y024150
X023746Y024412
X023200Y024000
X025200Y023150
X027600Y024900
X028500Y024600
X028800Y024200
X029800Y023250
X020400Y023150
X019900Y023100
X019200Y024050
X019150Y024550
X018700Y024200
X016400Y023600
X016250Y025200
X016050Y028050
X016750Y028100
X017400Y028050
X018050
X018800
X020050Y028550
X019450Y030300
X018800Y030350
X018349Y029899
X017901Y030400
X017000Y030050
X016419Y029918
X015400Y029650
X015300Y028050
X015250Y024950
X015100Y018550
X028569Y031450
X033300Y031419
X038000Y031600
X038200Y032300
T02
X017440Y012900
X018228
X019010
X019800
X020590
X021377
X022165
X023200Y012450
X023250Y013400
X024100Y014100
X025550Y011950
X025600Y010850
X026661Y012403
X023250Y011300
X016400Y015100
X043300Y014950
X044400Y011500
X041700Y010800
X047400Y014600
X063850Y013550
X067600Y011550
X066850Y018100
X063550Y017850
X067900Y024350
X061700Y022900
X061650Y018550
X055900Y017200
X045350Y018900
X041550Y021450
X041100Y022350
X040300Y022200
X042050Y022550
X041850Y026850
X038800Y025900
X038350Y020450
X032650Y031150
X027650Y030450
X022600Y028550
X021150Y019650
X021400Y017300
X017750Y018450
X026200Y016650
X028100Y020500
X027900Y022950
X027436Y031300
X026646
X025861
X025071
X024281
X023494
X022706
X021924
X021134
X020344
X019557
X018769
T03
X015500Y011200
Y012200
Y014600
Y015600
X016950Y030800
X015600
Y031800
X016950
T04
X017250Y015700
X018250
X019250
X020250
X021250
X022250
X023250
X024250
X025250
X026250
X027250
X028250
X029250
X030250
Y016700
Y017700
Y018700
Y019700
Y020700
Y021700
X029250
X028250
X027250
X026250
X025250
X024250
X023250
X022250
X021250
X020250
X019250
X018250
X017250
T05
X049200Y019152
X049436Y030648
T06
X052800Y011900
Y013700
M30
