G04 Layer_Color=8421504*
%FSAX24Y24*%
%MOIN*%
G70*
G01*
G75*
%ADD10R,0.0492X0.1319*%
%ADD11R,0.0630X0.0472*%
%ADD12R,0.4173X0.3465*%
%ADD13R,0.0413X0.1634*%
%ADD14R,0.0787X0.0787*%
%ADD15R,0.3150X0.4094*%
%ADD16R,0.1142X0.0394*%
%ADD17R,0.0354X0.0394*%
%ADD18R,0.0140X0.0580*%
G04:AMPARAMS|DCode=19|XSize=187mil|YSize=551.2mil|CornerRadius=93.5mil|HoleSize=0mil|Usage=FLASHONLY|Rotation=0.000|XOffset=0mil|YOffset=0mil|HoleType=Round|Shape=RoundedRectangle|*
%AMROUNDEDRECTD19*
21,1,0.1870,0.3642,0,0,0.0*
21,1,0.0000,0.5512,0,0,0.0*
1,1,0.1870,0.0000,-0.1821*
1,1,0.1870,0.0000,-0.1821*
1,1,0.1870,0.0000,0.1821*
1,1,0.1870,0.0000,0.1821*
%
%ADD19ROUNDEDRECTD19*%
%ADD20R,0.0320X0.0360*%
%ADD21R,0.3340X0.2050*%
%ADD22R,0.0394X0.1260*%
%ADD23R,0.0984X0.0394*%
%ADD24R,0.0984X0.1299*%
%ADD25R,0.0950X0.1110*%
%ADD26R,0.0276X0.0354*%
%ADD27R,0.0354X0.0276*%
%ADD28R,0.0360X0.0320*%
%ADD29O,0.0098X0.0748*%
%ADD30O,0.0276X0.0984*%
%ADD31R,0.0413X0.1024*%
%ADD32R,0.0413X0.0177*%
%ADD33R,0.1079X0.2390*%
%ADD34R,0.1260X0.0394*%
%ADD35R,0.3465X0.4173*%
%ADD36R,0.1634X0.0413*%
%ADD37R,0.1122X0.0492*%
%ADD38R,0.2480X0.2185*%
%ADD44R,0.1200X0.2350*%
%ADD74R,0.0650X0.0370*%
%ADD75R,0.0380X0.0650*%
%ADD76R,0.0375X0.0651*%
%ADD77R,0.0380X0.0651*%
G36*
X036565Y016096D02*
X036661Y016056D01*
X036743Y015993D01*
X036806Y015911D01*
X036846Y015815D01*
X036856Y015738D01*
Y015712D01*
Y010988D01*
Y010962D01*
X036846Y010885D01*
X036806Y010789D01*
X036743Y010707D01*
X036661Y010644D01*
X036565Y010604D01*
X036488Y010594D01*
X034986D01*
Y016106D01*
X036488D01*
X036565Y016096D01*
D02*
G37*
G36*
X033214Y010594D02*
X031712D01*
X031635Y010604D01*
X031539Y010644D01*
X031457Y010707D01*
X031394Y010789D01*
X031354Y010885D01*
X031344Y010962D01*
Y010988D01*
Y015712D01*
Y015738D01*
X031354Y015815D01*
X031394Y015911D01*
X031457Y015993D01*
X031539Y016056D01*
X031635Y016096D01*
X031712Y016106D01*
X033214D01*
Y010594D01*
D02*
G37*
G36*
X058650Y013100D02*
X058650Y010650D01*
X058250Y010250D01*
X054850D01*
X054450Y010650D01*
Y014950D01*
X056800D01*
X058650Y013100D01*
D02*
G37*
G36*
X068400Y010500D02*
X068100Y010200D01*
X060300Y010200D01*
X060050Y010450D01*
Y012700D01*
X064350D01*
Y010950D01*
X064950D01*
X064950Y012700D01*
X068400Y012700D01*
X068400Y010500D01*
D02*
G37*
G36*
X064700Y032500D02*
X064700Y030150D01*
X058426Y030150D01*
X058311Y030243D01*
X058008Y030566D01*
X057828Y030819D01*
X057678Y031091D01*
X057559Y031377D01*
X057460Y031743D01*
X057441Y031868D01*
X058179Y032900D01*
X064300Y032900D01*
X064700Y032500D01*
D02*
G37*
G36*
X056800Y032300D02*
X056800Y030150D01*
X053350D01*
X051900Y031600D01*
X051900Y032900D01*
X056200D01*
X056800Y032300D01*
D02*
G37*
G36*
X062550Y018900D02*
X060850D01*
Y022200D01*
X062550D01*
Y018900D01*
D02*
G37*
D10*
X032754Y031514D02*
D03*
X030392D02*
D03*
X037454D02*
D03*
X035092D02*
D03*
X042154D02*
D03*
X039792D02*
D03*
X042154Y028264D02*
D03*
X039792D02*
D03*
X037381Y028250D02*
D03*
X035019D02*
D03*
X032681D02*
D03*
X030319D02*
D03*
X027931D02*
D03*
X025569D02*
D03*
X042131Y024200D02*
D03*
X039769D02*
D03*
X037381D02*
D03*
X035019D02*
D03*
X023231Y024000D02*
D03*
X020869D02*
D03*
X027931Y024100D02*
D03*
X025569D02*
D03*
X032631D02*
D03*
X030269D02*
D03*
D11*
X017109Y023650D02*
D03*
X015691D02*
D03*
D12*
X061250Y015855D02*
D03*
X066150D02*
D03*
D13*
X062750Y011839D02*
D03*
X062250D02*
D03*
X061750D02*
D03*
X060750D02*
D03*
X060250D02*
D03*
X059750D02*
D03*
X067650D02*
D03*
X067150D02*
D03*
X066650D02*
D03*
X065650D02*
D03*
X065150D02*
D03*
X064650D02*
D03*
D14*
X029000Y012987D02*
D03*
Y011413D02*
D03*
D15*
X032961Y019650D02*
D03*
D16*
X036643Y020989D02*
D03*
Y020319D02*
D03*
Y019650D02*
D03*
Y018981D02*
D03*
Y018311D02*
D03*
D17*
X065885Y031600D02*
D03*
X066515D02*
D03*
D18*
X043104Y015790D02*
D03*
X043360D02*
D03*
X043616D02*
D03*
X043872D02*
D03*
X044128D02*
D03*
X044384D02*
D03*
X044640D02*
D03*
X044896D02*
D03*
Y018010D02*
D03*
X044640D02*
D03*
X044384D02*
D03*
X044128D02*
D03*
X043872D02*
D03*
X043616D02*
D03*
X043360D02*
D03*
X043104D02*
D03*
D19*
X032279Y013350D02*
D03*
X035921D02*
D03*
D20*
X038399Y027770D02*
D03*
X039153D02*
D03*
X038773Y028604D02*
D03*
X034000Y028590D02*
D03*
X034380Y027756D02*
D03*
X033626D02*
D03*
X028926D02*
D03*
X029680D02*
D03*
X029300Y028590D02*
D03*
X024550D02*
D03*
X024930Y027756D02*
D03*
X024176D02*
D03*
X038376Y023706D02*
D03*
X039130D02*
D03*
X038750Y024540D02*
D03*
X034000D02*
D03*
X034380Y023706D02*
D03*
X033626D02*
D03*
X024550Y024540D02*
D03*
X024930Y023706D02*
D03*
X024176D02*
D03*
X019476D02*
D03*
X020230D02*
D03*
X019850Y024540D02*
D03*
X028876Y023706D02*
D03*
X029630D02*
D03*
X029250Y024540D02*
D03*
X033699Y031020D02*
D03*
X034453D02*
D03*
X034073Y031854D02*
D03*
X038773D02*
D03*
X039153Y031020D02*
D03*
X038399D02*
D03*
X029373Y031854D02*
D03*
X029753Y031020D02*
D03*
X028999D02*
D03*
D21*
X062650Y031575D02*
D03*
Y027325D02*
D03*
D22*
X039800Y011965D02*
D03*
Y015035D02*
D03*
X039750Y018115D02*
D03*
Y021185D02*
D03*
D23*
X024349Y013306D02*
D03*
Y012400D02*
D03*
Y011494D02*
D03*
D24*
X026751Y012400D02*
D03*
D25*
X050550Y011900D02*
D03*
X055044D02*
D03*
X050550Y014310D02*
D03*
X055044D02*
D03*
D26*
X046076Y013550D02*
D03*
X045524D02*
D03*
D27*
X048100Y012424D02*
D03*
Y012976D02*
D03*
X046700Y012976D02*
D03*
Y012424D02*
D03*
X047400Y012424D02*
D03*
Y012976D02*
D03*
X049100Y011751D02*
D03*
Y011200D02*
D03*
Y012851D02*
D03*
Y012300D02*
D03*
X066050Y025624D02*
D03*
Y026176D02*
D03*
X066650Y025624D02*
D03*
Y026176D02*
D03*
D28*
X016094Y017726D02*
D03*
Y018480D02*
D03*
X015260Y018100D02*
D03*
D29*
X016183Y026571D02*
D03*
X016380D02*
D03*
X016577D02*
D03*
X016774D02*
D03*
X016970D02*
D03*
X017167D02*
D03*
X017364D02*
D03*
X017561D02*
D03*
X017758D02*
D03*
X017955D02*
D03*
X018152D02*
D03*
X018348D02*
D03*
X018545D02*
D03*
X018742D02*
D03*
X018939D02*
D03*
X019136D02*
D03*
X019333D02*
D03*
X019530D02*
D03*
X019726D02*
D03*
X019923D02*
D03*
X020120D02*
D03*
X020317D02*
D03*
X016183Y029229D02*
D03*
X016380D02*
D03*
X016577D02*
D03*
X016774D02*
D03*
X016970D02*
D03*
X017167D02*
D03*
X017364D02*
D03*
X017561D02*
D03*
X017758D02*
D03*
X017955D02*
D03*
X018152D02*
D03*
X018348D02*
D03*
X018545D02*
D03*
X018742D02*
D03*
X018939D02*
D03*
X019136D02*
D03*
X019333D02*
D03*
X019530D02*
D03*
X019726D02*
D03*
X019923D02*
D03*
X020120D02*
D03*
X020317D02*
D03*
D30*
X065450Y028335D02*
D03*
X065950D02*
D03*
X066450D02*
D03*
X066950D02*
D03*
X065450Y030265D02*
D03*
X065950D02*
D03*
X066450D02*
D03*
X066950D02*
D03*
D31*
X050186Y017700D02*
D03*
X048414D02*
D03*
D32*
X046239Y016552D02*
D03*
Y016296D02*
D03*
Y016040D02*
D03*
Y015784D02*
D03*
Y015528D02*
D03*
Y015272D02*
D03*
Y015016D02*
D03*
Y014760D02*
D03*
Y014504D02*
D03*
Y014248D02*
D03*
X048561Y016552D02*
D03*
Y016296D02*
D03*
Y016040D02*
D03*
Y015784D02*
D03*
Y015528D02*
D03*
Y015272D02*
D03*
Y015016D02*
D03*
Y014760D02*
D03*
Y014504D02*
D03*
Y014248D02*
D03*
D33*
X047400Y015400D02*
D03*
D34*
X059685Y027550D02*
D03*
X056615D02*
D03*
D35*
X057645Y020100D02*
D03*
D36*
X061661Y021600D02*
D03*
Y021100D02*
D03*
Y020600D02*
D03*
Y019600D02*
D03*
Y019100D02*
D03*
Y018600D02*
D03*
D37*
X056566Y024802D02*
D03*
Y022998D02*
D03*
D38*
X059145Y023900D02*
D03*
D44*
X056550Y023875D02*
D03*
D74*
X050565Y015035D02*
D03*
D75*
X049915Y011900D02*
D03*
D76*
X055698Y011863D02*
D03*
D77*
X055697Y014360D02*
D03*
M02*
