G04 Layer_Physical_Order=1*
G04 Layer_Color=255*
%FSAX24Y24*%
%MOIN*%
G70*
G01*
G75*
%ADD10R,0.0492X0.1319*%
%ADD11R,0.0630X0.0472*%
%ADD12R,0.4173X0.3465*%
%ADD13R,0.0413X0.1634*%
%ADD14R,0.0787X0.0787*%
%ADD15R,0.3150X0.4094*%
%ADD16R,0.1142X0.0394*%
%ADD17R,0.0354X0.0394*%
%ADD18R,0.0140X0.0580*%
G04:AMPARAMS|DCode=19|XSize=187mil|YSize=551.2mil|CornerRadius=93.5mil|HoleSize=0mil|Usage=FLASHONLY|Rotation=0.000|XOffset=0mil|YOffset=0mil|HoleType=Round|Shape=RoundedRectangle|*
%AMROUNDEDRECTD19*
21,1,0.1870,0.3642,0,0,0.0*
21,1,0.0000,0.5512,0,0,0.0*
1,1,0.1870,0.0000,-0.1821*
1,1,0.1870,0.0000,-0.1821*
1,1,0.1870,0.0000,0.1821*
1,1,0.1870,0.0000,0.1821*
%
%ADD19ROUNDEDRECTD19*%
%ADD20R,0.0320X0.0360*%
%ADD21R,0.3340X0.2050*%
%ADD22R,0.0394X0.1260*%
%ADD23R,0.0984X0.0394*%
%ADD24R,0.0984X0.1299*%
%ADD25R,0.0950X0.1110*%
%ADD26R,0.0276X0.0354*%
%ADD27R,0.0354X0.0276*%
%ADD28R,0.0360X0.0320*%
%ADD29O,0.0098X0.0748*%
%ADD30O,0.0276X0.0984*%
%ADD31R,0.0413X0.1024*%
%ADD32R,0.0413X0.0177*%
%ADD33R,0.1079X0.2390*%
%ADD34R,0.1260X0.0394*%
%ADD35R,0.3465X0.4173*%
%ADD36R,0.1634X0.0413*%
%ADD37R,0.1122X0.0492*%
%ADD38R,0.2480X0.2185*%
%ADD39C,0.0100*%
%ADD40C,0.0150*%
%ADD41C,0.0500*%
%ADD42R,0.0630X0.2520*%
%ADD43R,0.1350X0.5100*%
%ADD44R,0.1200X0.2350*%
%ADD45C,0.0591*%
%ADD46R,0.0591X0.0591*%
%ADD47C,0.0630*%
%ADD48C,0.0800*%
%ADD49C,0.0957*%
%ADD50C,0.0570*%
%ADD51C,0.0420*%
%ADD52C,0.0500*%
G36*
X068900Y032450D02*
Y010350D01*
X068000Y009450D01*
X015100D01*
X014100Y010450D01*
Y032600D01*
X015450Y033950D01*
X067400Y033950D01*
X068900Y032450D01*
D02*
G37*
%LPC*%
G36*
X055619Y014965D02*
X055144D01*
Y014950D01*
X055619D01*
Y014965D01*
D02*
G37*
G36*
X045450Y019237D02*
Y019000D01*
X045687D01*
X045656Y019077D01*
X045600Y019150D01*
X045527Y019206D01*
X045450Y019237D01*
D02*
G37*
G36*
X030250Y020047D02*
X030160Y020035D01*
X030076Y020001D01*
X030005Y019945D01*
X029949Y019874D01*
X029915Y019790D01*
X029903Y019700D01*
X029915Y019610D01*
X029949Y019526D01*
X030005Y019455D01*
X030076Y019399D01*
X030160Y019365D01*
X030250Y019353D01*
X030340Y019365D01*
X030424Y019399D01*
X030495Y019455D01*
X030551Y019526D01*
X030585Y019610D01*
X030597Y019700D01*
X030585Y019790D01*
X030551Y019874D01*
X030495Y019945D01*
X030424Y020001D01*
X030340Y020035D01*
X030250Y020047D01*
D02*
G37*
G36*
X034636Y021797D02*
X033061D01*
Y019750D01*
X034636D01*
Y021797D01*
D02*
G37*
G36*
X032861D02*
X031287D01*
Y019750D01*
X032861D01*
Y021797D01*
D02*
G37*
G36*
X043200Y015287D02*
X043123Y015256D01*
X043050Y015200D01*
X042994Y015127D01*
X042963Y015050D01*
X043200D01*
Y015287D01*
D02*
G37*
G36*
X052800Y012363D02*
X052680Y012347D01*
X052568Y012301D01*
X052473Y012227D01*
X052399Y012132D01*
X052353Y012020D01*
X052337Y011900D01*
X052353Y011780D01*
X052399Y011668D01*
X052473Y011573D01*
X052568Y011499D01*
X052680Y011453D01*
X052800Y011437D01*
X052920Y011453D01*
X053032Y011499D01*
X053127Y011573D01*
X053201Y011668D01*
X053247Y011780D01*
X053263Y011900D01*
X053247Y012020D01*
X053201Y012132D01*
X053127Y012227D01*
X053032Y012301D01*
X052920Y012347D01*
X052800Y012363D01*
D02*
G37*
G36*
X049200Y019694D02*
X049060Y019676D01*
X048929Y019621D01*
X048817Y019535D01*
X048731Y019423D01*
X048676Y019292D01*
X048658Y019152D01*
X048670Y019063D01*
X048194Y018587D01*
X048144Y018522D01*
X048113Y018447D01*
X048102Y018366D01*
Y017854D01*
X047757D01*
X047715Y017846D01*
X047678Y017822D01*
X047678Y017822D01*
X046868Y017011D01*
X045800D01*
X045757Y017003D01*
X045721Y016979D01*
X045271Y016529D01*
X045247Y016493D01*
X045239Y016450D01*
X045239Y016450D01*
Y015150D01*
X045239Y015150D01*
X045247Y015107D01*
X045271Y015071D01*
X045624Y014718D01*
X045591Y014681D01*
X045586Y014685D01*
X045520Y014712D01*
X045450Y014721D01*
X045380Y014712D01*
X045355Y014702D01*
X045007Y015050D01*
Y015441D01*
X045025D01*
Y016139D01*
X044554D01*
Y016180D01*
X044484D01*
Y015790D01*
Y015400D01*
X044529D01*
Y014809D01*
X044529Y014809D01*
X044537Y014766D01*
X044561Y014730D01*
X045413Y013878D01*
Y013786D01*
X045328D01*
Y013314D01*
X045718D01*
Y011821D01*
X045718Y011821D01*
X045726Y011779D01*
X045750Y011743D01*
X046921Y010571D01*
X046921Y010571D01*
X046957Y010547D01*
X047000Y010539D01*
X047000Y010539D01*
X049650D01*
X049650Y010539D01*
X049693Y010547D01*
X049729Y010571D01*
X050393Y011236D01*
X051100D01*
X051145Y011255D01*
X051164Y011300D01*
X051164Y017550D01*
X051145Y017595D01*
X050445Y018295D01*
X050400Y018314D01*
X050000Y018314D01*
X049955Y018295D01*
X049945Y018271D01*
X049920D01*
Y017811D01*
X049800D01*
X049757Y017803D01*
X049721Y017779D01*
X049721Y017779D01*
X049421Y017479D01*
X049397Y017443D01*
X049389Y017400D01*
X049389Y017400D01*
Y017087D01*
X049050Y016748D01*
X049047Y016748D01*
X049029Y016767D01*
X049020Y016794D01*
X049035Y016814D01*
X049062Y016880D01*
X049071Y016950D01*
X049062Y017020D01*
X049035Y017086D01*
X048992Y017142D01*
X048936Y017185D01*
X048870Y017212D01*
X048800Y017221D01*
X048730Y017212D01*
X048721Y017209D01*
X048680Y017236D01*
Y017539D01*
X048684Y017544D01*
X048715Y017619D01*
X048726Y017700D01*
Y018237D01*
X049111Y018622D01*
X049200Y018610D01*
X049340Y018628D01*
X049471Y018683D01*
X049583Y018769D01*
X049669Y018881D01*
X049724Y019012D01*
X049742Y019152D01*
X049724Y019292D01*
X049669Y019423D01*
X049583Y019535D01*
X049471Y019621D01*
X049340Y019676D01*
X049200Y019694D01*
D02*
G37*
G36*
X045687Y018800D02*
X045450D01*
Y018563D01*
X045527Y018594D01*
X045600Y018650D01*
X045656Y018723D01*
X045687Y018800D01*
D02*
G37*
G36*
X045250Y019237D02*
X045173Y019206D01*
X045100Y019150D01*
X045044Y019077D01*
X045013Y019000D01*
X045250D01*
Y019237D01*
D02*
G37*
G36*
X028000Y020837D02*
X027923Y020806D01*
X027850Y020750D01*
X027794Y020677D01*
X027763Y020600D01*
X028000D01*
Y020837D01*
D02*
G37*
G36*
X044300Y011400D02*
X044063D01*
X044094Y011323D01*
X044150Y011250D01*
X044223Y011194D01*
X044300Y011163D01*
Y011400D01*
D02*
G37*
G36*
X028200Y020837D02*
Y020600D01*
X028437D01*
X028406Y020677D01*
X028350Y020750D01*
X028277Y020806D01*
X028200Y020837D01*
D02*
G37*
G36*
X027800Y023287D02*
X027723Y023256D01*
X027650Y023200D01*
X027594Y023127D01*
X027563Y023050D01*
X027800D01*
Y023287D01*
D02*
G37*
G36*
X043200Y014850D02*
X042963D01*
X042994Y014773D01*
X043050Y014700D01*
X043123Y014644D01*
X043200Y014613D01*
Y014850D01*
D02*
G37*
G36*
X044737Y011400D02*
X044500D01*
Y011163D01*
X044577Y011194D01*
X044650Y011250D01*
X044706Y011323D01*
X044737Y011400D01*
D02*
G37*
G36*
X043637Y014850D02*
X043400D01*
Y014613D01*
X043477Y014644D01*
X043550Y014700D01*
X043606Y014773D01*
X043637Y014850D01*
D02*
G37*
G36*
X054944Y014965D02*
X054469D01*
Y014950D01*
X054944D01*
Y014965D01*
D02*
G37*
G36*
X028000Y020400D02*
X027763D01*
X027794Y020323D01*
X027850Y020250D01*
X027923Y020194D01*
X028000Y020163D01*
Y020400D01*
D02*
G37*
G36*
X030250Y021047D02*
X030160Y021035D01*
X030076Y021001D01*
X030005Y020945D01*
X029949Y020874D01*
X029915Y020790D01*
X029903Y020700D01*
X029915Y020610D01*
X029949Y020526D01*
X030005Y020455D01*
X030076Y020399D01*
X030160Y020365D01*
X030250Y020353D01*
X030340Y020365D01*
X030424Y020399D01*
X030495Y020455D01*
X030551Y020526D01*
X030585Y020610D01*
X030597Y020700D01*
X030585Y020790D01*
X030551Y020874D01*
X030495Y020945D01*
X030424Y021001D01*
X030340Y021035D01*
X030250Y021047D01*
D02*
G37*
G36*
X028437Y020400D02*
X028200D01*
Y020163D01*
X028277Y020194D01*
X028350Y020250D01*
X028406Y020323D01*
X028437Y020400D01*
D02*
G37*
G36*
X045250Y018800D02*
X045013D01*
X045044Y018723D01*
X045100Y018650D01*
X045173Y018594D01*
X045250Y018563D01*
Y018800D01*
D02*
G37*
G36*
X063750Y013450D02*
X063513D01*
X063544Y013373D01*
X063600Y013300D01*
X063673Y013244D01*
X063750Y013213D01*
Y013450D01*
D02*
G37*
G36*
X029494Y013481D02*
X029100D01*
Y013087D01*
X029494D01*
Y013481D01*
D02*
G37*
G36*
X064187Y013450D02*
X063950D01*
Y013213D01*
X064027Y013244D01*
X064100Y013300D01*
X064156Y013373D01*
X064187Y013450D01*
D02*
G37*
G36*
X029494Y012887D02*
X029100D01*
Y012494D01*
X029494D01*
Y012887D01*
D02*
G37*
G36*
X052800Y014163D02*
X052680Y014147D01*
X052568Y014101D01*
X052473Y014027D01*
X052399Y013932D01*
X052353Y013820D01*
X052337Y013700D01*
X052353Y013580D01*
X052399Y013468D01*
X052473Y013373D01*
X052568Y013299D01*
X052680Y013253D01*
X052800Y013237D01*
X052920Y013253D01*
X053032Y013299D01*
X053127Y013373D01*
X053201Y013468D01*
X053247Y013580D01*
X053263Y013700D01*
X053247Y013820D01*
X053201Y013932D01*
X053127Y014027D01*
X053032Y014101D01*
X052920Y014147D01*
X052800Y014163D01*
D02*
G37*
G36*
X044284Y016180D02*
X044228D01*
Y015790D01*
Y015400D01*
X044284D01*
Y015790D01*
Y016180D01*
D02*
G37*
G36*
X044028D02*
X043958D01*
Y016139D01*
X042975D01*
Y015441D01*
X043958D01*
Y015400D01*
X044028D01*
Y015790D01*
Y016180D01*
D02*
G37*
G36*
X028900Y013481D02*
X028506D01*
Y013087D01*
X028900D01*
Y013481D01*
D02*
G37*
G36*
X022165Y013277D02*
X022067Y013264D01*
X021976Y013227D01*
X021898Y013167D01*
X021838Y013089D01*
X021800Y012998D01*
X021796Y012967D01*
X021746D01*
X021742Y012998D01*
X021704Y013089D01*
X021644Y013167D01*
X021566Y013227D01*
X021475Y013264D01*
X021377Y013277D01*
X021280Y013264D01*
X021189Y013227D01*
X021111Y013167D01*
X021051Y013089D01*
X021013Y012998D01*
X021009Y012967D01*
X020958D01*
X020954Y012998D01*
X020917Y013089D01*
X020857Y013167D01*
X020779Y013227D01*
X020688Y013264D01*
X020590Y013277D01*
X020492Y013264D01*
X020401Y013227D01*
X020323Y013167D01*
X020263Y013089D01*
X020226Y012998D01*
X020220Y012957D01*
X020170D01*
X020164Y012998D01*
X020127Y013089D01*
X020067Y013167D01*
X019989Y013227D01*
X019898Y013264D01*
X019800Y013277D01*
X019702Y013264D01*
X019611Y013227D01*
X019533Y013167D01*
X019473Y013089D01*
X019436Y012998D01*
X019430Y012957D01*
X019380D01*
X019374Y012998D01*
X019337Y013089D01*
X019277Y013167D01*
X019199Y013227D01*
X019108Y013264D01*
X019010Y013277D01*
X018912Y013264D01*
X018821Y013227D01*
X018743Y013167D01*
X018683Y013089D01*
X018646Y012998D01*
X018644Y012987D01*
X018594D01*
X018592Y012998D01*
X018555Y013089D01*
X018495Y013167D01*
X018416Y013227D01*
X018325Y013264D01*
X018228Y013277D01*
X018130Y013264D01*
X018039Y013227D01*
X017961Y013167D01*
X017901Y013089D01*
X017863Y012998D01*
X017859Y012967D01*
X017809D01*
X017805Y012998D01*
X017767Y013089D01*
X017707Y013167D01*
X017629Y013227D01*
X017538Y013264D01*
X017440Y013277D01*
X017343Y013264D01*
X017252Y013227D01*
X017174Y013167D01*
X017114Y013089D01*
X017076Y012998D01*
X017063Y012900D01*
X017076Y012802D01*
X017114Y012711D01*
X017174Y012633D01*
X017252Y012573D01*
X017343Y012536D01*
X017440Y012523D01*
X017538Y012536D01*
X017629Y012573D01*
X017707Y012633D01*
X017767Y012711D01*
X017805Y012802D01*
X017809Y012833D01*
X017859D01*
X017863Y012802D01*
X017901Y012711D01*
X017961Y012633D01*
X018039Y012573D01*
X018130Y012536D01*
X018228Y012523D01*
X018325Y012536D01*
X018416Y012573D01*
X018495Y012633D01*
X018555Y012711D01*
X018592Y012802D01*
X018594Y012813D01*
X018644D01*
X018646Y012802D01*
X018683Y012711D01*
X018743Y012633D01*
X018821Y012573D01*
X018912Y012536D01*
X019010Y012523D01*
X019108Y012536D01*
X019199Y012573D01*
X019277Y012633D01*
X019337Y012711D01*
X019374Y012802D01*
X019380Y012843D01*
X019430D01*
X019436Y012802D01*
X019473Y012711D01*
X019533Y012633D01*
X019611Y012573D01*
X019702Y012536D01*
X019800Y012523D01*
X019898Y012536D01*
X019989Y012573D01*
X020067Y012633D01*
X020127Y012711D01*
X020164Y012802D01*
X020170Y012843D01*
X020220D01*
X020226Y012802D01*
X020263Y012711D01*
X020323Y012633D01*
X020401Y012573D01*
X020492Y012536D01*
X020590Y012523D01*
X020688Y012536D01*
X020779Y012573D01*
X020857Y012633D01*
X020917Y012711D01*
X020954Y012802D01*
X020958Y012833D01*
X021009D01*
X021013Y012802D01*
X021051Y012711D01*
X021111Y012633D01*
X021189Y012573D01*
X021280Y012536D01*
X021377Y012523D01*
X021475Y012536D01*
X021566Y012573D01*
X021644Y012633D01*
X021704Y012711D01*
X021742Y012802D01*
X021746Y012833D01*
X021796D01*
X021800Y012802D01*
X021838Y012711D01*
X021898Y012633D01*
X021976Y012573D01*
X022067Y012536D01*
X022165Y012523D01*
X022262Y012536D01*
X022353Y012573D01*
X022432Y012633D01*
X022492Y012711D01*
X022529Y012802D01*
X022542Y012900D01*
X022529Y012998D01*
X022492Y013089D01*
X022432Y013167D01*
X022353Y013227D01*
X022262Y013264D01*
X022165Y013277D01*
D02*
G37*
G36*
X024941Y013206D02*
X024449D01*
Y013009D01*
X024941D01*
Y013206D01*
D02*
G37*
G36*
X032861Y019550D02*
X031287D01*
Y017503D01*
X032861D01*
Y019550D01*
D02*
G37*
G36*
X015854Y012554D02*
X015146D01*
Y011846D01*
X015854D01*
Y012554D01*
D02*
G37*
G36*
X043400Y015287D02*
Y015050D01*
X043637D01*
X043606Y015127D01*
X043550Y015200D01*
X043477Y015256D01*
X043400Y015287D01*
D02*
G37*
G36*
X030250Y019047D02*
X030160Y019035D01*
X030076Y019001D01*
X030005Y018945D01*
X029949Y018874D01*
X029915Y018790D01*
X029903Y018700D01*
X029915Y018610D01*
X029949Y018526D01*
X030005Y018455D01*
X030076Y018399D01*
X030160Y018365D01*
X030250Y018353D01*
X030340Y018365D01*
X030424Y018399D01*
X030495Y018455D01*
X030551Y018526D01*
X030585Y018610D01*
X030597Y018700D01*
X030585Y018790D01*
X030551Y018874D01*
X030495Y018945D01*
X030424Y019001D01*
X030340Y019035D01*
X030250Y019047D01*
D02*
G37*
G36*
X044300Y011837D02*
X044223Y011806D01*
X044150Y011750D01*
X044094Y011677D01*
X044063Y011600D01*
X044300D01*
Y011837D01*
D02*
G37*
G36*
X044500D02*
Y011600D01*
X044737D01*
X044706Y011677D01*
X044650Y011750D01*
X044577Y011806D01*
X044500Y011837D01*
D02*
G37*
G36*
X028900Y012887D02*
X028506D01*
Y012494D01*
X028900D01*
Y012887D01*
D02*
G37*
G36*
X034636Y019550D02*
X033061D01*
Y017503D01*
X034636D01*
Y019550D01*
D02*
G37*
G36*
X043004Y018400D02*
X042934D01*
Y018110D01*
X043004D01*
Y018400D01*
D02*
G37*
G36*
X015500Y015957D02*
X015408Y015945D01*
X015321Y015910D01*
X015247Y015853D01*
X015190Y015779D01*
X015155Y015692D01*
X015143Y015600D01*
X015155Y015508D01*
X015190Y015421D01*
X015247Y015347D01*
X015321Y015290D01*
X015408Y015255D01*
X015500Y015243D01*
X015592Y015255D01*
X015679Y015290D01*
X015753Y015347D01*
X015810Y015421D01*
X015845Y015508D01*
X015857Y015600D01*
X015845Y015692D01*
X015810Y015779D01*
X015753Y015853D01*
X015679Y015910D01*
X015592Y015945D01*
X015500Y015957D01*
D02*
G37*
G36*
X024941Y013602D02*
X024449D01*
Y013406D01*
X024941D01*
Y013602D01*
D02*
G37*
G36*
X049436Y031190D02*
X049296Y031172D01*
X049165Y031117D01*
X049053Y031031D01*
X048967Y030919D01*
X048913Y030788D01*
X048894Y030648D01*
X048913Y030508D01*
X048967Y030377D01*
X049053Y030265D01*
X049165Y030179D01*
X049296Y030124D01*
X049436Y030106D01*
X049577Y030124D01*
X049707Y030179D01*
X049819Y030265D01*
X049906Y030377D01*
X049960Y030508D01*
X049978Y030648D01*
X049960Y030788D01*
X049906Y030919D01*
X049819Y031031D01*
X049707Y031117D01*
X049577Y031172D01*
X049436Y031190D01*
D02*
G37*
G36*
X060415Y027847D02*
X059785D01*
Y027650D01*
X060415D01*
Y027847D01*
D02*
G37*
G36*
X015995Y030700D02*
X015700D01*
Y030405D01*
X015995D01*
Y030700D01*
D02*
G37*
G36*
X066350Y030838D02*
X066279Y030790D01*
X066226Y030712D01*
X066208Y030619D01*
Y030365D01*
X066350D01*
Y030838D01*
D02*
G37*
G36*
X059585Y027847D02*
X058956D01*
Y027650D01*
X059585D01*
Y027847D01*
D02*
G37*
G36*
Y027450D02*
X058956D01*
Y027253D01*
X059585D01*
Y027450D01*
D02*
G37*
G36*
X041950Y027187D02*
Y026950D01*
X042187D01*
X042156Y027027D01*
X042100Y027100D01*
X042027Y027156D01*
X041950Y027187D01*
D02*
G37*
G36*
X041800Y029471D02*
X041730Y029462D01*
X041664Y029435D01*
X041608Y029392D01*
X041565Y029336D01*
X041538Y029270D01*
X041529Y029200D01*
X041538Y029130D01*
X041565Y029064D01*
X041608Y029008D01*
X041664Y028965D01*
X041730Y028938D01*
X041800Y028929D01*
X041811Y028930D01*
X041849Y028897D01*
Y027546D01*
X042459D01*
Y028983D01*
X042211D01*
X042062Y029131D01*
X042071Y029200D01*
X042062Y029270D01*
X042035Y029336D01*
X041992Y029392D01*
X041936Y029435D01*
X041870Y029462D01*
X041800Y029471D01*
D02*
G37*
G36*
X060415Y027450D02*
X059785D01*
Y027253D01*
X060415D01*
Y027450D01*
D02*
G37*
G36*
X027550Y030787D02*
X027473Y030756D01*
X027400Y030700D01*
X027344Y030627D01*
X027313Y030550D01*
X027550D01*
Y030787D01*
D02*
G37*
G36*
X066415Y031897D02*
X066238D01*
Y031700D01*
X066415D01*
Y031897D01*
D02*
G37*
G36*
X015600Y032157D02*
X015508Y032145D01*
X015421Y032110D01*
X015347Y032053D01*
X015290Y031979D01*
X015255Y031892D01*
X015243Y031800D01*
X015255Y031707D01*
X015283Y031640D01*
X015117Y031474D01*
X015093Y031438D01*
X015084Y031396D01*
X015084Y031396D01*
Y030460D01*
X015084Y030460D01*
X015093Y030417D01*
X015117Y030381D01*
X015289Y030209D01*
Y029895D01*
X015264Y029885D01*
X015208Y029842D01*
X015165Y029786D01*
X015138Y029720D01*
X015129Y029650D01*
X015138Y029580D01*
X015165Y029514D01*
X015208Y029458D01*
X015264Y029415D01*
X015330Y029388D01*
X015400Y029379D01*
X015470Y029388D01*
X015536Y029415D01*
X015592Y029458D01*
X015635Y029514D01*
X015662Y029580D01*
X015671Y029650D01*
X015662Y029720D01*
X015635Y029786D01*
X015592Y029842D01*
X015536Y029885D01*
X015511Y029895D01*
Y030255D01*
X015511Y030255D01*
X015503Y030298D01*
X015479Y030334D01*
X015479Y030334D01*
X015454Y030359D01*
X015473Y030405D01*
X015500D01*
Y030800D01*
Y031195D01*
X015307D01*
Y031350D01*
X015440Y031483D01*
X015508Y031455D01*
X015600Y031443D01*
X015692Y031455D01*
X015779Y031490D01*
X015853Y031547D01*
X015910Y031621D01*
X015945Y031707D01*
X015957Y031800D01*
X015945Y031892D01*
X015910Y031979D01*
X015853Y032053D01*
X015779Y032110D01*
X015692Y032145D01*
X015600Y032157D01*
D02*
G37*
G36*
X064300Y033101D02*
X058179Y033101D01*
X058162Y033097D01*
X058146Y033098D01*
X058124Y033090D01*
X058102Y033085D01*
X058088Y033076D01*
X058073Y033070D01*
X058056Y033055D01*
X058037Y033042D01*
X058028Y033028D01*
X058015Y033017D01*
X057278Y031985D01*
X057262Y031950D01*
X057246Y031916D01*
X057246Y031915D01*
X057245Y031914D01*
X057244Y031876D01*
X057243Y031837D01*
X057262Y031713D01*
X057266Y031702D01*
X057267Y031691D01*
X057366Y031325D01*
X057371Y031313D01*
X057374Y031301D01*
X057493Y031014D01*
X057499Y031005D01*
X057502Y030994D01*
X057652Y030722D01*
X057660Y030714D01*
X057664Y030703D01*
X057844Y030450D01*
X057854Y030441D01*
X057861Y030429D01*
X058165Y030106D01*
X058176Y030098D01*
X058184Y030088D01*
X058299Y029994D01*
X058325Y029981D01*
X058349Y029965D01*
X058359Y029963D01*
X058368Y029958D01*
X058397Y029955D01*
X058426Y029949D01*
X062398Y029949D01*
Y029550D01*
X062417Y029454D01*
X062472Y029372D01*
X062554Y029317D01*
X062639Y029300D01*
Y029250D01*
X062554Y029233D01*
X062472Y029178D01*
X062417Y029096D01*
X062398Y029000D01*
Y028651D01*
X060850D01*
X060773Y028635D01*
X060708Y028592D01*
X060665Y028527D01*
X060649Y028450D01*
Y025012D01*
X060599Y025007D01*
X060585Y025077D01*
X060582Y025082D01*
Y025189D01*
X060457D01*
X060400Y025201D01*
X057900D01*
X057843Y025189D01*
X057708D01*
Y025043D01*
X057699Y025000D01*
Y022883D01*
X057551Y022735D01*
X057501Y022755D01*
Y027800D01*
X057485Y027877D01*
X057442Y027942D01*
X057441Y027942D01*
Y027944D01*
X057439D01*
X057377Y027985D01*
X057300Y028001D01*
X055950D01*
X055873Y027985D01*
X055811Y027944D01*
X055788D01*
Y027912D01*
X055765Y027877D01*
X055749Y027800D01*
Y025050D01*
Y022700D01*
X055765Y022623D01*
X055808Y022558D01*
X055808Y022558D01*
Y022556D01*
X055812D01*
X055873Y022515D01*
X055950Y022499D01*
X057245D01*
X057265Y022449D01*
X057217Y022401D01*
X055900D01*
X055823Y022385D01*
X055820Y022383D01*
X055716D01*
Y022279D01*
X055715Y022277D01*
X055699Y022200D01*
Y018499D01*
X055667Y018451D01*
X055648Y018355D01*
Y017570D01*
X055581Y017519D01*
X055510Y017425D01*
X055465Y017317D01*
X055449Y017200D01*
X055465Y017083D01*
X055510Y016975D01*
X055581Y016881D01*
X055675Y016810D01*
X055783Y016765D01*
X055900Y016749D01*
X056017Y016765D01*
X056125Y016810D01*
X056219Y016881D01*
X056290Y016975D01*
X056335Y017083D01*
X056351Y017200D01*
X056335Y017317D01*
X056290Y017425D01*
X056219Y017519D01*
X056152Y017570D01*
Y017799D01*
X058903D01*
X058930Y017749D01*
X058915Y017727D01*
X058899Y017650D01*
Y014100D01*
X058915Y014023D01*
X058951Y013969D01*
X058967Y013926D01*
D01*
X058979Y013880D01*
X058976Y013855D01*
Y010626D01*
X058602Y010252D01*
X058252D01*
X058250Y010250D01*
X054850D01*
X054848Y010252D01*
X043235D01*
X041024Y012464D01*
Y020185D01*
X041024Y020185D01*
X041015Y020256D01*
X040987Y020323D01*
X040944Y020379D01*
X040144Y021179D01*
Y021876D01*
X040194Y021910D01*
X040219Y021899D01*
X040300Y021888D01*
X040381Y021899D01*
X040456Y021930D01*
X040520Y021980D01*
X040570Y022044D01*
X040588Y022089D01*
X040696D01*
X040873Y021912D01*
X040873Y021912D01*
X040909Y021888D01*
X040951Y021880D01*
X041921D01*
X043748Y020053D01*
Y019473D01*
X043698Y019458D01*
X043695Y019462D01*
X041833Y021325D01*
X041851Y021369D01*
X041862Y021450D01*
X041851Y021531D01*
X041820Y021606D01*
X041770Y021670D01*
X041706Y021720D01*
X041631Y021751D01*
X041550Y021762D01*
X041469Y021751D01*
X041394Y021720D01*
X041330Y021670D01*
X041280Y021606D01*
X041249Y021531D01*
X041238Y021450D01*
X041249Y021369D01*
X041280Y021294D01*
X041330Y021230D01*
X041394Y021180D01*
X041469Y021149D01*
X041550Y021138D01*
X041631Y021149D01*
X041675Y021167D01*
X043505Y019338D01*
Y018359D01*
X043274D01*
Y018400D01*
X043204D01*
Y018010D01*
X043104D01*
Y017910D01*
X042934D01*
Y017718D01*
X042899Y017713D01*
X042833Y017686D01*
X042777Y017643D01*
X042734Y017587D01*
X042707Y017521D01*
X042698Y017451D01*
X042707Y017381D01*
X042734Y017315D01*
X042777Y017259D01*
X042833Y017216D01*
X042899Y017189D01*
X042969Y017180D01*
X043039Y017189D01*
X043105Y017216D01*
X043161Y017259D01*
X043204Y017315D01*
X043231Y017381D01*
X043240Y017451D01*
X043238Y017472D01*
X043427Y017661D01*
X044214D01*
Y017620D01*
X044284D01*
Y018010D01*
Y018400D01*
X044239D01*
Y020349D01*
X044285Y020368D01*
X044529Y020125D01*
Y018400D01*
X044484D01*
Y018010D01*
Y017620D01*
X044554D01*
Y017661D01*
X045025D01*
Y018359D01*
X044751D01*
Y020171D01*
X044742Y020213D01*
X044718Y020249D01*
X044718Y020249D01*
X044390Y020577D01*
X044390Y020580D01*
X044366Y020617D01*
X044366Y020617D01*
X042520Y022462D01*
Y022699D01*
X042520Y022699D01*
X042512Y022741D01*
X042488Y022777D01*
X042488Y022777D01*
X042277Y022988D01*
X042241Y023012D01*
X042199Y023020D01*
X042199Y023020D01*
X041901D01*
X041859Y023012D01*
X041823Y022988D01*
X041384Y022549D01*
X041334Y022552D01*
X041320Y022570D01*
X041256Y022620D01*
X041181Y022651D01*
X041100Y022662D01*
X041019Y022651D01*
X040944Y022620D01*
X040880Y022570D01*
X040830Y022506D01*
X040799Y022431D01*
X040789Y022353D01*
X040788Y022349D01*
X040743Y022311D01*
X040742Y022311D01*
X040742Y022311D01*
X040588D01*
X040570Y022356D01*
X040520Y022420D01*
X040456Y022470D01*
X040381Y022501D01*
X040300Y022512D01*
X040219Y022501D01*
X040144Y022470D01*
X040080Y022420D01*
X040030Y022356D01*
X039999Y022281D01*
X039988Y022200D01*
X039999Y022119D01*
X040023Y022062D01*
X039997Y022012D01*
X039356D01*
Y022000D01*
X039310Y021981D01*
X038813Y022478D01*
X038732Y022533D01*
X038635Y022552D01*
X027939D01*
X027936Y022602D01*
X027991Y022609D01*
X028077Y022644D01*
X028150Y022700D01*
X028206Y022773D01*
X028237Y022850D01*
X027563D01*
X027594Y022773D01*
X027650Y022700D01*
X027723Y022644D01*
X027809Y022609D01*
X027864Y022602D01*
X027861Y022552D01*
X018563D01*
X017624Y023490D01*
Y024653D01*
X017671Y024672D01*
X018270Y024073D01*
Y024068D01*
X018270Y024068D01*
X018278Y024025D01*
X018302Y023989D01*
X019220Y023071D01*
X019220Y023071D01*
X019256Y023047D01*
X019299Y023039D01*
X019637D01*
X019638Y023030D01*
X019665Y022964D01*
X019708Y022908D01*
X019764Y022865D01*
X019830Y022838D01*
X019900Y022829D01*
X019970Y022838D01*
X020036Y022865D01*
X020092Y022908D01*
X020135Y022964D01*
X020137Y022969D01*
X020194Y022976D01*
X020208Y022958D01*
X020264Y022915D01*
X020330Y022888D01*
X020400Y022879D01*
X020470Y022888D01*
X020536Y022915D01*
X020592Y022958D01*
X020635Y023014D01*
X020662Y023080D01*
X020671Y023150D01*
X020662Y023220D01*
X020654Y023240D01*
X020682Y023281D01*
X021174D01*
Y024671D01*
X022926D01*
Y023281D01*
X023536D01*
Y023436D01*
X023582Y023455D01*
X023742Y023296D01*
X023787Y023266D01*
X023839Y023256D01*
X024392D01*
X024444Y023266D01*
X024488Y023296D01*
X024567Y023374D01*
X024596Y023418D01*
X024607Y023471D01*
Y023570D01*
X024711D01*
Y023467D01*
X024863D01*
Y023400D01*
X024874Y023348D01*
X024903Y023303D01*
X024952Y023255D01*
X024938Y023220D01*
X024929Y023150D01*
X024938Y023080D01*
X024965Y023014D01*
X025008Y022958D01*
X025064Y022915D01*
X025130Y022888D01*
X025200Y022879D01*
X025270Y022888D01*
X025336Y022915D01*
X025392Y022958D01*
X025435Y023014D01*
X025462Y023080D01*
X025471Y023150D01*
X025462Y023220D01*
X025435Y023286D01*
X025400Y023331D01*
X025416Y023381D01*
X025874D01*
Y024818D01*
X025403D01*
X025388Y024842D01*
X025377Y024869D01*
X025385Y024931D01*
X025376Y025001D01*
X025349Y025066D01*
X025324Y025098D01*
X025349Y025148D01*
X027399D01*
X027416Y025098D01*
X027408Y025092D01*
X027365Y025036D01*
X027338Y024970D01*
X027329Y024900D01*
X027338Y024830D01*
X027365Y024764D01*
X027408Y024708D01*
X027464Y024665D01*
X027530Y024638D01*
X027600Y024629D01*
X027626Y024606D01*
Y023381D01*
X028236D01*
Y023558D01*
X028282Y023577D01*
X028564Y023296D01*
X028608Y023266D01*
X028660Y023256D01*
X029092D01*
X029144Y023266D01*
X029188Y023296D01*
X029267Y023374D01*
X029296Y023418D01*
X029307Y023471D01*
Y023570D01*
X029411D01*
Y023467D01*
X029493D01*
Y023420D01*
X029504Y023368D01*
X029533Y023323D01*
X029538Y023319D01*
X029529Y023250D01*
X029538Y023180D01*
X029565Y023114D01*
X029608Y023058D01*
X029664Y023015D01*
X029730Y022988D01*
X029800Y022979D01*
X029870Y022988D01*
X029936Y023015D01*
X029992Y023058D01*
X030035Y023114D01*
X030062Y023180D01*
X030071Y023250D01*
X030062Y023320D01*
X030054Y023340D01*
X030082Y023381D01*
X030574D01*
Y024818D01*
X029964D01*
Y024237D01*
X029747D01*
X029469Y024514D01*
Y024779D01*
X029031D01*
Y024417D01*
X028981Y024400D01*
X028936Y024435D01*
X028870Y024462D01*
X028800Y024471D01*
X028792Y024470D01*
X028756Y024516D01*
X028762Y024530D01*
X028771Y024600D01*
X028762Y024670D01*
X028735Y024736D01*
X028692Y024792D01*
X028636Y024835D01*
X028570Y024862D01*
X028500Y024871D01*
X028430Y024862D01*
X028405Y024852D01*
X027996Y025261D01*
X028015Y025307D01*
X029399D01*
X029399Y025307D01*
X029441Y025316D01*
X029478Y025340D01*
X029663Y025525D01*
X032217D01*
X032274Y025468D01*
X032241Y025431D01*
X032236Y025435D01*
X032170Y025462D01*
X032100Y025471D01*
X032030Y025462D01*
X031964Y025435D01*
X031908Y025392D01*
X031865Y025336D01*
X031838Y025270D01*
X031829Y025200D01*
X031838Y025130D01*
X031865Y025064D01*
X031908Y025008D01*
X031964Y024965D01*
X032030Y024938D01*
X032100Y024929D01*
X032169Y024938D01*
X032326Y024781D01*
Y023381D01*
X032936D01*
Y023608D01*
X032982Y023627D01*
X033314Y023296D01*
X033358Y023266D01*
X033410Y023256D01*
X033842D01*
X033894Y023266D01*
X033938Y023296D01*
X034017Y023374D01*
X034046Y023418D01*
X034057Y023471D01*
Y023570D01*
X034161D01*
Y023467D01*
X034254D01*
X034283Y023423D01*
X034338Y023369D01*
X034329Y023300D01*
X034338Y023230D01*
X034365Y023164D01*
X034408Y023108D01*
X034464Y023065D01*
X034530Y023038D01*
X034600Y023029D01*
X034670Y023038D01*
X034736Y023065D01*
X034792Y023108D01*
X034835Y023164D01*
X034862Y023230D01*
X034871Y023300D01*
X034862Y023370D01*
X034837Y023431D01*
X034850Y023468D01*
X034856Y023481D01*
X035324D01*
Y024918D01*
X034714D01*
Y024337D01*
X034397D01*
X034219Y024514D01*
Y024779D01*
X033781D01*
Y024417D01*
X033731Y024400D01*
X033686Y024435D01*
X033620Y024462D01*
X033550Y024471D01*
X033517Y024467D01*
X033472Y024511D01*
X033475Y024531D01*
X033466Y024601D01*
X033438Y024667D01*
X033395Y024723D01*
X033339Y024766D01*
X033280Y024790D01*
Y025182D01*
X033272Y025225D01*
X033248Y025261D01*
X033248Y025261D01*
X032711Y025797D01*
X032730Y025844D01*
X033279D01*
X033279Y025844D01*
X033322Y025852D01*
X033329Y025857D01*
X036636D01*
X036934Y025558D01*
X036931Y025547D01*
X036908Y025514D01*
X036850Y025521D01*
X036780Y025512D01*
X036714Y025485D01*
X036658Y025442D01*
X036615Y025386D01*
X036588Y025320D01*
X036579Y025250D01*
X036588Y025180D01*
X036615Y025114D01*
X036658Y025058D01*
X036714Y025015D01*
X036780Y024988D01*
X036850Y024979D01*
X036919Y024988D01*
X037076Y024831D01*
Y023481D01*
X037686D01*
Y023608D01*
X037732Y023627D01*
X038064Y023296D01*
X038108Y023266D01*
X038160Y023256D01*
X038592D01*
X038644Y023266D01*
X038688Y023296D01*
X038767Y023374D01*
X038796Y023418D01*
X038807Y023471D01*
Y023570D01*
X038911D01*
Y023467D01*
X038994D01*
X039004Y023418D01*
X039033Y023373D01*
X039038Y023369D01*
X039029Y023300D01*
X039038Y023230D01*
X039065Y023164D01*
X039108Y023108D01*
X039164Y023065D01*
X039230Y023038D01*
X039300Y023029D01*
X039370Y023038D01*
X039436Y023065D01*
X039492Y023108D01*
X039535Y023164D01*
X039562Y023230D01*
X039571Y023300D01*
X039562Y023370D01*
X039537Y023431D01*
X039550Y023468D01*
X039556Y023481D01*
X040074D01*
Y024918D01*
X039464D01*
Y024337D01*
X039147D01*
X038969Y024514D01*
Y024779D01*
X038531D01*
Y024382D01*
X038489Y024354D01*
X038470Y024362D01*
X038400Y024371D01*
X038330Y024362D01*
X038264Y024335D01*
X038240Y024316D01*
X038199Y024348D01*
X038212Y024380D01*
X038221Y024450D01*
X038212Y024520D01*
X038185Y024586D01*
X038142Y024642D01*
X038086Y024685D01*
X038020Y024712D01*
X037950Y024721D01*
X037930Y024739D01*
Y025282D01*
X037930Y025282D01*
X037922Y025325D01*
X037898Y025361D01*
X037138Y026121D01*
X037158Y026171D01*
X037926D01*
X037926Y026171D01*
X037969Y026179D01*
X038005Y026203D01*
X038749Y026947D01*
X038774Y026937D01*
X038844Y026928D01*
X038914Y026937D01*
X038979Y026964D01*
X039036Y027007D01*
X039079Y027064D01*
X039106Y027129D01*
X039159Y027151D01*
X039187Y027129D01*
X039253Y027102D01*
X039323Y027093D01*
X039393Y027102D01*
X039459Y027129D01*
X039515Y027172D01*
X039558Y027228D01*
X039585Y027294D01*
X039594Y027364D01*
X039585Y027434D01*
X039560Y027496D01*
X039573Y027532D01*
X039579Y027546D01*
X040097D01*
Y028983D01*
X039487D01*
Y028401D01*
X039169D01*
X038992Y028578D01*
Y028843D01*
X038554D01*
Y028481D01*
X038504Y028464D01*
X038459Y028499D01*
X038393Y028526D01*
X038323Y028536D01*
X038253Y028526D01*
X038187Y028499D01*
X038131Y028456D01*
X038088Y028400D01*
X038061Y028334D01*
X038051Y028264D01*
X038061Y028194D01*
X038088Y028128D01*
X038131Y028072D01*
X038159Y028051D01*
X038180Y028010D01*
Y027719D01*
X038134Y027699D01*
X037686Y028147D01*
Y028969D01*
X037312D01*
X037312Y028970D01*
X037285Y029036D01*
X037242Y029092D01*
X037221Y029108D01*
X037238Y029158D01*
X039786D01*
X039786Y029158D01*
X039828Y029166D01*
X039864Y029190D01*
X040978Y030304D01*
X041003Y030294D01*
X041073Y030285D01*
X041143Y030294D01*
X041209Y030321D01*
X041265Y030364D01*
X041308Y030420D01*
X041335Y030486D01*
X041344Y030556D01*
X041335Y030626D01*
X041308Y030692D01*
X041265Y030748D01*
X041209Y030791D01*
X041143Y030818D01*
X041073Y030827D01*
X041003Y030818D01*
X040937Y030791D01*
X040881Y030748D01*
X040838Y030692D01*
X040811Y030626D01*
X040801Y030556D01*
X040811Y030486D01*
X040821Y030461D01*
X039740Y029380D01*
X037975D01*
X037956Y029426D01*
X038763Y030234D01*
X038800Y030229D01*
X038870Y030238D01*
X038936Y030265D01*
X038992Y030308D01*
X039035Y030364D01*
X039062Y030430D01*
X039062Y030430D01*
X039114Y030444D01*
X039131Y030422D01*
X039187Y030379D01*
X039253Y030352D01*
X039323Y030343D01*
X039393Y030352D01*
X039459Y030379D01*
X039515Y030422D01*
X039558Y030478D01*
X039585Y030544D01*
X039594Y030614D01*
X039585Y030684D01*
X039560Y030746D01*
X039573Y030782D01*
X039579Y030796D01*
X040097D01*
Y032073D01*
X040143Y032092D01*
X040818Y031418D01*
X040862Y031388D01*
X040915Y031377D01*
X041849D01*
Y030796D01*
X042459D01*
Y032233D01*
X041849D01*
Y031651D01*
X040971D01*
X039875Y032747D01*
X039831Y032776D01*
X039779Y032787D01*
X037467D01*
X037415Y032776D01*
X037370Y032747D01*
X035461Y030838D01*
X035397D01*
Y032233D01*
X034787D01*
Y031651D01*
X034469D01*
X034292Y031828D01*
Y032093D01*
X033854D01*
Y031768D01*
X033808Y031749D01*
X033152Y032404D01*
X033108Y032434D01*
X033056Y032444D01*
X030090D01*
X030052Y032437D01*
X027646D01*
X027594Y032426D01*
X027549Y032397D01*
X026796Y031643D01*
X026744Y031664D01*
X026646Y031677D01*
X026548Y031664D01*
X026457Y031627D01*
X026379Y031567D01*
X026319Y031489D01*
X026281Y031398D01*
X026279Y031377D01*
X026228D01*
X026226Y031398D01*
X026188Y031489D01*
X026128Y031567D01*
X026050Y031627D01*
X025959Y031664D01*
X025861Y031677D01*
X025763Y031664D01*
X025672Y031627D01*
X025594Y031567D01*
X025534Y031489D01*
X025497Y031398D01*
X025491Y031357D01*
X025441D01*
X025436Y031398D01*
X025398Y031489D01*
X025338Y031567D01*
X025260Y031627D01*
X025169Y031664D01*
X025071Y031677D01*
X024973Y031664D01*
X024882Y031627D01*
X024804Y031567D01*
X024744Y031489D01*
X024707Y031398D01*
X024701Y031357D01*
X024651D01*
X024646Y031398D01*
X024608Y031489D01*
X024548Y031567D01*
X024470Y031627D01*
X024379Y031664D01*
X024281Y031677D01*
X024183Y031664D01*
X024092Y031627D01*
X024014Y031567D01*
X023954Y031489D01*
X023917Y031398D01*
X023913Y031367D01*
X023862D01*
X023858Y031398D01*
X023820Y031489D01*
X023760Y031567D01*
X023682Y031627D01*
X023591Y031664D01*
X023494Y031677D01*
X023396Y031664D01*
X023305Y031627D01*
X023227Y031567D01*
X023167Y031489D01*
X023129Y031398D01*
X023125Y031367D01*
X023075D01*
X023071Y031398D01*
X023033Y031489D01*
X022973Y031567D01*
X022895Y031627D01*
X022804Y031664D01*
X022706Y031677D01*
X022609Y031664D01*
X022518Y031627D01*
X022440Y031567D01*
X022380Y031489D01*
X022342Y031398D01*
X022340Y031387D01*
X022290D01*
X022289Y031398D01*
X022251Y031489D01*
X022191Y031567D01*
X022113Y031627D01*
X022022Y031664D01*
X021924Y031677D01*
X021826Y031664D01*
X021735Y031627D01*
X021657Y031567D01*
X021597Y031489D01*
X021560Y031398D01*
X021554Y031357D01*
X021504D01*
X021499Y031398D01*
X021461Y031489D01*
X021401Y031567D01*
X021323Y031627D01*
X021232Y031664D01*
X021134Y031677D01*
X021036Y031664D01*
X020945Y031627D01*
X020867Y031567D01*
X020807Y031489D01*
X020770Y031398D01*
X020764Y031357D01*
X020714D01*
X020709Y031398D01*
X020671Y031489D01*
X020611Y031567D01*
X020533Y031627D01*
X020442Y031664D01*
X020344Y031677D01*
X020246Y031664D01*
X020155Y031627D01*
X020077Y031567D01*
X020017Y031489D01*
X019980Y031398D01*
X019976Y031367D01*
X019925D01*
X019921Y031398D01*
X019883Y031489D01*
X019823Y031567D01*
X019745Y031627D01*
X019654Y031664D01*
X019557Y031677D01*
X019459Y031664D01*
X019368Y031627D01*
X019290Y031567D01*
X019230Y031489D01*
X019192Y031398D01*
X019188Y031367D01*
X019138D01*
X019134Y031398D01*
X019096Y031489D01*
X019036Y031567D01*
X018958Y031627D01*
X018867Y031664D01*
X018769Y031677D01*
X018672Y031664D01*
X018581Y031627D01*
X018503Y031567D01*
X018443Y031489D01*
X018405Y031398D01*
X018392Y031300D01*
X018405Y031202D01*
X018443Y031111D01*
X018503Y031033D01*
X018581Y030973D01*
X018672Y030936D01*
X018769Y030923D01*
X018867Y030936D01*
X018958Y030973D01*
X019036Y031033D01*
X019096Y031111D01*
X019134Y031202D01*
X019138Y031233D01*
X019188D01*
X019192Y031202D01*
X019230Y031111D01*
X019290Y031033D01*
X019368Y030973D01*
X019459Y030936D01*
X019557Y030923D01*
X019654Y030936D01*
X019745Y030973D01*
X019823Y031033D01*
X019883Y031111D01*
X019921Y031202D01*
X019925Y031233D01*
X019976D01*
X019980Y031202D01*
X020017Y031111D01*
X020077Y031033D01*
X020155Y030973D01*
X020246Y030936D01*
X020344Y030923D01*
X020442Y030936D01*
X020533Y030973D01*
X020611Y031033D01*
X020671Y031111D01*
X020709Y031202D01*
X020714Y031243D01*
X020764D01*
X020770Y031202D01*
X020807Y031111D01*
X020867Y031033D01*
X020945Y030973D01*
X021036Y030936D01*
X021134Y030923D01*
X021232Y030936D01*
X021323Y030973D01*
X021401Y031033D01*
X021461Y031111D01*
X021499Y031202D01*
X021504Y031243D01*
X021554D01*
X021560Y031202D01*
X021597Y031111D01*
X021657Y031033D01*
X021735Y030973D01*
X021826Y030936D01*
X021924Y030923D01*
X022022Y030936D01*
X022113Y030973D01*
X022191Y031033D01*
X022251Y031111D01*
X022289Y031202D01*
X022290Y031213D01*
X022340D01*
X022342Y031202D01*
X022380Y031111D01*
X022440Y031033D01*
X022518Y030973D01*
X022609Y030936D01*
X022706Y030923D01*
X022804Y030936D01*
X022895Y030973D01*
X022973Y031033D01*
X023033Y031111D01*
X023071Y031202D01*
X023075Y031233D01*
X023125D01*
X023129Y031202D01*
X023167Y031111D01*
X023227Y031033D01*
X023305Y030973D01*
X023396Y030936D01*
X023494Y030923D01*
X023591Y030936D01*
X023682Y030973D01*
X023760Y031033D01*
X023820Y031111D01*
X023858Y031202D01*
X023862Y031233D01*
X023913D01*
X023917Y031202D01*
X023954Y031111D01*
X024014Y031033D01*
X024092Y030973D01*
X024183Y030936D01*
X024281Y030923D01*
X024379Y030936D01*
X024470Y030973D01*
X024548Y031033D01*
X024608Y031111D01*
X024646Y031202D01*
X024651Y031243D01*
X024701D01*
X024707Y031202D01*
X024744Y031111D01*
X024804Y031033D01*
X024882Y030973D01*
X024973Y030936D01*
X025071Y030923D01*
X025169Y030936D01*
X025260Y030973D01*
X025338Y031033D01*
X025398Y031111D01*
X025436Y031202D01*
X025441Y031243D01*
X025491D01*
X025497Y031202D01*
X025534Y031111D01*
X025594Y031033D01*
X025672Y030973D01*
X025763Y030936D01*
X025861Y030923D01*
X025959Y030936D01*
X026050Y030973D01*
X026128Y031033D01*
X026188Y031111D01*
X026226Y031202D01*
X026228Y031223D01*
X026279D01*
X026281Y031202D01*
X026319Y031111D01*
X026379Y031033D01*
X026457Y030973D01*
X026548Y030936D01*
X026646Y030923D01*
X026744Y030936D01*
X026835Y030973D01*
X026913Y031033D01*
X026973Y031111D01*
X027010Y031202D01*
X027016Y031243D01*
X027066D01*
X027071Y031202D01*
X027109Y031111D01*
X027169Y031033D01*
X027247Y030973D01*
X027338Y030936D01*
X027436Y030923D01*
X027534Y030936D01*
X027625Y030973D01*
X027703Y031033D01*
X027763Y031111D01*
X027800Y031202D01*
X027813Y031300D01*
X027800Y031398D01*
X027779Y031450D01*
X027993Y031663D01*
X028076D01*
X028106Y031657D01*
X028326D01*
X028351Y031607D01*
X028334Y031586D01*
X028307Y031520D01*
X028298Y031450D01*
X028307Y031380D01*
X028334Y031314D01*
X028377Y031258D01*
X028434Y031215D01*
X028499Y031188D01*
X028569Y031179D01*
X028640Y031188D01*
X028664Y031198D01*
X028780Y031082D01*
Y030781D01*
X029134D01*
X029150Y030731D01*
X029115Y030686D01*
X029088Y030620D01*
X029079Y030550D01*
X029088Y030480D01*
X029115Y030414D01*
X029133Y030391D01*
X028854Y030111D01*
X027866D01*
X027849Y030161D01*
X027900Y030200D01*
X027956Y030273D01*
X027987Y030350D01*
X027313D01*
X027344Y030273D01*
X027400Y030200D01*
X027451Y030161D01*
X027434Y030111D01*
X025622D01*
X025555Y030179D01*
X025518Y030203D01*
X025476Y030211D01*
X025476Y030211D01*
X020940D01*
X020725Y030427D01*
X020689Y030451D01*
X020646Y030459D01*
X020646Y030459D01*
X019988D01*
X019988Y030459D01*
X019945Y030451D01*
X019909Y030427D01*
X019810Y030327D01*
X019757Y030345D01*
X019752Y030381D01*
X019721Y030456D01*
X019671Y030521D01*
X019606Y030571D01*
X019550Y030594D01*
Y030300D01*
X019350D01*
Y030594D01*
X019294Y030571D01*
X019264Y030548D01*
X019198Y030560D01*
X019198Y030561D01*
X019011Y030748D01*
X018975Y030772D01*
X018932Y030780D01*
X018932Y030780D01*
X018930D01*
X018895Y030787D01*
X018895Y030787D01*
X018490D01*
X018479Y030798D01*
X018443Y030822D01*
X018401Y030830D01*
X018401Y030830D01*
X017769D01*
X017727Y030822D01*
X017690Y030798D01*
X017504Y030611D01*
X017479Y030575D01*
X017471Y030532D01*
X017471Y030532D01*
Y030463D01*
X017410Y030402D01*
X017393Y030402D01*
X017345Y030449D01*
X017345Y030700D01*
X016950D01*
Y030800D01*
X016850D01*
Y031195D01*
X016573D01*
X016551Y031244D01*
X016790Y031483D01*
X016858Y031455D01*
X016950Y031443D01*
X017042Y031455D01*
X017129Y031490D01*
X017203Y031547D01*
X017260Y031621D01*
X017295Y031707D01*
X017307Y031800D01*
X017295Y031892D01*
X017260Y031979D01*
X017203Y032053D01*
X017129Y032110D01*
X017042Y032145D01*
X016950Y032157D01*
X016858Y032145D01*
X016771Y032110D01*
X016697Y032053D01*
X016640Y031979D01*
X016605Y031892D01*
X016593Y031800D01*
X016605Y031707D01*
X016633Y031640D01*
X016340Y031347D01*
X016316Y031311D01*
X016308Y031269D01*
X016308Y031269D01*
Y030163D01*
X016283Y030153D01*
X016227Y030109D01*
X016184Y030053D01*
X016157Y029988D01*
X016147Y029918D01*
X016157Y029847D01*
X016184Y029782D01*
X016227Y029726D01*
X016249Y029709D01*
X016255Y029658D01*
X016238Y029647D01*
X016225Y029656D01*
X016183Y029664D01*
X016141Y029656D01*
X016105Y029632D01*
X016081Y029596D01*
X016073Y029554D01*
Y029233D01*
X016072Y029229D01*
Y028979D01*
X015395Y028302D01*
X015370Y028312D01*
X015300Y028321D01*
X015230Y028312D01*
X015164Y028285D01*
X015108Y028242D01*
X015065Y028186D01*
X015038Y028120D01*
X015029Y028050D01*
X015038Y027980D01*
X015065Y027914D01*
X015108Y027858D01*
X015164Y027815D01*
X015189Y027805D01*
Y026958D01*
X014375Y026144D01*
X014351Y026108D01*
X014343Y026065D01*
X014343Y026065D01*
Y017646D01*
X014343Y017646D01*
X014351Y017604D01*
X014375Y017568D01*
X016495Y015447D01*
X016491Y015433D01*
X016469Y015403D01*
X016400Y015412D01*
X016319Y015401D01*
X016244Y015370D01*
X016180Y015320D01*
X016130Y015256D01*
X016099Y015181D01*
X016088Y015100D01*
X016099Y015019D01*
X016117Y014975D01*
X015901Y014758D01*
X015854Y014777D01*
Y014954D01*
X015146D01*
Y014246D01*
X015854D01*
Y014482D01*
X015900Y014489D01*
X015943Y014497D01*
X015979Y014521D01*
X016275Y014817D01*
X016319Y014799D01*
X016400Y014788D01*
X016481Y014799D01*
X016556Y014830D01*
X016620Y014880D01*
X016670Y014944D01*
X016701Y015019D01*
X016712Y015100D01*
X016703Y015169D01*
X016733Y015191D01*
X016747Y015195D01*
X017371Y014571D01*
X017407Y014547D01*
X017450Y014539D01*
X017450Y014539D01*
X028116D01*
X028135Y014493D01*
X027945Y014302D01*
X027920Y014312D01*
X027850Y014321D01*
X027780Y014312D01*
X027714Y014285D01*
X027658Y014242D01*
X027615Y014186D01*
X027588Y014120D01*
X027579Y014050D01*
X027588Y013980D01*
X027615Y013914D01*
X027658Y013858D01*
X027714Y013815D01*
X027780Y013788D01*
X027850Y013779D01*
X027920Y013788D01*
X027986Y013815D01*
X028042Y013858D01*
X028085Y013914D01*
X028112Y013980D01*
X028121Y014050D01*
X028112Y014120D01*
X028102Y014145D01*
X028316Y014359D01*
X029802D01*
X029802Y014359D01*
X029845Y014368D01*
X029881Y014392D01*
X030912Y015423D01*
X030912Y015423D01*
X030936Y015459D01*
X030945Y015501D01*
X030945Y015501D01*
Y016674D01*
X030945Y016674D01*
X030936Y016716D01*
X030912Y016753D01*
X030912Y016753D01*
X030346Y017319D01*
X030361Y017374D01*
X030424Y017399D01*
X030495Y017455D01*
X030551Y017526D01*
X030585Y017610D01*
X030597Y017700D01*
X030585Y017790D01*
X030551Y017874D01*
X030495Y017945D01*
X030424Y018001D01*
X030340Y018035D01*
X030250Y018047D01*
X030160Y018035D01*
X030076Y018001D01*
X030005Y017945D01*
X029949Y017874D01*
X029915Y017790D01*
X029905Y017716D01*
X029857Y017693D01*
X027611Y019939D01*
Y021450D01*
X027603Y021493D01*
X027579Y021529D01*
X027579Y021529D01*
X027559Y021548D01*
X027585Y021610D01*
X027597Y021700D01*
X027585Y021790D01*
X027551Y021874D01*
X027495Y021945D01*
X027451Y021980D01*
X027468Y022030D01*
X028032D01*
X028049Y021980D01*
X028005Y021945D01*
X027949Y021874D01*
X027915Y021790D01*
X027903Y021700D01*
X027915Y021610D01*
X027949Y021526D01*
X028005Y021455D01*
X028076Y021399D01*
X028160Y021365D01*
X028250Y021353D01*
X028340Y021365D01*
X028424Y021399D01*
X028495Y021455D01*
X028551Y021526D01*
X028585Y021610D01*
X028597Y021700D01*
X028585Y021790D01*
X028551Y021874D01*
X028495Y021945D01*
X028451Y021980D01*
X028468Y022030D01*
X028763D01*
X028941Y021852D01*
X028915Y021790D01*
X028903Y021700D01*
X028915Y021610D01*
X028949Y021526D01*
X029005Y021455D01*
X029076Y021399D01*
X029160Y021365D01*
X029250Y021353D01*
X029340Y021365D01*
X029424Y021399D01*
X029495Y021455D01*
X029551Y021526D01*
X029585Y021610D01*
X029597Y021700D01*
X029585Y021790D01*
X029551Y021874D01*
X029495Y021945D01*
X029426Y021998D01*
X029426Y022004D01*
X029450Y022048D01*
X030050D01*
X030074Y022004D01*
X030074Y021998D01*
X030005Y021945D01*
X029949Y021874D01*
X029915Y021790D01*
X029903Y021700D01*
X029915Y021610D01*
X029949Y021526D01*
X030005Y021455D01*
X030076Y021399D01*
X030160Y021365D01*
X030250Y021353D01*
X030340Y021365D01*
X030424Y021399D01*
X030495Y021455D01*
X030551Y021526D01*
X030585Y021610D01*
X030597Y021700D01*
X030585Y021790D01*
X030551Y021874D01*
X030495Y021945D01*
X030426Y021998D01*
X030426Y022004D01*
X030450Y022048D01*
X038531D01*
X039096Y021483D01*
X039077Y021437D01*
X037819D01*
X037628Y021628D01*
X037546Y021683D01*
X037450Y021702D01*
X035650D01*
X035554Y021683D01*
X035472Y021628D01*
X035072Y021228D01*
X035017Y021146D01*
X034998Y021050D01*
Y019050D01*
X035017Y018954D01*
X035072Y018872D01*
X035772Y018172D01*
X035854Y018117D01*
X035875Y018113D01*
Y017918D01*
X035828Y017911D01*
X035462D01*
X035419Y017903D01*
X035383Y017879D01*
X035383Y017879D01*
X033324Y015820D01*
X033278Y015839D01*
Y016106D01*
X033259Y016151D01*
X033214Y016170D01*
X031712D01*
X031708Y016168D01*
X031704Y016169D01*
X031627Y016159D01*
X031619Y016155D01*
X031611D01*
X031515Y016115D01*
X031509Y016109D01*
X031500Y016107D01*
X031418Y016044D01*
X031414Y016036D01*
X031406Y016032D01*
X031343Y015950D01*
X031341Y015941D01*
X031335Y015935D01*
X031295Y015839D01*
Y015831D01*
X031291Y015823D01*
X031281Y015746D01*
X031282Y015742D01*
X031280Y015738D01*
Y015712D01*
Y012508D01*
X030296Y011524D01*
X029453D01*
Y011865D01*
X028547D01*
Y010960D01*
X029453D01*
Y011301D01*
X030342D01*
X030342Y011301D01*
X030384Y011310D01*
X030420Y011334D01*
X031234Y012148D01*
X031280Y012128D01*
Y010962D01*
X031282Y010958D01*
X031281Y010954D01*
X031291Y010877D01*
X031295Y010869D01*
Y010861D01*
X031335Y010765D01*
X031341Y010759D01*
X031343Y010750D01*
X031406Y010668D01*
X031414Y010664D01*
X031418Y010656D01*
X031500Y010593D01*
X031509Y010591D01*
X031515Y010585D01*
X031572Y010561D01*
X031562Y010511D01*
X029963D01*
X029947Y010547D01*
X029944Y010561D01*
X029985Y010614D01*
X030012Y010680D01*
X030021Y010750D01*
X030012Y010820D01*
X029985Y010886D01*
X029942Y010942D01*
X029886Y010985D01*
X029820Y011012D01*
X029750Y011021D01*
X029680Y011012D01*
X029614Y010985D01*
X029558Y010942D01*
X029515Y010886D01*
X029505Y010861D01*
X028359D01*
X027302Y011919D01*
Y013109D01*
X026200D01*
Y012511D01*
X024900D01*
Y012656D01*
X023859D01*
Y013009D01*
X024249D01*
Y013306D01*
Y013602D01*
X023859D01*
Y013702D01*
X023975Y013817D01*
X024019Y013799D01*
X024100Y013788D01*
X024181Y013799D01*
X024256Y013830D01*
X024320Y013880D01*
X024370Y013944D01*
X024401Y014019D01*
X024412Y014100D01*
X024401Y014181D01*
X024370Y014256D01*
X024320Y014320D01*
X024256Y014370D01*
X024181Y014401D01*
X024100Y014412D01*
X024019Y014401D01*
X023944Y014370D01*
X023880Y014320D01*
X023830Y014256D01*
X023799Y014181D01*
X023788Y014100D01*
X023799Y014019D01*
X023817Y013975D01*
X023669Y013827D01*
X023645Y013791D01*
X023637Y013748D01*
X023637Y013748D01*
Y012158D01*
X023637Y012158D01*
X023645Y012115D01*
X023665Y012086D01*
X023659Y012060D01*
X023645Y012033D01*
X023621Y012029D01*
X023456Y012194D01*
X023420Y012230D01*
X023470Y012294D01*
X023501Y012369D01*
X023512Y012450D01*
X023501Y012531D01*
X023470Y012606D01*
X023420Y012670D01*
X023356Y012720D01*
X023281Y012751D01*
X023200Y012762D01*
X023119Y012751D01*
X023044Y012720D01*
X023002Y012688D01*
X022952Y012712D01*
Y012945D01*
X023125Y013117D01*
X023169Y013099D01*
X023250Y013088D01*
X023331Y013099D01*
X023406Y013130D01*
X023470Y013180D01*
X023520Y013244D01*
X023551Y013319D01*
X023562Y013400D01*
X023551Y013481D01*
X023520Y013556D01*
X023470Y013620D01*
X023406Y013670D01*
X023331Y013701D01*
X023250Y013712D01*
X023169Y013701D01*
X023094Y013670D01*
X023030Y013620D01*
X022980Y013556D01*
X022949Y013481D01*
X022938Y013400D01*
X022949Y013319D01*
X022967Y013275D01*
X022762Y013070D01*
X022738Y013033D01*
X022730Y012991D01*
X022730Y012991D01*
Y011709D01*
X022730Y011709D01*
X022738Y011667D01*
X022762Y011630D01*
X022967Y011425D01*
X022949Y011381D01*
X022938Y011300D01*
X022949Y011219D01*
X022980Y011144D01*
X023030Y011080D01*
X023094Y011030D01*
X023169Y010999D01*
X023250Y010988D01*
X023331Y010999D01*
X023406Y011030D01*
X023470Y011080D01*
X023520Y011144D01*
X023551Y011219D01*
X023562Y011300D01*
X023551Y011381D01*
X023520Y011456D01*
X023470Y011520D01*
X023406Y011570D01*
X023331Y011601D01*
X023250Y011612D01*
X023169Y011601D01*
X023125Y011583D01*
X022952Y011755D01*
Y012188D01*
X023002Y012212D01*
X023044Y012180D01*
X023119Y012149D01*
X023197Y012139D01*
X023514Y011821D01*
X023514Y011821D01*
X023550Y011797D01*
X023593Y011789D01*
X023770D01*
X023798Y011750D01*
Y011239D01*
X023871D01*
X023890Y011192D01*
X023509Y010811D01*
X016046D01*
X015817Y011040D01*
X015845Y011107D01*
X015857Y011200D01*
X015845Y011293D01*
X015810Y011379D01*
X015753Y011453D01*
X015679Y011510D01*
X015592Y011545D01*
X015500Y011557D01*
X015408Y011545D01*
X015321Y011510D01*
X015247Y011453D01*
X015190Y011379D01*
X015155Y011293D01*
X015143Y011200D01*
X015155Y011107D01*
X015190Y011021D01*
X015247Y010947D01*
X015321Y010890D01*
X015408Y010855D01*
X015500Y010843D01*
X015592Y010855D01*
X015660Y010883D01*
X015921Y010621D01*
X015921Y010621D01*
X015957Y010597D01*
X016000Y010589D01*
X016000Y010589D01*
X023555D01*
X023555Y010589D01*
X023597Y010597D01*
X023633Y010621D01*
X024251Y011239D01*
X024448D01*
X025365Y010321D01*
X025365Y010321D01*
X025401Y010297D01*
X025444Y010289D01*
X025444Y010289D01*
X035200D01*
X035200Y010289D01*
X035243Y010297D01*
X035279Y010321D01*
X035487Y010530D01*
X036488D01*
X036492Y010532D01*
X036496Y010531D01*
X036573Y010541D01*
X036581Y010545D01*
X036589D01*
X036685Y010585D01*
X036691Y010591D01*
X036700Y010593D01*
X036782Y010656D01*
X036786Y010664D01*
X036794Y010668D01*
X036857Y010750D01*
X036859Y010759D01*
X036865Y010765D01*
X036905Y010861D01*
Y010869D01*
X036909Y010877D01*
X036919Y010954D01*
X036918Y010958D01*
X036920Y010962D01*
Y012128D01*
X036966Y012148D01*
X038392Y010721D01*
X038392Y010721D01*
X038428Y010697D01*
X038471Y010689D01*
X038471Y010689D01*
X041412D01*
X041430Y010644D01*
X041480Y010580D01*
X041544Y010530D01*
X041619Y010499D01*
X041700Y010488D01*
X041781Y010499D01*
X041856Y010530D01*
X041920Y010580D01*
X041970Y010644D01*
X041981Y010672D01*
X042031Y010682D01*
X042928Y009784D01*
X042985Y009741D01*
X043051Y009713D01*
X043122Y009704D01*
X058716D01*
X058787Y009713D01*
X058853Y009741D01*
X058910Y009784D01*
X059444Y010318D01*
X059487Y010375D01*
X059515Y010441D01*
X059524Y010512D01*
Y010963D01*
X059846D01*
Y010826D01*
X059849D01*
Y010450D01*
X059865Y010373D01*
X059908Y010308D01*
X060158Y010058D01*
X060223Y010015D01*
X060300Y009999D01*
X068100Y009999D01*
X068177Y010015D01*
X068242Y010058D01*
X068542Y010358D01*
X068585Y010423D01*
X068601Y010500D01*
X068601Y012700D01*
X068585Y012777D01*
X068542Y012842D01*
X068477Y012885D01*
X068400Y012901D01*
X064950Y012901D01*
X064873Y012885D01*
X064825Y012853D01*
X064746D01*
Y012715D01*
X064548D01*
X064535Y012777D01*
X064492Y012842D01*
X064427Y012885D01*
X064350Y012901D01*
X060050D01*
X059973Y012885D01*
X059925Y012853D01*
X059846D01*
Y012715D01*
X059524D01*
Y013742D01*
X059682Y013899D01*
X063652D01*
X063660Y013882D01*
X063665Y013849D01*
X063600Y013800D01*
X063544Y013727D01*
X063513Y013650D01*
X064187D01*
X064156Y013727D01*
X064100Y013800D01*
X064035Y013849D01*
X064040Y013882D01*
X064048Y013899D01*
X068300D01*
X068377Y013915D01*
X068394Y013926D01*
X068433D01*
Y013952D01*
X068442Y013958D01*
X068485Y014023D01*
X068501Y014100D01*
Y021950D01*
X068485Y022027D01*
X068442Y022092D01*
X064651Y025883D01*
X064651Y028450D01*
X064635Y028527D01*
X064592Y028592D01*
X064527Y028635D01*
X064450Y028651D01*
X062902D01*
Y028748D01*
X065222D01*
X065253Y028710D01*
X065249Y028690D01*
Y027981D01*
X065265Y027904D01*
X065308Y027839D01*
X065339Y027819D01*
Y027300D01*
X065339Y027300D01*
X065347Y027257D01*
X065371Y027221D01*
X065598Y026995D01*
X065588Y026970D01*
X065579Y026900D01*
X065588Y026830D01*
X065615Y026764D01*
X065658Y026708D01*
X065714Y026665D01*
X065780Y026638D01*
X065850Y026629D01*
X065920Y026638D01*
X065986Y026665D01*
X066042Y026708D01*
X066085Y026764D01*
X066112Y026830D01*
X066118Y026878D01*
X066130Y026887D01*
X066169Y026899D01*
X066214Y026865D01*
X066280Y026838D01*
X066350Y026829D01*
X066420Y026838D01*
X066486Y026865D01*
X066542Y026908D01*
X066585Y026964D01*
X066612Y027030D01*
X066615Y027054D01*
X066657Y027063D01*
X066667Y027062D01*
X066708Y027008D01*
X066764Y026965D01*
X066789Y026955D01*
Y026472D01*
X066690Y026372D01*
X066414D01*
Y026287D01*
X066286D01*
Y026372D01*
X065814D01*
Y025979D01*
X066286D01*
Y026064D01*
X066414D01*
Y025979D01*
X066886D01*
Y026255D01*
X066979Y026347D01*
X066979Y026347D01*
X067003Y026383D01*
X067011Y026426D01*
X067011Y026426D01*
Y026955D01*
X067036Y026965D01*
X067092Y027008D01*
X067135Y027064D01*
X067162Y027130D01*
X067171Y027200D01*
X067162Y027270D01*
X067135Y027336D01*
X067092Y027392D01*
X067036Y027435D01*
X066970Y027462D01*
X066900Y027471D01*
X066830Y027462D01*
X066805Y027452D01*
X066561Y027696D01*
Y027812D01*
X066600Y027845D01*
X066648Y027837D01*
X066658Y027812D01*
X066711Y027742D01*
X066781Y027689D01*
X066863Y027655D01*
X066950Y027644D01*
X067037Y027655D01*
X067119Y027689D01*
X067189Y027742D01*
X067242Y027812D01*
X067276Y027894D01*
X067288Y027981D01*
Y028690D01*
X067276Y028777D01*
X067242Y028859D01*
X067199Y028915D01*
X067183Y028996D01*
X067128Y029078D01*
X067028Y029178D01*
X066946Y029233D01*
X066883Y029245D01*
X066877Y029273D01*
X066878Y029297D01*
X066954Y029348D01*
X067178Y029572D01*
X067233Y029654D01*
X067252Y029750D01*
X067250Y029760D01*
X067276Y029823D01*
X067288Y029910D01*
Y030619D01*
X067276Y030706D01*
X067242Y030788D01*
X067189Y030858D01*
X067119Y030911D01*
X067037Y030945D01*
X066950Y030956D01*
X066863Y030945D01*
X066781Y030911D01*
X066711Y030858D01*
X066671Y030806D01*
X066632Y030794D01*
X066608Y030799D01*
X066550Y030838D01*
Y030265D01*
X066450D01*
Y030165D01*
X066208D01*
Y029910D01*
X066213Y029885D01*
X066179Y029845D01*
X066146Y029888D01*
X066151Y029910D01*
Y030619D01*
X066135Y030696D01*
X066092Y030761D01*
X066061Y030781D01*
Y031344D01*
X066121D01*
Y031856D01*
X065649D01*
Y031344D01*
X065839D01*
Y030781D01*
X065808Y030761D01*
X065765Y030696D01*
X065749Y030619D01*
Y030376D01*
X065651D01*
Y030619D01*
X065635Y030696D01*
X065592Y030761D01*
X065527Y030804D01*
X065450Y030820D01*
X065373Y030804D01*
X065308Y030761D01*
X065265Y030696D01*
X065249Y030619D01*
Y029910D01*
X065261Y029852D01*
X065230Y029802D01*
X062902D01*
Y029949D01*
X064700D01*
X064777Y029965D01*
X064842Y030008D01*
X064885Y030073D01*
X064901Y030150D01*
X064901Y032500D01*
X064885Y032577D01*
X064842Y032642D01*
X064442Y033042D01*
X064377Y033085D01*
X064300Y033101D01*
D02*
G37*
G36*
X066792Y031897D02*
X066615D01*
Y031700D01*
X066792D01*
Y031897D01*
D02*
G37*
G36*
Y031500D02*
X066615D01*
Y031303D01*
X066792D01*
Y031500D01*
D02*
G37*
G36*
X015995Y031195D02*
X015700D01*
Y030900D01*
X015995D01*
Y031195D01*
D02*
G37*
G36*
X027750Y030787D02*
Y030550D01*
X027987D01*
X027956Y030627D01*
X027900Y030700D01*
X027827Y030756D01*
X027750Y030787D01*
D02*
G37*
G36*
X066415Y031500D02*
X066238D01*
Y031303D01*
X066415D01*
Y031500D01*
D02*
G37*
G36*
X017050Y031195D02*
Y030900D01*
X017345D01*
Y031195D01*
X017050D01*
D02*
G37*
G36*
X041750Y027187D02*
X041673Y027156D01*
X041600Y027100D01*
X041544Y027027D01*
X041513Y026950D01*
X041750D01*
Y027187D01*
D02*
G37*
G36*
X067800Y024687D02*
X067723Y024656D01*
X067650Y024600D01*
X067594Y024527D01*
X067563Y024450D01*
X067800D01*
Y024687D01*
D02*
G37*
G36*
X068000D02*
Y024450D01*
X068237D01*
X068206Y024527D01*
X068150Y024600D01*
X068077Y024656D01*
X068000Y024687D01*
D02*
G37*
G36*
X068237Y024250D02*
X068000D01*
Y024013D01*
X068077Y024044D01*
X068150Y024100D01*
X068206Y024173D01*
X068237Y024250D01*
D02*
G37*
G36*
X065950Y025862D02*
X065773D01*
Y025724D01*
X065950D01*
Y025862D01*
D02*
G37*
G36*
X039137Y025800D02*
X038900D01*
Y025563D01*
X038977Y025594D01*
X039050Y025650D01*
X039106Y025723D01*
X039137Y025800D01*
D02*
G37*
G36*
X065950Y025524D02*
X065773D01*
Y025387D01*
X065950D01*
Y025524D01*
D02*
G37*
G36*
X066373Y025862D02*
X066327D01*
X066323Y025862D01*
X066150D01*
Y025624D01*
Y025387D01*
X066323D01*
X066327Y025387D01*
X066373D01*
X066377Y025387D01*
X066550D01*
Y025624D01*
Y025862D01*
X066377D01*
X066373Y025862D01*
D02*
G37*
G36*
X038700Y025800D02*
X038463D01*
X038494Y025723D01*
X038550Y025650D01*
X038623Y025594D01*
X038700Y025563D01*
Y025800D01*
D02*
G37*
G36*
X066927Y025524D02*
X066750D01*
Y025387D01*
X066927D01*
Y025524D01*
D02*
G37*
G36*
X067800Y024250D02*
X067563D01*
X067594Y024173D01*
X067650Y024100D01*
X067723Y024044D01*
X067800Y024013D01*
Y024250D01*
D02*
G37*
G36*
X038700Y026237D02*
X038623Y026206D01*
X038550Y026150D01*
X038494Y026077D01*
X038463Y026000D01*
X038700D01*
Y026237D01*
D02*
G37*
G36*
X028000Y023287D02*
Y023050D01*
X028237D01*
X028206Y023127D01*
X028150Y023200D01*
X028077Y023256D01*
X028000Y023287D01*
D02*
G37*
G36*
X038900Y026237D02*
Y026000D01*
X039137D01*
X039106Y026077D01*
X039050Y026150D01*
X038977Y026206D01*
X038900Y026237D01*
D02*
G37*
G36*
X042187Y026750D02*
X041950D01*
Y026513D01*
X042027Y026544D01*
X042100Y026600D01*
X042156Y026673D01*
X042187Y026750D01*
D02*
G37*
G36*
X041750D02*
X041513D01*
X041544Y026673D01*
X041600Y026600D01*
X041673Y026544D01*
X041750Y026513D01*
Y026750D01*
D02*
G37*
G36*
X041650Y025421D02*
X041580Y025412D01*
X041514Y025385D01*
X041458Y025342D01*
X041415Y025286D01*
X041388Y025220D01*
X041379Y025150D01*
X041388Y025080D01*
X041415Y025014D01*
X041458Y024958D01*
X041513Y024916D01*
Y024681D01*
X041524Y024629D01*
X041553Y024584D01*
X041826Y024312D01*
Y023481D01*
X042436D01*
Y024918D01*
X041872D01*
X041861Y024933D01*
X041850Y024969D01*
X041885Y025014D01*
X041912Y025080D01*
X041921Y025150D01*
X041912Y025220D01*
X041885Y025286D01*
X041842Y025342D01*
X041786Y025385D01*
X041720Y025412D01*
X041650Y025421D01*
D02*
G37*
G36*
X066750Y025862D02*
Y025724D01*
X066927D01*
Y025862D01*
X066750D01*
D02*
G37*
%LPD*%
G36*
X046761Y016425D02*
Y015500D01*
X048039D01*
Y015738D01*
X048086Y015757D01*
X048121Y015721D01*
X048121Y015721D01*
X048157Y015697D01*
X048200Y015689D01*
X048296D01*
Y015380D01*
Y015124D01*
Y014843D01*
X048289Y014839D01*
X048289Y014839D01*
X048167Y014717D01*
X048143Y014681D01*
X048134Y014638D01*
X048134Y014638D01*
Y014113D01*
X048130Y014112D01*
X048085Y014093D01*
X048040Y014125D01*
X048039Y014126D01*
Y015300D01*
X047500D01*
Y014105D01*
X048008D01*
X048025Y014055D01*
X048008Y014042D01*
X047965Y013986D01*
X047938Y013920D01*
X047929Y013850D01*
X047938Y013780D01*
X047965Y013714D01*
X048008Y013658D01*
X048064Y013615D01*
X048130Y013588D01*
X048200Y013579D01*
X048270Y013588D01*
X048336Y013615D01*
X048392Y013658D01*
X048400Y013669D01*
X048450Y013652D01*
Y013483D01*
X048140Y013172D01*
X047864D01*
Y013087D01*
X047636D01*
Y013172D01*
X047164D01*
Y012779D01*
X047636D01*
Y012864D01*
X047864D01*
Y012779D01*
X048336D01*
Y013055D01*
X048640Y013358D01*
X048640Y013358D01*
X048664Y013394D01*
X048673Y013437D01*
Y014101D01*
X048827D01*
Y014316D01*
X048868D01*
Y014404D01*
X048561D01*
Y014604D01*
X048868D01*
Y014649D01*
X048997D01*
X049030Y014611D01*
X049029Y014600D01*
X049038Y014530D01*
X049065Y014464D01*
X049108Y014408D01*
X049164Y014365D01*
X049230Y014338D01*
X049300Y014329D01*
X049370Y014338D01*
X049436Y014365D01*
X049492Y014408D01*
X049535Y014464D01*
X049562Y014530D01*
X049571Y014600D01*
X049562Y014670D01*
X049535Y014736D01*
X049492Y014792D01*
X049436Y014835D01*
X049371Y014862D01*
X049370Y014865D01*
X049362Y014914D01*
X049385Y014929D01*
X049496Y015040D01*
X049496Y015040D01*
X049779Y015323D01*
X049779Y015323D01*
X049803Y015359D01*
X049811Y015401D01*
Y015555D01*
X049836Y015565D01*
X049886Y015604D01*
X049910Y015598D01*
X049936Y015584D01*
X049936Y013211D01*
X049349D01*
X049306Y013203D01*
X049270Y013179D01*
X049270Y013179D01*
X049140Y013048D01*
X048864D01*
Y012654D01*
X049336D01*
Y012930D01*
X049395Y012989D01*
X049936D01*
X049936Y011300D01*
X049955Y011255D01*
X050000Y011236D01*
X050013D01*
X050033Y011190D01*
X049604Y010761D01*
X047046D01*
X045940Y011867D01*
Y012209D01*
X045990Y012234D01*
X046014Y012215D01*
X046080Y012188D01*
X046150Y012179D01*
X046220Y012188D01*
X046286Y012215D01*
X046342Y012258D01*
X046385Y012314D01*
X046412Y012380D01*
X046414Y012392D01*
X046464Y012389D01*
Y012228D01*
X046936D01*
Y012313D01*
X047164D01*
Y012228D01*
X047636D01*
Y012621D01*
X047164D01*
Y012536D01*
X046936D01*
Y012621D01*
X046464D01*
Y012511D01*
X046414Y012508D01*
X046412Y012520D01*
X046385Y012586D01*
X046342Y012642D01*
X046286Y012685D01*
X046261Y012695D01*
Y013314D01*
X046272D01*
Y013627D01*
X046322Y013647D01*
X046364Y013615D01*
X046430Y013588D01*
X046500Y013579D01*
X046570Y013588D01*
X046636Y013615D01*
X046692Y013658D01*
X046735Y013714D01*
X046762Y013780D01*
X046771Y013850D01*
X046762Y013920D01*
X046735Y013986D01*
X046692Y014042D01*
X046666Y014062D01*
Y015528D01*
X046657Y015570D01*
X046633Y015607D01*
X046597Y015631D01*
X046554Y015639D01*
X046545D01*
Y015684D01*
X046239D01*
Y015884D01*
X046545D01*
Y015972D01*
X046504D01*
Y016440D01*
X046663D01*
X046663Y016440D01*
X046706Y016449D01*
X046711Y016452D01*
X046761Y016425D01*
D02*
G37*
G36*
X035972Y021089D02*
X036643D01*
X037313D01*
Y021160D01*
X037363Y021181D01*
X037537Y021007D01*
X037618Y020953D01*
X037715Y020934D01*
X039356D01*
Y020359D01*
X040144D01*
Y020359D01*
X040176Y020372D01*
X040476Y020072D01*
Y012350D01*
X040485Y012279D01*
X040513Y012213D01*
X040556Y012156D01*
X041582Y011131D01*
X041572Y011081D01*
X041544Y011070D01*
X041480Y011020D01*
X041430Y010956D01*
X041412Y010911D01*
X038517D01*
X036920Y012508D01*
Y013239D01*
X038115D01*
X038115Y013239D01*
X038157Y013247D01*
X038193Y013271D01*
X039498Y014576D01*
X039544Y014557D01*
Y014346D01*
X040056D01*
Y015724D01*
X039544D01*
Y015514D01*
X039498Y015495D01*
X038061Y016931D01*
Y019264D01*
X038061Y019264D01*
X038053Y019307D01*
X038029Y019343D01*
X038029Y019343D01*
X037337Y020035D01*
X037301Y020059D01*
X037272Y020064D01*
Y020575D01*
X036013D01*
Y020063D01*
X036531D01*
Y019956D01*
X036524Y019947D01*
X035972D01*
Y019750D01*
X036643D01*
Y019650D01*
X036743D01*
Y019353D01*
X037313D01*
Y019678D01*
X037360Y019698D01*
X037839Y019218D01*
Y016885D01*
X037839Y016885D01*
X037847Y016843D01*
X037871Y016807D01*
X039544Y015134D01*
Y014937D01*
X038069Y013461D01*
X036920D01*
Y015738D01*
X036918Y015742D01*
X036919Y015746D01*
X036909Y015823D01*
X036905Y015831D01*
Y015839D01*
X036865Y015935D01*
X036859Y015941D01*
X036857Y015950D01*
X036794Y016032D01*
X036786Y016036D01*
X036782Y016044D01*
X036700Y016107D01*
X036691Y016109D01*
X036685Y016115D01*
X036589Y016155D01*
X036581D01*
X036573Y016159D01*
X036496Y016169D01*
X036492Y016168D01*
X036488Y016170D01*
X034986D01*
X034941Y016151D01*
X034922Y016106D01*
Y010594D01*
X034936Y010561D01*
X034913Y010511D01*
X033287D01*
X033264Y010561D01*
X033278Y010594D01*
Y015459D01*
X035508Y017689D01*
X037100D01*
X037100Y017689D01*
X037143Y017697D01*
X037179Y017721D01*
X037375Y017918D01*
X037410D01*
Y017953D01*
X037429Y017971D01*
X037429Y017971D01*
X037453Y018007D01*
X037461Y018050D01*
Y018526D01*
X037461Y018526D01*
X037453Y018568D01*
X037429Y018605D01*
X037429Y018605D01*
X037410Y018623D01*
Y018705D01*
X037323D01*
X037301Y018720D01*
X037272Y018726D01*
Y019237D01*
X036013D01*
Y018725D01*
X035971Y018705D01*
X035951D01*
X035502Y019154D01*
Y020946D01*
X035754Y021198D01*
X035972D01*
Y021089D01*
D02*
G37*
G36*
X016321Y020321D02*
X016321Y020321D01*
X016357Y020297D01*
X016400Y020289D01*
X024504D01*
X028941Y015852D01*
X028915Y015790D01*
X028905Y015716D01*
X028857Y015693D01*
X028771Y015779D01*
X028735Y015803D01*
X028693Y015811D01*
X028693Y015811D01*
X028576D01*
X028551Y015874D01*
X028495Y015945D01*
X028424Y016001D01*
X028340Y016035D01*
X028250Y016047D01*
X028160Y016035D01*
X028076Y016001D01*
X028005Y015945D01*
X027949Y015874D01*
X027915Y015790D01*
X027903Y015700D01*
X027915Y015610D01*
X027949Y015526D01*
X028005Y015455D01*
X028076Y015399D01*
X028160Y015365D01*
X028250Y015353D01*
X028340Y015365D01*
X028424Y015399D01*
X028495Y015455D01*
X028551Y015526D01*
X028576Y015589D01*
X028647D01*
X029008Y015227D01*
X029044Y015203D01*
X029087Y015195D01*
X029087Y015195D01*
X029413D01*
X029413Y015195D01*
X029456Y015203D01*
X029492Y015227D01*
X029869Y015604D01*
X029920Y015589D01*
X029936Y015543D01*
X029404Y015011D01*
X017539D01*
X017284Y015266D01*
X017302Y015319D01*
X017351Y015325D01*
X017444Y015364D01*
X017525Y015425D01*
X017586Y015506D01*
X017625Y015599D01*
X017625Y015600D01*
X017250D01*
Y015700D01*
X017150D01*
Y016075D01*
X017149Y016075D01*
X017056Y016036D01*
X016975Y015975D01*
X016914Y015894D01*
X016875Y015801D01*
X016869Y015752D01*
X016816Y015734D01*
X014724Y017826D01*
Y021853D01*
X014770Y021873D01*
X016321Y020321D01*
D02*
G37*
G36*
X033214Y010594D02*
X031712D01*
X031635Y010604D01*
X031539Y010644D01*
X031457Y010707D01*
X031394Y010789D01*
X031354Y010885D01*
X031344Y010962D01*
Y010988D01*
Y015712D01*
Y015738D01*
X031354Y015815D01*
X031394Y015911D01*
X031457Y015993D01*
X031539Y016056D01*
X031635Y016096D01*
X031712Y016106D01*
X033214D01*
Y010594D01*
D02*
G37*
G36*
X018829Y029205D02*
X018828Y029201D01*
Y028877D01*
X018836Y028834D01*
X018842Y028826D01*
Y028791D01*
X018850Y028796D01*
X018891Y028768D01*
X019387Y028271D01*
X019387Y028271D01*
X019423Y028247D01*
X019466Y028239D01*
X019508Y028247D01*
X019545Y028271D01*
X019712Y028439D01*
X019805D01*
X019815Y028414D01*
X019858Y028358D01*
X019914Y028315D01*
X019980Y028288D01*
X020050Y028279D01*
X020120Y028288D01*
X020186Y028315D01*
X020242Y028358D01*
X020285Y028414D01*
X020312Y028480D01*
X020321Y028550D01*
X020312Y028620D01*
X020285Y028686D01*
X020242Y028742D01*
X020214Y028764D01*
X020231Y028811D01*
X020249Y028819D01*
X020275Y028802D01*
X020317Y028794D01*
X020359Y028802D01*
X020395Y028826D01*
X020419Y028862D01*
X020427Y028904D01*
Y029153D01*
X023875D01*
X023895Y029103D01*
X022904Y028111D01*
X020821D01*
X020820Y028111D01*
X020778Y028120D01*
X020778Y028120D01*
X019763D01*
X019720Y028111D01*
X019718Y028110D01*
X019682Y028103D01*
X019646Y028079D01*
X019087Y027520D01*
X019063Y027484D01*
X019059Y027462D01*
X018860Y027264D01*
X018836Y027228D01*
X018828Y027185D01*
X018828Y027185D01*
Y027029D01*
X018794Y027005D01*
X018778Y026999D01*
X018742Y027006D01*
X018700Y026998D01*
X018677Y026983D01*
X018644Y026977D01*
X018610Y026983D01*
X018588Y026998D01*
X018545Y027006D01*
X018503Y026998D01*
X018467Y026974D01*
X018426D01*
X018391Y026998D01*
X018348Y027006D01*
X018306Y026998D01*
X018284Y026983D01*
X018250Y026977D01*
X018216Y026983D01*
X018194Y026998D01*
X018152Y027006D01*
X018109Y026998D01*
X018074Y026974D01*
X018033D01*
X017997Y026998D01*
X017955Y027006D01*
X017912Y026998D01*
X017877Y026974D01*
X017836D01*
X017800Y026998D01*
X017758Y027006D01*
X017716Y026998D01*
X017680Y026974D01*
X017639D01*
X017603Y026998D01*
X017561Y027006D01*
X017519Y026998D01*
X017483Y026974D01*
X017442D01*
X017406Y026998D01*
X017364Y027006D01*
X017322Y026998D01*
X017286Y026974D01*
X017245D01*
X017210Y026998D01*
X017167Y027006D01*
X017125Y026998D01*
X017089Y026974D01*
X017049D01*
X017013Y026998D01*
X016970Y027006D01*
X016928Y026998D01*
X016892Y026974D01*
X016852D01*
X016816Y026998D01*
X016774Y027006D01*
X016731Y026998D01*
X016709Y026983D01*
X016675Y026977D01*
X016641Y026983D01*
X016619Y026998D01*
X016577Y027006D01*
X016535Y026998D01*
X016499Y026974D01*
X016458D01*
X016422Y026998D01*
X016380Y027006D01*
X016338Y026998D01*
X016311Y026980D01*
X016269Y026992D01*
X016262Y027041D01*
X016829Y027608D01*
X016829Y027608D01*
X016853Y027644D01*
X016861Y027687D01*
Y027855D01*
X016886Y027865D01*
X016942Y027908D01*
X016985Y027964D01*
X017012Y028030D01*
X017021Y028100D01*
X017012Y028170D01*
X016985Y028236D01*
X016942Y028292D01*
X016886Y028335D01*
X016885Y028335D01*
Y028771D01*
X016919Y028795D01*
X016935Y028801D01*
X016970Y028794D01*
X017006Y028801D01*
X017022Y028795D01*
X017056Y028771D01*
Y028283D01*
X017056Y028283D01*
X017065Y028240D01*
X017089Y028204D01*
X017148Y028145D01*
X017138Y028120D01*
X017129Y028050D01*
X017138Y027980D01*
X017165Y027914D01*
X017208Y027858D01*
X017264Y027815D01*
X017330Y027788D01*
X017400Y027779D01*
X017470Y027788D01*
X017536Y027815D01*
X017592Y027858D01*
X017635Y027914D01*
X017662Y027980D01*
X017671Y028050D01*
X017662Y028120D01*
X017635Y028186D01*
X017592Y028242D01*
X017536Y028285D01*
X017470Y028312D01*
X017400Y028321D01*
X017330Y028312D01*
X017320Y028308D01*
X017279Y028341D01*
Y028594D01*
X017329Y028614D01*
X017798Y028145D01*
X017788Y028120D01*
X017779Y028050D01*
X017788Y027980D01*
X017815Y027914D01*
X017858Y027858D01*
X017914Y027815D01*
X017980Y027788D01*
X018050Y027779D01*
X018120Y027788D01*
X018186Y027815D01*
X018242Y027858D01*
X018285Y027914D01*
X018312Y027980D01*
X018316Y028007D01*
X018369Y028025D01*
X018423Y027971D01*
X018459Y027947D01*
X018501Y027939D01*
X018501Y027939D01*
X018555D01*
X018565Y027914D01*
X018608Y027858D01*
X018664Y027815D01*
X018730Y027788D01*
X018800Y027779D01*
X018870Y027788D01*
X018936Y027815D01*
X018992Y027858D01*
X019035Y027914D01*
X019062Y027980D01*
X019071Y028050D01*
X019062Y028120D01*
X019035Y028186D01*
X018992Y028242D01*
X018936Y028285D01*
X018870Y028312D01*
X018800Y028321D01*
X018730Y028312D01*
X018664Y028285D01*
X018608Y028242D01*
X018577Y028202D01*
X018527Y028192D01*
X018514Y028194D01*
X018261Y028448D01*
X018225Y028472D01*
X018182Y028480D01*
X018182Y028480D01*
X018002D01*
X017804Y028679D01*
Y028746D01*
X017804Y028746D01*
X017802Y028751D01*
X017800Y028802D01*
X017823Y028817D01*
X017856Y028823D01*
X017890Y028817D01*
X017912Y028802D01*
X017955Y028794D01*
X017997Y028802D01*
X018019Y028817D01*
X018053Y028823D01*
X018087Y028817D01*
X018109Y028802D01*
X018152Y028794D01*
X018194Y028802D01*
X018216Y028817D01*
X018250Y028823D01*
X018284Y028817D01*
X018306Y028802D01*
X018348Y028794D01*
X018391Y028802D01*
X018413Y028817D01*
X018447Y028823D01*
X018481Y028817D01*
X018503Y028802D01*
X018545Y028794D01*
X018588Y028802D01*
X018592Y028805D01*
X018635Y028796D01*
X018642Y028791D01*
Y028854D01*
X018647Y028862D01*
X018656Y028904D01*
Y029225D01*
X018656Y029229D01*
X018829D01*
Y029205D01*
D02*
G37*
G36*
X068400Y010500D02*
X068100Y010200D01*
X060300Y010200D01*
X060050Y010450D01*
Y012700D01*
X064350D01*
Y010950D01*
X064950D01*
X064950Y012700D01*
X068400Y012700D01*
X068400Y010500D01*
D02*
G37*
G36*
X036565Y016096D02*
X036661Y016056D01*
X036743Y015993D01*
X036806Y015911D01*
X036846Y015815D01*
X036856Y015738D01*
Y015712D01*
Y010988D01*
Y010962D01*
X036846Y010885D01*
X036806Y010789D01*
X036743Y010707D01*
X036661Y010644D01*
X036565Y010604D01*
X036488Y010594D01*
X034986D01*
Y016106D01*
X036488D01*
X036565Y016096D01*
D02*
G37*
G36*
X051100Y017550D02*
X051100Y011300D01*
X050000D01*
X050000Y016900D01*
X050000Y018250D01*
X050400Y018250D01*
X051100Y017550D01*
D02*
G37*
G36*
X060400Y022800D02*
X059400Y021800D01*
Y018000D01*
X055900D01*
Y022200D01*
X057300D01*
X057900Y022800D01*
Y025000D01*
X060400D01*
Y022800D01*
D02*
G37*
G36*
X032408Y031614D02*
X032754D01*
Y031414D01*
X032408D01*
Y031405D01*
X032400Y031400D01*
X032344Y031327D01*
X032313Y031250D01*
X032650D01*
Y031050D01*
X032313D01*
X032344Y030973D01*
X032400Y030900D01*
X032408Y030895D01*
Y030781D01*
X030741D01*
X030697Y030796D01*
Y032171D01*
X032408D01*
Y031614D01*
D02*
G37*
G36*
X064450Y025800D02*
X068300Y021950D01*
Y014100D01*
X059100D01*
Y017650D01*
X062000D01*
X062600Y018250D01*
Y018900D01*
X060850Y018900D01*
X060850Y028450D01*
X064450D01*
X064450Y025800D01*
D02*
G37*
G36*
X064700Y032500D02*
X064700Y030150D01*
X058426Y030150D01*
X058311Y030243D01*
X058008Y030566D01*
X057828Y030819D01*
X057678Y031091D01*
X057559Y031377D01*
X057460Y031743D01*
X057441Y031868D01*
X058179Y032900D01*
X064300Y032900D01*
X064700Y032500D01*
D02*
G37*
%LPC*%
G36*
X047300Y015300D02*
X046761D01*
Y014105D01*
X047300D01*
Y015300D01*
D02*
G37*
G36*
X046977Y013213D02*
X046800D01*
Y013076D01*
X046977D01*
Y013213D01*
D02*
G37*
G36*
X049377Y011438D02*
X049200D01*
Y011300D01*
X049377D01*
Y011438D01*
D02*
G37*
G36*
X049000D02*
X048823D01*
Y011300D01*
X049000D01*
Y011438D01*
D02*
G37*
G36*
X039700Y012694D02*
X039503D01*
Y012065D01*
X039700D01*
Y012694D01*
D02*
G37*
G36*
X049336Y012497D02*
X048864D01*
Y012103D01*
X048989D01*
Y011948D01*
X048864D01*
Y011862D01*
X048751D01*
X048751Y011862D01*
X048709Y011854D01*
X048673Y011830D01*
X048673Y011830D01*
X048445Y011602D01*
X048420Y011612D01*
X048350Y011621D01*
X048280Y011612D01*
X048214Y011585D01*
X048158Y011542D01*
X048115Y011486D01*
X048088Y011420D01*
X048079Y011350D01*
X048088Y011280D01*
X048115Y011214D01*
X048158Y011158D01*
X048214Y011115D01*
X048280Y011088D01*
X048350Y011079D01*
X048420Y011088D01*
X048486Y011115D01*
X048542Y011158D01*
X048585Y011214D01*
X048612Y011280D01*
X048621Y011350D01*
X048612Y011420D01*
X048602Y011445D01*
X048797Y011640D01*
X048864D01*
Y011554D01*
X049336D01*
Y011948D01*
X049211D01*
Y012103D01*
X049336D01*
Y012497D01*
D02*
G37*
G36*
X049377Y011100D02*
X049200D01*
Y010962D01*
X049377D01*
Y011100D01*
D02*
G37*
G36*
X049000D02*
X048823D01*
Y010962D01*
X049000D01*
Y011100D01*
D02*
G37*
G36*
X040097Y011865D02*
X039900D01*
Y011235D01*
X040097D01*
Y011865D01*
D02*
G37*
G36*
X039700D02*
X039503D01*
Y011235D01*
X039700D01*
Y011865D01*
D02*
G37*
G36*
X046600Y012876D02*
X046423D01*
Y012738D01*
X046600D01*
Y012876D01*
D02*
G37*
G36*
X048377Y012662D02*
X048200D01*
Y012524D01*
X048377D01*
Y012662D01*
D02*
G37*
G36*
X046600Y013213D02*
X046423D01*
Y013076D01*
X046600D01*
Y013213D01*
D02*
G37*
G36*
X046977Y012876D02*
X046800D01*
Y012738D01*
X046977D01*
Y012876D01*
D02*
G37*
G36*
X048000Y012324D02*
X047823D01*
Y012187D01*
X048000D01*
Y012324D01*
D02*
G37*
G36*
X040097Y012694D02*
X039900D01*
Y012065D01*
X040097D01*
Y012694D01*
D02*
G37*
G36*
X048000Y012662D02*
X047823D01*
Y012524D01*
X048000D01*
Y012662D01*
D02*
G37*
G36*
X048377Y012324D02*
X048200D01*
Y012187D01*
X048377D01*
Y012324D01*
D02*
G37*
G36*
X015994Y018740D02*
X015814D01*
Y018580D01*
X015994D01*
Y018740D01*
D02*
G37*
G36*
X017850Y018787D02*
Y018550D01*
X018087D01*
X018056Y018627D01*
X018000Y018700D01*
X017927Y018756D01*
X017850Y018787D01*
D02*
G37*
G36*
X016374Y018740D02*
X016194D01*
Y018580D01*
X016374D01*
Y018740D01*
D02*
G37*
G36*
X036543Y019550D02*
X035972D01*
Y019353D01*
X036543D01*
Y019550D01*
D02*
G37*
G36*
X021150Y019962D02*
X021069Y019951D01*
X020994Y019920D01*
X020930Y019870D01*
X020880Y019806D01*
X020849Y019731D01*
X020838Y019650D01*
X020849Y019569D01*
X020867Y019525D01*
X019180Y017837D01*
X016333D01*
Y017945D01*
X015855D01*
Y017507D01*
X016333D01*
Y017615D01*
X019226D01*
X019226Y017615D01*
X019269Y017623D01*
X019305Y017647D01*
X021025Y019367D01*
X021069Y019349D01*
X021150Y019338D01*
X021231Y019349D01*
X021306Y019380D01*
X021370Y019430D01*
X021420Y019494D01*
X021451Y019569D01*
X021462Y019650D01*
X021451Y019731D01*
X021420Y019806D01*
X021370Y019870D01*
X021306Y019920D01*
X021231Y019951D01*
X021150Y019962D01*
D02*
G37*
G36*
X040047Y018844D02*
X039850D01*
Y018215D01*
X040047D01*
Y018844D01*
D02*
G37*
G36*
X039650D02*
X039453D01*
Y018215D01*
X039650D01*
Y018844D01*
D02*
G37*
G36*
X015994Y018380D02*
X015814D01*
Y018220D01*
X015994D01*
Y018380D01*
D02*
G37*
G36*
X017650Y018787D02*
X017573Y018756D01*
X017500Y018700D01*
X017444Y018627D01*
X017413Y018550D01*
X017650D01*
Y018787D01*
D02*
G37*
G36*
X016374Y018380D02*
X016194D01*
Y018220D01*
X016374D01*
Y018380D01*
D02*
G37*
G36*
X022500Y028450D02*
X022263D01*
X022294Y028373D01*
X022350Y028300D01*
X022423Y028244D01*
X022500Y028213D01*
Y028450D01*
D02*
G37*
G36*
X037313Y020889D02*
X036743D01*
Y020692D01*
X037313D01*
Y020889D01*
D02*
G37*
G36*
X022937Y028450D02*
X022700D01*
Y028213D01*
X022777Y028244D01*
X022850Y028300D01*
X022906Y028373D01*
X022937Y028450D01*
D02*
G37*
G36*
X022700Y028887D02*
Y028650D01*
X022937D01*
X022906Y028727D01*
X022850Y028800D01*
X022777Y028856D01*
X022700Y028887D01*
D02*
G37*
G36*
X022500D02*
X022423Y028856D01*
X022350Y028800D01*
X022294Y028727D01*
X022263Y028650D01*
X022500D01*
Y028887D01*
D02*
G37*
G36*
X038687Y020350D02*
X038450D01*
Y020113D01*
X038527Y020144D01*
X038600Y020200D01*
X038656Y020273D01*
X038687Y020350D01*
D02*
G37*
G36*
X038250D02*
X038013D01*
X038044Y020273D01*
X038100Y020200D01*
X038173Y020144D01*
X038250Y020113D01*
Y020350D01*
D02*
G37*
G36*
Y020787D02*
X038173Y020756D01*
X038100Y020700D01*
X038044Y020627D01*
X038013Y020550D01*
X038250D01*
Y020787D01*
D02*
G37*
G36*
X036543Y020889D02*
X035972D01*
Y020692D01*
X036543D01*
Y020889D01*
D02*
G37*
G36*
X038450Y020787D02*
Y020550D01*
X038687D01*
X038656Y020627D01*
X038600Y020700D01*
X038527Y020756D01*
X038450Y020787D01*
D02*
G37*
G36*
X024250Y016047D02*
X024160Y016035D01*
X024076Y016001D01*
X024005Y015945D01*
X023949Y015874D01*
X023915Y015790D01*
X023903Y015700D01*
X023915Y015610D01*
X023949Y015526D01*
X024005Y015455D01*
X024076Y015399D01*
X024160Y015365D01*
X024250Y015353D01*
X024340Y015365D01*
X024424Y015399D01*
X024495Y015455D01*
X024551Y015526D01*
X024585Y015610D01*
X024597Y015700D01*
X024585Y015790D01*
X024551Y015874D01*
X024495Y015945D01*
X024424Y016001D01*
X024340Y016035D01*
X024250Y016047D01*
D02*
G37*
G36*
X023250D02*
X023160Y016035D01*
X023076Y016001D01*
X023005Y015945D01*
X022949Y015874D01*
X022915Y015790D01*
X022903Y015700D01*
X022915Y015610D01*
X022949Y015526D01*
X023005Y015455D01*
X023076Y015399D01*
X023160Y015365D01*
X023250Y015353D01*
X023340Y015365D01*
X023424Y015399D01*
X023495Y015455D01*
X023551Y015526D01*
X023585Y015610D01*
X023597Y015700D01*
X023585Y015790D01*
X023551Y015874D01*
X023495Y015945D01*
X023424Y016001D01*
X023340Y016035D01*
X023250Y016047D01*
D02*
G37*
G36*
X026250D02*
X026160Y016035D01*
X026076Y016001D01*
X026005Y015945D01*
X025949Y015874D01*
X025915Y015790D01*
X025903Y015700D01*
X025915Y015610D01*
X025949Y015526D01*
X026005Y015455D01*
X026076Y015399D01*
X026160Y015365D01*
X026250Y015353D01*
X026340Y015365D01*
X026424Y015399D01*
X026495Y015455D01*
X026551Y015526D01*
X026585Y015610D01*
X026597Y015700D01*
X026585Y015790D01*
X026551Y015874D01*
X026495Y015945D01*
X026424Y016001D01*
X026340Y016035D01*
X026250Y016047D01*
D02*
G37*
G36*
X017350Y016075D02*
Y015800D01*
X017625D01*
X017625Y015801D01*
X017586Y015894D01*
X017525Y015975D01*
X017444Y016036D01*
X017351Y016075D01*
X017350Y016075D01*
D02*
G37*
G36*
X027250Y016047D02*
X027160Y016035D01*
X027076Y016001D01*
X027005Y015945D01*
X026949Y015874D01*
X026915Y015790D01*
X026903Y015700D01*
X026915Y015610D01*
X026949Y015526D01*
X027005Y015455D01*
X027076Y015399D01*
X027160Y015365D01*
X027250Y015353D01*
X027340Y015365D01*
X027424Y015399D01*
X027495Y015455D01*
X027551Y015526D01*
X027585Y015610D01*
X027597Y015700D01*
X027585Y015790D01*
X027551Y015874D01*
X027495Y015945D01*
X027424Y016001D01*
X027340Y016035D01*
X027250Y016047D01*
D02*
G37*
G36*
X019250D02*
X019160Y016035D01*
X019076Y016001D01*
X019005Y015945D01*
X018949Y015874D01*
X018915Y015790D01*
X018903Y015700D01*
X018915Y015610D01*
X018949Y015526D01*
X019005Y015455D01*
X019076Y015399D01*
X019160Y015365D01*
X019250Y015353D01*
X019340Y015365D01*
X019424Y015399D01*
X019495Y015455D01*
X019551Y015526D01*
X019585Y015610D01*
X019597Y015700D01*
X019585Y015790D01*
X019551Y015874D01*
X019495Y015945D01*
X019424Y016001D01*
X019340Y016035D01*
X019250Y016047D01*
D02*
G37*
G36*
X018250D02*
X018160Y016035D01*
X018076Y016001D01*
X018005Y015945D01*
X017949Y015874D01*
X017915Y015790D01*
X017903Y015700D01*
X017915Y015610D01*
X017949Y015526D01*
X018005Y015455D01*
X018076Y015399D01*
X018160Y015365D01*
X018250Y015353D01*
X018340Y015365D01*
X018424Y015399D01*
X018495Y015455D01*
X018551Y015526D01*
X018585Y015610D01*
X018597Y015700D01*
X018585Y015790D01*
X018551Y015874D01*
X018495Y015945D01*
X018424Y016001D01*
X018340Y016035D01*
X018250Y016047D01*
D02*
G37*
G36*
X020250D02*
X020160Y016035D01*
X020076Y016001D01*
X020005Y015945D01*
X019949Y015874D01*
X019915Y015790D01*
X019903Y015700D01*
X019915Y015610D01*
X019949Y015526D01*
X020005Y015455D01*
X020076Y015399D01*
X020160Y015365D01*
X020250Y015353D01*
X020340Y015365D01*
X020424Y015399D01*
X020495Y015455D01*
X020551Y015526D01*
X020585Y015610D01*
X020597Y015700D01*
X020585Y015790D01*
X020551Y015874D01*
X020495Y015945D01*
X020424Y016001D01*
X020340Y016035D01*
X020250Y016047D01*
D02*
G37*
G36*
X022250D02*
X022160Y016035D01*
X022076Y016001D01*
X022005Y015945D01*
X021949Y015874D01*
X021915Y015790D01*
X021903Y015700D01*
X021915Y015610D01*
X021949Y015526D01*
X022005Y015455D01*
X022076Y015399D01*
X022160Y015365D01*
X022250Y015353D01*
X022340Y015365D01*
X022424Y015399D01*
X022495Y015455D01*
X022551Y015526D01*
X022585Y015610D01*
X022597Y015700D01*
X022585Y015790D01*
X022551Y015874D01*
X022495Y015945D01*
X022424Y016001D01*
X022340Y016035D01*
X022250Y016047D01*
D02*
G37*
G36*
X021250D02*
X021160Y016035D01*
X021076Y016001D01*
X021005Y015945D01*
X020949Y015874D01*
X020915Y015790D01*
X020903Y015700D01*
X020915Y015610D01*
X020949Y015526D01*
X021005Y015455D01*
X021076Y015399D01*
X021160Y015365D01*
X021250Y015353D01*
X021340Y015365D01*
X021424Y015399D01*
X021495Y015455D01*
X021551Y015526D01*
X021585Y015610D01*
X021597Y015700D01*
X021585Y015790D01*
X021551Y015874D01*
X021495Y015945D01*
X021424Y016001D01*
X021340Y016035D01*
X021250Y016047D01*
D02*
G37*
G36*
X021500Y017637D02*
Y017400D01*
X021737D01*
X021706Y017477D01*
X021650Y017550D01*
X021577Y017606D01*
X021500Y017637D01*
D02*
G37*
G36*
X021300D02*
X021223Y017606D01*
X021150Y017550D01*
X021094Y017477D01*
X021063Y017400D01*
X021300D01*
Y017637D01*
D02*
G37*
G36*
X015100Y018821D02*
X015030Y018812D01*
X014964Y018785D01*
X014908Y018742D01*
X014865Y018686D01*
X014838Y018620D01*
X014829Y018550D01*
X014838Y018480D01*
X014865Y018414D01*
X014908Y018358D01*
X014964Y018315D01*
X015021Y018292D01*
Y017881D01*
X015499D01*
Y018319D01*
X015371D01*
Y018390D01*
X015363Y018433D01*
X015350Y018451D01*
X015362Y018480D01*
X015371Y018550D01*
X015362Y018620D01*
X015335Y018686D01*
X015292Y018742D01*
X015236Y018785D01*
X015170Y018812D01*
X015100Y018821D01*
D02*
G37*
G36*
X018087Y018350D02*
X017850D01*
Y018113D01*
X017927Y018144D01*
X018000Y018200D01*
X018056Y018273D01*
X018087Y018350D01*
D02*
G37*
G36*
X017650D02*
X017413D01*
X017444Y018273D01*
X017500Y018200D01*
X017573Y018144D01*
X017650Y018113D01*
Y018350D01*
D02*
G37*
G36*
X021300Y017200D02*
X021063D01*
X021094Y017123D01*
X021150Y017050D01*
X021223Y016994D01*
X021300Y016963D01*
Y017200D01*
D02*
G37*
G36*
X026200Y016962D02*
X026119Y016951D01*
X026044Y016920D01*
X025980Y016870D01*
X025930Y016806D01*
X025899Y016731D01*
X025888Y016650D01*
X025899Y016569D01*
X025917Y016525D01*
X025402Y016009D01*
X025340Y016035D01*
X025250Y016047D01*
X025160Y016035D01*
X025076Y016001D01*
X025005Y015945D01*
X024949Y015874D01*
X024915Y015790D01*
X024903Y015700D01*
X024915Y015610D01*
X024949Y015526D01*
X025005Y015455D01*
X025076Y015399D01*
X025160Y015365D01*
X025250Y015353D01*
X025340Y015365D01*
X025424Y015399D01*
X025495Y015455D01*
X025551Y015526D01*
X025585Y015610D01*
X025597Y015700D01*
X025585Y015790D01*
X025559Y015852D01*
X026075Y016367D01*
X026119Y016349D01*
X026200Y016338D01*
X026281Y016349D01*
X026356Y016380D01*
X026420Y016430D01*
X026470Y016494D01*
X026501Y016569D01*
X026512Y016650D01*
X026501Y016731D01*
X026470Y016806D01*
X026420Y016870D01*
X026356Y016920D01*
X026281Y016951D01*
X026200Y016962D01*
D02*
G37*
G36*
X021737Y017200D02*
X021500D01*
Y016963D01*
X021577Y016994D01*
X021650Y017050D01*
X021706Y017123D01*
X021737Y017200D01*
D02*
G37*
G36*
X040047Y018015D02*
X039850D01*
Y017385D01*
X040047D01*
Y018015D01*
D02*
G37*
G36*
X039650D02*
X039453D01*
Y017385D01*
X039650D01*
Y018015D01*
D02*
G37*
%LPD*%
D10*
X032754Y031514D02*
D03*
X030392D02*
D03*
X037454D02*
D03*
X035092D02*
D03*
X042154D02*
D03*
X039792D02*
D03*
X042154Y028264D02*
D03*
X039792D02*
D03*
X037381Y028250D02*
D03*
X035019D02*
D03*
X032681D02*
D03*
X030319D02*
D03*
X027931D02*
D03*
X025569D02*
D03*
X042131Y024200D02*
D03*
X039769D02*
D03*
X037381D02*
D03*
X035019D02*
D03*
X023231Y024000D02*
D03*
X020869D02*
D03*
X027931Y024100D02*
D03*
X025569D02*
D03*
X032631D02*
D03*
X030269D02*
D03*
D11*
X017109Y023650D02*
D03*
X015691D02*
D03*
D12*
X061250Y015855D02*
D03*
X066150D02*
D03*
D13*
X062750Y011839D02*
D03*
X062250D02*
D03*
X061750D02*
D03*
X060750D02*
D03*
X060250D02*
D03*
X059750D02*
D03*
X067650D02*
D03*
X067150D02*
D03*
X066650D02*
D03*
X065650D02*
D03*
X065150D02*
D03*
X064650D02*
D03*
D14*
X029000Y012987D02*
D03*
Y011413D02*
D03*
D15*
X032961Y019650D02*
D03*
D16*
X036643Y020989D02*
D03*
Y020319D02*
D03*
Y019650D02*
D03*
Y018981D02*
D03*
Y018311D02*
D03*
D17*
X065885Y031600D02*
D03*
X066515D02*
D03*
D18*
X043104Y015790D02*
D03*
X043360D02*
D03*
X043616D02*
D03*
X043872D02*
D03*
X044128D02*
D03*
X044384D02*
D03*
X044640D02*
D03*
X044896D02*
D03*
Y018010D02*
D03*
X044640D02*
D03*
X044384D02*
D03*
X044128D02*
D03*
X043872D02*
D03*
X043616D02*
D03*
X043360D02*
D03*
X043104D02*
D03*
D19*
X032279Y013350D02*
D03*
X035921D02*
D03*
D20*
X038399Y027770D02*
D03*
X039153D02*
D03*
X038773Y028604D02*
D03*
X034000Y028590D02*
D03*
X034380Y027756D02*
D03*
X033626D02*
D03*
X028926D02*
D03*
X029680D02*
D03*
X029300Y028590D02*
D03*
X024550D02*
D03*
X024930Y027756D02*
D03*
X024176D02*
D03*
X038376Y023706D02*
D03*
X039130D02*
D03*
X038750Y024540D02*
D03*
X034000D02*
D03*
X034380Y023706D02*
D03*
X033626D02*
D03*
X024550Y024540D02*
D03*
X024930Y023706D02*
D03*
X024176D02*
D03*
X019476D02*
D03*
X020230D02*
D03*
X019850Y024540D02*
D03*
X028876Y023706D02*
D03*
X029630D02*
D03*
X029250Y024540D02*
D03*
X033699Y031020D02*
D03*
X034453D02*
D03*
X034073Y031854D02*
D03*
X038773D02*
D03*
X039153Y031020D02*
D03*
X038399D02*
D03*
X029373Y031854D02*
D03*
X029753Y031020D02*
D03*
X028999D02*
D03*
D21*
X062650Y031575D02*
D03*
Y027325D02*
D03*
D22*
X039800Y011965D02*
D03*
Y015035D02*
D03*
X039750Y018115D02*
D03*
Y021185D02*
D03*
D23*
X024349Y013306D02*
D03*
Y012400D02*
D03*
Y011494D02*
D03*
D24*
X026751Y012400D02*
D03*
D25*
X050550Y011900D02*
D03*
X055044D02*
D03*
X050550Y014310D02*
D03*
X055044D02*
D03*
D26*
X046076Y013550D02*
D03*
X045524D02*
D03*
D27*
X048100Y012424D02*
D03*
Y012976D02*
D03*
X046700Y012976D02*
D03*
Y012424D02*
D03*
X047400Y012424D02*
D03*
Y012976D02*
D03*
X049100Y011751D02*
D03*
Y011200D02*
D03*
Y012851D02*
D03*
Y012300D02*
D03*
X066050Y025624D02*
D03*
Y026176D02*
D03*
X066650Y025624D02*
D03*
Y026176D02*
D03*
D28*
X016094Y017726D02*
D03*
Y018480D02*
D03*
X015260Y018100D02*
D03*
D29*
X016183Y026571D02*
D03*
X016380D02*
D03*
X016577D02*
D03*
X016774D02*
D03*
X016970D02*
D03*
X017167D02*
D03*
X017364D02*
D03*
X017561D02*
D03*
X017758D02*
D03*
X017955D02*
D03*
X018152D02*
D03*
X018348D02*
D03*
X018545D02*
D03*
X018742D02*
D03*
X018939D02*
D03*
X019136D02*
D03*
X019333D02*
D03*
X019530D02*
D03*
X019726D02*
D03*
X019923D02*
D03*
X020120D02*
D03*
X020317D02*
D03*
X016183Y029229D02*
D03*
X016380D02*
D03*
X016577D02*
D03*
X016774D02*
D03*
X016970D02*
D03*
X017167D02*
D03*
X017364D02*
D03*
X017561D02*
D03*
X017758D02*
D03*
X017955D02*
D03*
X018152D02*
D03*
X018348D02*
D03*
X018545D02*
D03*
X018742D02*
D03*
X018939D02*
D03*
X019136D02*
D03*
X019333D02*
D03*
X019530D02*
D03*
X019726D02*
D03*
X019923D02*
D03*
X020120D02*
D03*
X020317D02*
D03*
D30*
X065450Y028335D02*
D03*
X065950D02*
D03*
X066450D02*
D03*
X066950D02*
D03*
X065450Y030265D02*
D03*
X065950D02*
D03*
X066450D02*
D03*
X066950D02*
D03*
D31*
X050186Y017700D02*
D03*
X048414D02*
D03*
D32*
X046239Y016552D02*
D03*
Y016296D02*
D03*
Y016040D02*
D03*
Y015784D02*
D03*
Y015528D02*
D03*
Y015272D02*
D03*
Y015016D02*
D03*
Y014760D02*
D03*
Y014504D02*
D03*
Y014248D02*
D03*
X048561Y016552D02*
D03*
Y016296D02*
D03*
Y016040D02*
D03*
Y015784D02*
D03*
Y015528D02*
D03*
Y015272D02*
D03*
Y015016D02*
D03*
Y014760D02*
D03*
Y014504D02*
D03*
Y014248D02*
D03*
D33*
X047400Y015400D02*
D03*
D34*
X059685Y027550D02*
D03*
X056615D02*
D03*
D35*
X057645Y020100D02*
D03*
D36*
X061661Y021600D02*
D03*
Y021100D02*
D03*
Y020600D02*
D03*
Y019600D02*
D03*
Y019100D02*
D03*
Y018600D02*
D03*
D37*
X056566Y024802D02*
D03*
Y022998D02*
D03*
D38*
X059145Y023900D02*
D03*
D39*
X018939Y028877D02*
X019266Y028550D01*
X037350Y018050D02*
Y018526D01*
X037100Y017800D02*
X037350Y018050D01*
X035462Y017800D02*
X037100D01*
X037259Y018617D02*
X037350Y018526D01*
X032279Y014617D02*
X035462Y017800D01*
X021421Y026691D02*
X028872D01*
X021355Y026532D02*
X028938D01*
X021289Y026373D02*
X029004D01*
X021223Y026214D02*
X029070D01*
X021157Y026055D02*
X029135D01*
X020564Y025896D02*
X029201D01*
X020498Y025737D02*
X029267D01*
X020432Y025578D02*
X029333D01*
X020367Y025419D02*
X029399D01*
X027841Y025259D02*
X028500Y024600D01*
X020301Y025259D02*
X027841D01*
X032263Y025637D02*
X032850Y025050D01*
X032556Y025796D02*
X033169Y025182D01*
X029551Y025796D02*
X032556D01*
X033293Y025968D02*
X036682D01*
X033279Y025955D02*
X033293Y025968D01*
X029485Y025955D02*
X033279D01*
X033227Y026127D02*
X036748D01*
X033214Y026114D02*
X033227Y026127D01*
X029419Y026114D02*
X033214D01*
X033161Y026286D02*
X036814D01*
X033148Y026273D02*
X033161Y026286D01*
X029354Y026273D02*
X033148D01*
X033095Y026445D02*
X036880D01*
X033082Y026432D02*
X033095Y026445D01*
X029288Y026432D02*
X033082D01*
X033029Y026604D02*
X033554D01*
X033016Y026591D02*
X033029Y026604D01*
X029222Y026591D02*
X033016D01*
X032950Y026750D02*
X033150Y026950D01*
X029156Y026750D02*
X032950D01*
X020044Y024841D02*
X020103Y024782D01*
X019310Y024841D02*
X020044D01*
X020110Y025000D02*
X020169Y024941D01*
X019376Y025000D02*
X020110D01*
X020176Y025159D02*
X020235Y025100D01*
X019442Y025159D02*
X020176D01*
X020242Y025318D02*
X020301Y025259D01*
X019508Y025318D02*
X020242D01*
X020308Y025477D02*
X020367Y025419D01*
X019574Y025477D02*
X020308D01*
X020374Y025636D02*
X020432Y025578D01*
X019640Y025636D02*
X020374D01*
X020440Y025795D02*
X020498Y025737D01*
X019706Y025795D02*
X020440D01*
X020506Y025954D02*
X020564Y025896D01*
X020235Y025100D02*
X024501D01*
X020169Y024941D02*
X023894D01*
X020103Y024782D02*
X023509D01*
X024100Y023782D02*
X024176Y023706D01*
X028800Y023782D02*
X028876Y023706D01*
X033550Y027832D02*
Y028250D01*
Y027832D02*
X033626Y027756D01*
X028850Y027832D02*
X028926Y027756D01*
X033550Y024200D02*
X033626Y024124D01*
Y023706D02*
Y024124D01*
X038323Y027846D02*
Y028264D01*
Y027846D02*
X038399Y027770D01*
X019850Y023150D02*
X019900Y023100D01*
X033169Y024565D02*
X033203Y024531D01*
X033169Y024565D02*
Y025182D01*
X017955Y025670D02*
Y026571D01*
X017758Y025642D02*
Y026571D01*
X038300Y023782D02*
X038376Y023706D01*
X038300Y023782D02*
X038400Y023882D01*
Y024100D01*
X037819Y024581D02*
X037950Y024450D01*
X037819Y024581D02*
Y025282D01*
X020317Y026571D02*
X020347Y026541D01*
X020671D01*
X037926Y026282D02*
X038844Y027199D01*
X036982Y026432D02*
X037800Y027250D01*
X037048Y026273D02*
X037057Y026282D01*
X037926D01*
X036987Y026114D02*
X037819Y025282D01*
X024670Y024931D02*
X025114D01*
X024100Y023782D02*
X024200Y023882D01*
Y024150D01*
X023894Y024941D02*
X024107Y024729D01*
X024501Y025100D02*
X024670Y024931D01*
X020778Y028009D02*
X020786Y028000D01*
X024915Y028815D02*
X025050Y028950D01*
X038800Y030428D02*
Y030500D01*
X037800Y029428D02*
X038800Y030428D01*
X039786Y029269D02*
X041073Y030556D01*
X035569Y029269D02*
X039786D01*
X033950Y030209D02*
Y030250D01*
X020317Y029229D02*
X020352Y029264D01*
X024913D02*
X024918Y029269D01*
X025182D01*
X020671Y029423D02*
X024847D01*
X024852Y029428D01*
X020737Y029582D02*
X024781D01*
X024786Y029587D01*
X025314D01*
X020803Y029741D02*
X024715D01*
X024720Y029746D01*
X024649Y029900D02*
X024654Y029905D01*
X025446D01*
X025476Y030100D02*
X025576Y030000D01*
X020894Y030100D02*
X025476D01*
X020514Y030030D02*
X020803Y029741D01*
X015250Y024950D02*
X015691Y024509D01*
Y023650D02*
Y024509D01*
X017167Y028283D02*
Y029229D01*
X016577Y028577D02*
Y029229D01*
X016183Y028933D02*
Y029229D01*
X016970D02*
Y029581D01*
X017121Y029731D01*
X017132D01*
X017319Y029918D01*
Y029929D01*
X019136Y029229D02*
Y029581D01*
X015300Y028050D02*
X016183Y028933D01*
X016050Y028050D02*
X016577Y028577D01*
X017561Y028877D02*
Y029229D01*
Y028877D02*
X017692Y028746D01*
X017364Y028736D02*
Y029229D01*
X017790Y030400D02*
X017901D01*
X017582Y030417D02*
Y030532D01*
X017769Y030719D01*
X017692Y028633D02*
Y028746D01*
X020243Y027046D02*
X020251Y027054D01*
X020382D01*
X020092Y027213D02*
X020448D01*
X020026Y027372D02*
X020514D01*
X019960Y027531D02*
X020580D01*
X019894Y027691D02*
X020646D01*
X019828Y027850D02*
X020712D01*
X019763Y028009D02*
X020778D01*
X019266Y028550D02*
X020050D01*
X017692Y028633D02*
X017956Y028369D01*
X018501Y028050D02*
X018800D01*
X017956Y028369D02*
X018182D01*
X018501Y028050D01*
X017167Y028283D02*
X017400Y028050D01*
X017364Y028736D02*
X018050Y028050D01*
X015400Y029650D02*
Y030255D01*
X015196Y030460D02*
X015400Y030255D01*
X015196Y030460D02*
Y031396D01*
X015600Y031800D01*
X016419Y029918D02*
Y031269D01*
X016950Y031800D01*
X016750Y027687D02*
Y028100D01*
X016050Y027212D02*
Y028050D01*
X016400Y020400D02*
X024550D01*
X029250Y015700D01*
X016380Y028764D02*
Y029229D01*
X015985Y028369D02*
X016380Y028764D01*
X015918Y028369D02*
X015985D01*
X015731Y028182D02*
X015918Y028369D01*
X015731Y027118D02*
Y028182D01*
X014613Y026000D02*
X015731Y027118D01*
X014613Y017780D02*
X017493Y014900D01*
X029450D01*
X015300Y026912D02*
Y028050D01*
X014454Y026065D02*
X015300Y026912D01*
X014454Y017646D02*
Y026065D01*
Y017646D02*
X017450Y014650D01*
X029757D01*
X029856Y015749D02*
Y015863D01*
X029413Y015306D02*
X029856Y015749D01*
X029087Y015306D02*
X029413D01*
X028693Y015700D02*
X029087Y015306D01*
X028250Y015700D02*
X028693D01*
X029450Y014900D02*
X030250Y015700D01*
X029856Y015863D02*
X030087Y016094D01*
X030413D01*
X030644Y015863D01*
Y015556D02*
Y015863D01*
Y015556D02*
X030654Y015546D01*
X029757Y014650D02*
X030654Y015546D01*
X015691Y023650D02*
X016350D01*
X016400Y023600D01*
X024349Y012400D02*
X026658D01*
X026661Y012403D01*
X035921Y013350D02*
X038115D01*
X039800Y015035D01*
X036643Y019956D02*
X037259D01*
X036643D02*
Y020319D01*
X037715Y021185D02*
X039750D01*
X035250Y019050D02*
Y021050D01*
Y019050D02*
X035950Y018350D01*
X036604D01*
X036643Y018311D01*
X032279Y013350D02*
Y014617D01*
X036643Y018981D02*
X037006Y018617D01*
X037259D01*
X037950Y016885D02*
X039800Y015035D01*
X037950Y016885D02*
Y019264D01*
X037259Y019956D02*
X037950Y019264D01*
X030342Y011413D02*
X032279Y013350D01*
X029000Y011413D02*
X030342D01*
X035921Y011121D02*
Y013350D01*
X035200Y010400D02*
X035921Y011121D01*
X015500Y014600D02*
X015900D01*
X016400Y015100D01*
X035250Y021050D02*
X035650Y021450D01*
X037450D01*
X037715Y021185D01*
X038635Y022300D02*
X039750Y021185D01*
X028809Y022141D02*
X029250Y021700D01*
X018393Y022141D02*
X028809D01*
X018459Y022300D02*
X038635D01*
X015331Y022281D02*
X018253D01*
X018393Y022141D01*
X018939Y026571D02*
Y027185D01*
X019136Y026571D02*
Y027157D01*
X019333Y026571D02*
Y027129D01*
X019530Y026571D02*
Y027101D01*
X019726Y026571D02*
Y027073D01*
X019923Y026571D02*
Y027045D01*
X020120Y026571D02*
Y027046D01*
X020243D01*
X019923Y027045D02*
X019961Y027082D01*
Y027112D01*
X020054Y027205D01*
X020083D01*
X020092Y027213D01*
X019726Y027073D02*
X019802Y027148D01*
Y027177D01*
X019988Y027364D01*
X020017D01*
X020026Y027372D01*
X019530Y027101D02*
X019643Y027214D01*
Y027243D01*
X019922Y027523D01*
X019952D01*
X019960Y027531D01*
X019333Y027129D02*
X019484Y027280D01*
Y027309D01*
X019857Y027682D01*
X019886D01*
X019894Y027691D01*
X019136Y027157D02*
X019325Y027346D01*
Y027375D01*
X019791Y027841D01*
X019820D01*
X019828Y027850D01*
X018939Y027185D02*
X019166Y027412D01*
Y027441D01*
X019725Y028000D01*
X019754D01*
X019763Y028009D01*
X018348Y025852D02*
Y026571D01*
X018152Y025698D02*
Y026571D01*
X018545Y026005D02*
Y026571D01*
X018152Y025698D02*
X018295Y025555D01*
X017955Y025670D02*
X018229Y025396D01*
X017758Y025642D02*
X018163Y025237D01*
X018348Y025852D02*
X018486Y025714D01*
X019299Y023150D02*
X019850D01*
X019200Y023982D02*
X019476Y023706D01*
X020352Y029264D02*
X024913D01*
X020448Y029871D02*
X020737Y029582D01*
X018348Y029898D02*
X018349Y029899D01*
X018030Y030031D02*
X018268Y030269D01*
X018719D01*
X017319Y029929D02*
X017790Y030400D01*
X017065Y029900D02*
X017582Y030417D01*
X017769Y030719D02*
X018401D01*
X018444Y030676D01*
X018888Y030669D02*
X018932D01*
X019119Y030482D01*
X020054Y030189D02*
X020580D01*
X020869Y029900D01*
X024649D01*
X019988Y030348D02*
X020646D01*
X020894Y030100D01*
X020185Y029871D02*
X020448D01*
X019450Y030250D02*
Y030300D01*
X018349Y029899D02*
X018349D01*
X018719Y030269D02*
X018800Y030350D01*
X018444Y030676D02*
X018895D01*
X018888Y030669D02*
X018895Y030676D01*
X020712Y027850D02*
X021511Y027050D01*
X020646Y027691D02*
X021487Y026850D01*
X023746Y024412D02*
Y024545D01*
X021511Y027050D02*
X024400D01*
X024550Y027200D01*
X023509Y024782D02*
X023746Y024545D01*
X028800Y023782D02*
Y024200D01*
X021487Y026850D02*
X028250D01*
X028450Y027050D01*
X020580Y027531D02*
X021421Y026691D01*
X028872D02*
X029250Y027069D01*
X028938Y026532D02*
X029156Y026750D01*
X029004Y026373D02*
X029222Y026591D01*
X029070Y026214D02*
X029288Y026432D01*
X029135Y026055D02*
X029354Y026273D01*
X029201Y025896D02*
X029419Y026114D01*
X029267Y025737D02*
X029485Y025955D01*
X029333Y025578D02*
X029551Y025796D01*
X029399Y025419D02*
X029617Y025637D01*
X032263D01*
X020514Y027372D02*
X021355Y026532D01*
X020448Y027213D02*
X021289Y026373D01*
X020382Y027054D02*
X021223Y026214D01*
X020671Y026541D02*
X021157Y026055D01*
X036682Y025968D02*
X037500Y025150D01*
X036748Y026127D02*
X036761Y026114D01*
X036987D01*
X036814Y026286D02*
X036827Y026273D01*
X037048D01*
X036880Y026445D02*
X036893Y026432D01*
X036982D01*
X033554Y026604D02*
X034000Y027050D01*
X020786Y028000D02*
X022950D01*
X024000Y029050D01*
X024915D01*
Y028815D02*
Y029050D01*
X023850Y028200D02*
X024176Y027874D01*
Y027756D02*
Y027874D01*
X025314Y029587D02*
X025501Y029400D01*
X035250D02*
X035600Y029750D01*
X024720Y029746D02*
X025380D01*
X025567Y029559D01*
X033300D02*
X033950Y030209D01*
X024852Y029428D02*
X025248D01*
X025435Y029241D01*
X035316D02*
X035503Y029428D01*
X037800D01*
X035382Y029082D02*
X035569Y029269D01*
X025182D02*
X025369Y029082D01*
X028850Y027832D02*
Y028250D01*
X025446Y029905D02*
X025551Y029800D01*
X025576Y030000D02*
X028900D01*
X029350Y030450D01*
Y030550D01*
X025551Y029800D02*
X030100D01*
X030600Y030300D01*
X030700D01*
X028569Y031450D02*
X028999Y031020D01*
X025369Y029082D02*
X035382D01*
X025435Y029241D02*
X035316D01*
X025501Y029400D02*
X035250D01*
X025567Y029559D02*
X033300D01*
Y031419D02*
X033699Y031020D01*
X038399D02*
Y031201D01*
X038000Y031600D02*
X038399Y031201D01*
X016094Y017726D02*
X019226D01*
X021150Y019650D01*
X045350Y015150D02*
X045740Y014760D01*
X046239D01*
X045934Y015016D02*
X046239D01*
X045700Y015250D02*
X045934Y015016D01*
X045700Y015250D02*
Y015350D01*
X045350Y015150D02*
Y016450D01*
X047000Y010650D02*
X049650D01*
X045829Y011821D02*
X047000Y010650D01*
X046234Y014500D02*
X046239Y014504D01*
X045450Y014450D02*
X045500Y014500D01*
X049349Y013100D02*
X050550D01*
X049100Y012851D02*
X049349Y013100D01*
X044896Y015004D02*
X045450Y014450D01*
X044896Y015004D02*
Y015790D01*
X015260Y018100D02*
Y018390D01*
X015100Y018550D02*
X015260Y018390D01*
X055900Y018355D02*
X057645Y020100D01*
X055900Y017200D02*
Y018355D01*
X049100Y011751D02*
Y012300D01*
X047400Y012976D02*
X048100D01*
X048533Y015300D02*
X048561Y015272D01*
X048751Y011751D02*
X049100D01*
X048350Y011350D02*
X048751Y011751D01*
X027850Y014050D02*
X028270Y014470D01*
X029802D01*
X030833Y015501D01*
Y016674D01*
X030201Y017306D02*
X030833Y016674D01*
X030087Y017306D02*
X030201D01*
X048561Y015016D02*
X048620Y015074D01*
X046239Y016296D02*
Y016552D01*
Y016040D02*
Y016296D01*
X045350Y016450D02*
X045800Y016900D01*
X046914D01*
X046239Y016552D02*
X046663D01*
X046815Y016704D01*
X047985D01*
X048048Y016640D01*
Y015952D02*
Y016640D01*
Y015952D02*
X048200Y015800D01*
X048545D01*
X048561Y015784D01*
X046076Y013550D02*
X046150Y013476D01*
Y012450D02*
Y013476D01*
X045524Y013550D02*
Y013924D01*
X044640Y014809D02*
Y015790D01*
X046700Y012424D02*
X047400D01*
X047400Y012424D01*
X065950Y030265D02*
Y031535D01*
X065885Y031600D02*
X065950Y031535D01*
X066450Y030265D02*
Y031535D01*
X066515Y031600D01*
X066950Y028335D02*
Y028900D01*
Y029800D02*
X067000Y029750D01*
X066950Y029800D02*
Y030265D01*
X065450D02*
X065950D01*
X066450Y027650D02*
Y028335D01*
Y027650D02*
X066900Y027200D01*
X065950Y027500D02*
Y028335D01*
Y027500D02*
X066350Y027100D01*
X065450Y027300D02*
X065850Y026900D01*
X038471Y010800D02*
X041700D01*
X035921Y013350D02*
X038471Y010800D01*
X042969Y017451D02*
X043060D01*
X043360Y017752D01*
Y018010D01*
X028313Y010750D02*
X029750D01*
X026661Y012403D02*
X028313Y010750D01*
X066900Y026426D02*
Y027200D01*
X066650Y026176D02*
X066900Y026426D01*
X066050Y026176D02*
X066650D01*
X065450Y027300D02*
Y028335D01*
X017109Y023650D02*
X018459Y022300D01*
X019771Y025954D02*
X020506D01*
X019693Y026032D02*
X019771Y025954D01*
X018818Y026032D02*
X019693D01*
X018742Y026108D02*
X018818Y026032D01*
X018742Y026108D02*
Y026571D01*
X018545Y026005D02*
X018677Y025873D01*
X019627D01*
X019706Y025795D01*
X018486Y025714D02*
X019562D01*
X019640Y025636D01*
X018295Y025555D02*
X019496D01*
X019574Y025477D01*
X018229Y025396D02*
X019430D01*
X019508Y025318D01*
X018163Y025237D02*
X019364D01*
X019442Y025159D01*
X018097Y025078D02*
X019298D01*
X019376Y025000D01*
X018031Y024919D02*
X019232D01*
X019310Y024841D01*
X018381Y024068D02*
Y024119D01*
Y024068D02*
X019299Y023150D01*
X018525Y024200D02*
X018700D01*
X046500Y013850D02*
X046554Y013904D01*
X048620Y015074D02*
X048944D01*
X049120Y015272D02*
X049174Y015326D01*
X049306Y015007D02*
X049418Y015119D01*
X048944Y015074D02*
X049011Y015007D01*
X049306D01*
X049418Y015119D02*
X049418D01*
X048561Y015272D02*
X049120D01*
X048561Y016552D02*
X048800Y016790D01*
Y016950D01*
X062650Y029550D02*
Y031575D01*
Y029550D02*
X066266D01*
X066291Y029526D01*
X066776D01*
X067000Y029750D01*
X062650Y027325D02*
Y029000D01*
X066850D01*
X066950Y028900D01*
X049650Y010650D02*
X050550Y011550D01*
Y013100D01*
X025444Y010400D02*
X035200D01*
X024349Y011494D02*
X025444Y010400D01*
X025219Y011231D02*
X025600Y010850D01*
X048100Y012976D02*
X048561Y013437D01*
Y014248D01*
X048200Y013850D02*
X048246Y013896D01*
X048561Y014760D02*
X049169D01*
X048246Y014638D02*
X048368Y014760D01*
X048246Y013896D02*
Y014638D01*
X048368Y014760D02*
X048561D01*
X049300Y014600D02*
Y014630D01*
X049169Y014760D02*
X049300Y014630D01*
X045923Y015578D02*
Y015918D01*
Y015578D02*
X045973Y015528D01*
X046239D01*
X046554D01*
Y013904D02*
Y015528D01*
X045923Y015918D02*
X046045Y016040D01*
X046239D01*
X049418Y015119D02*
X049700Y015401D01*
X048561Y016296D02*
X048755D01*
X049700Y015401D02*
Y015800D01*
X048561Y016040D02*
X048990D01*
X049150Y016200D01*
X049046Y015645D02*
X049700Y016299D01*
Y016300D01*
X048561Y015528D02*
X048924D01*
X049042Y015645D01*
X049046D01*
X023555Y010700D02*
X024349Y011494D01*
X015500Y011200D02*
X016000Y010700D01*
X023555D01*
X022841Y011709D02*
X023250Y011300D01*
X024893Y011900D02*
X025219Y011574D01*
Y011231D02*
Y011574D01*
X023200Y012293D02*
Y012450D01*
Y012293D02*
X023593Y011900D01*
X024893D01*
X025406Y012094D02*
X025550Y011950D01*
X023812Y012094D02*
X025406D01*
X023748Y012158D02*
X023812Y012094D01*
X022841Y011709D02*
Y012991D01*
X023748Y012158D02*
Y013748D01*
X024100Y014100D01*
X022841Y012991D02*
X023250Y013400D01*
X025250Y015700D02*
X026200Y016650D01*
X042229Y022371D02*
X044128Y020472D01*
Y018010D02*
Y020472D01*
X041100Y022350D02*
X041342D01*
X041901Y022909D01*
X042199D01*
X042409Y022699D01*
Y022416D02*
Y022699D01*
Y022416D02*
X044287Y020538D01*
Y020523D02*
Y020538D01*
Y020523D02*
X044640Y020171D01*
Y018010D02*
Y020171D01*
X043859Y018023D02*
X043872Y018010D01*
X040280Y022200D02*
X040742D01*
X040951Y021991D01*
X043859Y018023D02*
Y020099D01*
X041967Y021991D02*
X043859Y020099D01*
X040951Y021991D02*
X041967D01*
X041550Y021450D02*
X043616Y019384D01*
Y018010D02*
Y019384D01*
X027500Y019893D02*
X030087Y017306D01*
X027500Y019893D02*
Y021450D01*
X027250Y021700D02*
X027500Y021450D01*
X044640Y014809D02*
X045524Y013924D01*
X046076Y013550D02*
Y014085D01*
X046239Y014248D01*
X045829Y011821D02*
Y014500D01*
X045500D02*
X045829D01*
X046234D01*
X017364Y025586D02*
X018031Y024919D01*
X017364Y025586D02*
Y026571D01*
X016970Y025530D02*
X018381Y024119D01*
X016970Y025530D02*
Y026571D01*
X017561Y025614D02*
X018097Y025078D01*
X017561Y025614D02*
Y026571D01*
X017168Y025557D02*
X018525Y024200D01*
X017168Y025557D02*
Y026571D01*
X019923Y029229D02*
Y029609D01*
X020185Y029871D01*
X018950Y029766D02*
X019136Y029581D01*
X020120Y029229D02*
Y029581D01*
X020251Y029712D01*
X020382D01*
X020671Y029423D01*
X019726Y029229D02*
Y029637D01*
X020120Y030030D01*
X020514D01*
X019530Y029229D02*
Y029665D01*
X020054Y030189D01*
X019333Y029229D02*
Y029786D01*
X019427Y029881D01*
X019521D01*
X019988Y030348D01*
X018950Y029766D02*
X018966D01*
X019450Y030250D01*
X018884Y029947D02*
X018923D01*
X019119Y030144D01*
Y030482D01*
X016750Y028100D02*
X016774Y028124D01*
Y029229D01*
X017758D02*
Y030257D01*
X017871Y030369D02*
X017901Y030400D01*
X018030Y029767D02*
Y030031D01*
X017871Y029701D02*
Y030369D01*
X018939Y028877D02*
Y029201D01*
X018742Y029229D02*
Y029581D01*
X018950Y029788D01*
X018545Y029229D02*
Y029609D01*
X018884Y029947D01*
X018348Y029229D02*
Y029898D01*
X018152Y029229D02*
Y029645D01*
X017955Y029229D02*
Y029617D01*
X017871Y029701D02*
X017955Y029617D01*
X018030Y029767D02*
X018152Y029645D01*
X016250Y025200D02*
Y025500D01*
X016774Y026024D01*
Y026571D01*
X014772Y025934D02*
X016050Y027212D01*
X014931Y025868D02*
X016750Y027687D01*
X014772Y022028D02*
X016400Y020400D01*
X014772Y022028D02*
Y025934D01*
X014931Y022681D02*
X015331Y022281D01*
X014931Y022681D02*
Y025868D01*
X014613Y017780D02*
Y026000D01*
X046914Y016900D02*
X047757Y017743D01*
X048371D01*
X048414Y017700D01*
X048755Y016296D02*
X049500Y017041D01*
Y017400D01*
X049800Y017700D01*
X050186D01*
D40*
X034380Y027520D02*
Y027756D01*
X029680Y027520D02*
X029900Y027300D01*
X029680Y027520D02*
Y027756D01*
X024930Y027520D02*
Y027756D01*
X039130Y023470D02*
X039300Y023300D01*
X039130Y023470D02*
Y023706D01*
X034380Y023520D02*
X034600Y023300D01*
X034380Y023520D02*
Y023706D01*
X039153Y027534D02*
X039323Y027364D01*
X039153Y027534D02*
Y027770D01*
Y030784D02*
Y031020D01*
X034453Y030834D02*
X034623Y030664D01*
X034453Y030834D02*
Y031020D01*
X029753Y030784D02*
X029923Y030614D01*
X029753Y030784D02*
Y031020D01*
X020869Y024000D02*
Y024040D01*
X024990Y024100D02*
X025569D01*
X024550Y024540D02*
X024990Y024100D01*
X029690D02*
X030269D01*
X029250Y024540D02*
X029690Y024100D01*
X034340Y028250D02*
X035019D01*
X034000Y028590D02*
X034340Y028250D01*
X024890D02*
X025569D01*
X024550Y028590D02*
X024890Y028250D01*
X039090Y024200D02*
X039769D01*
X038750Y024540D02*
X039090Y024200D01*
X034340D02*
X035019D01*
X034000Y024540D02*
X034340Y024200D01*
X039113Y028264D02*
X039792D01*
X038773Y028604D02*
X039113Y028264D01*
X034413Y031514D02*
X035092D01*
X034073Y031854D02*
X034413Y031514D01*
X029713D02*
X030392D01*
X029373Y031854D02*
X029713Y031514D01*
X040915D02*
X042154D01*
X034660Y030701D02*
X035518D01*
X034623Y030664D02*
X034660Y030701D01*
X034472Y030300D02*
X036240D01*
X020350Y024040D02*
X020869D01*
X034600Y027300D02*
X034737Y027437D01*
X034380Y027520D02*
X034600Y027300D01*
X024392Y023392D02*
X024470Y023471D01*
Y023692D01*
X024484Y023706D01*
X024930D01*
X027931Y024100D02*
X027953D01*
X029170Y023471D02*
Y023692D01*
X029184Y023706D01*
X029630D01*
X032631Y024100D02*
X032703D01*
X033410Y023392D01*
X033842D01*
X033920Y023471D01*
Y023692D01*
X033934Y023706D01*
X034380D01*
X029630Y023420D02*
Y023706D01*
X037381Y024172D02*
Y024200D01*
Y024172D02*
X038160Y023392D01*
X038592D01*
X038670Y023471D01*
Y023692D01*
X038684Y023706D01*
X039130D01*
X020230Y023320D02*
Y023706D01*
Y023320D02*
X020400Y023150D01*
X024930Y023706D02*
X025000Y023636D01*
Y023400D02*
Y023636D01*
Y023400D02*
X025200Y023200D01*
Y023150D02*
Y023200D01*
X023839Y023392D02*
X024392D01*
X027931Y028222D02*
Y028250D01*
Y028222D02*
X028710Y027442D01*
X029142D01*
X029220Y027521D01*
X032681Y028172D02*
Y028250D01*
Y028172D02*
X033410Y027442D01*
X033842D01*
X033920Y027521D01*
Y027742D01*
X033934Y027756D01*
X034380D01*
X037381Y028250D02*
X037390D01*
X038183Y027456D01*
X038614D01*
X038693Y027535D01*
Y027757D01*
X038707Y027770D01*
X039153D01*
X041650Y024681D02*
X042131Y024200D01*
X024930Y027520D02*
X025100Y027350D01*
X023231Y024000D02*
X023839Y023392D01*
X025150Y027350D02*
X025237Y027437D01*
X025100Y027350D02*
X025150D01*
X019850Y024540D02*
X020350Y024040D01*
X041800Y029200D02*
X042154Y028846D01*
Y028264D02*
Y028846D01*
X039750Y021185D02*
X040750Y020185D01*
X020154Y023706D02*
X020230D01*
X019360Y024500D02*
X020154Y023706D01*
X019200Y024500D02*
X019360D01*
X029630Y023420D02*
X029800Y023250D01*
X027953Y024100D02*
X028660Y023392D01*
X029092D01*
X029170Y023471D01*
X027931Y024100D02*
Y024619D01*
X027650Y024900D02*
X027931Y024619D01*
X027600Y024900D02*
X027650D01*
X032631Y024100D02*
Y024669D01*
X032100Y025200D02*
X032631Y024669D01*
X037381Y024200D02*
Y024719D01*
X036850Y025250D02*
X037381Y024719D01*
X024854Y027756D02*
X024930D01*
X024150Y028460D02*
X024854Y027756D01*
X024150Y028460D02*
Y028671D01*
X024121Y028700D02*
X024150Y028671D01*
X029220Y027521D02*
Y027742D01*
X029234Y027756D01*
X029680D01*
X027931Y028250D02*
Y028619D01*
X027750Y028750D02*
Y028800D01*
X027931Y028619D01*
X032681Y028250D02*
Y028419D01*
X032360Y028750D02*
X032400D01*
X032360Y028740D02*
X032681Y028419D01*
X032360Y028740D02*
Y028750D01*
X037381Y028250D02*
Y028569D01*
X037050Y028900D02*
X037381Y028569D01*
X029300Y028590D02*
X029640Y028250D01*
X030319D01*
X029923Y030614D02*
X029953Y030644D01*
X034129D02*
X034472Y030300D01*
X029307Y031020D02*
X029753D01*
X029293Y031034D02*
X029307Y031020D01*
X029293Y031034D02*
Y031256D01*
X028755Y031794D02*
X029293Y031256D01*
X028106Y031794D02*
X028755D01*
X028100Y031800D02*
X028106Y031794D01*
X027936Y031800D02*
X028100D01*
X027436Y031300D02*
X027936Y031800D01*
X029953Y030644D02*
X034129D01*
X034007Y031020D02*
X034453D01*
X033993Y031034D02*
X034007Y031020D01*
X033993Y031034D02*
Y031370D01*
X033056Y032308D02*
X033993Y031370D01*
X030090Y032308D02*
X033056D01*
X030082Y032300D02*
X030090Y032308D01*
X027646Y032300D02*
X030082D01*
X026646Y031300D02*
X027646Y032300D01*
X036240Y030300D02*
X037454Y031514D01*
X038773Y031854D02*
X039113Y031514D01*
X039792D01*
X039153Y030784D02*
X039323Y030614D01*
X039153Y031020D02*
Y031247D01*
X039095Y031305D02*
X039153Y031247D01*
X038792Y031305D02*
X039095D01*
X038200Y031897D02*
Y032300D01*
Y031897D02*
X038792Y031305D01*
X035518Y030701D02*
X037467Y032650D01*
X039779D01*
X040915Y031514D01*
X041650Y024681D02*
Y025150D01*
X040750Y012350D02*
Y020185D01*
X019150Y024550D02*
X019200Y024500D01*
X040750Y012350D02*
X043122Y009978D01*
X058716D01*
X059250Y010512D01*
Y013855D01*
X061250Y015855D01*
D41*
X048414Y017700D02*
Y018366D01*
X049200Y019152D01*
D42*
X017109Y023650D02*
D03*
X015691D02*
D03*
D43*
X056625Y025250D02*
D03*
D44*
X056550Y023875D02*
D03*
D45*
X016950Y031800D02*
D03*
X015600D02*
D03*
X015500Y011200D02*
D03*
Y015600D02*
D03*
D46*
X016950Y030800D02*
D03*
X015600D02*
D03*
X015500Y012200D02*
D03*
Y014600D02*
D03*
D47*
X017440Y012900D02*
D03*
X018228D02*
D03*
X022165D02*
D03*
X021377D02*
D03*
X020590D02*
D03*
X019800D02*
D03*
X019010D02*
D03*
X026646Y031300D02*
D03*
X027436D02*
D03*
X025861D02*
D03*
X025071D02*
D03*
X024281D02*
D03*
X023494D02*
D03*
X022706D02*
D03*
X018769D02*
D03*
X019557D02*
D03*
X020344D02*
D03*
X021134D02*
D03*
X021924D02*
D03*
D48*
X052800Y011900D02*
D03*
Y013700D02*
D03*
D49*
X049200Y019152D02*
D03*
X049436Y030648D02*
D03*
D50*
X017250Y015700D02*
D03*
X018250D02*
D03*
X019250D02*
D03*
X020250D02*
D03*
X021250D02*
D03*
X022250D02*
D03*
X023250D02*
D03*
X024250D02*
D03*
X025250D02*
D03*
X026250D02*
D03*
X027250D02*
D03*
X028250D02*
D03*
X029250D02*
D03*
X030250D02*
D03*
Y016700D02*
D03*
Y017700D02*
D03*
Y018700D02*
D03*
Y019700D02*
D03*
Y020700D02*
D03*
Y021700D02*
D03*
X029250D02*
D03*
X028250D02*
D03*
X027250D02*
D03*
X026250D02*
D03*
X025250D02*
D03*
X024250D02*
D03*
X023250D02*
D03*
X022250D02*
D03*
X021250D02*
D03*
X020250D02*
D03*
X019250D02*
D03*
X018250D02*
D03*
X017250D02*
D03*
D51*
X033550Y028250D02*
D03*
Y024200D02*
D03*
X038323Y028264D02*
D03*
X039300Y023300D02*
D03*
X034600D02*
D03*
X039323Y027364D02*
D03*
X034623Y030664D02*
D03*
X029923Y030614D02*
D03*
X034600Y027300D02*
D03*
X020400Y023150D02*
D03*
X019900Y023100D02*
D03*
X025200Y023150D02*
D03*
X032850Y025050D02*
D03*
X033203Y024531D02*
D03*
X037500Y025150D02*
D03*
X025114Y024931D02*
D03*
X038400Y024100D02*
D03*
X037950Y024450D02*
D03*
X029900Y027300D02*
D03*
X038844Y027199D02*
D03*
X037800Y027250D02*
D03*
X034000Y027050D02*
D03*
X033150Y026950D02*
D03*
X029250Y027069D02*
D03*
X025150Y027350D02*
D03*
X023746Y024412D02*
D03*
X024200Y024150D02*
D03*
X024107Y024729D02*
D03*
X028450Y027050D02*
D03*
X024550Y027200D02*
D03*
X025050Y028950D02*
D03*
X041800Y029200D02*
D03*
X041073Y030556D02*
D03*
X038800Y030500D02*
D03*
X035600Y029750D02*
D03*
X033950Y030250D02*
D03*
X015250Y024950D02*
D03*
X016250Y025200D02*
D03*
X016750Y028100D02*
D03*
X017000Y030050D02*
D03*
X015300Y028050D02*
D03*
X016050D02*
D03*
X017901Y030400D02*
D03*
X020050Y028550D02*
D03*
X018800Y028050D02*
D03*
X017400D02*
D03*
X018050D02*
D03*
X015400Y029650D02*
D03*
X016419Y029918D02*
D03*
X016400Y023600D02*
D03*
X019450Y030300D02*
D03*
X018349Y029899D02*
D03*
X018800Y030350D02*
D03*
X023200Y024000D02*
D03*
X029800Y023250D02*
D03*
X028800Y024200D02*
D03*
X028500Y024600D02*
D03*
X027600Y024900D02*
D03*
X032100Y025200D02*
D03*
X036850Y025250D02*
D03*
X023850Y028200D02*
D03*
X024121Y028700D02*
D03*
X028850Y028250D02*
D03*
X027750Y028750D02*
D03*
X032400D02*
D03*
X037050Y028900D02*
D03*
X029350Y030550D02*
D03*
X030700Y030300D02*
D03*
X028569Y031450D02*
D03*
X033300Y031419D02*
D03*
X039323Y030614D02*
D03*
X038200Y032300D02*
D03*
X038000Y031600D02*
D03*
X056350Y027050D02*
D03*
X056900D02*
D03*
Y026500D02*
D03*
X056350D02*
D03*
X045700Y015350D02*
D03*
X045450Y014450D02*
D03*
X015100Y018550D02*
D03*
X048350Y011350D02*
D03*
X027850Y014050D02*
D03*
X046150Y012450D02*
D03*
X066900Y027200D02*
D03*
X066350Y027100D02*
D03*
X065850Y026900D02*
D03*
X041650Y025150D02*
D03*
X042969Y017451D02*
D03*
X029750Y010750D02*
D03*
X019200Y024050D02*
D03*
X019150Y024550D02*
D03*
X018700Y024200D02*
D03*
X046500Y013850D02*
D03*
X049174Y015326D02*
D03*
X048800Y016950D02*
D03*
X064650Y011850D02*
D03*
X059750D02*
D03*
X048200Y013850D02*
D03*
X049300Y014600D02*
D03*
X049700Y015800D02*
D03*
Y016300D02*
D03*
X049150Y016200D02*
D03*
D52*
X026661Y012403D02*
D03*
X016400Y015100D02*
D03*
X021150Y019650D02*
D03*
X055900Y017200D02*
D03*
X041700Y010800D02*
D03*
X038800Y025900D02*
D03*
X038350Y020450D02*
D03*
X022600Y028550D02*
D03*
X047400Y014600D02*
D03*
X041850Y026850D02*
D03*
X027650Y030450D02*
D03*
X032650Y031150D02*
D03*
X063550Y017850D02*
D03*
X023200Y012450D02*
D03*
X025600Y010850D02*
D03*
X063850Y013550D02*
D03*
X066850Y018100D02*
D03*
X067600Y011550D02*
D03*
X061700Y022900D02*
D03*
X061650Y018550D02*
D03*
X023250Y011300D02*
D03*
X021400Y017300D02*
D03*
X017750Y018450D02*
D03*
X025550Y011950D02*
D03*
X024100Y014100D02*
D03*
X023250Y013400D02*
D03*
X026200Y016650D02*
D03*
X042050Y022550D02*
D03*
X041100Y022350D02*
D03*
X040300Y022200D02*
D03*
X043300Y014950D02*
D03*
X041550Y021450D02*
D03*
X027900Y022950D02*
D03*
X045350Y018900D02*
D03*
X028100Y020500D02*
D03*
X044400Y011500D02*
D03*
X067900Y024350D02*
D03*
M02*
