G04 Layer_Color=16711935*
%FSAX24Y24*%
%MOIN*%
G70*
G01*
G75*
%ADD84R,0.0434X0.0474*%
%ADD93R,0.0356X0.0434*%
%ADD94R,0.0434X0.0356*%
%ADD95R,0.0440X0.0400*%
%ADD107C,0.0671*%
%ADD108R,0.0671X0.0671*%
%ADD109C,0.0710*%
%ADD110C,0.0880*%
%ADD111C,0.1037*%
%ADD112C,0.0650*%
%ADD113C,0.0280*%
%ADD114C,0.0360*%
%ADD115R,0.0474X0.0434*%
%ADD116R,0.0328X0.0407*%
%ADD117R,0.0513X0.0513*%
%ADD118R,0.0612X0.0454*%
%ADD119R,0.1104X0.1025*%
%ADD120R,0.0316X0.0395*%
%ADD121R,0.0612X0.2167*%
%ADD122R,0.0454X0.0612*%
%ADD123R,0.0438X0.0560*%
%ADD124R,0.1360X0.0493*%
%ADD125R,0.0454X0.0749*%
%ADD126R,0.0300X0.0550*%
D84*
X026385Y013700D02*
D03*
X027015D02*
D03*
X040288Y031114D02*
D03*
X039658D02*
D03*
X035588D02*
D03*
X034958D02*
D03*
X030888D02*
D03*
X030258D02*
D03*
X021365Y023600D02*
D03*
X020735D02*
D03*
X030765Y023700D02*
D03*
X030135D02*
D03*
X026065D02*
D03*
X025435D02*
D03*
X035515Y023800D02*
D03*
X034885D02*
D03*
X040265D02*
D03*
X039635D02*
D03*
X026065Y027850D02*
D03*
X025435D02*
D03*
X035515D02*
D03*
X034885D02*
D03*
X030815D02*
D03*
X030185D02*
D03*
X040288Y027864D02*
D03*
X039658D02*
D03*
D93*
X064724Y016200D02*
D03*
X065276D02*
D03*
X062576Y014200D02*
D03*
X062024D02*
D03*
X047776Y013900D02*
D03*
X047224D02*
D03*
X047776Y013300D02*
D03*
X047224D02*
D03*
X043174Y016350D02*
D03*
X043726D02*
D03*
X026424Y020900D02*
D03*
X026976D02*
D03*
X025324D02*
D03*
X025876D02*
D03*
X060326Y019200D02*
D03*
X059774D02*
D03*
X021724Y020900D02*
D03*
X022276D02*
D03*
D94*
X029400Y016424D02*
D03*
Y016976D02*
D03*
X045700Y016176D02*
D03*
Y015624D02*
D03*
X048100Y015276D02*
D03*
Y014724D02*
D03*
X043726Y013594D02*
D03*
Y013043D02*
D03*
X062700Y015300D02*
D03*
Y014749D02*
D03*
Y016400D02*
D03*
Y015849D02*
D03*
X064800Y014576D02*
D03*
Y014024D02*
D03*
X049100Y012576D02*
D03*
Y012024D02*
D03*
Y013776D02*
D03*
Y013224D02*
D03*
X062450Y019876D02*
D03*
Y019324D02*
D03*
Y021376D02*
D03*
Y020824D02*
D03*
X060350Y020376D02*
D03*
Y019824D02*
D03*
Y021476D02*
D03*
Y020924D02*
D03*
X015600Y023376D02*
D03*
Y022824D02*
D03*
X016700Y027826D02*
D03*
Y027274D02*
D03*
X016000Y027826D02*
D03*
Y027274D02*
D03*
X015300Y027850D02*
D03*
Y027299D02*
D03*
X017400Y027826D02*
D03*
Y027274D02*
D03*
X018100Y027826D02*
D03*
Y027274D02*
D03*
X018800Y027826D02*
D03*
Y027274D02*
D03*
X019550Y027274D02*
D03*
Y027826D02*
D03*
X068100Y017024D02*
D03*
Y017576D02*
D03*
X015600Y024576D02*
D03*
Y024024D02*
D03*
D95*
X064094Y016174D02*
D03*
Y015420D02*
D03*
X063260Y015800D02*
D03*
X063306Y014026D02*
D03*
Y014780D02*
D03*
X064140Y014400D02*
D03*
X060910Y021000D02*
D03*
X061744Y020620D02*
D03*
Y021374D02*
D03*
X060956Y019226D02*
D03*
Y019980D02*
D03*
X061790Y019600D02*
D03*
X068094Y016474D02*
D03*
Y015720D02*
D03*
X067260Y016100D02*
D03*
D107*
X016950Y031800D02*
D03*
X015600D02*
D03*
X015500Y011200D02*
D03*
Y015600D02*
D03*
D108*
X016950Y030800D02*
D03*
X015600D02*
D03*
X015500Y012200D02*
D03*
Y014600D02*
D03*
D109*
X017440Y012900D02*
D03*
X018228D02*
D03*
X022165D02*
D03*
X021377D02*
D03*
X020590D02*
D03*
X019800D02*
D03*
X019010D02*
D03*
X026646Y031300D02*
D03*
X027436D02*
D03*
X025861D02*
D03*
X025071D02*
D03*
X024281D02*
D03*
X023494D02*
D03*
X022706D02*
D03*
X018769D02*
D03*
X019557D02*
D03*
X020344D02*
D03*
X021134D02*
D03*
X021924D02*
D03*
D110*
X052800Y011900D02*
D03*
Y013700D02*
D03*
D111*
X049200Y019152D02*
D03*
X049436Y030648D02*
D03*
D112*
X017250Y015700D02*
D03*
X018250D02*
D03*
X019250D02*
D03*
X020250D02*
D03*
X021250D02*
D03*
X022250D02*
D03*
X023250D02*
D03*
X024250D02*
D03*
X025250D02*
D03*
X026250D02*
D03*
X027250D02*
D03*
X028250D02*
D03*
X029250D02*
D03*
X030250D02*
D03*
Y016700D02*
D03*
Y017700D02*
D03*
Y018700D02*
D03*
Y019700D02*
D03*
Y020700D02*
D03*
Y021700D02*
D03*
X029250D02*
D03*
X028250D02*
D03*
X027250D02*
D03*
X026250D02*
D03*
X025250D02*
D03*
X024250D02*
D03*
X023250D02*
D03*
X022250D02*
D03*
X021250D02*
D03*
X020250D02*
D03*
X019250D02*
D03*
X018250D02*
D03*
X017250D02*
D03*
D113*
X033550Y028250D02*
D03*
Y024200D02*
D03*
X038323Y028264D02*
D03*
X039300Y023300D02*
D03*
X034600D02*
D03*
X039323Y027364D02*
D03*
X034623Y030664D02*
D03*
X029923Y030614D02*
D03*
X034600Y027300D02*
D03*
X020400Y023150D02*
D03*
X019900Y023100D02*
D03*
X025200Y023150D02*
D03*
X032850Y025050D02*
D03*
X033203Y024531D02*
D03*
X037500Y025150D02*
D03*
X025114Y024931D02*
D03*
X038400Y024100D02*
D03*
X037950Y024450D02*
D03*
X029900Y027300D02*
D03*
X038844Y027199D02*
D03*
X037800Y027250D02*
D03*
X034000Y027050D02*
D03*
X033150Y026950D02*
D03*
X029250Y027069D02*
D03*
X025150Y027350D02*
D03*
X023746Y024412D02*
D03*
X024200Y024150D02*
D03*
X024107Y024729D02*
D03*
X028450Y027050D02*
D03*
X024550Y027200D02*
D03*
X025050Y028950D02*
D03*
X041800Y029200D02*
D03*
X041073Y030556D02*
D03*
X038800Y030500D02*
D03*
X035600Y029750D02*
D03*
X033950Y030250D02*
D03*
X015250Y024950D02*
D03*
X016250Y025200D02*
D03*
X016750Y028100D02*
D03*
X017000Y030050D02*
D03*
X015300Y028050D02*
D03*
X016050D02*
D03*
X017901Y030400D02*
D03*
X020050Y028550D02*
D03*
X018800Y028050D02*
D03*
X017400D02*
D03*
X018050D02*
D03*
X015400Y029650D02*
D03*
X016419Y029918D02*
D03*
X016400Y023600D02*
D03*
X019450Y030300D02*
D03*
X018349Y029899D02*
D03*
X018800Y030350D02*
D03*
X023200Y024000D02*
D03*
X029800Y023250D02*
D03*
X028800Y024200D02*
D03*
X028500Y024600D02*
D03*
X027600Y024900D02*
D03*
X032100Y025200D02*
D03*
X036850Y025250D02*
D03*
X023850Y028200D02*
D03*
X024121Y028700D02*
D03*
X028850Y028250D02*
D03*
X027750Y028750D02*
D03*
X032400D02*
D03*
X037050Y028900D02*
D03*
X029350Y030550D02*
D03*
X030700Y030300D02*
D03*
X028569Y031450D02*
D03*
X033300Y031419D02*
D03*
X039323Y030614D02*
D03*
X038200Y032300D02*
D03*
X038000Y031600D02*
D03*
X056350Y027050D02*
D03*
X056900D02*
D03*
Y026500D02*
D03*
X056350D02*
D03*
X045700Y015350D02*
D03*
X045450Y014450D02*
D03*
X015100Y018550D02*
D03*
X048350Y011350D02*
D03*
X027850Y014050D02*
D03*
X046150Y012450D02*
D03*
X066900Y027200D02*
D03*
X066350Y027100D02*
D03*
X065850Y026900D02*
D03*
X041650Y025150D02*
D03*
X042969Y017451D02*
D03*
X029750Y010750D02*
D03*
X019200Y024050D02*
D03*
X019150Y024550D02*
D03*
X018700Y024200D02*
D03*
X046500Y013850D02*
D03*
X049174Y015326D02*
D03*
X048800Y016950D02*
D03*
X064650Y011850D02*
D03*
X059750D02*
D03*
X048200Y013850D02*
D03*
X049300Y014600D02*
D03*
X049700Y015800D02*
D03*
Y016300D02*
D03*
X049150Y016200D02*
D03*
D114*
X026661Y012403D02*
D03*
X016400Y015100D02*
D03*
X021150Y019650D02*
D03*
X055900Y017200D02*
D03*
X041700Y010800D02*
D03*
X038800Y025900D02*
D03*
X038350Y020450D02*
D03*
X022600Y028550D02*
D03*
X047400Y014600D02*
D03*
X041850Y026850D02*
D03*
X027650Y030450D02*
D03*
X032650Y031150D02*
D03*
X063550Y017850D02*
D03*
X023200Y012450D02*
D03*
X025600Y010850D02*
D03*
X063850Y013550D02*
D03*
X066850Y018100D02*
D03*
X067600Y011550D02*
D03*
X061700Y022900D02*
D03*
X061650Y018550D02*
D03*
X023250Y011300D02*
D03*
X021400Y017300D02*
D03*
X017750Y018450D02*
D03*
X025550Y011950D02*
D03*
X024100Y014100D02*
D03*
X023250Y013400D02*
D03*
X026200Y016650D02*
D03*
X042050Y022550D02*
D03*
X041100Y022350D02*
D03*
X040300Y022200D02*
D03*
X043300Y014950D02*
D03*
X041550Y021450D02*
D03*
X027900Y022950D02*
D03*
X045350Y018900D02*
D03*
X028100Y020500D02*
D03*
X044400Y011500D02*
D03*
X067900Y024350D02*
D03*
D115*
X017300Y020515D02*
D03*
Y019885D02*
D03*
X038973Y031099D02*
D03*
Y031729D02*
D03*
X034273Y031099D02*
D03*
Y031729D02*
D03*
X018100Y020515D02*
D03*
Y019885D02*
D03*
X019700Y020515D02*
D03*
Y019885D02*
D03*
X018900Y020515D02*
D03*
Y019885D02*
D03*
X018850Y029165D02*
D03*
Y028535D02*
D03*
X019550Y029165D02*
D03*
Y028535D02*
D03*
X015550Y029150D02*
D03*
Y028520D02*
D03*
X018000Y029150D02*
D03*
Y028520D02*
D03*
X017200Y029150D02*
D03*
Y028520D02*
D03*
X016350Y029150D02*
D03*
Y028520D02*
D03*
X020050Y023585D02*
D03*
Y024215D02*
D03*
X024750Y023685D02*
D03*
Y024315D02*
D03*
X029450Y023685D02*
D03*
Y024315D02*
D03*
X034200Y023785D02*
D03*
Y024415D02*
D03*
X038950Y023785D02*
D03*
Y024415D02*
D03*
X024750Y027835D02*
D03*
Y028465D02*
D03*
X029500Y027835D02*
D03*
Y028465D02*
D03*
X034200Y027835D02*
D03*
Y028465D02*
D03*
X038973Y027849D02*
D03*
Y028479D02*
D03*
X029573Y031099D02*
D03*
Y031729D02*
D03*
D116*
X040412Y031714D02*
D03*
X039534D02*
D03*
X035712D02*
D03*
X034834D02*
D03*
X031012D02*
D03*
X030134D02*
D03*
X026189Y024300D02*
D03*
X025311D02*
D03*
X021489Y024200D02*
D03*
X020611D02*
D03*
X030889Y024300D02*
D03*
X030011D02*
D03*
X035639Y024400D02*
D03*
X034761D02*
D03*
X040389D02*
D03*
X039511D02*
D03*
X026189Y028450D02*
D03*
X025311D02*
D03*
X030939D02*
D03*
X030061D02*
D03*
X035639D02*
D03*
X034761D02*
D03*
X040412Y028464D02*
D03*
X039534D02*
D03*
D117*
X041073Y031060D02*
D03*
Y031769D02*
D03*
X036373Y031060D02*
D03*
Y031769D02*
D03*
X031673Y031060D02*
D03*
Y031769D02*
D03*
X022150Y023546D02*
D03*
Y024254D02*
D03*
X026850Y023646D02*
D03*
Y024354D02*
D03*
X031550Y023646D02*
D03*
Y024354D02*
D03*
X036300Y023746D02*
D03*
Y024454D02*
D03*
X041050Y023746D02*
D03*
Y024454D02*
D03*
X026850Y027796D02*
D03*
Y028504D02*
D03*
X036300Y027796D02*
D03*
Y028504D02*
D03*
X031600Y027796D02*
D03*
Y028504D02*
D03*
X041073Y027910D02*
D03*
Y028619D02*
D03*
D118*
X044726Y013584D02*
D03*
Y012954D02*
D03*
D119*
X026661Y012403D02*
D03*
X024141D02*
D03*
D120*
X046700Y014608D02*
D03*
Y015592D02*
D03*
D121*
X056594Y026850D02*
D03*
X054606D02*
D03*
X056594Y024250D02*
D03*
X054606D02*
D03*
X056594Y021650D02*
D03*
X054606D02*
D03*
X056594Y019150D02*
D03*
X054606D02*
D03*
D122*
X043161Y017200D02*
D03*
X043791D02*
D03*
D123*
X016556Y024350D02*
D03*
X017844D02*
D03*
D124*
X067600Y012458D02*
D03*
Y014742D02*
D03*
D125*
X044399Y014500D02*
D03*
X045501D02*
D03*
D126*
X050750Y025805D02*
D03*
X050250D02*
D03*
X049750D02*
D03*
X049250D02*
D03*
X050750Y027795D02*
D03*
X050250D02*
D03*
X049750D02*
D03*
X049250D02*
D03*
X053350Y025805D02*
D03*
X052850D02*
D03*
X052350D02*
D03*
X051850D02*
D03*
X053350Y027795D02*
D03*
X052850D02*
D03*
X052350D02*
D03*
X051850D02*
D03*
M02*
