G04 Layer_Color=8388736*
%FSAX24Y24*%
%MOIN*%
G70*
G01*
G75*
%ADD11R,0.0630X0.0472*%
%ADD78R,0.0572X0.1399*%
%ADD79R,0.4253X0.3545*%
%ADD80R,0.0453X0.1674*%
%ADD81R,0.0867X0.0867*%
%ADD82R,0.3230X0.4174*%
%ADD83R,0.1222X0.0474*%
%ADD84R,0.0434X0.0474*%
%ADD85R,0.0220X0.0660*%
G04:AMPARAMS|DCode=86|XSize=195mil|YSize=559.2mil|CornerRadius=97.5mil|HoleSize=0mil|Usage=FLASHONLY|Rotation=0.000|XOffset=0mil|YOffset=0mil|HoleType=Round|Shape=RoundedRectangle|*
%AMROUNDEDRECTD86*
21,1,0.1950,0.3642,0,0,0.0*
21,1,0.0000,0.5592,0,0,0.0*
1,1,0.1950,0.0000,-0.1821*
1,1,0.1950,0.0000,-0.1821*
1,1,0.1950,0.0000,0.1821*
1,1,0.1950,0.0000,0.1821*
%
%ADD86ROUNDEDRECTD86*%
%ADD87R,0.0400X0.0440*%
%ADD88R,0.3420X0.2130*%
%ADD89R,0.0474X0.1340*%
%ADD90R,0.1064X0.0474*%
%ADD91R,0.1064X0.1379*%
%ADD92R,0.1030X0.1190*%
%ADD93R,0.0356X0.0434*%
%ADD94R,0.0434X0.0356*%
%ADD95R,0.0440X0.0400*%
%ADD96O,0.0178X0.0828*%
%ADD97O,0.0356X0.1064*%
%ADD98R,0.0493X0.1104*%
%ADD99R,0.0493X0.0257*%
%ADD100R,0.1159X0.2470*%
%ADD101R,0.1340X0.0474*%
%ADD102R,0.3545X0.4253*%
%ADD103R,0.1674X0.0453*%
%ADD104R,0.1202X0.0572*%
%ADD105R,0.2560X0.2265*%
%ADD106R,0.1280X0.2430*%
%ADD107C,0.0671*%
%ADD108R,0.0671X0.0671*%
%ADD109C,0.0710*%
%ADD110C,0.0880*%
%ADD111C,0.1037*%
%ADD112C,0.0650*%
%ADD113C,0.0280*%
%ADD114C,0.0360*%
G36*
X033219Y016146D02*
X033225Y016145D01*
X033230Y016143D01*
X033234Y016141D01*
X033239Y016138D01*
X033243Y016134D01*
X033246Y016130D01*
X033249Y016126D01*
X033251Y016121D01*
X033253Y016116D01*
X033254Y016111D01*
X033254Y016106D01*
Y010594D01*
X033254Y010589D01*
X033253Y010584D01*
X033251Y010579D01*
X033249Y010574D01*
X033246Y010570D01*
X033243Y010566D01*
X033239Y010562D01*
X033234Y010559D01*
X033230Y010557D01*
X033225Y010555D01*
X033219Y010554D01*
X033214Y010554D01*
X031712D01*
X031707Y010554D01*
X031630Y010564D01*
X031625Y010566D01*
X031620Y010567D01*
X031524Y010607D01*
X031519Y010609D01*
X031515Y010612D01*
X031433Y010675D01*
X031429Y010679D01*
Y010679D01*
X031429D01*
X031425Y010683D01*
X031362Y010765D01*
X031359Y010769D01*
X031357Y010774D01*
X031317Y010870D01*
X031316Y010875D01*
X031314Y010880D01*
X031304Y010957D01*
X031304Y010962D01*
Y010962D01*
D01*
Y010988D01*
Y015712D01*
Y015738D01*
X031304Y015743D01*
X031314Y015820D01*
X031316Y015825D01*
X031317Y015830D01*
X031357Y015926D01*
X031359Y015931D01*
X031362Y015935D01*
X031425Y016017D01*
X031429Y016021D01*
X031433Y016025D01*
X031433Y016025D01*
X031515Y016088D01*
X031517Y016089D01*
X031519Y016091D01*
X031524Y016093D01*
X031620Y016133D01*
X031625Y016134D01*
X031630Y016136D01*
X031707Y016146D01*
X031712Y016146D01*
X031712D01*
D01*
X033214D01*
X033219Y016146D01*
D02*
G37*
G36*
X068405Y012740D02*
X068410Y012739D01*
X068415Y012737D01*
X068420Y012735D01*
X068424Y012732D01*
X068428Y012728D01*
X068432Y012724D01*
X068435Y012720D01*
X068437Y012715D01*
X068439Y012710D01*
X068440Y012705D01*
X068440Y012700D01*
X068440Y010500D01*
X068440Y010495D01*
X068439Y010490D01*
X068437Y010485D01*
X068435Y010480D01*
X068432Y010476D01*
X068428Y010472D01*
X068128Y010172D01*
X068124Y010168D01*
X068120Y010165D01*
X068115Y010163D01*
X068110Y010161D01*
X068105Y010160D01*
X068100Y010160D01*
X060300Y010160D01*
X060295Y010160D01*
X060290Y010161D01*
X060285Y010163D01*
X060280Y010165D01*
X060276Y010168D01*
X060272Y010172D01*
X060022Y010422D01*
X060018Y010426D01*
X060015Y010430D01*
X060013Y010435D01*
X060011Y010440D01*
X060010Y010445D01*
X060010Y010450D01*
Y012700D01*
X060010Y012705D01*
X060011Y012710D01*
X060013Y012715D01*
X060015Y012720D01*
X060018Y012724D01*
X060022Y012728D01*
X060026Y012732D01*
X060030Y012735D01*
X060035Y012737D01*
X060040Y012739D01*
X060045Y012740D01*
X060050Y012740D01*
X064350D01*
X064355Y012740D01*
X064360Y012739D01*
X064365Y012737D01*
X064370Y012735D01*
X064374Y012732D01*
X064378Y012728D01*
X064382Y012724D01*
X064385Y012720D01*
X064387Y012715D01*
X064389Y012710D01*
X064390Y012705D01*
X064390Y012700D01*
Y010990D01*
X064910D01*
X064910Y012700D01*
X064910Y012705D01*
X064911Y012710D01*
X064913Y012715D01*
X064915Y012720D01*
X064918Y012724D01*
X064922Y012728D01*
X064926Y012732D01*
X064930Y012735D01*
X064935Y012737D01*
X064940Y012739D01*
X064945Y012740D01*
X064950Y012740D01*
X068400Y012740D01*
X068405Y012740D01*
D02*
G37*
G36*
X056805Y014990D02*
X056810Y014989D01*
X056815Y014987D01*
X056820Y014985D01*
X056824Y014982D01*
X056828Y014978D01*
X058678Y013128D01*
X058682Y013124D01*
X058685Y013120D01*
X058687Y013115D01*
X058689Y013110D01*
X058690Y013105D01*
X058690Y013100D01*
X058690Y010650D01*
X058690Y010645D01*
X058689Y010640D01*
X058687Y010635D01*
X058685Y010630D01*
X058682Y010626D01*
X058678Y010622D01*
X058278Y010222D01*
X058274Y010218D01*
X058270Y010215D01*
X058265Y010213D01*
X058260Y010211D01*
X058255Y010210D01*
X058250Y010210D01*
X054850D01*
X054845Y010210D01*
X054840Y010211D01*
X054835Y010213D01*
X054830Y010215D01*
X054826Y010218D01*
X054822Y010222D01*
X054422Y010622D01*
X054418Y010626D01*
X054415Y010630D01*
X054413Y010635D01*
X054411Y010640D01*
X054410Y010645D01*
X054410Y010650D01*
Y014950D01*
X054410Y014955D01*
X054411Y014960D01*
X054413Y014965D01*
X054415Y014970D01*
X054418Y014974D01*
X054422Y014978D01*
X054426Y014982D01*
X054430Y014985D01*
X054435Y014987D01*
X054440Y014989D01*
X054445Y014990D01*
X054450Y014990D01*
X056800D01*
X056805Y014990D01*
D02*
G37*
G36*
X036493Y016146D02*
X036570Y016136D01*
X036575Y016134D01*
X036580Y016133D01*
X036676Y016093D01*
X036681Y016091D01*
X036685Y016088D01*
X036767Y016025D01*
X036771Y016021D01*
Y016021D01*
X036771D01*
X036775Y016017D01*
X036838Y015935D01*
X036841Y015931D01*
X036843Y015926D01*
X036883Y015830D01*
X036884Y015825D01*
X036886Y015820D01*
X036896Y015743D01*
X036896Y015738D01*
Y015712D01*
Y010988D01*
Y010962D01*
D01*
Y010962D01*
X036896Y010957D01*
X036886Y010880D01*
X036884Y010875D01*
X036883Y010870D01*
X036843Y010774D01*
X036841Y010769D01*
X036838Y010765D01*
X036775Y010683D01*
X036771Y010679D01*
X036771D01*
Y010679D01*
X036767Y010675D01*
X036685Y010612D01*
X036681Y010609D01*
X036676Y010607D01*
X036580Y010567D01*
X036575Y010566D01*
X036570Y010564D01*
X036493Y010554D01*
X036488Y010554D01*
X034986D01*
X034981Y010554D01*
X034975Y010555D01*
X034970Y010557D01*
X034966Y010559D01*
X034961Y010562D01*
X034957Y010566D01*
X034954Y010570D01*
X034951Y010574D01*
X034949Y010579D01*
X034947Y010584D01*
X034946Y010589D01*
X034946Y010594D01*
Y016106D01*
X034946Y016111D01*
X034947Y016116D01*
X034949Y016121D01*
X034951Y016126D01*
X034954Y016130D01*
X034957Y016134D01*
X034961Y016138D01*
X034966Y016141D01*
X034970Y016143D01*
X034975Y016145D01*
X034981Y016146D01*
X034986Y016146D01*
X036488D01*
D01*
X036488D01*
X036493Y016146D01*
D02*
G37*
G36*
X064305Y032940D02*
X064310Y032939D01*
X064315Y032937D01*
X064320Y032935D01*
X064324Y032932D01*
X064328Y032928D01*
X064728Y032528D01*
X064732Y032524D01*
X064735Y032520D01*
X064737Y032515D01*
X064739Y032510D01*
X064740Y032505D01*
X064740Y032500D01*
X064740Y030150D01*
X064740Y030145D01*
X064739Y030140D01*
X064737Y030135D01*
X064735Y030130D01*
X064732Y030126D01*
X064728Y030122D01*
X064724Y030118D01*
X064720Y030115D01*
X064715Y030113D01*
X064710Y030111D01*
X064705Y030110D01*
X064700Y030110D01*
X058426Y030110D01*
X058425Y030110D01*
X058424Y030110D01*
X058422Y030110D01*
X058420Y030110D01*
X058420Y030110D01*
X058419Y030110D01*
X058417Y030111D01*
X058415Y030111D01*
X058415Y030111D01*
X058414Y030112D01*
X058412Y030112D01*
X058410Y030113D01*
X058410Y030113D01*
X058409Y030113D01*
X058407Y030114D01*
X058406Y030115D01*
X058405Y030116D01*
X058405Y030116D01*
X058403Y030117D01*
X058401Y030118D01*
X058401Y030119D01*
X058400Y030119D01*
X058286Y030212D01*
X058286Y030212D01*
X058286Y030212D01*
X058284Y030214D01*
X058282Y030216D01*
X058282Y030216D01*
X058282Y030216D01*
X057978Y030539D01*
X057978Y030539D01*
X057978Y030539D01*
X057977Y030541D01*
X057975Y030543D01*
X057975Y030543D01*
X057975Y030543D01*
X057795Y030796D01*
X057794Y030798D01*
X057793Y030800D01*
X057643Y031071D01*
X057642Y031073D01*
X057641Y031075D01*
X057522Y031362D01*
D01*
Y031362D01*
X057522Y031362D01*
X057521Y031365D01*
X057521Y031367D01*
X057521Y031367D01*
X057521Y031367D01*
X057521Y031367D01*
X057422Y031733D01*
X057421Y031735D01*
X057421Y031737D01*
X057401Y031862D01*
X057401Y031863D01*
X057401Y031863D01*
X057401Y031865D01*
X057401Y031867D01*
X057401Y031867D01*
X057401Y031867D01*
X057401Y031868D01*
X057401Y031868D01*
X057401Y031870D01*
X057401Y031872D01*
X057401Y031872D01*
X057401Y031873D01*
X057401Y031873D01*
X057401Y031873D01*
X057402Y031875D01*
X057402Y031877D01*
X057402Y031877D01*
X057402Y031878D01*
X057402Y031878D01*
X057402Y031879D01*
X057403Y031880D01*
X057403Y031882D01*
X057404Y031882D01*
X057404Y031883D01*
X057404Y031883D01*
X057404Y031884D01*
X057405Y031885D01*
X057406Y031887D01*
X057406Y031887D01*
X057406Y031887D01*
X057406Y031888D01*
X057406Y031888D01*
X057407Y031890D01*
X057408Y031892D01*
X058146Y032923D01*
X058147Y032924D01*
X058147Y032924D01*
X058148Y032926D01*
X058149Y032927D01*
X058150Y032928D01*
X058150Y032928D01*
X058152Y032930D01*
X058153Y032931D01*
X058154Y032931D01*
X058154Y032932D01*
X058156Y032933D01*
X058158Y032934D01*
X058158Y032934D01*
X058159Y032935D01*
X058160Y032936D01*
X058162Y032936D01*
X058163Y032937D01*
X058163Y032937D01*
X058165Y032938D01*
X058167Y032938D01*
X058168Y032938D01*
X058168Y032939D01*
X058170Y032939D01*
X058172Y032940D01*
X058173Y032940D01*
X058174Y032940D01*
X058175Y032940D01*
X058177Y032940D01*
X058178Y032940D01*
X058179Y032940D01*
X064300Y032940D01*
X064305Y032940D01*
D02*
G37*
G36*
X056205Y032940D02*
X056210Y032939D01*
X056215Y032937D01*
X056220Y032935D01*
X056224Y032932D01*
X056228Y032928D01*
X056828Y032328D01*
X056832Y032324D01*
X056835Y032320D01*
X056837Y032315D01*
X056839Y032310D01*
X056840Y032305D01*
X056840Y032300D01*
X056840Y030150D01*
X056840Y030145D01*
X056839Y030140D01*
X056837Y030135D01*
X056835Y030130D01*
X056832Y030126D01*
X056828Y030122D01*
X056824Y030118D01*
X056820Y030115D01*
X056815Y030113D01*
X056810Y030111D01*
X056805Y030110D01*
X056800Y030110D01*
X053350D01*
X053345Y030110D01*
X053340Y030111D01*
X053335Y030113D01*
X053330Y030115D01*
X053326Y030118D01*
X053322Y030122D01*
X051872Y031572D01*
X051868Y031576D01*
X051865Y031580D01*
X051863Y031585D01*
X051861Y031590D01*
X051860Y031595D01*
X051860Y031600D01*
X051860Y032900D01*
X051860Y032905D01*
X051861Y032910D01*
X051863Y032915D01*
X051865Y032920D01*
X051868Y032924D01*
X051872Y032928D01*
X051876Y032932D01*
X051880Y032935D01*
X051885Y032937D01*
X051890Y032939D01*
X051895Y032940D01*
X051900Y032940D01*
X056200D01*
X056205Y032940D01*
D02*
G37*
G36*
X062555Y022240D02*
X062560Y022239D01*
X062565Y022237D01*
X062570Y022235D01*
X062574Y022232D01*
X062578Y022228D01*
X062582Y022224D01*
X062585Y022220D01*
X062587Y022215D01*
X062589Y022210D01*
X062590Y022205D01*
X062590Y022200D01*
Y018900D01*
X062590Y018895D01*
X062589Y018890D01*
X062587Y018885D01*
X062585Y018880D01*
X062582Y018876D01*
X062578Y018872D01*
X062574Y018868D01*
X062570Y018865D01*
X062565Y018863D01*
X062560Y018861D01*
X062555Y018860D01*
X062550Y018860D01*
X060850D01*
X060845Y018860D01*
X060840Y018861D01*
X060835Y018863D01*
X060830Y018865D01*
X060826Y018868D01*
X060822Y018872D01*
X060818Y018876D01*
X060815Y018880D01*
X060813Y018885D01*
X060811Y018890D01*
X060810Y018895D01*
X060810Y018900D01*
Y022200D01*
X060810Y022205D01*
X060811Y022210D01*
X060813Y022215D01*
X060815Y022220D01*
X060818Y022224D01*
X060822Y022228D01*
X060826Y022232D01*
X060830Y022235D01*
X060835Y022237D01*
X060840Y022239D01*
X060845Y022240D01*
X060850Y022240D01*
X062550D01*
X062555Y022240D01*
D02*
G37*
D11*
X017109Y023650D02*
D03*
X015691D02*
D03*
D78*
X032754Y031514D02*
D03*
X030392D02*
D03*
X037454D02*
D03*
X035092D02*
D03*
X042154D02*
D03*
X039792D02*
D03*
X042154Y028264D02*
D03*
X039792D02*
D03*
X037381Y028250D02*
D03*
X035019D02*
D03*
X032681D02*
D03*
X030319D02*
D03*
X027931D02*
D03*
X025569D02*
D03*
X042131Y024200D02*
D03*
X039769D02*
D03*
X037381D02*
D03*
X035019D02*
D03*
X023231Y024000D02*
D03*
X020869D02*
D03*
X027931Y024100D02*
D03*
X025569D02*
D03*
X032631D02*
D03*
X030269D02*
D03*
D79*
X061250Y015855D02*
D03*
X066150D02*
D03*
D80*
X062750Y011839D02*
D03*
X062250D02*
D03*
X061750D02*
D03*
X060750D02*
D03*
X060250D02*
D03*
X059750D02*
D03*
X067650D02*
D03*
X067150D02*
D03*
X066650D02*
D03*
X065650D02*
D03*
X065150D02*
D03*
X064650D02*
D03*
D81*
X029000Y012987D02*
D03*
Y011413D02*
D03*
D82*
X032961Y019650D02*
D03*
D83*
X036643Y020989D02*
D03*
Y020319D02*
D03*
Y019650D02*
D03*
Y018981D02*
D03*
Y018311D02*
D03*
D84*
X065885Y031600D02*
D03*
X066515D02*
D03*
D85*
X043104Y015790D02*
D03*
X043360D02*
D03*
X043616D02*
D03*
X043872D02*
D03*
X044128D02*
D03*
X044384D02*
D03*
X044640D02*
D03*
X044896D02*
D03*
Y018010D02*
D03*
X044640D02*
D03*
X044384D02*
D03*
X044128D02*
D03*
X043872D02*
D03*
X043616D02*
D03*
X043360D02*
D03*
X043104D02*
D03*
D86*
X032279Y013350D02*
D03*
X035921D02*
D03*
D87*
X038399Y027770D02*
D03*
X039153D02*
D03*
X038773Y028604D02*
D03*
X034000Y028590D02*
D03*
X034380Y027756D02*
D03*
X033626D02*
D03*
X028926D02*
D03*
X029680D02*
D03*
X029300Y028590D02*
D03*
X024550D02*
D03*
X024930Y027756D02*
D03*
X024176D02*
D03*
X038376Y023706D02*
D03*
X039130D02*
D03*
X038750Y024540D02*
D03*
X034000D02*
D03*
X034380Y023706D02*
D03*
X033626D02*
D03*
X024550Y024540D02*
D03*
X024930Y023706D02*
D03*
X024176D02*
D03*
X019476D02*
D03*
X020230D02*
D03*
X019850Y024540D02*
D03*
X028876Y023706D02*
D03*
X029630D02*
D03*
X029250Y024540D02*
D03*
X033699Y031020D02*
D03*
X034453D02*
D03*
X034073Y031854D02*
D03*
X038773D02*
D03*
X039153Y031020D02*
D03*
X038399D02*
D03*
X029373Y031854D02*
D03*
X029753Y031020D02*
D03*
X028999D02*
D03*
D88*
X062650Y031575D02*
D03*
Y027325D02*
D03*
D89*
X039800Y011965D02*
D03*
Y015035D02*
D03*
X039750Y018115D02*
D03*
Y021185D02*
D03*
D90*
X024349Y013306D02*
D03*
Y012400D02*
D03*
Y011494D02*
D03*
D91*
X026751Y012400D02*
D03*
D92*
X050550Y011900D02*
D03*
X055044D02*
D03*
X050550Y014310D02*
D03*
X055044D02*
D03*
D93*
X046076Y013550D02*
D03*
X045524D02*
D03*
D94*
X048100Y012424D02*
D03*
Y012976D02*
D03*
X046700Y012976D02*
D03*
Y012424D02*
D03*
X047400Y012424D02*
D03*
Y012976D02*
D03*
X049100Y011751D02*
D03*
Y011200D02*
D03*
Y012851D02*
D03*
Y012300D02*
D03*
X066050Y025624D02*
D03*
Y026176D02*
D03*
X066650Y025624D02*
D03*
Y026176D02*
D03*
D95*
X016094Y017726D02*
D03*
Y018480D02*
D03*
X015260Y018100D02*
D03*
D96*
X016183Y026571D02*
D03*
X016380D02*
D03*
X016577D02*
D03*
X016774D02*
D03*
X016970D02*
D03*
X017167D02*
D03*
X017364D02*
D03*
X017561D02*
D03*
X017758D02*
D03*
X017955D02*
D03*
X018152D02*
D03*
X018348D02*
D03*
X018545D02*
D03*
X018742D02*
D03*
X018939D02*
D03*
X019136D02*
D03*
X019333D02*
D03*
X019530D02*
D03*
X019726D02*
D03*
X019923D02*
D03*
X020120D02*
D03*
X020317D02*
D03*
X016183Y029229D02*
D03*
X016380D02*
D03*
X016577D02*
D03*
X016774D02*
D03*
X016970D02*
D03*
X017167D02*
D03*
X017364D02*
D03*
X017561D02*
D03*
X017758D02*
D03*
X017955D02*
D03*
X018152D02*
D03*
X018348D02*
D03*
X018545D02*
D03*
X018742D02*
D03*
X018939D02*
D03*
X019136D02*
D03*
X019333D02*
D03*
X019530D02*
D03*
X019726D02*
D03*
X019923D02*
D03*
X020120D02*
D03*
X020317D02*
D03*
D97*
X065450Y028335D02*
D03*
X065950D02*
D03*
X066450D02*
D03*
X066950D02*
D03*
X065450Y030265D02*
D03*
X065950D02*
D03*
X066450D02*
D03*
X066950D02*
D03*
D98*
X050186Y017700D02*
D03*
X048414D02*
D03*
D99*
X046239Y016552D02*
D03*
Y016296D02*
D03*
Y016040D02*
D03*
Y015784D02*
D03*
Y015528D02*
D03*
Y015272D02*
D03*
Y015016D02*
D03*
Y014760D02*
D03*
Y014504D02*
D03*
Y014248D02*
D03*
X048561Y016552D02*
D03*
Y016296D02*
D03*
Y016040D02*
D03*
Y015784D02*
D03*
Y015528D02*
D03*
Y015272D02*
D03*
Y015016D02*
D03*
Y014760D02*
D03*
Y014504D02*
D03*
Y014248D02*
D03*
D100*
X047400Y015400D02*
D03*
D101*
X059685Y027550D02*
D03*
X056615D02*
D03*
D102*
X057645Y020100D02*
D03*
D103*
X061661Y021600D02*
D03*
Y021100D02*
D03*
Y020600D02*
D03*
Y019600D02*
D03*
Y019100D02*
D03*
Y018600D02*
D03*
D104*
X056566Y024802D02*
D03*
Y022998D02*
D03*
D105*
X059145Y023900D02*
D03*
D106*
X056550Y023875D02*
D03*
D107*
X016950Y031800D02*
D03*
X015600D02*
D03*
X015500Y011200D02*
D03*
Y015600D02*
D03*
D108*
X016950Y030800D02*
D03*
X015600D02*
D03*
X015500Y012200D02*
D03*
Y014600D02*
D03*
D109*
X017440Y012900D02*
D03*
X018228D02*
D03*
X022165D02*
D03*
X021377D02*
D03*
X020590D02*
D03*
X019800D02*
D03*
X019010D02*
D03*
X026646Y031300D02*
D03*
X027436D02*
D03*
X025861D02*
D03*
X025071D02*
D03*
X024281D02*
D03*
X023494D02*
D03*
X022706D02*
D03*
X018769D02*
D03*
X019557D02*
D03*
X020344D02*
D03*
X021134D02*
D03*
X021924D02*
D03*
D110*
X052800Y011900D02*
D03*
Y013700D02*
D03*
D111*
X049200Y019152D02*
D03*
X049436Y030648D02*
D03*
D112*
X017250Y015700D02*
D03*
X018250D02*
D03*
X019250D02*
D03*
X020250D02*
D03*
X021250D02*
D03*
X022250D02*
D03*
X023250D02*
D03*
X024250D02*
D03*
X025250D02*
D03*
X026250D02*
D03*
X027250D02*
D03*
X028250D02*
D03*
X029250D02*
D03*
X030250D02*
D03*
Y016700D02*
D03*
Y017700D02*
D03*
Y018700D02*
D03*
Y019700D02*
D03*
Y020700D02*
D03*
Y021700D02*
D03*
X029250D02*
D03*
X028250D02*
D03*
X027250D02*
D03*
X026250D02*
D03*
X025250D02*
D03*
X024250D02*
D03*
X023250D02*
D03*
X022250D02*
D03*
X021250D02*
D03*
X020250D02*
D03*
X019250D02*
D03*
X018250D02*
D03*
X017250D02*
D03*
D113*
X033550Y028250D02*
D03*
Y024200D02*
D03*
X038323Y028264D02*
D03*
X039300Y023300D02*
D03*
X034600D02*
D03*
X039323Y027364D02*
D03*
X034623Y030664D02*
D03*
X029923Y030614D02*
D03*
X034600Y027300D02*
D03*
X020400Y023150D02*
D03*
X019900Y023100D02*
D03*
X025200Y023150D02*
D03*
X032850Y025050D02*
D03*
X033203Y024531D02*
D03*
X037500Y025150D02*
D03*
X025114Y024931D02*
D03*
X038400Y024100D02*
D03*
X037950Y024450D02*
D03*
X029900Y027300D02*
D03*
X038844Y027199D02*
D03*
X037800Y027250D02*
D03*
X034000Y027050D02*
D03*
X033150Y026950D02*
D03*
X029250Y027069D02*
D03*
X025150Y027350D02*
D03*
X023746Y024412D02*
D03*
X024200Y024150D02*
D03*
X024107Y024729D02*
D03*
X028450Y027050D02*
D03*
X024550Y027200D02*
D03*
X025050Y028950D02*
D03*
X041800Y029200D02*
D03*
X041073Y030556D02*
D03*
X038800Y030500D02*
D03*
X035600Y029750D02*
D03*
X033950Y030250D02*
D03*
X015250Y024950D02*
D03*
X016250Y025200D02*
D03*
X016750Y028100D02*
D03*
X017000Y030050D02*
D03*
X015300Y028050D02*
D03*
X016050D02*
D03*
X017901Y030400D02*
D03*
X020050Y028550D02*
D03*
X018800Y028050D02*
D03*
X017400D02*
D03*
X018050D02*
D03*
X015400Y029650D02*
D03*
X016419Y029918D02*
D03*
X016400Y023600D02*
D03*
X019450Y030300D02*
D03*
X018349Y029899D02*
D03*
X018800Y030350D02*
D03*
X023200Y024000D02*
D03*
X029800Y023250D02*
D03*
X028800Y024200D02*
D03*
X028500Y024600D02*
D03*
X027600Y024900D02*
D03*
X032100Y025200D02*
D03*
X036850Y025250D02*
D03*
X023850Y028200D02*
D03*
X024121Y028700D02*
D03*
X028850Y028250D02*
D03*
X027750Y028750D02*
D03*
X032400D02*
D03*
X037050Y028900D02*
D03*
X029350Y030550D02*
D03*
X030700Y030300D02*
D03*
X028569Y031450D02*
D03*
X033300Y031419D02*
D03*
X039323Y030614D02*
D03*
X038200Y032300D02*
D03*
X038000Y031600D02*
D03*
X056350Y027050D02*
D03*
X056900D02*
D03*
Y026500D02*
D03*
X056350D02*
D03*
X045700Y015350D02*
D03*
X045450Y014450D02*
D03*
X015100Y018550D02*
D03*
X048350Y011350D02*
D03*
X027850Y014050D02*
D03*
X046150Y012450D02*
D03*
X066900Y027200D02*
D03*
X066350Y027100D02*
D03*
X065850Y026900D02*
D03*
X041650Y025150D02*
D03*
X042969Y017451D02*
D03*
X029750Y010750D02*
D03*
X019200Y024050D02*
D03*
X019150Y024550D02*
D03*
X018700Y024200D02*
D03*
X046500Y013850D02*
D03*
X049174Y015326D02*
D03*
X048800Y016950D02*
D03*
X064650Y011850D02*
D03*
X059750D02*
D03*
X048200Y013850D02*
D03*
X049300Y014600D02*
D03*
X049700Y015800D02*
D03*
Y016300D02*
D03*
X049150Y016200D02*
D03*
D114*
X026661Y012403D02*
D03*
X016400Y015100D02*
D03*
X021150Y019650D02*
D03*
X055900Y017200D02*
D03*
X041700Y010800D02*
D03*
X038800Y025900D02*
D03*
X038350Y020450D02*
D03*
X022600Y028550D02*
D03*
X047400Y014600D02*
D03*
X041850Y026850D02*
D03*
X027650Y030450D02*
D03*
X032650Y031150D02*
D03*
X063550Y017850D02*
D03*
X023200Y012450D02*
D03*
X025600Y010850D02*
D03*
X063850Y013550D02*
D03*
X066850Y018100D02*
D03*
X067600Y011550D02*
D03*
X061700Y022900D02*
D03*
X061650Y018550D02*
D03*
X023250Y011300D02*
D03*
X021400Y017300D02*
D03*
X017750Y018450D02*
D03*
X025550Y011950D02*
D03*
X024100Y014100D02*
D03*
X023250Y013400D02*
D03*
X026200Y016650D02*
D03*
X042050Y022550D02*
D03*
X041100Y022350D02*
D03*
X040300Y022200D02*
D03*
X043300Y014950D02*
D03*
X041550Y021450D02*
D03*
X027900Y022950D02*
D03*
X045350Y018900D02*
D03*
X028100Y020500D02*
D03*
X044400Y011500D02*
D03*
X067900Y024350D02*
D03*
M02*
