G04 Layer_Color=65535*
%FSAX24Y24*%
%MOIN*%
G70*
G01*
G75*
%ADD39C,0.0100*%
%ADD67C,0.0098*%
%ADD68C,0.0060*%
%ADD69C,0.0080*%
%ADD70C,0.0236*%
%ADD71C,0.0079*%
%ADD72C,0.0030*%
%ADD73R,0.1024X0.0306*%
D39*
X033387Y010688D02*
G03*
X034813Y010688I000713J002662D01*
G01*
Y016012D02*
G03*
X033387Y016012I-000713J-002662D01*
G01*
X055578Y024900D02*
G03*
X055578Y024900I-006378J000000D01*
G01*
X060750Y026150D02*
X061330D01*
X060750D02*
Y032750D01*
X064550D01*
Y026150D02*
Y032750D01*
X061330Y026150D02*
X064550D01*
X040194Y011453D02*
X041847D01*
X040194Y015547D02*
X041375D01*
X038225D02*
X039406D01*
X037753Y011453D02*
X039406D01*
X037753Y015075D02*
X038225Y015547D01*
X037753Y011453D02*
Y015075D01*
X041375Y015547D02*
X041847Y015075D01*
Y011453D02*
Y015075D01*
X040144Y017603D02*
X041797D01*
X040144Y021697D02*
X041325D01*
X038175D02*
X039356D01*
X037703Y017603D02*
X039356D01*
X037703Y021225D02*
X038175Y021697D01*
X037703Y017603D02*
Y021225D01*
X041325Y021697D02*
X041797Y021225D01*
Y017603D02*
Y021225D01*
X060197Y027944D02*
Y029597D01*
X056103Y027944D02*
Y029125D01*
Y025975D02*
Y027156D01*
X060197Y025503D02*
Y027156D01*
X056103Y025975D02*
X056575Y025503D01*
X060197D01*
X056103Y029125D02*
X056575Y029597D01*
X060197D01*
X038155Y022655D02*
X038055Y022755D01*
X037855D01*
X037755Y022655D01*
Y022255D01*
X037855Y022155D01*
X038055D01*
X038155Y022255D01*
X038355Y022155D02*
X038555D01*
X038455D01*
Y022755D01*
X038355Y022655D01*
X038855D02*
X038955Y022755D01*
X039155D01*
X039255Y022655D01*
Y022555D01*
X039155Y022455D01*
X039255Y022355D01*
Y022255D01*
X039155Y022155D01*
X038955D01*
X038855Y022255D01*
Y022355D01*
X038955Y022455D01*
X038855Y022555D01*
Y022655D01*
X038955Y022455D02*
X039155D01*
X038205Y016505D02*
X038105Y016605D01*
X037905D01*
X037805Y016505D01*
Y016105D01*
X037905Y016005D01*
X038105D01*
X038205Y016105D01*
X038405Y016005D02*
X038605D01*
X038505D01*
Y016605D01*
X038405Y016505D01*
X038905Y016105D02*
X039005Y016005D01*
X039205D01*
X039305Y016105D01*
Y016505D01*
X039205Y016605D01*
X039005D01*
X038905Y016505D01*
Y016405D01*
X039005Y016305D01*
X039305D01*
X067233Y031833D02*
X067300Y031900D01*
Y032033D01*
X067233Y032100D01*
X066967D01*
X066900Y032033D01*
Y031900D01*
X066967Y031833D01*
X066900Y031434D02*
Y031700D01*
X067167Y031434D01*
X067233D01*
X067300Y031500D01*
Y031633D01*
X067233Y031700D01*
X067300Y031300D02*
Y031034D01*
X067233D01*
X066967Y031300D01*
X066900D01*
X054700Y029600D02*
X054600Y029700D01*
X054400D01*
X054300Y029600D01*
Y029200D01*
X054400Y029100D01*
X054600D01*
X054700Y029200D01*
X054900Y029600D02*
X055000Y029700D01*
X055200D01*
X055300Y029600D01*
Y029500D01*
X055200Y029400D01*
X055100D01*
X055200D01*
X055300Y029300D01*
Y029200D01*
X055200Y029100D01*
X055000D01*
X054900Y029200D01*
X055500Y029600D02*
X055600Y029700D01*
X055800D01*
X055899Y029600D01*
Y029500D01*
X055800Y029400D01*
X055700D01*
X055800D01*
X055899Y029300D01*
Y029200D01*
X055800Y029100D01*
X055600D01*
X055500Y029200D01*
X047867Y011767D02*
X047800Y011700D01*
X047667D01*
X047600Y011767D01*
Y012033D01*
X047667Y012100D01*
X047800D01*
X047867Y012033D01*
X048000Y011767D02*
X048067Y011700D01*
X048200D01*
X048266Y011767D01*
Y011833D01*
X048200Y011900D01*
X048133D01*
X048200D01*
X048266Y011967D01*
Y012033D01*
X048200Y012100D01*
X048067D01*
X048000Y012033D01*
X048666Y011700D02*
X048400D01*
Y011900D01*
X048533Y011833D01*
X048600D01*
X048666Y011900D01*
Y012033D01*
X048600Y012100D01*
X048466D01*
X048400Y012033D01*
X046467Y012033D02*
X046400Y012100D01*
X046267D01*
X046200Y012033D01*
Y011767D01*
X046267Y011700D01*
X046400D01*
X046467Y011767D01*
X046600Y012033D02*
X046667Y012100D01*
X046800D01*
X046866Y012033D01*
Y011967D01*
X046800Y011900D01*
X046733D01*
X046800D01*
X046866Y011833D01*
Y011767D01*
X046800Y011700D01*
X046667D01*
X046600Y011767D01*
X047000D02*
X047066Y011700D01*
X047200D01*
X047266Y011767D01*
Y012033D01*
X047200Y012100D01*
X047066D01*
X047000Y012033D01*
Y011967D01*
X047066Y011900D01*
X047266D01*
X028535Y014335D02*
Y013735D01*
X028835D01*
X028935Y013835D01*
Y014235D01*
X028835Y014335D01*
X028535D01*
X029535Y013735D02*
X029135D01*
X029535Y014135D01*
Y014235D01*
X029435Y014335D01*
X029235D01*
X029135Y014235D01*
X056050Y024200D02*
Y023600D01*
X056350D01*
X056450Y023700D01*
Y024100D01*
X056350Y024200D01*
X056050D01*
X056950Y023600D02*
Y024200D01*
X056650Y023900D01*
X057050D01*
X018650Y033350D02*
X018450D01*
X018550D01*
Y032850D01*
X018450Y032750D01*
X018350D01*
X018250Y032850D01*
X018850Y032750D02*
Y033350D01*
X019150D01*
X019250Y033250D01*
Y033050D01*
X019150Y032950D01*
X018850D01*
X019450Y032750D02*
X019650D01*
X019550D01*
Y033350D01*
X019450Y033250D01*
X017110Y014470D02*
X016910D01*
X017010D01*
Y013970D01*
X016910Y013870D01*
X016810D01*
X016710Y013970D01*
X017310Y013870D02*
Y014470D01*
X017610D01*
X017710Y014370D01*
Y014170D01*
X017610Y014070D01*
X017310D01*
X018309Y013870D02*
X017910D01*
X018309Y014270D01*
Y014370D01*
X018210Y014470D01*
X018010D01*
X017910Y014370D01*
X015430Y025860D02*
Y025260D01*
X015830D01*
X016030D02*
X016230D01*
X016130D01*
Y025860D01*
X016030Y025760D01*
X031405Y017055D02*
Y016455D01*
X031805D01*
X032405D02*
X032005D01*
X032405Y016855D01*
Y016955D01*
X032305Y017055D01*
X032105D01*
X032005Y016955D01*
X043300Y030400D02*
Y029800D01*
X043700D01*
X043900Y030300D02*
X044000Y030400D01*
X044200D01*
X044300Y030300D01*
Y030200D01*
X044200Y030100D01*
X044100D01*
X044200D01*
X044300Y030000D01*
Y029900D01*
X044200Y029800D01*
X044000D01*
X043900Y029900D01*
X015165Y032635D02*
Y033235D01*
X015465D01*
X015565Y033135D01*
Y032935D01*
X015465Y032835D01*
X015165D01*
X015765Y032635D02*
X015965D01*
X015865D01*
Y033235D01*
X015765Y033135D01*
X016515Y032635D02*
Y033235D01*
X016815D01*
X016915Y033135D01*
Y032935D01*
X016815Y032835D01*
X016515D01*
X017515Y032635D02*
X017115D01*
X017515Y033035D01*
Y033135D01*
X017415Y033235D01*
X017215D01*
X017115Y033135D01*
X015065Y016435D02*
Y017035D01*
X015365D01*
X015465Y016935D01*
Y016735D01*
X015365Y016635D01*
X015065D01*
X015665Y016935D02*
X015765Y017035D01*
X015965D01*
X016065Y016935D01*
Y016835D01*
X015965Y016735D01*
X015865D01*
X015965D01*
X016065Y016635D01*
Y016535D01*
X015965Y016435D01*
X015765D01*
X015665Y016535D01*
X015060Y013040D02*
Y013640D01*
X015360D01*
X015460Y013540D01*
Y013340D01*
X015360Y013240D01*
X015060D01*
X015960Y013040D02*
Y013640D01*
X015660Y013340D01*
X016060D01*
X019750Y025000D02*
Y025400D01*
X019650Y025500D01*
X019450D01*
X019350Y025400D01*
Y025000D01*
X019450Y024900D01*
X019650D01*
X019550Y025100D02*
X019750Y024900D01*
X019650D02*
X019750Y025000D01*
X019950Y024900D02*
X020150D01*
X020050D01*
Y025500D01*
X019950Y025400D01*
X024450Y025000D02*
Y025400D01*
X024350Y025500D01*
X024150D01*
X024050Y025400D01*
Y025000D01*
X024150Y024900D01*
X024350D01*
X024250Y025100D02*
X024450Y024900D01*
X024350D02*
X024450Y025000D01*
X025050Y024900D02*
X024650D01*
X025050Y025300D01*
Y025400D01*
X024950Y025500D01*
X024750D01*
X024650Y025400D01*
X029150Y024800D02*
Y025200D01*
X029050Y025300D01*
X028850D01*
X028750Y025200D01*
Y024800D01*
X028850Y024700D01*
X029050D01*
X028950Y024900D02*
X029150Y024700D01*
X029050D02*
X029150Y024800D01*
X029350Y025200D02*
X029450Y025300D01*
X029650D01*
X029750Y025200D01*
Y025100D01*
X029650Y025000D01*
X029550D01*
X029650D01*
X029750Y024900D01*
Y024800D01*
X029650Y024700D01*
X029450D01*
X029350Y024800D01*
X033905Y025165D02*
Y025565D01*
X033805Y025665D01*
X033605D01*
X033505Y025565D01*
Y025165D01*
X033605Y025065D01*
X033805D01*
X033705Y025265D02*
X033905Y025065D01*
X033805D02*
X033905Y025165D01*
X034405Y025065D02*
Y025665D01*
X034105Y025365D01*
X034505D01*
X038655Y025165D02*
Y025565D01*
X038555Y025665D01*
X038355D01*
X038255Y025565D01*
Y025165D01*
X038355Y025065D01*
X038555D01*
X038455Y025265D02*
X038655Y025065D01*
X038555D02*
X038655Y025165D01*
X039255Y025665D02*
X038855D01*
Y025365D01*
X039055Y025465D01*
X039155D01*
X039255Y025365D01*
Y025165D01*
X039155Y025065D01*
X038955D01*
X038855Y025165D01*
X024455Y029215D02*
Y029615D01*
X024355Y029715D01*
X024155D01*
X024055Y029615D01*
Y029215D01*
X024155Y029115D01*
X024355D01*
X024255Y029315D02*
X024455Y029115D01*
X024355D02*
X024455Y029215D01*
X025055Y029715D02*
X024855Y029615D01*
X024655Y029415D01*
Y029215D01*
X024755Y029115D01*
X024955D01*
X025055Y029215D01*
Y029315D01*
X024955Y029415D01*
X024655D01*
X029205Y029215D02*
Y029615D01*
X029105Y029715D01*
X028905D01*
X028805Y029615D01*
Y029215D01*
X028905Y029115D01*
X029105D01*
X029005Y029315D02*
X029205Y029115D01*
X029105D02*
X029205Y029215D01*
X029405Y029715D02*
X029805D01*
Y029615D01*
X029405Y029215D01*
Y029115D01*
X033905Y029215D02*
Y029615D01*
X033805Y029715D01*
X033605D01*
X033505Y029615D01*
Y029215D01*
X033605Y029115D01*
X033805D01*
X033705Y029315D02*
X033905Y029115D01*
X033805D02*
X033905Y029215D01*
X034105Y029615D02*
X034205Y029715D01*
X034405D01*
X034505Y029615D01*
Y029515D01*
X034405Y029415D01*
X034505Y029315D01*
Y029215D01*
X034405Y029115D01*
X034205D01*
X034105Y029215D01*
Y029315D01*
X034205Y029415D01*
X034105Y029515D01*
Y029615D01*
X034205Y029415D02*
X034405D01*
X038678Y029229D02*
Y029629D01*
X038578Y029729D01*
X038378D01*
X038278Y029629D01*
Y029229D01*
X038378Y029129D01*
X038578D01*
X038478Y029329D02*
X038678Y029129D01*
X038578D02*
X038678Y029229D01*
X038878D02*
X038978Y029129D01*
X039178D01*
X039278Y029229D01*
Y029629D01*
X039178Y029729D01*
X038978D01*
X038878Y029629D01*
Y029529D01*
X038978Y029429D01*
X039278D01*
X038173Y032514D02*
Y032914D01*
X038073Y033014D01*
X037873D01*
X037773Y032914D01*
Y032514D01*
X037873Y032414D01*
X038073D01*
X037973Y032614D02*
X038173Y032414D01*
X038073D02*
X038173Y032514D01*
X038373Y032414D02*
X038573D01*
X038473D01*
Y033014D01*
X038373Y032914D01*
X038872D02*
X038972Y033014D01*
X039172D01*
X039272Y032914D01*
Y032514D01*
X039172Y032414D01*
X038972D01*
X038872Y032514D01*
Y032914D01*
X033673Y032514D02*
Y032914D01*
X033573Y033014D01*
X033373D01*
X033273Y032914D01*
Y032514D01*
X033373Y032414D01*
X033573D01*
X033473Y032614D02*
X033673Y032414D01*
X033573D02*
X033673Y032514D01*
X033873Y032414D02*
X034073D01*
X033973D01*
Y033014D01*
X033873Y032914D01*
X034372Y032414D02*
X034572D01*
X034472D01*
Y033014D01*
X034372Y032914D01*
X028773Y032514D02*
Y032914D01*
X028673Y033014D01*
X028473D01*
X028373Y032914D01*
Y032514D01*
X028473Y032414D01*
X028673D01*
X028573Y032614D02*
X028773Y032414D01*
X028673D02*
X028773Y032514D01*
X028973Y032414D02*
X029173D01*
X029073D01*
Y033014D01*
X028973Y032914D01*
X029872Y032414D02*
X029472D01*
X029872Y032814D01*
Y032914D01*
X029772Y033014D01*
X029572D01*
X029472Y032914D01*
X059555Y018075D02*
Y018475D01*
X059455Y018575D01*
X059255D01*
X059155Y018475D01*
Y018075D01*
X059255Y017975D01*
X059455D01*
X059355Y018175D02*
X059555Y017975D01*
X059455D02*
X059555Y018075D01*
X059755Y017975D02*
X059955D01*
X059855D01*
Y018575D01*
X059755Y018475D01*
X060255D02*
X060355Y018575D01*
X060555D01*
X060655Y018475D01*
Y018375D01*
X060555Y018275D01*
X060455D01*
X060555D01*
X060655Y018175D01*
Y018075D01*
X060555Y017975D01*
X060355D01*
X060255Y018075D01*
X064455D02*
Y018475D01*
X064355Y018575D01*
X064155D01*
X064055Y018475D01*
Y018075D01*
X064155Y017975D01*
X064355D01*
X064255Y018175D02*
X064455Y017975D01*
X064355D02*
X064455Y018075D01*
X064655Y017975D02*
X064855D01*
X064755D01*
Y018575D01*
X064655Y018475D01*
X065455Y017975D02*
Y018575D01*
X065155Y018275D01*
X065555D01*
X055550Y018450D02*
X055150D01*
X055050Y018350D01*
Y018150D01*
X055150Y018050D01*
X055550D01*
X055650Y018150D01*
Y018350D01*
X055450Y018250D02*
X055650Y018450D01*
Y018350D02*
X055550Y018450D01*
X055650Y018650D02*
Y018850D01*
Y018750D01*
X055050D01*
X055150Y018650D01*
X055050Y019150D02*
Y019550D01*
X055150D01*
X055550Y019150D01*
X055650D01*
X015300Y019000D02*
Y019400D01*
X015200Y019500D01*
X015000D01*
X014900Y019400D01*
Y019000D01*
X015000Y018900D01*
X015200D01*
X015100Y019100D02*
X015300Y018900D01*
X015200D02*
X015300Y019000D01*
X015900Y018900D02*
X015500D01*
X015900Y019300D01*
Y019400D01*
X015800Y019500D01*
X015600D01*
X015500Y019400D01*
X016100D02*
X016200Y019500D01*
X016400D01*
X016499Y019400D01*
Y019000D01*
X016400Y018900D01*
X016200D01*
X016100Y019000D01*
Y019400D01*
X060795Y033095D02*
Y033695D01*
X061095D01*
X061195Y033595D01*
Y033395D01*
X061095Y033295D01*
X060795D01*
X060995D02*
X061195Y033095D01*
X061395Y033695D02*
X061795D01*
Y033595D01*
X061395Y033195D01*
Y033095D01*
X020550Y024900D02*
Y025500D01*
X020850D01*
X020950Y025400D01*
Y025200D01*
X020850Y025100D01*
X020550D01*
X020750D02*
X020950Y024900D01*
X021150Y025400D02*
X021250Y025500D01*
X021450D01*
X021550Y025400D01*
Y025300D01*
X021450Y025200D01*
X021350D01*
X021450D01*
X021550Y025100D01*
Y025000D01*
X021450Y024900D01*
X021250D01*
X021150Y025000D01*
X021750Y025400D02*
X021850Y025500D01*
X022050D01*
X022149Y025400D01*
Y025300D01*
X022050Y025200D01*
X022149Y025100D01*
Y025000D01*
X022050Y024900D01*
X021850D01*
X021750Y025000D01*
Y025100D01*
X021850Y025200D01*
X021750Y025300D01*
Y025400D01*
X021850Y025200D02*
X022050D01*
X025250Y025000D02*
Y025600D01*
X025550D01*
X025650Y025500D01*
Y025300D01*
X025550Y025200D01*
X025250D01*
X025450D02*
X025650Y025000D01*
X025850Y025500D02*
X025950Y025600D01*
X026150D01*
X026250Y025500D01*
Y025400D01*
X026150Y025300D01*
X026050D01*
X026150D01*
X026250Y025200D01*
Y025100D01*
X026150Y025000D01*
X025950D01*
X025850Y025100D01*
X026450D02*
X026550Y025000D01*
X026750D01*
X026849Y025100D01*
Y025500D01*
X026750Y025600D01*
X026550D01*
X026450Y025500D01*
Y025400D01*
X026550Y025300D01*
X026849D01*
X029950Y025000D02*
Y025600D01*
X030250D01*
X030350Y025500D01*
Y025300D01*
X030250Y025200D01*
X029950D01*
X030150D02*
X030350Y025000D01*
X030850D02*
Y025600D01*
X030550Y025300D01*
X030950D01*
X031150Y025500D02*
X031250Y025600D01*
X031450D01*
X031549Y025500D01*
Y025100D01*
X031450Y025000D01*
X031250D01*
X031150Y025100D01*
Y025500D01*
X034750Y025280D02*
Y025880D01*
X035050D01*
X035150Y025780D01*
Y025580D01*
X035050Y025480D01*
X034750D01*
X034950D02*
X035150Y025280D01*
X035650D02*
Y025880D01*
X035350Y025580D01*
X035750D01*
X035950Y025280D02*
X036150D01*
X036050D01*
Y025880D01*
X035950Y025780D01*
X039500Y025280D02*
Y025880D01*
X039800D01*
X039900Y025780D01*
Y025580D01*
X039800Y025480D01*
X039500D01*
X039700D02*
X039900Y025280D01*
X040400D02*
Y025880D01*
X040100Y025580D01*
X040500D01*
X041099Y025280D02*
X040700D01*
X041099Y025680D01*
Y025780D01*
X041000Y025880D01*
X040800D01*
X040700Y025780D01*
X025300Y029330D02*
Y029930D01*
X025600D01*
X025700Y029830D01*
Y029630D01*
X025600Y029530D01*
X025300D01*
X025500D02*
X025700Y029330D01*
X026200D02*
Y029930D01*
X025900Y029630D01*
X026300D01*
X026500Y029830D02*
X026600Y029930D01*
X026800D01*
X026899Y029830D01*
Y029730D01*
X026800Y029630D01*
X026700D01*
X026800D01*
X026899Y029530D01*
Y029430D01*
X026800Y029330D01*
X026600D01*
X026500Y029430D01*
X030050Y029330D02*
Y029930D01*
X030350D01*
X030450Y029830D01*
Y029630D01*
X030350Y029530D01*
X030050D01*
X030250D02*
X030450Y029330D01*
X030950D02*
Y029930D01*
X030650Y029630D01*
X031050D01*
X031550Y029330D02*
Y029930D01*
X031250Y029630D01*
X031649D01*
X034750Y029330D02*
Y029930D01*
X035050D01*
X035150Y029830D01*
Y029630D01*
X035050Y029530D01*
X034750D01*
X034950D02*
X035150Y029330D01*
X035650D02*
Y029930D01*
X035350Y029630D01*
X035750D01*
X036349Y029930D02*
X035950D01*
Y029630D01*
X036150Y029730D01*
X036250D01*
X036349Y029630D01*
Y029430D01*
X036250Y029330D01*
X036050D01*
X035950Y029430D01*
X039523Y029344D02*
Y029944D01*
X039823D01*
X039923Y029844D01*
Y029644D01*
X039823Y029544D01*
X039523D01*
X039723D02*
X039923Y029344D01*
X040423D02*
Y029944D01*
X040123Y029644D01*
X040523D01*
X041122Y029944D02*
X040922Y029844D01*
X040722Y029644D01*
Y029444D01*
X040822Y029344D01*
X041022D01*
X041122Y029444D01*
Y029544D01*
X041022Y029644D01*
X040722D01*
X039523Y032594D02*
Y033194D01*
X039823D01*
X039923Y033094D01*
Y032894D01*
X039823Y032794D01*
X039523D01*
X039723D02*
X039923Y032594D01*
X040423D02*
Y033194D01*
X040123Y032894D01*
X040523D01*
X040722Y033194D02*
X041122D01*
Y033094D01*
X040722Y032694D01*
Y032594D01*
X034823D02*
Y033194D01*
X035123D01*
X035223Y033094D01*
Y032894D01*
X035123Y032794D01*
X034823D01*
X035023D02*
X035223Y032594D01*
X035723D02*
Y033194D01*
X035423Y032894D01*
X035823D01*
X036022Y033094D02*
X036122Y033194D01*
X036322D01*
X036422Y033094D01*
Y032994D01*
X036322Y032894D01*
X036422Y032794D01*
Y032694D01*
X036322Y032594D01*
X036122D01*
X036022Y032694D01*
Y032794D01*
X036122Y032894D01*
X036022Y032994D01*
Y033094D01*
X036122Y032894D02*
X036322D01*
X030123Y032594D02*
Y033194D01*
X030423D01*
X030523Y033094D01*
Y032894D01*
X030423Y032794D01*
X030123D01*
X030323D02*
X030523Y032594D01*
X031023D02*
Y033194D01*
X030723Y032894D01*
X031123D01*
X031322Y032694D02*
X031422Y032594D01*
X031622D01*
X031722Y032694D01*
Y033094D01*
X031622Y033194D01*
X031422D01*
X031322Y033094D01*
Y032994D01*
X031422Y032894D01*
X031722D01*
X048600Y013150D02*
Y013550D01*
X048800D01*
X048867Y013483D01*
Y013350D01*
X048800Y013283D01*
X048600D01*
X048733D02*
X048867Y013150D01*
X049266Y013550D02*
X049000D01*
Y013350D01*
X049133Y013417D01*
X049200D01*
X049266Y013350D01*
Y013217D01*
X049200Y013150D01*
X049067D01*
X049000Y013217D01*
X049400Y013483D02*
X049466Y013550D01*
X049600D01*
X049666Y013483D01*
Y013217D01*
X049600Y013150D01*
X049466D01*
X049400Y013217D01*
Y013483D01*
X048600Y010500D02*
Y010900D01*
X048800D01*
X048867Y010833D01*
Y010700D01*
X048800Y010633D01*
X048600D01*
X048733D02*
X048867Y010500D01*
X049266Y010900D02*
X049000D01*
Y010700D01*
X049133Y010767D01*
X049200D01*
X049266Y010700D01*
Y010567D01*
X049200Y010500D01*
X049067D01*
X049000Y010567D01*
X049400Y010500D02*
X049533D01*
X049466D01*
Y010900D01*
X049400Y010833D01*
X046400Y017800D02*
Y018400D01*
X046700D01*
X046800Y018300D01*
Y018100D01*
X046700Y018000D01*
X046400D01*
X046600D02*
X046800Y017800D01*
X047400Y018400D02*
X047000D01*
Y018100D01*
X047200Y018200D01*
X047300D01*
X047400Y018100D01*
Y017900D01*
X047300Y017800D01*
X047100D01*
X047000Y017900D01*
X047999Y017800D02*
X047600D01*
X047999Y018200D01*
Y018300D01*
X047900Y018400D01*
X047700D01*
X047600Y018300D01*
X044100Y013350D02*
Y013750D01*
X044300D01*
X044367Y013683D01*
Y013550D01*
X044300Y013483D01*
X044100D01*
X044233D02*
X044367Y013350D01*
X044766Y013750D02*
X044500D01*
Y013550D01*
X044633Y013617D01*
X044700D01*
X044766Y013550D01*
Y013417D01*
X044700Y013350D01*
X044567D01*
X044500Y013417D01*
X044900Y013683D02*
X044966Y013750D01*
X045100D01*
X045166Y013683D01*
Y013617D01*
X045100Y013550D01*
X045033D01*
X045100D01*
X045166Y013483D01*
Y013417D01*
X045100Y013350D01*
X044966D01*
X044900Y013417D01*
X046900Y013250D02*
Y013650D01*
X047100D01*
X047167Y013583D01*
Y013450D01*
X047100Y013383D01*
X046900D01*
X047033D02*
X047167Y013250D01*
X047566Y013650D02*
X047300D01*
Y013450D01*
X047433Y013517D01*
X047500D01*
X047566Y013450D01*
Y013317D01*
X047500Y013250D01*
X047367D01*
X047300Y013317D01*
X047966Y013650D02*
X047833Y013583D01*
X047700Y013450D01*
Y013317D01*
X047766Y013250D01*
X047900D01*
X047966Y013317D01*
Y013383D01*
X047900Y013450D01*
X047700D01*
X014700Y027850D02*
X015200D01*
X015300Y027950D01*
Y028150D01*
X015200Y028250D01*
X014700D01*
X015300Y028450D02*
Y028650D01*
Y028550D01*
X014700D01*
X014800Y028450D01*
X031440Y022650D02*
Y022150D01*
X031540Y022050D01*
X031740D01*
X031840Y022150D01*
Y022650D01*
X032440Y022050D02*
X032040D01*
X032440Y022450D01*
Y022550D01*
X032340Y022650D01*
X032140D01*
X032040Y022550D01*
X015800Y021100D02*
X016300D01*
X016400Y021200D01*
Y021400D01*
X016300Y021500D01*
X015800D01*
X015900Y021700D02*
X015800Y021800D01*
Y022000D01*
X015900Y022100D01*
X016000D01*
X016100Y022000D01*
Y021900D01*
Y022000D01*
X016200Y022100D01*
X016300D01*
X016400Y022000D01*
Y021800D01*
X016300Y021700D01*
X023755Y014825D02*
Y014325D01*
X023855Y014225D01*
X024055D01*
X024155Y014325D01*
Y014825D01*
X024655Y014225D02*
Y014825D01*
X024355Y014525D01*
X024755D01*
X068200Y030600D02*
X067700D01*
X067600Y030500D01*
Y030300D01*
X067700Y030200D01*
X068200D01*
Y029600D02*
Y030000D01*
X067900D01*
X068000Y029800D01*
Y029700D01*
X067900Y029600D01*
X067700D01*
X067600Y029700D01*
Y029900D01*
X067700Y030000D01*
X046000Y017600D02*
Y017100D01*
X046100Y017000D01*
X046300D01*
X046400Y017100D01*
Y017600D01*
X047000D02*
X046800Y017500D01*
X046600Y017300D01*
Y017100D01*
X046700Y017000D01*
X046900D01*
X047000Y017100D01*
Y017200D01*
X046900Y017300D01*
X046600D01*
X043060Y019240D02*
Y018740D01*
X043160Y018640D01*
X043360D01*
X043460Y018740D01*
Y019240D01*
X043660D02*
X044060D01*
Y019140D01*
X043660Y018740D01*
Y018640D01*
X051400Y016700D02*
X051200D01*
X051300D01*
Y016200D01*
X051200Y016100D01*
X051100D01*
X051000Y016200D01*
X051600Y016100D02*
Y016700D01*
X051900D01*
X052000Y016600D01*
Y016400D01*
X051900Y016300D01*
X051600D01*
X052200Y016600D02*
X052300Y016700D01*
X052500D01*
X052599Y016600D01*
Y016500D01*
X052500Y016400D01*
X052400D01*
X052500D01*
X052599Y016300D01*
Y016200D01*
X052500Y016100D01*
X052300D01*
X052200Y016200D01*
X065367Y025617D02*
X065300Y025550D01*
Y025417D01*
X065367Y025350D01*
X065633D01*
X065700Y025417D01*
Y025550D01*
X065633Y025617D01*
X065700Y026016D02*
Y025750D01*
X065433Y026016D01*
X065367D01*
X065300Y025950D01*
Y025817D01*
X065367Y025750D01*
X065700Y026416D02*
Y026150D01*
X065433Y026416D01*
X065367D01*
X065300Y026350D01*
Y026216D01*
X065367Y026150D01*
X067117Y025617D02*
X067050Y025550D01*
Y025417D01*
X067117Y025350D01*
X067383D01*
X067450Y025417D01*
Y025550D01*
X067383Y025617D01*
X067450Y025950D02*
X067050D01*
X067250Y025750D01*
Y026016D01*
X067117Y026150D02*
X067050Y026216D01*
Y026350D01*
X067117Y026416D01*
X067183D01*
X067250Y026350D01*
Y026283D01*
Y026350D01*
X067317Y026416D01*
X067383D01*
X067450Y026350D01*
Y026216D01*
X067383Y026150D01*
X057600Y015200D02*
Y014600D01*
X058000D01*
X058200Y014900D02*
X058600D01*
X058850Y010800D02*
Y010200D01*
X059250D01*
X059450Y010500D02*
X059850D01*
X059650Y010700D02*
Y010300D01*
X050600Y032600D02*
Y032000D01*
X050900D01*
X051000Y032100D01*
Y032200D01*
X050900Y032300D01*
X050600D01*
X050900D01*
X051000Y032400D01*
Y032500D01*
X050900Y032600D01*
X050600D01*
X051200Y032300D02*
X051600D01*
X056750Y033350D02*
Y032750D01*
X057050D01*
X057150Y032850D01*
Y032950D01*
X057050Y033050D01*
X056750D01*
X057050D01*
X057150Y033150D01*
Y033250D01*
X057050Y033350D01*
X056750D01*
X057350Y033050D02*
X057750D01*
X057550Y033250D02*
Y032850D01*
D67*
X059376Y011839D02*
G03*
X059376Y011839I-000049J000000D01*
G01*
X064276D02*
G03*
X064276Y011839I-000049J000000D01*
G01*
X029049Y010802D02*
G03*
X029049Y010802I-000049J000000D01*
G01*
X036692Y017898D02*
G03*
X036692Y017898I-000049J000000D01*
G01*
X024398Y013719D02*
G03*
X024398Y013719I-000049J000000D01*
G01*
X015967Y026571D02*
G03*
X015967Y026571I-000049J000000D01*
G01*
X067354Y030265D02*
G03*
X067354Y030265I-000049J000000D01*
G01*
X046701Y016502D02*
G03*
X046701Y016502I-000049J000000D01*
G01*
X061710Y018177D02*
G03*
X061710Y018177I-000049J000000D01*
G01*
X056615Y025264D02*
G03*
X056615Y025264I-000049J000000D01*
G01*
D68*
X042995Y016780D02*
G03*
X042995Y017020I000000J000120D01*
G01*
X045005Y016204D02*
Y017596D01*
X042995Y016204D02*
Y017596D01*
D69*
X052800Y012800D02*
G03*
X051810Y011900I-000045J-000945D01*
G01*
X053784D02*
G03*
X052800Y012800I-000942J-000042D01*
G01*
X038222Y028444D02*
X038458D01*
X038222Y028125D02*
Y028444D01*
X039093D02*
X039333D01*
Y028125D02*
Y028444D01*
X034560Y028111D02*
Y028430D01*
X034320D02*
X034560D01*
X033449Y028111D02*
Y028430D01*
X033685D01*
X028749D02*
X028985D01*
X028749Y028111D02*
Y028430D01*
X029620D02*
X029860D01*
Y028111D02*
Y028430D01*
X025110Y028111D02*
Y028430D01*
X024870D02*
X025110D01*
X023999Y028111D02*
Y028430D01*
X024235D01*
X038199Y024380D02*
X038435D01*
X038199Y024061D02*
Y024380D01*
X039070D02*
X039310D01*
Y024061D02*
Y024380D01*
X034560Y024061D02*
Y024380D01*
X034320D02*
X034560D01*
X033449Y024061D02*
Y024380D01*
X033685D01*
X022952Y010530D02*
Y013530D01*
X016650Y010530D02*
X022950D01*
X016650D02*
Y013530D01*
X022696D02*
X022952D01*
X016650D02*
X016910D01*
X022696Y012900D02*
Y013530D01*
X016910Y012900D02*
Y013530D01*
X051020Y015760D02*
X054572D01*
X051020Y010522D02*
X051810D01*
X053784D01*
X054572D01*
X051810D02*
Y011900D01*
X053784Y010522D02*
Y011900D01*
X051020Y010522D02*
Y011113D01*
Y012690D02*
Y013520D01*
Y015130D02*
Y015760D01*
X054572Y015090D02*
Y015760D01*
Y012690D02*
Y013520D01*
Y010522D02*
Y011113D01*
X015420Y017549D02*
Y017785D01*
Y017549D02*
X015739D01*
X015420Y018420D02*
Y018660D01*
X015739D01*
X025110Y024061D02*
Y024380D01*
X024870D02*
X025110D01*
X023999Y024061D02*
Y024380D01*
X024235D01*
X019299D02*
X019535D01*
X019299Y024061D02*
Y024380D01*
X020170D02*
X020410D01*
Y024061D02*
Y024380D01*
X028699D02*
X028935D01*
X028699Y024061D02*
Y024380D01*
X029570D02*
X029810D01*
Y024061D02*
Y024380D01*
X033522Y031694D02*
X033758D01*
X033522Y031375D02*
Y031694D01*
X034393D02*
X034633D01*
Y031375D02*
Y031694D01*
X039333Y031375D02*
Y031694D01*
X039093D02*
X039333D01*
X038222Y031375D02*
Y031694D01*
X038458D01*
X029933Y031375D02*
Y031694D01*
X029693D02*
X029933D01*
X028822Y031375D02*
Y031694D01*
X029058D01*
X017250Y018200D02*
Y019200D01*
X016750D02*
X017250D01*
X016750D02*
Y022200D01*
X030750D01*
Y015200D02*
Y022200D01*
X016750Y015200D02*
X030750D01*
X016750D02*
Y018200D01*
X017250D01*
X017982Y030670D02*
Y033670D01*
X028218D01*
Y030670D02*
Y033670D01*
X017982Y030670D02*
X018238D01*
X027958D02*
X028218D01*
X018238D02*
Y031300D01*
X027958Y030670D02*
Y031300D01*
D70*
X016183Y027496D02*
G03*
X016183Y027496I-000118J000000D01*
G01*
D71*
X016450Y030300D02*
Y032300D01*
Y030300D02*
X017450D01*
Y032300D01*
X016450D02*
X017450D01*
X030785Y030894D02*
X032360D01*
X030785Y032134D02*
X032360D01*
X035485Y030894D02*
X037060D01*
X035485Y032134D02*
X037060D01*
X015100Y030300D02*
Y032300D01*
Y030300D02*
X016100D01*
Y032300D01*
X015100D02*
X016100D01*
X040185Y030894D02*
X041760D01*
X040185Y032134D02*
X041760D01*
X040185Y027644D02*
X041760D01*
X040185Y028884D02*
X041760D01*
X035413Y027630D02*
X036987D01*
X035413Y028870D02*
X036987D01*
X030713Y027630D02*
X032287D01*
X030713Y028870D02*
X032287D01*
X025963Y027630D02*
X027537D01*
X025963Y028870D02*
X027537D01*
X040163Y023580D02*
X041737D01*
X040163Y024820D02*
X041737D01*
X035413Y023580D02*
X036987D01*
X035413Y024820D02*
X036987D01*
X063317Y012863D02*
Y013965D01*
X059183Y012863D02*
X063317D01*
X059183D02*
Y013965D01*
X068217Y012863D02*
Y013965D01*
X064083Y012863D02*
X068217D01*
X064083D02*
Y013965D01*
X016000Y010700D02*
Y012700D01*
X015000D02*
X016000D01*
X015000Y010700D02*
Y012700D01*
Y010700D02*
X016000D01*
X015000Y014100D02*
Y016100D01*
Y014100D02*
X016000D01*
Y016100D01*
X015000D02*
X016000D01*
X028488Y011964D02*
Y012489D01*
Y011964D02*
X029512D01*
Y012489D01*
X035363Y017603D02*
Y021697D01*
X034694D02*
X035363D01*
X034694Y017603D02*
X035363D01*
X066180Y031757D02*
X066220D01*
X066180Y031443D02*
X066220D01*
X024959Y011081D02*
Y013719D01*
X026141Y011081D02*
Y013719D01*
X024959D02*
X026141D01*
X024959Y011081D02*
X026141D01*
X045780Y013688D02*
X045820D01*
X045780Y013412D02*
X045820D01*
X047962Y012680D02*
Y012720D01*
X048238Y012680D02*
Y012720D01*
X046838Y012680D02*
Y012720D01*
X046562Y012680D02*
Y012720D01*
X047538Y012680D02*
Y012720D01*
X047262Y012680D02*
Y012720D01*
X048962Y011456D02*
Y011495D01*
X049238Y011456D02*
Y011495D01*
X048962Y012556D02*
Y012595D01*
X049238Y012556D02*
Y012595D01*
X015671Y027103D02*
X020829D01*
X015671Y028697D02*
X020829D01*
X015671Y027103D02*
Y028697D01*
X020829Y027103D02*
Y028697D01*
X021263Y023380D02*
X022837D01*
X021263Y024620D02*
X022837D01*
X025963Y023480D02*
X027537D01*
X025963Y024720D02*
X027537D01*
X030663Y023480D02*
X032237D01*
X030663Y024720D02*
X032237D01*
X065216Y028985D02*
Y029615D01*
X067184Y028985D02*
Y029615D01*
X065216Y028985D02*
X067184D01*
X065216Y029615D02*
X067184D01*
X048769Y017228D02*
X049832D01*
X048769Y018172D02*
X049832D01*
X046534Y016778D02*
X048266D01*
X046494Y014022D02*
X048266D01*
X059535Y022167D02*
X060637D01*
Y018033D02*
Y022167D01*
X059535Y018033D02*
X060637D01*
X057285Y025219D02*
X057747D01*
X057285Y022581D02*
Y025219D01*
Y022581D02*
X057747D01*
X065912Y025880D02*
Y025920D01*
X066188Y025880D02*
Y025920D01*
X066512Y025880D02*
Y025920D01*
X066788Y025880D02*
Y025920D01*
D72*
X043111Y016191D02*
X043444Y016525D01*
Y016191D02*
X043111Y016525D01*
X043278Y016191D02*
Y016525D01*
X043444Y016358D02*
X043111D01*
D73*
X029000Y012117D02*
D03*
M02*
